<svg xmlns="http://www.w3.org/2000/svg" xmlns:xlink="http://www.w3.org/1999/xlink" width="1200" zoomAndPan="magnify" viewBox="0 0 900 749.999995" height="1000" preserveAspectRatio="xMidYMid meet" version="1.0"><defs><g/><clipPath id="083b96a25c"><path d="M 176.46875 101.46875 L 723.53125 101.46875 L 723.53125 648.53125 L 176.46875 648.53125 Z M 176.46875 101.46875 " clip-rule="nonzero"/></clipPath><clipPath id="f89ee65e58"><path d="M 450 101.46875 C 298.933594 101.46875 176.46875 223.933594 176.46875 375 C 176.46875 526.066406 298.933594 648.53125 450 648.53125 C 601.066406 648.53125 723.53125 526.066406 723.53125 375 C 723.53125 223.933594 601.066406 101.46875 450 101.46875 Z M 450 101.46875 " clip-rule="nonzero"/></clipPath><clipPath id="e020bd7ae1"><path d="M 0.46875 0.46875 L 547.53125 0.46875 L 547.53125 547.53125 L 0.46875 547.53125 Z M 0.46875 0.46875 " clip-rule="nonzero"/></clipPath><clipPath id="9a5aca239d"><path d="M 274 0.46875 C 122.933594 0.46875 0.46875 122.933594 0.46875 274 C 0.46875 425.066406 122.933594 547.53125 274 547.53125 C 425.066406 547.53125 547.53125 425.066406 547.53125 274 C 547.53125 122.933594 425.066406 0.46875 274 0.46875 Z M 274 0.46875 " clip-rule="nonzero"/></clipPath><radialGradient gradientTransform="matrix(1, 0, 0, 1, 0.467656, 0.467669)" gradientUnits="userSpaceOnUse" r="386.832385" cx="273.532311" id="b2da80c9b1" cy="273.532311" fx="273.532311" fy="273.532311"><stop stop-opacity="1" stop-color="rgb(13.441467%, 29.046631%, 65.919495%)" offset="0"/><stop stop-opacity="1" stop-color="rgb(13.667297%, 29.103088%, 65.99884%)" offset="0.00390625"/><stop stop-opacity="1" stop-color="rgb(13.891602%, 29.159546%, 66.078186%)" offset="0.0078125"/><stop stop-opacity="1" stop-color="rgb(14.117432%, 29.217529%, 66.157532%)" offset="0.0117188"/><stop stop-opacity="1" stop-color="rgb(14.341736%, 29.273987%, 66.236877%)" offset="0.015625"/><stop stop-opacity="1" stop-color="rgb(14.567566%, 29.330444%, 66.317749%)" offset="0.0195312"/><stop stop-opacity="1" stop-color="rgb(14.793396%, 29.386902%, 66.397095%)" offset="0.0234375"/><stop stop-opacity="1" stop-color="rgb(15.0177%, 29.443359%, 66.47644%)" offset="0.0273438"/><stop stop-opacity="1" stop-color="rgb(15.24353%, 29.499817%, 66.555786%)" offset="0.03125"/><stop stop-opacity="1" stop-color="rgb(15.467834%, 29.5578%, 66.635132%)" offset="0.0351562"/><stop stop-opacity="1" stop-color="rgb(15.693665%, 29.614258%, 66.716003%)" offset="0.0390625"/><stop stop-opacity="1" stop-color="rgb(15.917969%, 29.670715%, 66.795349%)" offset="0.0429688"/><stop stop-opacity="1" stop-color="rgb(16.143799%, 29.727173%, 66.874695%)" offset="0.046875"/><stop stop-opacity="1" stop-color="rgb(16.369629%, 29.78363%, 66.954041%)" offset="0.0507812"/><stop stop-opacity="1" stop-color="rgb(16.593933%, 29.840088%, 67.033386%)" offset="0.0546875"/><stop stop-opacity="1" stop-color="rgb(16.819763%, 29.896545%, 67.114258%)" offset="0.0585938"/><stop stop-opacity="1" stop-color="rgb(17.044067%, 29.954529%, 67.193604%)" offset="0.0625"/><stop stop-opacity="1" stop-color="rgb(17.269897%, 30.010986%, 67.272949%)" offset="0.0664062"/><stop stop-opacity="1" stop-color="rgb(17.495728%, 30.067444%, 67.352295%)" offset="0.0703125"/><stop stop-opacity="1" stop-color="rgb(17.720032%, 30.123901%, 67.431641%)" offset="0.0742188"/><stop stop-opacity="1" stop-color="rgb(17.945862%, 30.180359%, 67.512512%)" offset="0.078125"/><stop stop-opacity="1" stop-color="rgb(18.170166%, 30.236816%, 67.591858%)" offset="0.0820312"/><stop stop-opacity="1" stop-color="rgb(18.395996%, 30.293274%, 67.671204%)" offset="0.0859375"/><stop stop-opacity="1" stop-color="rgb(18.6203%, 30.351257%, 67.750549%)" offset="0.0898438"/><stop stop-opacity="1" stop-color="rgb(18.84613%, 30.407715%, 67.829895%)" offset="0.09375"/><stop stop-opacity="1" stop-color="rgb(19.07196%, 30.464172%, 67.910767%)" offset="0.0976562"/><stop stop-opacity="1" stop-color="rgb(19.296265%, 30.52063%, 67.990112%)" offset="0.101562"/><stop stop-opacity="1" stop-color="rgb(19.522095%, 30.577087%, 68.069458%)" offset="0.105469"/><stop stop-opacity="1" stop-color="rgb(19.746399%, 30.633545%, 68.148804%)" offset="0.109375"/><stop stop-opacity="1" stop-color="rgb(19.972229%, 30.690002%, 68.228149%)" offset="0.113281"/><stop stop-opacity="1" stop-color="rgb(20.198059%, 30.747986%, 68.309021%)" offset="0.117188"/><stop stop-opacity="1" stop-color="rgb(20.422363%, 30.804443%, 68.388367%)" offset="0.121094"/><stop stop-opacity="1" stop-color="rgb(20.648193%, 30.860901%, 68.467712%)" offset="0.125"/><stop stop-opacity="1" stop-color="rgb(20.872498%, 30.917358%, 68.547058%)" offset="0.128906"/><stop stop-opacity="1" stop-color="rgb(21.098328%, 30.973816%, 68.626404%)" offset="0.132812"/><stop stop-opacity="1" stop-color="rgb(21.322632%, 31.030273%, 68.707275%)" offset="0.136719"/><stop stop-opacity="1" stop-color="rgb(21.548462%, 31.086731%, 68.786621%)" offset="0.140625"/><stop stop-opacity="1" stop-color="rgb(21.774292%, 31.144714%, 68.865967%)" offset="0.144531"/><stop stop-opacity="1" stop-color="rgb(21.998596%, 31.201172%, 68.945312%)" offset="0.148438"/><stop stop-opacity="1" stop-color="rgb(22.224426%, 31.257629%, 69.024658%)" offset="0.152344"/><stop stop-opacity="1" stop-color="rgb(22.44873%, 31.314087%, 69.10553%)" offset="0.15625"/><stop stop-opacity="1" stop-color="rgb(22.674561%, 31.370544%, 69.184875%)" offset="0.160156"/><stop stop-opacity="1" stop-color="rgb(22.900391%, 31.427002%, 69.264221%)" offset="0.164062"/><stop stop-opacity="1" stop-color="rgb(23.124695%, 31.483459%, 69.343567%)" offset="0.167969"/><stop stop-opacity="1" stop-color="rgb(23.350525%, 31.541443%, 69.422913%)" offset="0.171875"/><stop stop-opacity="1" stop-color="rgb(23.574829%, 31.5979%, 69.503784%)" offset="0.175781"/><stop stop-opacity="1" stop-color="rgb(23.800659%, 31.654358%, 69.58313%)" offset="0.179688"/><stop stop-opacity="1" stop-color="rgb(24.024963%, 31.710815%, 69.662476%)" offset="0.183594"/><stop stop-opacity="1" stop-color="rgb(24.250793%, 31.767273%, 69.741821%)" offset="0.1875"/><stop stop-opacity="1" stop-color="rgb(24.476624%, 31.82373%, 69.821167%)" offset="0.191406"/><stop stop-opacity="1" stop-color="rgb(24.700928%, 31.880188%, 69.902039%)" offset="0.195312"/><stop stop-opacity="1" stop-color="rgb(24.926758%, 31.938171%, 69.981384%)" offset="0.199219"/><stop stop-opacity="1" stop-color="rgb(25.151062%, 31.994629%, 70.06073%)" offset="0.203125"/><stop stop-opacity="1" stop-color="rgb(25.376892%, 32.051086%, 70.140076%)" offset="0.207031"/><stop stop-opacity="1" stop-color="rgb(25.602722%, 32.107544%, 70.219421%)" offset="0.210938"/><stop stop-opacity="1" stop-color="rgb(25.827026%, 32.164001%, 70.300293%)" offset="0.214844"/><stop stop-opacity="1" stop-color="rgb(26.052856%, 32.220459%, 70.379639%)" offset="0.21875"/><stop stop-opacity="1" stop-color="rgb(26.277161%, 32.276917%, 70.458984%)" offset="0.222656"/><stop stop-opacity="1" stop-color="rgb(26.502991%, 32.3349%, 70.53833%)" offset="0.226562"/><stop stop-opacity="1" stop-color="rgb(26.727295%, 32.391357%, 70.617676%)" offset="0.230469"/><stop stop-opacity="1" stop-color="rgb(26.953125%, 32.447815%, 70.698547%)" offset="0.234375"/><stop stop-opacity="1" stop-color="rgb(27.178955%, 32.504272%, 70.777893%)" offset="0.238281"/><stop stop-opacity="1" stop-color="rgb(27.403259%, 32.56073%, 70.857239%)" offset="0.242188"/><stop stop-opacity="1" stop-color="rgb(27.629089%, 32.617188%, 70.936584%)" offset="0.246094"/><stop stop-opacity="1" stop-color="rgb(27.853394%, 32.675171%, 71.01593%)" offset="0.25"/><stop stop-opacity="1" stop-color="rgb(28.079224%, 32.731628%, 71.096802%)" offset="0.253906"/><stop stop-opacity="1" stop-color="rgb(28.305054%, 32.788086%, 71.176147%)" offset="0.257812"/><stop stop-opacity="1" stop-color="rgb(28.529358%, 32.844543%, 71.255493%)" offset="0.261719"/><stop stop-opacity="1" stop-color="rgb(28.755188%, 32.901001%, 71.334839%)" offset="0.265625"/><stop stop-opacity="1" stop-color="rgb(28.979492%, 32.957458%, 71.414185%)" offset="0.269531"/><stop stop-opacity="1" stop-color="rgb(29.205322%, 33.013916%, 71.495056%)" offset="0.273438"/><stop stop-opacity="1" stop-color="rgb(29.429626%, 33.071899%, 71.574402%)" offset="0.277344"/><stop stop-opacity="1" stop-color="rgb(29.655457%, 33.128357%, 71.653748%)" offset="0.28125"/><stop stop-opacity="1" stop-color="rgb(29.881287%, 33.184814%, 71.733093%)" offset="0.285156"/><stop stop-opacity="1" stop-color="rgb(30.105591%, 33.241272%, 71.812439%)" offset="0.289062"/><stop stop-opacity="1" stop-color="rgb(30.331421%, 33.297729%, 71.891785%)" offset="0.292969"/><stop stop-opacity="1" stop-color="rgb(30.555725%, 33.354187%, 71.972656%)" offset="0.296875"/><stop stop-opacity="1" stop-color="rgb(30.781555%, 33.410645%, 72.052002%)" offset="0.300781"/><stop stop-opacity="1" stop-color="rgb(31.007385%, 33.468628%, 72.131348%)" offset="0.304688"/><stop stop-opacity="1" stop-color="rgb(31.231689%, 33.525085%, 72.210693%)" offset="0.308594"/><stop stop-opacity="1" stop-color="rgb(31.45752%, 33.581543%, 72.290039%)" offset="0.3125"/><stop stop-opacity="1" stop-color="rgb(31.681824%, 33.638%, 72.370911%)" offset="0.316406"/><stop stop-opacity="1" stop-color="rgb(31.907654%, 33.694458%, 72.450256%)" offset="0.320312"/><stop stop-opacity="1" stop-color="rgb(32.133484%, 33.750916%, 72.529602%)" offset="0.324219"/><stop stop-opacity="1" stop-color="rgb(32.357788%, 33.807373%, 72.608948%)" offset="0.328125"/><stop stop-opacity="1" stop-color="rgb(32.583618%, 33.865356%, 72.688293%)" offset="0.332031"/><stop stop-opacity="1" stop-color="rgb(32.807922%, 33.921814%, 72.769165%)" offset="0.335938"/><stop stop-opacity="1" stop-color="rgb(33.033752%, 33.978271%, 72.848511%)" offset="0.339844"/><stop stop-opacity="1" stop-color="rgb(33.258057%, 34.034729%, 72.927856%)" offset="0.34375"/><stop stop-opacity="1" stop-color="rgb(33.483887%, 34.091187%, 73.007202%)" offset="0.347656"/><stop stop-opacity="1" stop-color="rgb(33.709717%, 34.147644%, 73.086548%)" offset="0.351562"/><stop stop-opacity="1" stop-color="rgb(33.934021%, 34.204102%, 73.167419%)" offset="0.355469"/><stop stop-opacity="1" stop-color="rgb(34.159851%, 34.262085%, 73.246765%)" offset="0.359375"/><stop stop-opacity="1" stop-color="rgb(34.384155%, 34.318542%, 73.326111%)" offset="0.363281"/><stop stop-opacity="1" stop-color="rgb(34.609985%, 34.375%, 73.405457%)" offset="0.367188"/><stop stop-opacity="1" stop-color="rgb(34.835815%, 34.431458%, 73.484802%)" offset="0.371094"/><stop stop-opacity="1" stop-color="rgb(35.06012%, 34.487915%, 73.565674%)" offset="0.375"/><stop stop-opacity="1" stop-color="rgb(35.28595%, 34.544373%, 73.64502%)" offset="0.378906"/><stop stop-opacity="1" stop-color="rgb(35.510254%, 34.60083%, 73.724365%)" offset="0.382812"/><stop stop-opacity="1" stop-color="rgb(35.736084%, 34.658813%, 73.803711%)" offset="0.386719"/><stop stop-opacity="1" stop-color="rgb(35.960388%, 34.715271%, 73.883057%)" offset="0.390625"/><stop stop-opacity="1" stop-color="rgb(36.186218%, 34.771729%, 73.963928%)" offset="0.394531"/><stop stop-opacity="1" stop-color="rgb(36.412048%, 34.828186%, 74.043274%)" offset="0.398438"/><stop stop-opacity="1" stop-color="rgb(36.636353%, 34.884644%, 74.12262%)" offset="0.402344"/><stop stop-opacity="1" stop-color="rgb(36.862183%, 34.941101%, 74.201965%)" offset="0.40625"/><stop stop-opacity="1" stop-color="rgb(37.086487%, 34.997559%, 74.281311%)" offset="0.410156"/><stop stop-opacity="1" stop-color="rgb(37.312317%, 35.055542%, 74.362183%)" offset="0.414062"/><stop stop-opacity="1" stop-color="rgb(37.538147%, 35.112%, 74.441528%)" offset="0.417969"/><stop stop-opacity="1" stop-color="rgb(37.762451%, 35.168457%, 74.520874%)" offset="0.421875"/><stop stop-opacity="1" stop-color="rgb(37.988281%, 35.224915%, 74.60022%)" offset="0.425781"/><stop stop-opacity="1" stop-color="rgb(38.212585%, 35.281372%, 74.679565%)" offset="0.429688"/><stop stop-opacity="1" stop-color="rgb(38.438416%, 35.33783%, 74.760437%)" offset="0.433594"/><stop stop-opacity="1" stop-color="rgb(38.66272%, 35.395813%, 74.839783%)" offset="0.4375"/><stop stop-opacity="1" stop-color="rgb(38.88855%, 35.452271%, 74.919128%)" offset="0.441406"/><stop stop-opacity="1" stop-color="rgb(39.11438%, 35.508728%, 74.998474%)" offset="0.445312"/><stop stop-opacity="1" stop-color="rgb(39.338684%, 35.565186%, 75.07782%)" offset="0.449219"/><stop stop-opacity="1" stop-color="rgb(39.564514%, 35.621643%, 75.158691%)" offset="0.453125"/><stop stop-opacity="1" stop-color="rgb(39.788818%, 35.678101%, 75.238037%)" offset="0.457031"/><stop stop-opacity="1" stop-color="rgb(40.014648%, 35.734558%, 75.317383%)" offset="0.460938"/><stop stop-opacity="1" stop-color="rgb(40.240479%, 35.792542%, 75.396729%)" offset="0.464844"/><stop stop-opacity="1" stop-color="rgb(40.464783%, 35.848999%, 75.476074%)" offset="0.46875"/><stop stop-opacity="1" stop-color="rgb(40.690613%, 35.905457%, 75.556946%)" offset="0.472656"/><stop stop-opacity="1" stop-color="rgb(40.914917%, 35.961914%, 75.636292%)" offset="0.476562"/><stop stop-opacity="1" stop-color="rgb(41.140747%, 36.018372%, 75.715637%)" offset="0.480469"/><stop stop-opacity="1" stop-color="rgb(41.365051%, 36.074829%, 75.794983%)" offset="0.484375"/><stop stop-opacity="1" stop-color="rgb(41.590881%, 36.131287%, 75.874329%)" offset="0.488281"/><stop stop-opacity="1" stop-color="rgb(41.816711%, 36.18927%, 75.9552%)" offset="0.492188"/><stop stop-opacity="1" stop-color="rgb(42.041016%, 36.245728%, 76.034546%)" offset="0.496094"/><stop stop-opacity="1" stop-color="rgb(42.266846%, 36.302185%, 76.113892%)" offset="0.5"/><stop stop-opacity="1" stop-color="rgb(42.49115%, 36.358643%, 76.193237%)" offset="0.503906"/><stop stop-opacity="1" stop-color="rgb(42.71698%, 36.4151%, 76.272583%)" offset="0.507812"/><stop stop-opacity="1" stop-color="rgb(42.94281%, 36.471558%, 76.353455%)" offset="0.511719"/><stop stop-opacity="1" stop-color="rgb(43.167114%, 36.528015%, 76.4328%)" offset="0.515625"/><stop stop-opacity="1" stop-color="rgb(43.392944%, 36.585999%, 76.512146%)" offset="0.519531"/><stop stop-opacity="1" stop-color="rgb(43.617249%, 36.642456%, 76.591492%)" offset="0.523438"/><stop stop-opacity="1" stop-color="rgb(43.843079%, 36.698914%, 76.670837%)" offset="0.527344"/><stop stop-opacity="1" stop-color="rgb(44.067383%, 36.755371%, 76.751709%)" offset="0.53125"/><stop stop-opacity="1" stop-color="rgb(44.293213%, 36.811829%, 76.831055%)" offset="0.535156"/><stop stop-opacity="1" stop-color="rgb(44.519043%, 36.868286%, 76.9104%)" offset="0.539062"/><stop stop-opacity="1" stop-color="rgb(44.743347%, 36.924744%, 76.989746%)" offset="0.542969"/><stop stop-opacity="1" stop-color="rgb(44.969177%, 36.982727%, 77.069092%)" offset="0.546875"/><stop stop-opacity="1" stop-color="rgb(45.193481%, 37.039185%, 77.149963%)" offset="0.550781"/><stop stop-opacity="1" stop-color="rgb(45.419312%, 37.095642%, 77.229309%)" offset="0.554688"/><stop stop-opacity="1" stop-color="rgb(45.645142%, 37.1521%, 77.308655%)" offset="0.558594"/><stop stop-opacity="1" stop-color="rgb(45.869446%, 37.208557%, 77.388%)" offset="0.5625"/><stop stop-opacity="1" stop-color="rgb(46.095276%, 37.265015%, 77.467346%)" offset="0.566406"/><stop stop-opacity="1" stop-color="rgb(46.31958%, 37.321472%, 77.548218%)" offset="0.570312"/><stop stop-opacity="1" stop-color="rgb(46.54541%, 37.379456%, 77.627563%)" offset="0.574219"/><stop stop-opacity="1" stop-color="rgb(46.769714%, 37.435913%, 77.706909%)" offset="0.578125"/><stop stop-opacity="1" stop-color="rgb(46.995544%, 37.492371%, 77.786255%)" offset="0.582031"/><stop stop-opacity="1" stop-color="rgb(47.221375%, 37.548828%, 77.865601%)" offset="0.585938"/><stop stop-opacity="1" stop-color="rgb(47.445679%, 37.605286%, 77.946472%)" offset="0.589844"/><stop stop-opacity="1" stop-color="rgb(47.671509%, 37.661743%, 78.025818%)" offset="0.59375"/><stop stop-opacity="1" stop-color="rgb(47.895813%, 37.718201%, 78.105164%)" offset="0.597656"/><stop stop-opacity="1" stop-color="rgb(48.121643%, 37.776184%, 78.184509%)" offset="0.601562"/><stop stop-opacity="1" stop-color="rgb(48.347473%, 37.832642%, 78.263855%)" offset="0.605469"/><stop stop-opacity="1" stop-color="rgb(48.571777%, 37.889099%, 78.344727%)" offset="0.609375"/><stop stop-opacity="1" stop-color="rgb(48.797607%, 37.945557%, 78.424072%)" offset="0.613281"/><stop stop-opacity="1" stop-color="rgb(49.021912%, 38.002014%, 78.503418%)" offset="0.617188"/><stop stop-opacity="1" stop-color="rgb(49.247742%, 38.058472%, 78.582764%)" offset="0.621094"/><stop stop-opacity="1" stop-color="rgb(49.472046%, 38.114929%, 78.662109%)" offset="0.625"/><stop stop-opacity="1" stop-color="rgb(49.697876%, 38.172913%, 78.742981%)" offset="0.628906"/><stop stop-opacity="1" stop-color="rgb(49.923706%, 38.22937%, 78.822327%)" offset="0.632812"/><stop stop-opacity="1" stop-color="rgb(50.14801%, 38.285828%, 78.901672%)" offset="0.636719"/><stop stop-opacity="1" stop-color="rgb(50.37384%, 38.342285%, 78.981018%)" offset="0.640625"/><stop stop-opacity="1" stop-color="rgb(50.598145%, 38.398743%, 79.060364%)" offset="0.644531"/><stop stop-opacity="1" stop-color="rgb(50.823975%, 38.4552%, 79.141235%)" offset="0.648438"/><stop stop-opacity="1" stop-color="rgb(51.049805%, 38.513184%, 79.220581%)" offset="0.652344"/><stop stop-opacity="1" stop-color="rgb(51.274109%, 38.569641%, 79.299927%)" offset="0.65625"/><stop stop-opacity="1" stop-color="rgb(51.499939%, 38.626099%, 79.379272%)" offset="0.660156"/><stop stop-opacity="1" stop-color="rgb(51.724243%, 38.682556%, 79.458618%)" offset="0.664062"/><stop stop-opacity="1" stop-color="rgb(51.950073%, 38.739014%, 79.53949%)" offset="0.667969"/><stop stop-opacity="1" stop-color="rgb(52.174377%, 38.795471%, 79.618835%)" offset="0.671875"/><stop stop-opacity="1" stop-color="rgb(52.400208%, 38.851929%, 79.698181%)" offset="0.675781"/><stop stop-opacity="1" stop-color="rgb(52.626038%, 38.909912%, 79.777527%)" offset="0.679688"/><stop stop-opacity="1" stop-color="rgb(52.850342%, 38.96637%, 79.856873%)" offset="0.683594"/><stop stop-opacity="1" stop-color="rgb(53.076172%, 39.022827%, 79.937744%)" offset="0.6875"/><stop stop-opacity="1" stop-color="rgb(53.300476%, 39.079285%, 80.01709%)" offset="0.691406"/><stop stop-opacity="1" stop-color="rgb(53.526306%, 39.135742%, 80.096436%)" offset="0.695312"/><stop stop-opacity="1" stop-color="rgb(53.752136%, 39.1922%, 80.175781%)" offset="0.699219"/><stop stop-opacity="1" stop-color="rgb(53.97644%, 39.248657%, 80.255127%)" offset="0.703125"/><stop stop-opacity="1" stop-color="rgb(54.202271%, 39.306641%, 80.335999%)" offset="0.707031"/><stop stop-opacity="1" stop-color="rgb(54.426575%, 39.363098%, 80.415344%)" offset="0.710938"/><stop stop-opacity="1" stop-color="rgb(54.652405%, 39.419556%, 80.49469%)" offset="0.714844"/><stop stop-opacity="1" stop-color="rgb(54.876709%, 39.476013%, 80.574036%)" offset="0.71875"/><stop stop-opacity="1" stop-color="rgb(55.102539%, 39.532471%, 80.653381%)" offset="0.722656"/><stop stop-opacity="1" stop-color="rgb(55.328369%, 39.588928%, 80.734253%)" offset="0.726562"/><stop stop-opacity="1" stop-color="rgb(55.552673%, 39.645386%, 80.813599%)" offset="0.730469"/><stop stop-opacity="1" stop-color="rgb(55.778503%, 39.703369%, 80.892944%)" offset="0.734375"/><stop stop-opacity="1" stop-color="rgb(56.002808%, 39.759827%, 80.97229%)" offset="0.738281"/><stop stop-opacity="1" stop-color="rgb(56.228638%, 39.816284%, 81.051636%)" offset="0.742188"/><stop stop-opacity="1" stop-color="rgb(56.454468%, 39.872742%, 81.132507%)" offset="0.746094"/><stop stop-opacity="1" stop-color="rgb(56.678772%, 39.929199%, 81.211853%)" offset="0.75"/><stop stop-opacity="1" stop-color="rgb(56.904602%, 39.985657%, 81.291199%)" offset="0.753906"/><stop stop-opacity="1" stop-color="rgb(57.128906%, 40.042114%, 81.370544%)" offset="0.757812"/><stop stop-opacity="1" stop-color="rgb(57.354736%, 40.100098%, 81.44989%)" offset="0.761719"/><stop stop-opacity="1" stop-color="rgb(57.579041%, 40.156555%, 81.530762%)" offset="0.765625"/><stop stop-opacity="1" stop-color="rgb(57.804871%, 40.213013%, 81.610107%)" offset="0.769531"/><stop stop-opacity="1" stop-color="rgb(58.030701%, 40.26947%, 81.689453%)" offset="0.773438"/><stop stop-opacity="1" stop-color="rgb(58.255005%, 40.325928%, 81.768799%)" offset="0.777344"/><stop stop-opacity="1" stop-color="rgb(58.480835%, 40.382385%, 81.848145%)" offset="0.78125"/><stop stop-opacity="1" stop-color="rgb(58.705139%, 40.438843%, 81.92749%)" offset="0.785156"/><stop stop-opacity="1" stop-color="rgb(58.930969%, 40.496826%, 82.008362%)" offset="0.789062"/><stop stop-opacity="1" stop-color="rgb(59.156799%, 40.553284%, 82.087708%)" offset="0.792969"/><stop stop-opacity="1" stop-color="rgb(59.381104%, 40.609741%, 82.167053%)" offset="0.796875"/><stop stop-opacity="1" stop-color="rgb(59.606934%, 40.666199%, 82.246399%)" offset="0.800781"/><stop stop-opacity="1" stop-color="rgb(59.831238%, 40.722656%, 82.325745%)" offset="0.804688"/><stop stop-opacity="1" stop-color="rgb(60.057068%, 40.779114%, 82.406616%)" offset="0.808594"/><stop stop-opacity="1" stop-color="rgb(60.282898%, 40.835571%, 82.485962%)" offset="0.8125"/><stop stop-opacity="1" stop-color="rgb(60.507202%, 40.893555%, 82.565308%)" offset="0.816406"/><stop stop-opacity="1" stop-color="rgb(60.733032%, 40.950012%, 82.644653%)" offset="0.820312"/><stop stop-opacity="1" stop-color="rgb(60.957336%, 41.00647%, 82.723999%)" offset="0.824219"/><stop stop-opacity="1" stop-color="rgb(61.183167%, 41.062927%, 82.804871%)" offset="0.828125"/><stop stop-opacity="1" stop-color="rgb(61.407471%, 41.119385%, 82.884216%)" offset="0.832031"/><stop stop-opacity="1" stop-color="rgb(61.633301%, 41.175842%, 82.963562%)" offset="0.835938"/><stop stop-opacity="1" stop-color="rgb(61.859131%, 41.2323%, 83.042908%)" offset="0.839844"/><stop stop-opacity="1" stop-color="rgb(62.083435%, 41.290283%, 83.122253%)" offset="0.84375"/><stop stop-opacity="1" stop-color="rgb(62.309265%, 41.346741%, 83.203125%)" offset="0.847656"/><stop stop-opacity="1" stop-color="rgb(62.533569%, 41.403198%, 83.282471%)" offset="0.851562"/><stop stop-opacity="1" stop-color="rgb(62.759399%, 41.459656%, 83.361816%)" offset="0.855469"/><stop stop-opacity="1" stop-color="rgb(62.985229%, 41.516113%, 83.441162%)" offset="0.859375"/><stop stop-opacity="1" stop-color="rgb(63.209534%, 41.572571%, 83.520508%)" offset="0.863281"/><stop stop-opacity="1" stop-color="rgb(63.435364%, 41.630554%, 83.601379%)" offset="0.867188"/><stop stop-opacity="1" stop-color="rgb(63.659668%, 41.687012%, 83.680725%)" offset="0.871094"/><stop stop-opacity="1" stop-color="rgb(63.885498%, 41.743469%, 83.760071%)" offset="0.875"/><stop stop-opacity="1" stop-color="rgb(64.109802%, 41.799927%, 83.839417%)" offset="0.878906"/><stop stop-opacity="1" stop-color="rgb(64.335632%, 41.856384%, 83.918762%)" offset="0.882812"/><stop stop-opacity="1" stop-color="rgb(64.561462%, 41.912842%, 83.999634%)" offset="0.886719"/><stop stop-opacity="1" stop-color="rgb(64.785767%, 41.969299%, 84.078979%)" offset="0.890625"/><stop stop-opacity="1" stop-color="rgb(65.011597%, 42.027283%, 84.158325%)" offset="0.894531"/><stop stop-opacity="1" stop-color="rgb(65.235901%, 42.08374%, 84.237671%)" offset="0.898438"/><stop stop-opacity="1" stop-color="rgb(65.461731%, 42.140198%, 84.317017%)" offset="0.902344"/><stop stop-opacity="1" stop-color="rgb(65.687561%, 42.196655%, 84.397888%)" offset="0.90625"/><stop stop-opacity="1" stop-color="rgb(65.911865%, 42.253113%, 84.477234%)" offset="0.910156"/><stop stop-opacity="1" stop-color="rgb(66.137695%, 42.30957%, 84.55658%)" offset="0.914062"/><stop stop-opacity="1" stop-color="rgb(66.362%, 42.366028%, 84.635925%)" offset="0.917969"/><stop stop-opacity="1" stop-color="rgb(66.58783%, 42.424011%, 84.715271%)" offset="0.921875"/><stop stop-opacity="1" stop-color="rgb(66.812134%, 42.480469%, 84.796143%)" offset="0.925781"/><stop stop-opacity="1" stop-color="rgb(67.037964%, 42.536926%, 84.875488%)" offset="0.929688"/><stop stop-opacity="1" stop-color="rgb(67.263794%, 42.593384%, 84.954834%)" offset="0.933594"/><stop stop-opacity="1" stop-color="rgb(67.488098%, 42.649841%, 85.03418%)" offset="0.9375"/><stop stop-opacity="1" stop-color="rgb(67.713928%, 42.706299%, 85.113525%)" offset="0.941406"/><stop stop-opacity="1" stop-color="rgb(67.938232%, 42.762756%, 85.194397%)" offset="0.945312"/><stop stop-opacity="1" stop-color="rgb(68.164062%, 42.82074%, 85.273743%)" offset="0.949219"/><stop stop-opacity="1" stop-color="rgb(68.389893%, 42.877197%, 85.353088%)" offset="0.953125"/><stop stop-opacity="1" stop-color="rgb(68.614197%, 42.933655%, 85.432434%)" offset="0.957031"/><stop stop-opacity="1" stop-color="rgb(68.840027%, 42.990112%, 85.51178%)" offset="0.960938"/><stop stop-opacity="1" stop-color="rgb(69.064331%, 43.04657%, 85.592651%)" offset="0.964844"/><stop stop-opacity="1" stop-color="rgb(69.290161%, 43.103027%, 85.671997%)" offset="0.96875"/><stop stop-opacity="1" stop-color="rgb(69.514465%, 43.159485%, 85.751343%)" offset="0.972656"/><stop stop-opacity="1" stop-color="rgb(69.740295%, 43.217468%, 85.830688%)" offset="0.976562"/><stop stop-opacity="1" stop-color="rgb(69.966125%, 43.273926%, 85.910034%)" offset="0.980469"/><stop stop-opacity="1" stop-color="rgb(70.19043%, 43.330383%, 85.990906%)" offset="0.984375"/><stop stop-opacity="1" stop-color="rgb(70.41626%, 43.386841%, 86.070251%)" offset="0.988281"/><stop stop-opacity="1" stop-color="rgb(70.640564%, 43.443298%, 86.149597%)" offset="0.992188"/><stop stop-opacity="1" stop-color="rgb(70.866394%, 43.499756%, 86.228943%)" offset="0.996094"/><stop stop-opacity="1" stop-color="rgb(70.979309%, 43.528748%, 86.268616%)" offset="1"/></radialGradient><clipPath id="d4199dda5d"><rect x="0" width="548" y="0" height="548"/></clipPath></defs><g clip-path="url(#083b96a25c)"><g clip-path="url(#f89ee65e58)"><g transform="matrix(1, 0, 0, 1, 176, 101)"><g clip-path="url(#d4199dda5d)"><g clip-path="url(#e020bd7ae1)"><g clip-path="url(#9a5aca239d)"><path fill="url(#b2da80c9b1)" d="M 0.46875 0.46875 L 0.46875 547.53125 L 547.53125 547.53125 L 547.53125 0.46875 Z M 0.46875 0.46875 " fill-rule="nonzero"/></g></g></g></g></g></g><g fill="#ffffff" fill-opacity="1"><g transform="translate(243.100465, 339.217657)"><g><path d="M 19.375 -15.59375 L 19.375 -24.984375 L 24.296875 -24.984375 L 24.296875 0 L 19.375 0 L 19.375 -11.375 L 8.1875 -11.375 L 8.1875 0 L 3.25 0 L 3.25 -24.984375 L 8.1875 -24.984375 L 8.1875 -15.59375 Z M 19.375 -15.59375 "/></g></g></g><g fill="#ffffff" fill-opacity="1"><g transform="translate(270.660228, 339.217657)"><g><path d="M 10.953125 0.359375 C 9.109375 0.359375 7.488281 -0.0195312 6.09375 -0.78125 C 4.695312 -1.539062 3.613281 -2.648438 2.84375 -4.109375 C 2.070312 -5.578125 1.6875 -7.347656 1.6875 -9.421875 C 1.6875 -11.492188 2.070312 -13.265625 2.84375 -14.734375 C 3.613281 -16.203125 4.695312 -17.3125 6.09375 -18.0625 C 7.488281 -18.820312 9.109375 -19.203125 10.953125 -19.203125 C 12.796875 -19.203125 14.414062 -18.820312 15.8125 -18.0625 C 17.207031 -17.3125 18.289062 -16.203125 19.0625 -14.734375 C 19.84375 -13.265625 20.234375 -11.492188 20.234375 -9.421875 C 20.234375 -7.347656 19.84375 -5.578125 19.0625 -4.109375 C 18.289062 -2.648438 17.207031 -1.539062 15.8125 -0.78125 C 14.414062 -0.0195312 12.796875 0.359375 10.953125 0.359375 Z M 10.953125 -3.65625 C 13.878906 -3.65625 15.34375 -5.578125 15.34375 -9.421875 C 15.34375 -11.410156 14.96875 -12.867188 14.21875 -13.796875 C 13.46875 -14.722656 12.378906 -15.1875 10.953125 -15.1875 C 8.023438 -15.1875 6.5625 -13.265625 6.5625 -9.421875 C 6.5625 -5.578125 8.023438 -3.65625 10.953125 -3.65625 Z M 10.953125 -3.65625 "/></g></g></g><g fill="#ffffff" fill-opacity="1"><g transform="translate(292.427817, 339.217657)"><g><path d="M 10.125 0 L 5.15625 0 L 0.6875 -18.84375 L 5.078125 -18.84375 L 7.84375 -6.09375 L 8.203125 -6.09375 L 11.796875 -18.84375 L 15.890625 -18.84375 L 19.609375 -6.09375 L 19.96875 -6.09375 L 22.625 -18.84375 L 26.90625 -18.84375 L 22.46875 0 L 17.5 0 L 13.921875 -12.828125 L 13.5625 -12.828125 Z M 10.125 0 "/></g></g></g><g fill="#ffffff" fill-opacity="1"><g transform="translate(319.98758, 339.217657)"><g/></g></g><g fill="#ffffff" fill-opacity="1"><g transform="translate(328.240132, 339.217657)"><g><path d="M 2.71875 0 L 2.71875 -18.84375 L 7.265625 -18.84375 L 7.265625 -16.328125 L 7.625 -16.25 C 8.238281 -17.269531 8.957031 -18.015625 9.78125 -18.484375 C 10.601562 -18.960938 11.660156 -19.203125 12.953125 -19.203125 C 14.378906 -19.203125 15.523438 -18.921875 16.390625 -18.359375 C 17.253906 -17.796875 17.882812 -16.972656 18.28125 -15.890625 L 18.640625 -15.890625 C 19.222656 -17.015625 19.972656 -17.847656 20.890625 -18.390625 C 21.804688 -18.929688 22.945312 -19.203125 24.3125 -19.203125 C 28.226562 -19.203125 30.1875 -17.03125 30.1875 -12.6875 L 30.1875 0 L 25.453125 0 L 25.453125 -12.078125 C 25.453125 -13.179688 25.234375 -13.976562 24.796875 -14.46875 C 24.359375 -14.957031 23.664062 -15.203125 22.71875 -15.203125 C 20.113281 -15.203125 18.8125 -13.46875 18.8125 -10 L 18.8125 0 L 14.078125 0 L 14.078125 -12.078125 C 14.078125 -13.179688 13.859375 -13.976562 13.421875 -14.46875 C 12.984375 -14.957031 12.285156 -15.203125 11.328125 -15.203125 C 10.109375 -15.203125 9.15625 -14.796875 8.46875 -13.984375 C 7.789062 -13.171875 7.453125 -11.875 7.453125 -10.09375 L 7.453125 0 Z M 2.71875 0 "/></g></g></g><g fill="#ffffff" fill-opacity="1"><g transform="translate(360.840274, 339.217657)"><g><path d="M 8.625 0.359375 C 6.507812 0.359375 4.945312 -0.21875 3.9375 -1.375 C 2.925781 -2.53125 2.421875 -4.191406 2.421875 -6.359375 L 2.421875 -18.84375 L 7.15625 -18.84375 L 7.15625 -6.953125 C 7.15625 -5.804688 7.398438 -4.96875 7.890625 -4.4375 C 8.390625 -3.90625 9.160156 -3.640625 10.203125 -3.640625 C 11.515625 -3.640625 12.535156 -4.066406 13.265625 -4.921875 C 13.992188 -5.785156 14.359375 -7.140625 14.359375 -8.984375 L 14.359375 -18.84375 L 19.09375 -18.84375 L 19.09375 0 L 14.546875 0 L 14.546875 -2.765625 L 14.1875 -2.859375 C 13.582031 -1.773438 12.84375 -0.96875 11.96875 -0.4375 C 11.101562 0.09375 9.988281 0.359375 8.625 0.359375 Z M 8.625 0.359375 "/></g></g></g><g fill="#ffffff" fill-opacity="1"><g transform="translate(382.642046, 339.217657)"><g><path d="M 10.984375 0.359375 C 9.160156 0.359375 7.546875 -0.0195312 6.140625 -0.78125 C 4.742188 -1.539062 3.648438 -2.65625 2.859375 -4.125 C 2.078125 -5.59375 1.6875 -7.359375 1.6875 -9.421875 C 1.6875 -11.492188 2.078125 -13.265625 2.859375 -14.734375 C 3.648438 -16.203125 4.738281 -17.3125 6.125 -18.0625 C 7.519531 -18.820312 9.113281 -19.203125 10.90625 -19.203125 C 14.882812 -19.203125 17.429688 -17.765625 18.546875 -14.890625 L 15.296875 -12.5625 L 14.9375 -12.5625 C 14.550781 -13.445312 14.046875 -14.101562 13.421875 -14.53125 C 12.804688 -14.96875 11.96875 -15.1875 10.90625 -15.1875 C 9.539062 -15.1875 8.472656 -14.710938 7.703125 -13.765625 C 6.941406 -12.828125 6.5625 -11.378906 6.5625 -9.421875 C 6.5625 -7.484375 6.945312 -6.035156 7.71875 -5.078125 C 8.5 -4.128906 9.585938 -3.65625 10.984375 -3.65625 C 12.015625 -3.65625 12.882812 -3.929688 13.59375 -4.484375 C 14.300781 -5.035156 14.8125 -5.832031 15.125 -6.875 L 15.484375 -6.90625 L 18.84375 -5.0625 C 18.363281 -3.46875 17.476562 -2.164062 16.1875 -1.15625 C 14.894531 -0.144531 13.160156 0.359375 10.984375 0.359375 Z M 10.984375 0.359375 "/></g></g></g><g fill="#ffffff" fill-opacity="1"><g transform="translate(402.06886, 339.217657)"><g><path d="M 2.71875 0 L 2.71875 -26.421875 L 7.453125 -26.421875 L 7.453125 -16.390625 L 7.8125 -16.328125 C 8.4375 -17.242188 9.203125 -17.953125 10.109375 -18.453125 C 11.023438 -18.953125 12.128906 -19.203125 13.421875 -19.203125 C 17.578125 -19.203125 19.65625 -16.847656 19.65625 -12.140625 L 19.65625 0 L 14.921875 0 L 14.921875 -11.53125 C 14.921875 -12.820312 14.660156 -13.753906 14.140625 -14.328125 C 13.628906 -14.910156 12.835938 -15.203125 11.765625 -15.203125 C 10.441406 -15.203125 9.390625 -14.757812 8.609375 -13.875 C 7.835938 -13 7.453125 -11.628906 7.453125 -9.765625 L 7.453125 0 Z M 2.71875 0 "/></g></g></g><g fill="#ffffff" fill-opacity="1"><g transform="translate(424.144009, 339.217657)"><g/></g></g><g fill="#ffffff" fill-opacity="1"><g transform="translate(432.39656, 339.217657)"><g><path d="M 8.625 0.359375 C 6.507812 0.359375 4.945312 -0.21875 3.9375 -1.375 C 2.925781 -2.53125 2.421875 -4.191406 2.421875 -6.359375 L 2.421875 -18.84375 L 7.15625 -18.84375 L 7.15625 -6.953125 C 7.15625 -5.804688 7.398438 -4.96875 7.890625 -4.4375 C 8.390625 -3.90625 9.160156 -3.640625 10.203125 -3.640625 C 11.515625 -3.640625 12.535156 -4.066406 13.265625 -4.921875 C 13.992188 -5.785156 14.359375 -7.140625 14.359375 -8.984375 L 14.359375 -18.84375 L 19.09375 -18.84375 L 19.09375 0 L 14.546875 0 L 14.546875 -2.765625 L 14.1875 -2.859375 C 13.582031 -1.773438 12.84375 -0.96875 11.96875 -0.4375 C 11.101562 0.09375 9.988281 0.359375 8.625 0.359375 Z M 8.625 0.359375 "/></g></g></g><g fill="#ffffff" fill-opacity="1"><g transform="translate(454.198332, 339.217657)"><g><path d="M 8.8125 0.359375 C 7.53125 0.359375 6.351562 0.207031 5.28125 -0.09375 C 4.207031 -0.394531 3.289062 -0.8125 2.53125 -1.34375 C 1.78125 -1.875 1.222656 -2.476562 0.859375 -3.15625 L 3.484375 -6 L 3.84375 -6 C 4.46875 -5.15625 5.207031 -4.519531 6.0625 -4.09375 C 6.914062 -3.675781 7.847656 -3.46875 8.859375 -3.46875 C 9.773438 -3.46875 10.46875 -3.628906 10.9375 -3.953125 C 11.40625 -4.285156 11.640625 -4.765625 11.640625 -5.390625 C 11.640625 -5.859375 11.46875 -6.253906 11.125 -6.578125 C 10.789062 -6.910156 10.25 -7.164062 9.5 -7.34375 L 7 -7.953125 C 5.132812 -8.390625 3.769531 -9.066406 2.90625 -9.984375 C 2.050781 -10.898438 1.625 -12.066406 1.625 -13.484375 C 1.625 -14.660156 1.921875 -15.679688 2.515625 -16.546875 C 3.117188 -17.410156 3.960938 -18.066406 5.046875 -18.515625 C 6.140625 -18.972656 7.410156 -19.203125 8.859375 -19.203125 C 10.554688 -19.203125 11.960938 -18.957031 13.078125 -18.46875 C 14.191406 -17.976562 15.0625 -17.328125 15.6875 -16.515625 L 13.15625 -13.78125 L 12.8125 -13.78125 C 12.289062 -14.363281 11.703125 -14.789062 11.046875 -15.0625 C 10.390625 -15.34375 9.660156 -15.484375 8.859375 -15.484375 C 6.984375 -15.484375 6.046875 -14.898438 6.046875 -13.734375 C 6.046875 -13.242188 6.21875 -12.84375 6.5625 -12.53125 C 6.914062 -12.226562 7.53125 -11.984375 8.40625 -11.796875 L 10.734375 -11.28125 C 12.648438 -10.875 14.046875 -10.21875 14.921875 -9.3125 C 15.804688 -8.40625 16.25 -7.1875 16.25 -5.65625 C 16.25 -4.457031 15.953125 -3.398438 15.359375 -2.484375 C 14.765625 -1.578125 13.910156 -0.875 12.796875 -0.375 C 11.679688 0.113281 10.351562 0.359375 8.8125 0.359375 Z M 8.8125 0.359375 "/></g></g></g><g fill="#ffffff" fill-opacity="1"><g transform="translate(471.574835, 339.217657)"><g><path d="M 18.625 -8.359375 L 6.515625 -8.359375 C 6.648438 -6.710938 7.113281 -5.515625 7.90625 -4.765625 C 8.707031 -4.023438 9.796875 -3.65625 11.171875 -3.65625 C 12.253906 -3.65625 13.128906 -3.859375 13.796875 -4.265625 C 14.472656 -4.671875 15.019531 -5.28125 15.4375 -6.09375 L 15.796875 -6.09375 L 18.9375 -4.078125 C 18.320312 -2.765625 17.390625 -1.695312 16.140625 -0.875 C 14.898438 -0.0507812 13.242188 0.359375 11.171875 0.359375 C 9.222656 0.359375 7.539062 -0.0078125 6.125 -0.75 C 4.707031 -1.488281 3.613281 -2.585938 2.84375 -4.046875 C 2.070312 -5.515625 1.6875 -7.304688 1.6875 -9.421875 C 1.6875 -11.554688 2.09375 -13.359375 2.90625 -14.828125 C 3.71875 -16.296875 4.8125 -17.390625 6.1875 -18.109375 C 7.5625 -18.835938 9.109375 -19.203125 10.828125 -19.203125 C 13.492188 -19.203125 15.535156 -18.492188 16.953125 -17.078125 C 18.378906 -15.671875 19.09375 -13.601562 19.09375 -10.875 C 19.09375 -9.875 19.054688 -9.101562 18.984375 -8.5625 Z M 14.5625 -11.421875 C 14.519531 -12.847656 14.1875 -13.890625 13.5625 -14.546875 C 12.9375 -15.203125 12.023438 -15.53125 10.828125 -15.53125 C 8.441406 -15.53125 7.035156 -14.160156 6.609375 -11.421875 Z M 14.5625 -11.421875 "/></g></g></g><g fill="#ffffff" fill-opacity="1"><g transform="translate(492.060971, 339.217657)"><g><path d="M 9.3125 0.359375 C 7.820312 0.359375 6.503906 0 5.359375 -0.71875 C 4.210938 -1.445312 3.3125 -2.539062 2.65625 -4 C 2.007812 -5.46875 1.6875 -7.273438 1.6875 -9.421875 C 1.6875 -11.566406 2.019531 -13.367188 2.6875 -14.828125 C 3.351562 -16.296875 4.273438 -17.390625 5.453125 -18.109375 C 6.640625 -18.835938 8.003906 -19.203125 9.546875 -19.203125 C 10.722656 -19.203125 11.738281 -19 12.59375 -18.59375 C 13.457031 -18.195312 14.1875 -17.570312 14.78125 -16.71875 L 15.140625 -16.796875 L 15.140625 -26.421875 L 19.875 -26.421875 L 19.875 0 L 15.140625 0 L 15.140625 -2.4375 L 14.78125 -2.515625 C 14.257812 -1.617188 13.539062 -0.914062 12.625 -0.40625 C 11.71875 0.101562 10.613281 0.359375 9.3125 0.359375 Z M 10.859375 -3.65625 C 12.191406 -3.65625 13.242188 -4.128906 14.015625 -5.078125 C 14.785156 -6.035156 15.171875 -7.484375 15.171875 -9.421875 C 15.171875 -11.359375 14.785156 -12.800781 14.015625 -13.75 C 13.242188 -14.707031 12.191406 -15.1875 10.859375 -15.1875 C 9.460938 -15.1875 8.394531 -14.722656 7.65625 -13.796875 C 6.925781 -12.867188 6.5625 -11.410156 6.5625 -9.421875 C 6.5625 -7.429688 6.925781 -5.972656 7.65625 -5.046875 C 8.394531 -4.117188 9.460938 -3.65625 10.859375 -3.65625 Z M 10.859375 -3.65625 "/></g></g></g><g fill="#ffffff" fill-opacity="1"><g transform="translate(514.648701, 339.217657)"><g/></g></g><g fill="#ffffff" fill-opacity="1"><g transform="translate(522.901264, 339.217657)"><g><path d="M 10.984375 0.359375 C 9.160156 0.359375 7.546875 -0.0195312 6.140625 -0.78125 C 4.742188 -1.539062 3.648438 -2.65625 2.859375 -4.125 C 2.078125 -5.59375 1.6875 -7.359375 1.6875 -9.421875 C 1.6875 -11.492188 2.078125 -13.265625 2.859375 -14.734375 C 3.648438 -16.203125 4.738281 -17.3125 6.125 -18.0625 C 7.519531 -18.820312 9.113281 -19.203125 10.90625 -19.203125 C 14.882812 -19.203125 17.429688 -17.765625 18.546875 -14.890625 L 15.296875 -12.5625 L 14.9375 -12.5625 C 14.550781 -13.445312 14.046875 -14.101562 13.421875 -14.53125 C 12.804688 -14.96875 11.96875 -15.1875 10.90625 -15.1875 C 9.539062 -15.1875 8.472656 -14.710938 7.703125 -13.765625 C 6.941406 -12.828125 6.5625 -11.378906 6.5625 -9.421875 C 6.5625 -7.484375 6.945312 -6.035156 7.71875 -5.078125 C 8.5 -4.128906 9.585938 -3.65625 10.984375 -3.65625 C 12.015625 -3.65625 12.882812 -3.929688 13.59375 -4.484375 C 14.300781 -5.035156 14.8125 -5.832031 15.125 -6.875 L 15.484375 -6.90625 L 18.84375 -5.0625 C 18.363281 -3.46875 17.476562 -2.164062 16.1875 -1.15625 C 14.894531 -0.144531 13.160156 0.359375 10.984375 0.359375 Z M 10.984375 0.359375 "/></g></g></g><g fill="#ffffff" fill-opacity="1"><g transform="translate(542.328067, 339.217657)"><g><path d="M 10.953125 0.359375 C 9.109375 0.359375 7.488281 -0.0195312 6.09375 -0.78125 C 4.695312 -1.539062 3.613281 -2.648438 2.84375 -4.109375 C 2.070312 -5.578125 1.6875 -7.347656 1.6875 -9.421875 C 1.6875 -11.492188 2.070312 -13.265625 2.84375 -14.734375 C 3.613281 -16.203125 4.695312 -17.3125 6.09375 -18.0625 C 7.488281 -18.820312 9.109375 -19.203125 10.953125 -19.203125 C 12.796875 -19.203125 14.414062 -18.820312 15.8125 -18.0625 C 17.207031 -17.3125 18.289062 -16.203125 19.0625 -14.734375 C 19.84375 -13.265625 20.234375 -11.492188 20.234375 -9.421875 C 20.234375 -7.347656 19.84375 -5.578125 19.0625 -4.109375 C 18.289062 -2.648438 17.207031 -1.539062 15.8125 -0.78125 C 14.414062 -0.0195312 12.796875 0.359375 10.953125 0.359375 Z M 10.953125 -3.65625 C 13.878906 -3.65625 15.34375 -5.578125 15.34375 -9.421875 C 15.34375 -11.410156 14.96875 -12.867188 14.21875 -13.796875 C 13.46875 -14.722656 12.378906 -15.1875 10.953125 -15.1875 C 8.023438 -15.1875 6.5625 -13.265625 6.5625 -9.421875 C 6.5625 -5.578125 8.023438 -3.65625 10.953125 -3.65625 Z M 10.953125 -3.65625 "/></g></g></g><g fill="#ffffff" fill-opacity="1"><g transform="translate(564.232355, 339.217657)"><g><path d="M 10.953125 0.359375 C 9.109375 0.359375 7.488281 -0.0195312 6.09375 -0.78125 C 4.695312 -1.539062 3.613281 -2.648438 2.84375 -4.109375 C 2.070312 -5.578125 1.6875 -7.347656 1.6875 -9.421875 C 1.6875 -11.492188 2.070312 -13.265625 2.84375 -14.734375 C 3.613281 -16.203125 4.695312 -17.3125 6.09375 -18.0625 C 7.488281 -18.820312 9.109375 -19.203125 10.953125 -19.203125 C 12.796875 -19.203125 14.414062 -18.820312 15.8125 -18.0625 C 17.207031 -17.3125 18.289062 -16.203125 19.0625 -14.734375 C 19.84375 -13.265625 20.234375 -11.492188 20.234375 -9.421875 C 20.234375 -7.347656 19.84375 -5.578125 19.0625 -4.109375 C 18.289062 -2.648438 17.207031 -1.539062 15.8125 -0.78125 C 14.414062 -0.0195312 12.796875 0.359375 10.953125 0.359375 Z M 10.953125 -3.65625 C 13.878906 -3.65625 15.34375 -5.578125 15.34375 -9.421875 C 15.34375 -11.410156 14.96875 -12.867188 14.21875 -13.796875 C 13.46875 -14.722656 12.378906 -15.1875 10.953125 -15.1875 C 8.023438 -15.1875 6.5625 -13.265625 6.5625 -9.421875 C 6.5625 -5.578125 8.023438 -3.65625 10.953125 -3.65625 Z M 10.953125 -3.65625 "/></g></g></g><g fill="#ffffff" fill-opacity="1"><g transform="translate(586.136643, 339.217657)"><g><path d="M 2.71875 0 L 2.71875 -26.421875 L 7.453125 -26.421875 L 7.453125 -11.765625 L 7.90625 -11.765625 L 13.359375 -18.84375 L 18.171875 -18.84375 L 18.171875 -18.453125 L 11.765625 -10.1875 L 18.890625 -0.421875 L 18.890625 0 L 13.890625 0 L 7.90625 -7.953125 L 7.453125 -7.953125 L 7.453125 0 Z M 2.71875 0 "/></g></g></g><g fill="#ffffff" fill-opacity="1"><g transform="translate(605.050888, 339.217657)"><g><path d="M 5.078125 -21.109375 C 4.222656 -21.109375 3.523438 -21.363281 2.984375 -21.875 C 2.453125 -22.394531 2.1875 -23.066406 2.1875 -23.890625 C 2.1875 -24.703125 2.453125 -25.363281 2.984375 -25.875 C 3.523438 -26.394531 4.222656 -26.65625 5.078125 -26.65625 C 5.648438 -26.65625 6.15625 -26.535156 6.59375 -26.296875 C 7.039062 -26.054688 7.382812 -25.726562 7.625 -25.3125 C 7.875 -24.894531 8 -24.421875 8 -23.890625 C 8 -23.359375 7.875 -22.878906 7.625 -22.453125 C 7.382812 -22.035156 7.039062 -21.707031 6.59375 -21.46875 C 6.15625 -21.226562 5.648438 -21.109375 5.078125 -21.109375 Z M 2.71875 0 L 2.71875 -18.84375 L 7.453125 -18.84375 L 7.453125 0 Z M 2.71875 0 "/></g></g></g><g fill="#ffffff" fill-opacity="1"><g transform="translate(615.199965, 339.217657)"><g><path d="M 2.71875 0 L 2.71875 -18.84375 L 7.265625 -18.84375 L 7.265625 -16.078125 L 7.625 -16 C 8.789062 -18.132812 10.691406 -19.203125 13.328125 -19.203125 C 15.503906 -19.203125 17.101562 -18.609375 18.125 -17.421875 C 19.144531 -16.242188 19.65625 -14.519531 19.65625 -12.25 L 19.65625 0 L 14.921875 0 L 14.921875 -11.671875 C 14.921875 -12.921875 14.671875 -13.820312 14.171875 -14.375 C 13.671875 -14.925781 12.867188 -15.203125 11.765625 -15.203125 C 10.398438 -15.203125 9.335938 -14.765625 8.578125 -13.890625 C 7.828125 -13.015625 7.453125 -11.640625 7.453125 -9.765625 L 7.453125 0 Z M 2.71875 0 "/></g></g></g><g fill="#ffffff" fill-opacity="1"><g transform="translate(637.275114, 339.217657)"><g><path d="M 9.78125 8 C 6.664062 8 4.367188 7.539062 2.890625 6.625 C 1.410156 5.71875 0.671875 4.445312 0.671875 2.8125 C 0.671875 1.820312 0.984375 1.007812 1.609375 0.375 C 2.242188 -0.25 3.15625 -0.671875 4.34375 -0.890625 L 4.34375 -1.25 C 3.707031 -1.632812 3.25 -2.0625 2.96875 -2.53125 C 2.6875 -3.007812 2.546875 -3.5625 2.546875 -4.1875 C 2.546875 -5.695312 3.53125 -6.71875 5.5 -7.25 L 5.5 -7.609375 C 4.488281 -8.191406 3.722656 -8.910156 3.203125 -9.765625 C 2.691406 -10.628906 2.4375 -11.671875 2.4375 -12.890625 C 2.4375 -14.140625 2.722656 -15.238281 3.296875 -16.1875 C 3.878906 -17.144531 4.722656 -17.882812 5.828125 -18.40625 C 6.941406 -18.9375 8.273438 -19.203125 9.828125 -19.203125 C 11.398438 -19.203125 12.65625 -18.929688 13.59375 -18.390625 C 14.164062 -19.234375 14.5 -20.207031 14.59375 -21.3125 L 14.953125 -21.53125 L 18.359375 -20.703125 C 18.253906 -19.796875 17.988281 -19.035156 17.5625 -18.421875 C 17.144531 -17.816406 16.492188 -17.273438 15.609375 -16.796875 L 15.609375 -16.421875 C 16.660156 -15.484375 17.1875 -14.179688 17.1875 -12.515625 C 17.1875 -11.347656 16.894531 -10.300781 16.3125 -9.375 C 15.738281 -8.457031 14.894531 -7.726562 13.78125 -7.1875 C 12.664062 -6.65625 11.347656 -6.390625 9.828125 -6.390625 L 9.109375 -6.40625 C 8.648438 -6.425781 8.332031 -6.4375 8.15625 -6.4375 C 7.71875 -6.4375 7.375 -6.320312 7.125 -6.09375 C 6.882812 -5.863281 6.765625 -5.566406 6.765625 -5.203125 C 6.765625 -4.796875 6.921875 -4.484375 7.234375 -4.265625 C 7.554688 -4.046875 8.023438 -3.921875 8.640625 -3.890625 L 12.875 -3.75 C 17.039062 -3.625 19.125 -1.828125 19.125 1.640625 C 19.125 2.859375 18.8125 3.941406 18.1875 4.890625 C 17.570312 5.847656 16.566406 6.601562 15.171875 7.15625 C 13.785156 7.71875 11.988281 8 9.78125 8 Z M 9.828125 -9.703125 C 10.734375 -9.703125 11.441406 -9.96875 11.953125 -10.5 C 12.472656 -11.039062 12.734375 -11.804688 12.734375 -12.796875 C 12.734375 -13.785156 12.472656 -14.546875 11.953125 -15.078125 C 11.441406 -15.609375 10.734375 -15.875 9.828125 -15.875 C 8.898438 -15.875 8.1875 -15.609375 7.6875 -15.078125 C 7.1875 -14.546875 6.9375 -13.785156 6.9375 -12.796875 C 6.9375 -11.796875 7.1875 -11.03125 7.6875 -10.5 C 8.1875 -9.96875 8.898438 -9.703125 9.828125 -9.703125 Z M 9.78125 4.5625 C 11.394531 4.5625 12.566406 4.332031 13.296875 3.875 C 14.035156 3.425781 14.40625 2.835938 14.40625 2.109375 C 14.40625 1.515625 14.21875 1.078125 13.84375 0.796875 C 13.46875 0.515625 12.867188 0.363281 12.046875 0.34375 L 8.328125 0.171875 C 8.203125 0.171875 8.082031 0.164062 7.96875 0.15625 C 7.863281 0.144531 7.757812 0.140625 7.65625 0.140625 C 6.851562 0.140625 6.242188 0.304688 5.828125 0.640625 C 5.421875 0.984375 5.21875 1.457031 5.21875 2.0625 C 5.21875 2.863281 5.597656 3.476562 6.359375 3.90625 C 7.117188 4.34375 8.257812 4.5625 9.78125 4.5625 Z M 9.78125 4.5625 "/></g></g></g><g fill="#ffffff" fill-opacity="1"><g transform="translate(266.807495, 387.967655)"><g><path d="M 10.953125 0.359375 C 9.109375 0.359375 7.488281 -0.0195312 6.09375 -0.78125 C 4.695312 -1.539062 3.613281 -2.648438 2.84375 -4.109375 C 2.070312 -5.578125 1.6875 -7.347656 1.6875 -9.421875 C 1.6875 -11.492188 2.070312 -13.265625 2.84375 -14.734375 C 3.613281 -16.203125 4.695312 -17.3125 6.09375 -18.0625 C 7.488281 -18.820312 9.109375 -19.203125 10.953125 -19.203125 C 12.796875 -19.203125 14.414062 -18.820312 15.8125 -18.0625 C 17.207031 -17.3125 18.289062 -16.203125 19.0625 -14.734375 C 19.84375 -13.265625 20.234375 -11.492188 20.234375 -9.421875 C 20.234375 -7.347656 19.84375 -5.578125 19.0625 -4.109375 C 18.289062 -2.648438 17.207031 -1.539062 15.8125 -0.78125 C 14.414062 -0.0195312 12.796875 0.359375 10.953125 0.359375 Z M 10.953125 -3.65625 C 13.878906 -3.65625 15.34375 -5.578125 15.34375 -9.421875 C 15.34375 -11.410156 14.96875 -12.867188 14.21875 -13.796875 C 13.46875 -14.722656 12.378906 -15.1875 10.953125 -15.1875 C 8.023438 -15.1875 6.5625 -13.265625 6.5625 -9.421875 C 6.5625 -5.578125 8.023438 -3.65625 10.953125 -3.65625 Z M 10.953125 -3.65625 "/></g></g></g><g fill="#ffffff" fill-opacity="1"><g transform="translate(288.711783, 387.967655)"><g><path d="M 5.078125 -21.109375 C 4.222656 -21.109375 3.523438 -21.363281 2.984375 -21.875 C 2.453125 -22.394531 2.1875 -23.066406 2.1875 -23.890625 C 2.1875 -24.703125 2.453125 -25.363281 2.984375 -25.875 C 3.523438 -26.394531 4.222656 -26.65625 5.078125 -26.65625 C 5.648438 -26.65625 6.15625 -26.535156 6.59375 -26.296875 C 7.039062 -26.054688 7.382812 -25.726562 7.625 -25.3125 C 7.875 -24.894531 8 -24.421875 8 -23.890625 C 8 -23.359375 7.875 -22.878906 7.625 -22.453125 C 7.382812 -22.035156 7.039062 -21.707031 6.59375 -21.46875 C 6.15625 -21.226562 5.648438 -21.109375 5.078125 -21.109375 Z M 2.71875 0 L 2.71875 -18.84375 L 7.453125 -18.84375 L 7.453125 0 Z M 2.71875 0 "/></g></g></g><g fill="#ffffff" fill-opacity="1"><g transform="translate(298.860884, 387.967655)"><g><path d="M 7.828125 0.359375 C 6.128906 0.359375 4.832031 -0.0976562 3.9375 -1.015625 C 3.039062 -1.929688 2.59375 -3.328125 2.59375 -5.203125 L 2.59375 -26.421875 L 7.328125 -26.421875 L 7.328125 -5.390625 C 7.328125 -4.234375 7.804688 -3.65625 8.765625 -3.65625 C 9.035156 -3.65625 9.328125 -3.703125 9.640625 -3.796875 L 9.875 -3.71875 L 10.3125 -0.078125 C 10.039062 0.0546875 9.6875 0.160156 9.25 0.234375 C 8.820312 0.316406 8.347656 0.359375 7.828125 0.359375 Z M 7.828125 0.359375 "/></g></g></g><g fill="#ffffff" fill-opacity="1"><g transform="translate(309.693426, 387.967655)"><g/></g></g><g fill="#ffffff" fill-opacity="1"><g transform="translate(317.945977, 387.967655)"><g><path d="M 5.078125 -21.109375 C 4.222656 -21.109375 3.523438 -21.363281 2.984375 -21.875 C 2.453125 -22.394531 2.1875 -23.066406 2.1875 -23.890625 C 2.1875 -24.703125 2.453125 -25.363281 2.984375 -25.875 C 3.523438 -26.394531 4.222656 -26.65625 5.078125 -26.65625 C 5.648438 -26.65625 6.15625 -26.535156 6.59375 -26.296875 C 7.039062 -26.054688 7.382812 -25.726562 7.625 -25.3125 C 7.875 -24.894531 8 -24.421875 8 -23.890625 C 8 -23.359375 7.875 -22.878906 7.625 -22.453125 C 7.382812 -22.035156 7.039062 -21.707031 6.59375 -21.46875 C 6.15625 -21.226562 5.648438 -21.109375 5.078125 -21.109375 Z M 2.71875 0 L 2.71875 -18.84375 L 7.453125 -18.84375 L 7.453125 0 Z M 2.71875 0 "/></g></g></g><g fill="#ffffff" fill-opacity="1"><g transform="translate(328.095078, 387.967655)"><g><path d="M 8.8125 0.359375 C 7.53125 0.359375 6.351562 0.207031 5.28125 -0.09375 C 4.207031 -0.394531 3.289062 -0.8125 2.53125 -1.34375 C 1.78125 -1.875 1.222656 -2.476562 0.859375 -3.15625 L 3.484375 -6 L 3.84375 -6 C 4.46875 -5.15625 5.207031 -4.519531 6.0625 -4.09375 C 6.914062 -3.675781 7.847656 -3.46875 8.859375 -3.46875 C 9.773438 -3.46875 10.46875 -3.628906 10.9375 -3.953125 C 11.40625 -4.285156 11.640625 -4.765625 11.640625 -5.390625 C 11.640625 -5.859375 11.46875 -6.253906 11.125 -6.578125 C 10.789062 -6.910156 10.25 -7.164062 9.5 -7.34375 L 7 -7.953125 C 5.132812 -8.390625 3.769531 -9.066406 2.90625 -9.984375 C 2.050781 -10.898438 1.625 -12.066406 1.625 -13.484375 C 1.625 -14.660156 1.921875 -15.679688 2.515625 -16.546875 C 3.117188 -17.410156 3.960938 -18.066406 5.046875 -18.515625 C 6.140625 -18.972656 7.410156 -19.203125 8.859375 -19.203125 C 10.554688 -19.203125 11.960938 -18.957031 13.078125 -18.46875 C 14.191406 -17.976562 15.0625 -17.328125 15.6875 -16.515625 L 13.15625 -13.78125 L 12.8125 -13.78125 C 12.289062 -14.363281 11.703125 -14.789062 11.046875 -15.0625 C 10.390625 -15.34375 9.660156 -15.484375 8.859375 -15.484375 C 6.984375 -15.484375 6.046875 -14.898438 6.046875 -13.734375 C 6.046875 -13.242188 6.21875 -12.84375 6.5625 -12.53125 C 6.914062 -12.226562 7.53125 -11.984375 8.40625 -11.796875 L 10.734375 -11.28125 C 12.648438 -10.875 14.046875 -10.21875 14.921875 -9.3125 C 15.804688 -8.40625 16.25 -7.1875 16.25 -5.65625 C 16.25 -4.457031 15.953125 -3.398438 15.359375 -2.484375 C 14.765625 -1.578125 13.910156 -0.875 12.796875 -0.375 C 11.679688 0.113281 10.351562 0.359375 8.8125 0.359375 Z M 8.8125 0.359375 "/></g></g></g><g fill="#ffffff" fill-opacity="1"><g transform="translate(345.471568, 387.967655)"><g/></g></g><g fill="#ffffff" fill-opacity="1"><g transform="translate(353.72412, 387.967655)"><g><path d="M 13 -4.5 L 14.234375 -0.984375 C 13.722656 -0.566406 13.078125 -0.238281 12.296875 0 C 11.523438 0.238281 10.648438 0.359375 9.671875 0.359375 C 7.628906 0.359375 6.078125 -0.191406 5.015625 -1.296875 C 3.960938 -2.410156 3.4375 -4.03125 3.4375 -6.15625 L 3.4375 -15.109375 L 0.5625 -15.109375 L 0.5625 -18.875 L 3.4375 -18.875 L 3.4375 -22.546875 L 8.171875 -23.3125 L 8.171875 -18.875 L 13.515625 -18.875 L 13.515625 -15.109375 L 8.171875 -15.109375 L 8.171875 -6.5 C 8.171875 -5.5625 8.363281 -4.878906 8.75 -4.453125 C 9.132812 -4.023438 9.695312 -3.8125 10.4375 -3.8125 C 11.28125 -3.8125 12.015625 -4.039062 12.640625 -4.5 Z M 13 -4.5 "/></g></g></g><g fill="#ffffff" fill-opacity="1"><g transform="translate(368.366846, 387.967655)"><g><path d="M 4.171875 8 C 3.359375 8 2.625 7.9375 1.96875 7.8125 C 1.3125 7.6875 0.78125 7.519531 0.375 7.3125 L 1.125 3.484375 L 1.4375 3.390625 C 1.71875 3.535156 2.066406 3.648438 2.484375 3.734375 C 2.910156 3.828125 3.347656 3.875 3.796875 3.875 C 4.554688 3.875 5.1875 3.773438 5.6875 3.578125 C 6.195312 3.378906 6.628906 3.046875 6.984375 2.578125 C 7.335938 2.117188 7.65625 1.484375 7.9375 0.671875 L 0.40625 -18.84375 L 5.359375 -18.84375 L 10.046875 -5.75 L 10.453125 -5.75 L 15.015625 -18.84375 L 19.84375 -18.84375 L 12.265625 1.171875 C 11.660156 2.796875 10.992188 4.097656 10.265625 5.078125 C 9.546875 6.066406 8.691406 6.800781 7.703125 7.28125 C 6.722656 7.757812 5.546875 8 4.171875 8 Z M 4.171875 8 "/></g></g></g><g fill="#ffffff" fill-opacity="1"><g transform="translate(388.596704, 387.967655)"><g><path d="M 2.71875 7.640625 L 2.71875 -18.84375 L 7.453125 -18.84375 L 7.453125 -16.390625 L 7.8125 -16.328125 C 8.363281 -17.273438 9.109375 -17.988281 10.046875 -18.46875 C 10.984375 -18.957031 12.078125 -19.203125 13.328125 -19.203125 C 14.847656 -19.203125 16.171875 -18.84375 17.296875 -18.125 C 18.429688 -17.414062 19.316406 -16.328125 19.953125 -14.859375 C 20.585938 -13.390625 20.90625 -11.578125 20.90625 -9.421875 C 20.90625 -7.265625 20.570312 -5.457031 19.90625 -4 C 19.238281 -2.539062 18.3125 -1.445312 17.125 -0.71875 C 15.9375 0 14.566406 0.359375 13.015625 0.359375 C 11.847656 0.359375 10.835938 0.160156 9.984375 -0.234375 C 9.128906 -0.628906 8.40625 -1.238281 7.8125 -2.0625 L 7.453125 -2 L 7.453125 7.640625 Z M 11.703125 -3.65625 C 13.117188 -3.65625 14.191406 -4.113281 14.921875 -5.03125 C 15.648438 -5.957031 16.015625 -7.421875 16.015625 -9.421875 C 16.015625 -11.410156 15.648438 -12.867188 14.921875 -13.796875 C 14.191406 -14.722656 13.117188 -15.1875 11.703125 -15.1875 C 10.378906 -15.1875 9.332031 -14.707031 8.5625 -13.75 C 7.789062 -12.800781 7.40625 -11.359375 7.40625 -9.421875 C 7.40625 -7.492188 7.789062 -6.050781 8.5625 -5.09375 C 9.332031 -4.132812 10.378906 -3.65625 11.703125 -3.65625 Z M 11.703125 -3.65625 "/></g></g></g><g fill="#ffffff" fill-opacity="1"><g transform="translate(411.167348, 387.967655)"><g><path d="M 5.078125 -21.109375 C 4.222656 -21.109375 3.523438 -21.363281 2.984375 -21.875 C 2.453125 -22.394531 2.1875 -23.066406 2.1875 -23.890625 C 2.1875 -24.703125 2.453125 -25.363281 2.984375 -25.875 C 3.523438 -26.394531 4.222656 -26.65625 5.078125 -26.65625 C 5.648438 -26.65625 6.15625 -26.535156 6.59375 -26.296875 C 7.039062 -26.054688 7.382812 -25.726562 7.625 -25.3125 C 7.875 -24.894531 8 -24.421875 8 -23.890625 C 8 -23.359375 7.875 -22.878906 7.625 -22.453125 C 7.382812 -22.035156 7.039062 -21.707031 6.59375 -21.46875 C 6.15625 -21.226562 5.648438 -21.109375 5.078125 -21.109375 Z M 2.71875 0 L 2.71875 -18.84375 L 7.453125 -18.84375 L 7.453125 0 Z M 2.71875 0 "/></g></g></g><g fill="#ffffff" fill-opacity="1"><g transform="translate(421.316448, 387.967655)"><g><path d="M 10.984375 0.359375 C 9.160156 0.359375 7.546875 -0.0195312 6.140625 -0.78125 C 4.742188 -1.539062 3.648438 -2.65625 2.859375 -4.125 C 2.078125 -5.59375 1.6875 -7.359375 1.6875 -9.421875 C 1.6875 -11.492188 2.078125 -13.265625 2.859375 -14.734375 C 3.648438 -16.203125 4.738281 -17.3125 6.125 -18.0625 C 7.519531 -18.820312 9.113281 -19.203125 10.90625 -19.203125 C 14.882812 -19.203125 17.429688 -17.765625 18.546875 -14.890625 L 15.296875 -12.5625 L 14.9375 -12.5625 C 14.550781 -13.445312 14.046875 -14.101562 13.421875 -14.53125 C 12.804688 -14.96875 11.96875 -15.1875 10.90625 -15.1875 C 9.539062 -15.1875 8.472656 -14.710938 7.703125 -13.765625 C 6.941406 -12.828125 6.5625 -11.378906 6.5625 -9.421875 C 6.5625 -7.484375 6.945312 -6.035156 7.71875 -5.078125 C 8.5 -4.128906 9.585938 -3.65625 10.984375 -3.65625 C 12.015625 -3.65625 12.882812 -3.929688 13.59375 -4.484375 C 14.300781 -5.035156 14.8125 -5.832031 15.125 -6.875 L 15.484375 -6.90625 L 18.84375 -5.0625 C 18.363281 -3.46875 17.476562 -2.164062 16.1875 -1.15625 C 14.894531 -0.144531 13.160156 0.359375 10.984375 0.359375 Z M 10.984375 0.359375 "/></g></g></g><g fill="#ffffff" fill-opacity="1"><g transform="translate(440.743262, 387.967655)"><g><path d="M 7.34375 0.359375 C 6.132812 0.359375 5.085938 0.140625 4.203125 -0.296875 C 3.316406 -0.742188 2.632812 -1.398438 2.15625 -2.265625 C 1.675781 -3.128906 1.4375 -4.160156 1.4375 -5.359375 C 1.4375 -6.484375 1.675781 -7.421875 2.15625 -8.171875 C 2.632812 -8.929688 3.375 -9.550781 4.375 -10.03125 C 5.375 -10.519531 6.6875 -10.894531 8.3125 -11.15625 C 9.4375 -11.34375 10.289062 -11.539062 10.875 -11.75 C 11.46875 -11.96875 11.863281 -12.210938 12.0625 -12.484375 C 12.269531 -12.765625 12.375 -13.113281 12.375 -13.53125 C 12.375 -14.132812 12.160156 -14.59375 11.734375 -14.90625 C 11.316406 -15.226562 10.617188 -15.390625 9.640625 -15.390625 C 8.585938 -15.390625 7.585938 -15.15625 6.640625 -14.6875 C 5.703125 -14.226562 4.882812 -13.617188 4.1875 -12.859375 L 3.84375 -12.859375 L 1.859375 -15.84375 C 2.816406 -16.90625 3.984375 -17.726562 5.359375 -18.3125 C 6.742188 -18.90625 8.25 -19.203125 9.875 -19.203125 C 12.375 -19.203125 14.179688 -18.671875 15.296875 -17.609375 C 16.410156 -16.554688 16.96875 -15.054688 16.96875 -13.109375 L 16.96875 -4.921875 C 16.96875 -4.078125 17.335938 -3.65625 18.078125 -3.65625 C 18.367188 -3.65625 18.648438 -3.707031 18.921875 -3.8125 L 19.15625 -3.75 L 19.5 -0.4375 C 19.238281 -0.269531 18.875 -0.128906 18.40625 -0.015625 C 17.9375 0.0859375 17.425781 0.140625 16.875 0.140625 C 15.738281 0.140625 14.851562 -0.0703125 14.21875 -0.5 C 13.59375 -0.9375 13.144531 -1.617188 12.875 -2.546875 L 12.515625 -2.578125 C 11.585938 -0.617188 9.863281 0.359375 7.34375 0.359375 Z M 8.859375 -3.171875 C 9.953125 -3.171875 10.820312 -3.539062 11.46875 -4.28125 C 12.125 -5.019531 12.453125 -6.039062 12.453125 -7.34375 L 12.453125 -9.265625 L 12.140625 -9.328125 C 11.847656 -9.097656 11.472656 -8.90625 11.015625 -8.75 C 10.554688 -8.601562 9.894531 -8.457031 9.03125 -8.3125 C 8 -8.132812 7.257812 -7.835938 6.8125 -7.421875 C 6.363281 -7.003906 6.140625 -6.414062 6.140625 -5.65625 C 6.140625 -4.84375 6.378906 -4.222656 6.859375 -3.796875 C 7.335938 -3.378906 8.003906 -3.171875 8.859375 -3.171875 Z M 8.859375 -3.171875 "/></g></g></g><g fill="#ffffff" fill-opacity="1"><g transform="translate(460.614325, 387.967655)"><g><path d="M 7.828125 0.359375 C 6.128906 0.359375 4.832031 -0.0976562 3.9375 -1.015625 C 3.039062 -1.929688 2.59375 -3.328125 2.59375 -5.203125 L 2.59375 -26.421875 L 7.328125 -26.421875 L 7.328125 -5.390625 C 7.328125 -4.234375 7.804688 -3.65625 8.765625 -3.65625 C 9.035156 -3.65625 9.328125 -3.703125 9.640625 -3.796875 L 9.875 -3.71875 L 10.3125 -0.078125 C 10.039062 0.0546875 9.6875 0.160156 9.25 0.234375 C 8.820312 0.316406 8.347656 0.359375 7.828125 0.359375 Z M 7.828125 0.359375 "/></g></g></g><g fill="#ffffff" fill-opacity="1"><g transform="translate(471.446844, 387.967655)"><g><path d="M 7.828125 0.359375 C 6.128906 0.359375 4.832031 -0.0976562 3.9375 -1.015625 C 3.039062 -1.929688 2.59375 -3.328125 2.59375 -5.203125 L 2.59375 -26.421875 L 7.328125 -26.421875 L 7.328125 -5.390625 C 7.328125 -4.234375 7.804688 -3.65625 8.765625 -3.65625 C 9.035156 -3.65625 9.328125 -3.703125 9.640625 -3.796875 L 9.875 -3.71875 L 10.3125 -0.078125 C 10.039062 0.0546875 9.6875 0.160156 9.25 0.234375 C 8.820312 0.316406 8.347656 0.359375 7.828125 0.359375 Z M 7.828125 0.359375 "/></g></g></g><g fill="#ffffff" fill-opacity="1"><g transform="translate(482.279409, 387.967655)"><g><path d="M 4.171875 8 C 3.359375 8 2.625 7.9375 1.96875 7.8125 C 1.3125 7.6875 0.78125 7.519531 0.375 7.3125 L 1.125 3.484375 L 1.4375 3.390625 C 1.71875 3.535156 2.066406 3.648438 2.484375 3.734375 C 2.910156 3.828125 3.347656 3.875 3.796875 3.875 C 4.554688 3.875 5.1875 3.773438 5.6875 3.578125 C 6.195312 3.378906 6.628906 3.046875 6.984375 2.578125 C 7.335938 2.117188 7.65625 1.484375 7.9375 0.671875 L 0.40625 -18.84375 L 5.359375 -18.84375 L 10.046875 -5.75 L 10.453125 -5.75 L 15.015625 -18.84375 L 19.84375 -18.84375 L 12.265625 1.171875 C 11.660156 2.796875 10.992188 4.097656 10.265625 5.078125 C 9.546875 6.066406 8.691406 6.800781 7.703125 7.28125 C 6.722656 7.757812 5.546875 8 4.171875 8 Z M 4.171875 8 "/></g></g></g><g fill="#ffffff" fill-opacity="1"><g transform="translate(502.509266, 387.967655)"><g/></g></g><g fill="#ffffff" fill-opacity="1"><g transform="translate(510.761807, 387.967655)"><g><path d="M 13 -4.5 L 14.234375 -0.984375 C 13.722656 -0.566406 13.078125 -0.238281 12.296875 0 C 11.523438 0.238281 10.648438 0.359375 9.671875 0.359375 C 7.628906 0.359375 6.078125 -0.191406 5.015625 -1.296875 C 3.960938 -2.410156 3.4375 -4.03125 3.4375 -6.15625 L 3.4375 -15.109375 L 0.5625 -15.109375 L 0.5625 -18.875 L 3.4375 -18.875 L 3.4375 -22.546875 L 8.171875 -23.3125 L 8.171875 -18.875 L 13.515625 -18.875 L 13.515625 -15.109375 L 8.171875 -15.109375 L 8.171875 -6.5 C 8.171875 -5.5625 8.363281 -4.878906 8.75 -4.453125 C 9.132812 -4.023438 9.695312 -3.8125 10.4375 -3.8125 C 11.28125 -3.8125 12.015625 -4.039062 12.640625 -4.5 Z M 13 -4.5 "/></g></g></g><g fill="#ffffff" fill-opacity="1"><g transform="translate(525.404544, 387.967655)"><g><path d="M 2.71875 0 L 2.71875 -26.421875 L 7.453125 -26.421875 L 7.453125 -16.390625 L 7.8125 -16.328125 C 8.4375 -17.242188 9.203125 -17.953125 10.109375 -18.453125 C 11.023438 -18.953125 12.128906 -19.203125 13.421875 -19.203125 C 17.578125 -19.203125 19.65625 -16.847656 19.65625 -12.140625 L 19.65625 0 L 14.921875 0 L 14.921875 -11.53125 C 14.921875 -12.820312 14.660156 -13.753906 14.140625 -14.328125 C 13.628906 -14.910156 12.835938 -15.203125 11.765625 -15.203125 C 10.441406 -15.203125 9.390625 -14.757812 8.609375 -13.875 C 7.835938 -13 7.453125 -11.628906 7.453125 -9.765625 L 7.453125 0 Z M 2.71875 0 "/></g></g></g><g fill="#ffffff" fill-opacity="1"><g transform="translate(547.479693, 387.967655)"><g><path d="M 2.71875 0 L 2.71875 -18.84375 L 7.3125 -18.84375 L 7.3125 -16.046875 L 7.671875 -15.984375 C 8.128906 -17.023438 8.726562 -17.789062 9.46875 -18.28125 C 10.207031 -18.769531 11.109375 -19.015625 12.171875 -19.015625 C 13.242188 -19.015625 14.054688 -18.832031 14.609375 -18.46875 L 13.8125 -14.390625 L 13.453125 -14.328125 C 13.140625 -14.453125 12.84375 -14.539062 12.5625 -14.59375 C 12.28125 -14.65625 11.929688 -14.6875 11.515625 -14.6875 C 10.191406 -14.6875 9.179688 -14.21875 8.484375 -13.28125 C 7.796875 -12.351562 7.453125 -10.863281 7.453125 -8.8125 L 7.453125 0 Z M 2.71875 0 "/></g></g></g><g fill="#ffffff" fill-opacity="1"><g transform="translate(561.763567, 387.967655)"><g><path d="M 10.953125 0.359375 C 9.109375 0.359375 7.488281 -0.0195312 6.09375 -0.78125 C 4.695312 -1.539062 3.613281 -2.648438 2.84375 -4.109375 C 2.070312 -5.578125 1.6875 -7.347656 1.6875 -9.421875 C 1.6875 -11.492188 2.070312 -13.265625 2.84375 -14.734375 C 3.613281 -16.203125 4.695312 -17.3125 6.09375 -18.0625 C 7.488281 -18.820312 9.109375 -19.203125 10.953125 -19.203125 C 12.796875 -19.203125 14.414062 -18.820312 15.8125 -18.0625 C 17.207031 -17.3125 18.289062 -16.203125 19.0625 -14.734375 C 19.84375 -13.265625 20.234375 -11.492188 20.234375 -9.421875 C 20.234375 -7.347656 19.84375 -5.578125 19.0625 -4.109375 C 18.289062 -2.648438 17.207031 -1.539062 15.8125 -0.78125 C 14.414062 -0.0195312 12.796875 0.359375 10.953125 0.359375 Z M 10.953125 -3.65625 C 13.878906 -3.65625 15.34375 -5.578125 15.34375 -9.421875 C 15.34375 -11.410156 14.96875 -12.867188 14.21875 -13.796875 C 13.46875 -14.722656 12.378906 -15.1875 10.953125 -15.1875 C 8.023438 -15.1875 6.5625 -13.265625 6.5625 -9.421875 C 6.5625 -5.578125 8.023438 -3.65625 10.953125 -3.65625 Z M 10.953125 -3.65625 "/></g></g></g><g fill="#ffffff" fill-opacity="1"><g transform="translate(583.531144, 387.967655)"><g><path d="M 10.125 0 L 5.15625 0 L 0.6875 -18.84375 L 5.078125 -18.84375 L 7.84375 -6.09375 L 8.203125 -6.09375 L 11.796875 -18.84375 L 15.890625 -18.84375 L 19.609375 -6.09375 L 19.96875 -6.09375 L 22.625 -18.84375 L 26.90625 -18.84375 L 22.46875 0 L 17.5 0 L 13.921875 -12.828125 L 13.5625 -12.828125 Z M 10.125 0 "/></g></g></g><g fill="#ffffff" fill-opacity="1"><g transform="translate(611.090919, 387.967655)"><g><path d="M 2.71875 0 L 2.71875 -18.84375 L 7.265625 -18.84375 L 7.265625 -16.078125 L 7.625 -16 C 8.789062 -18.132812 10.691406 -19.203125 13.328125 -19.203125 C 15.503906 -19.203125 17.101562 -18.609375 18.125 -17.421875 C 19.144531 -16.242188 19.65625 -14.519531 19.65625 -12.25 L 19.65625 0 L 14.921875 0 L 14.921875 -11.671875 C 14.921875 -12.921875 14.671875 -13.820312 14.171875 -14.375 C 13.671875 -14.925781 12.867188 -15.203125 11.765625 -15.203125 C 10.398438 -15.203125 9.335938 -14.765625 8.578125 -13.890625 C 7.828125 -13.015625 7.453125 -11.640625 7.453125 -9.765625 L 7.453125 0 Z M 2.71875 0 "/></g></g></g><g fill="#ffffff" fill-opacity="1"><g transform="translate(303.991087, 436.717652)"><g><path d="M 7.34375 0.359375 C 6.132812 0.359375 5.085938 0.140625 4.203125 -0.296875 C 3.316406 -0.742188 2.632812 -1.398438 2.15625 -2.265625 C 1.675781 -3.128906 1.4375 -4.160156 1.4375 -5.359375 C 1.4375 -6.484375 1.675781 -7.421875 2.15625 -8.171875 C 2.632812 -8.929688 3.375 -9.550781 4.375 -10.03125 C 5.375 -10.519531 6.6875 -10.894531 8.3125 -11.15625 C 9.4375 -11.34375 10.289062 -11.539062 10.875 -11.75 C 11.46875 -11.96875 11.863281 -12.210938 12.0625 -12.484375 C 12.269531 -12.765625 12.375 -13.113281 12.375 -13.53125 C 12.375 -14.132812 12.160156 -14.59375 11.734375 -14.90625 C 11.316406 -15.226562 10.617188 -15.390625 9.640625 -15.390625 C 8.585938 -15.390625 7.585938 -15.15625 6.640625 -14.6875 C 5.703125 -14.226562 4.882812 -13.617188 4.1875 -12.859375 L 3.84375 -12.859375 L 1.859375 -15.84375 C 2.816406 -16.90625 3.984375 -17.726562 5.359375 -18.3125 C 6.742188 -18.90625 8.25 -19.203125 9.875 -19.203125 C 12.375 -19.203125 14.179688 -18.671875 15.296875 -17.609375 C 16.410156 -16.554688 16.96875 -15.054688 16.96875 -13.109375 L 16.96875 -4.921875 C 16.96875 -4.078125 17.335938 -3.65625 18.078125 -3.65625 C 18.367188 -3.65625 18.648438 -3.707031 18.921875 -3.8125 L 19.15625 -3.75 L 19.5 -0.4375 C 19.238281 -0.269531 18.875 -0.128906 18.40625 -0.015625 C 17.9375 0.0859375 17.425781 0.140625 16.875 0.140625 C 15.738281 0.140625 14.851562 -0.0703125 14.21875 -0.5 C 13.59375 -0.9375 13.144531 -1.617188 12.875 -2.546875 L 12.515625 -2.578125 C 11.585938 -0.617188 9.863281 0.359375 7.34375 0.359375 Z M 8.859375 -3.171875 C 9.953125 -3.171875 10.820312 -3.539062 11.46875 -4.28125 C 12.125 -5.019531 12.453125 -6.039062 12.453125 -7.34375 L 12.453125 -9.265625 L 12.140625 -9.328125 C 11.847656 -9.097656 11.472656 -8.90625 11.015625 -8.75 C 10.554688 -8.601562 9.894531 -8.457031 9.03125 -8.3125 C 8 -8.132812 7.257812 -7.835938 6.8125 -7.421875 C 6.363281 -7.003906 6.140625 -6.414062 6.140625 -5.65625 C 6.140625 -4.84375 6.378906 -4.222656 6.859375 -3.796875 C 7.335938 -3.378906 8.003906 -3.171875 8.859375 -3.171875 Z M 8.859375 -3.171875 "/></g></g></g><g fill="#ffffff" fill-opacity="1"><g transform="translate(323.639996, 436.717652)"><g><path d="M 10.125 0 L 5.15625 0 L 0.6875 -18.84375 L 5.078125 -18.84375 L 7.84375 -6.09375 L 8.203125 -6.09375 L 11.796875 -18.84375 L 15.890625 -18.84375 L 19.609375 -6.09375 L 19.96875 -6.09375 L 22.625 -18.84375 L 26.90625 -18.84375 L 22.46875 0 L 17.5 0 L 13.921875 -12.828125 L 13.5625 -12.828125 Z M 10.125 0 "/></g></g></g><g fill="#ffffff" fill-opacity="1"><g transform="translate(350.909274, 436.717652)"><g><path d="M 7.34375 0.359375 C 6.132812 0.359375 5.085938 0.140625 4.203125 -0.296875 C 3.316406 -0.742188 2.632812 -1.398438 2.15625 -2.265625 C 1.675781 -3.128906 1.4375 -4.160156 1.4375 -5.359375 C 1.4375 -6.484375 1.675781 -7.421875 2.15625 -8.171875 C 2.632812 -8.929688 3.375 -9.550781 4.375 -10.03125 C 5.375 -10.519531 6.6875 -10.894531 8.3125 -11.15625 C 9.4375 -11.34375 10.289062 -11.539062 10.875 -11.75 C 11.46875 -11.96875 11.863281 -12.210938 12.0625 -12.484375 C 12.269531 -12.765625 12.375 -13.113281 12.375 -13.53125 C 12.375 -14.132812 12.160156 -14.59375 11.734375 -14.90625 C 11.316406 -15.226562 10.617188 -15.390625 9.640625 -15.390625 C 8.585938 -15.390625 7.585938 -15.15625 6.640625 -14.6875 C 5.703125 -14.226562 4.882812 -13.617188 4.1875 -12.859375 L 3.84375 -12.859375 L 1.859375 -15.84375 C 2.816406 -16.90625 3.984375 -17.726562 5.359375 -18.3125 C 6.742188 -18.90625 8.25 -19.203125 9.875 -19.203125 C 12.375 -19.203125 14.179688 -18.671875 15.296875 -17.609375 C 16.410156 -16.554688 16.96875 -15.054688 16.96875 -13.109375 L 16.96875 -4.921875 C 16.96875 -4.078125 17.335938 -3.65625 18.078125 -3.65625 C 18.367188 -3.65625 18.648438 -3.707031 18.921875 -3.8125 L 19.15625 -3.75 L 19.5 -0.4375 C 19.238281 -0.269531 18.875 -0.128906 18.40625 -0.015625 C 17.9375 0.0859375 17.425781 0.140625 16.875 0.140625 C 15.738281 0.140625 14.851562 -0.0703125 14.21875 -0.5 C 13.59375 -0.9375 13.144531 -1.617188 12.875 -2.546875 L 12.515625 -2.578125 C 11.585938 -0.617188 9.863281 0.359375 7.34375 0.359375 Z M 8.859375 -3.171875 C 9.953125 -3.171875 10.820312 -3.539062 11.46875 -4.28125 C 12.125 -5.019531 12.453125 -6.039062 12.453125 -7.34375 L 12.453125 -9.265625 L 12.140625 -9.328125 C 11.847656 -9.097656 11.472656 -8.90625 11.015625 -8.75 C 10.554688 -8.601562 9.894531 -8.457031 9.03125 -8.3125 C 8 -8.132812 7.257812 -7.835938 6.8125 -7.421875 C 6.363281 -7.003906 6.140625 -6.414062 6.140625 -5.65625 C 6.140625 -4.84375 6.378906 -4.222656 6.859375 -3.796875 C 7.335938 -3.378906 8.003906 -3.171875 8.859375 -3.171875 Z M 8.859375 -3.171875 "/></g></g></g><g fill="#ffffff" fill-opacity="1"><g transform="translate(370.421484, 436.717652)"><g><path d="M 4.171875 8 C 3.359375 8 2.625 7.9375 1.96875 7.8125 C 1.3125 7.6875 0.78125 7.519531 0.375 7.3125 L 1.125 3.484375 L 1.4375 3.390625 C 1.71875 3.535156 2.066406 3.648438 2.484375 3.734375 C 2.910156 3.828125 3.347656 3.875 3.796875 3.875 C 4.554688 3.875 5.1875 3.773438 5.6875 3.578125 C 6.195312 3.378906 6.628906 3.046875 6.984375 2.578125 C 7.335938 2.117188 7.65625 1.484375 7.9375 0.671875 L 0.40625 -18.84375 L 5.359375 -18.84375 L 10.046875 -5.75 L 10.453125 -5.75 L 15.015625 -18.84375 L 19.84375 -18.84375 L 12.265625 1.171875 C 11.660156 2.796875 10.992188 4.097656 10.265625 5.078125 C 9.546875 6.066406 8.691406 6.800781 7.703125 7.28125 C 6.722656 7.757812 5.546875 8 4.171875 8 Z M 4.171875 8 "/></g></g></g><g fill="#ffffff" fill-opacity="1"><g transform="translate(390.651341, 436.717652)"><g/></g></g><g fill="#ffffff" fill-opacity="1"><g transform="translate(398.903893, 436.717652)"><g><path d="M 18.625 -8.359375 L 6.515625 -8.359375 C 6.648438 -6.710938 7.113281 -5.515625 7.90625 -4.765625 C 8.707031 -4.023438 9.796875 -3.65625 11.171875 -3.65625 C 12.253906 -3.65625 13.128906 -3.859375 13.796875 -4.265625 C 14.472656 -4.671875 15.019531 -5.28125 15.4375 -6.09375 L 15.796875 -6.09375 L 18.9375 -4.078125 C 18.320312 -2.765625 17.390625 -1.695312 16.140625 -0.875 C 14.898438 -0.0507812 13.242188 0.359375 11.171875 0.359375 C 9.222656 0.359375 7.539062 -0.0078125 6.125 -0.75 C 4.707031 -1.488281 3.613281 -2.585938 2.84375 -4.046875 C 2.070312 -5.515625 1.6875 -7.304688 1.6875 -9.421875 C 1.6875 -11.554688 2.09375 -13.359375 2.90625 -14.828125 C 3.71875 -16.296875 4.8125 -17.390625 6.1875 -18.109375 C 7.5625 -18.835938 9.109375 -19.203125 10.828125 -19.203125 C 13.492188 -19.203125 15.535156 -18.492188 16.953125 -17.078125 C 18.378906 -15.671875 19.09375 -13.601562 19.09375 -10.875 C 19.09375 -9.875 19.054688 -9.101562 18.984375 -8.5625 Z M 14.5625 -11.421875 C 14.519531 -12.847656 14.1875 -13.890625 13.5625 -14.546875 C 12.9375 -15.203125 12.023438 -15.53125 10.828125 -15.53125 C 8.441406 -15.53125 7.035156 -14.160156 6.609375 -11.421875 Z M 14.5625 -11.421875 "/></g></g></g><g fill="#ffffff" fill-opacity="1"><g transform="translate(419.390041, 436.717652)"><g><path d="M 12.96875 0 L 7.328125 0 L 0.359375 -18.84375 L 5.3125 -18.84375 L 10 -5.421875 L 10.390625 -5.421875 L 15.09375 -18.84375 L 19.921875 -18.84375 Z M 12.96875 0 "/></g></g></g><g fill="#ffffff" fill-opacity="1"><g transform="translate(439.29523, 436.717652)"><g><path d="M 18.625 -8.359375 L 6.515625 -8.359375 C 6.648438 -6.710938 7.113281 -5.515625 7.90625 -4.765625 C 8.707031 -4.023438 9.796875 -3.65625 11.171875 -3.65625 C 12.253906 -3.65625 13.128906 -3.859375 13.796875 -4.265625 C 14.472656 -4.671875 15.019531 -5.28125 15.4375 -6.09375 L 15.796875 -6.09375 L 18.9375 -4.078125 C 18.320312 -2.765625 17.390625 -1.695312 16.140625 -0.875 C 14.898438 -0.0507812 13.242188 0.359375 11.171875 0.359375 C 9.222656 0.359375 7.539062 -0.0078125 6.125 -0.75 C 4.707031 -1.488281 3.613281 -2.585938 2.84375 -4.046875 C 2.070312 -5.515625 1.6875 -7.304688 1.6875 -9.421875 C 1.6875 -11.554688 2.09375 -13.359375 2.90625 -14.828125 C 3.71875 -16.296875 4.8125 -17.390625 6.1875 -18.109375 C 7.5625 -18.835938 9.109375 -19.203125 10.828125 -19.203125 C 13.492188 -19.203125 15.535156 -18.492188 16.953125 -17.078125 C 18.378906 -15.671875 19.09375 -13.601562 19.09375 -10.875 C 19.09375 -9.875 19.054688 -9.101562 18.984375 -8.5625 Z M 14.5625 -11.421875 C 14.519531 -12.847656 14.1875 -13.890625 13.5625 -14.546875 C 12.9375 -15.203125 12.023438 -15.53125 10.828125 -15.53125 C 8.441406 -15.53125 7.035156 -14.160156 6.609375 -11.421875 Z M 14.5625 -11.421875 "/></g></g></g><g fill="#ffffff" fill-opacity="1"><g transform="translate(459.781377, 436.717652)"><g><path d="M 2.71875 0 L 2.71875 -18.84375 L 7.3125 -18.84375 L 7.3125 -16.046875 L 7.671875 -15.984375 C 8.128906 -17.023438 8.726562 -17.789062 9.46875 -18.28125 C 10.207031 -18.769531 11.109375 -19.015625 12.171875 -19.015625 C 13.242188 -19.015625 14.054688 -18.832031 14.609375 -18.46875 L 13.8125 -14.390625 L 13.453125 -14.328125 C 13.140625 -14.453125 12.84375 -14.539062 12.5625 -14.59375 C 12.28125 -14.65625 11.929688 -14.6875 11.515625 -14.6875 C 10.191406 -14.6875 9.179688 -14.21875 8.484375 -13.28125 C 7.796875 -12.351562 7.453125 -10.863281 7.453125 -8.8125 L 7.453125 0 Z M 2.71875 0 "/></g></g></g><g fill="#ffffff" fill-opacity="1"><g transform="translate(474.800019, 436.717652)"><g><path d="M 4.171875 8 C 3.359375 8 2.625 7.9375 1.96875 7.8125 C 1.3125 7.6875 0.78125 7.519531 0.375 7.3125 L 1.125 3.484375 L 1.4375 3.390625 C 1.71875 3.535156 2.066406 3.648438 2.484375 3.734375 C 2.910156 3.828125 3.347656 3.875 3.796875 3.875 C 4.554688 3.875 5.1875 3.773438 5.6875 3.578125 C 6.195312 3.378906 6.628906 3.046875 6.984375 2.578125 C 7.335938 2.117188 7.65625 1.484375 7.9375 0.671875 L 0.40625 -18.84375 L 5.359375 -18.84375 L 10.046875 -5.75 L 10.453125 -5.75 L 15.015625 -18.84375 L 19.84375 -18.84375 L 12.265625 1.171875 C 11.660156 2.796875 10.992188 4.097656 10.265625 5.078125 C 9.546875 6.066406 8.691406 6.800781 7.703125 7.28125 C 6.722656 7.757812 5.546875 8 4.171875 8 Z M 4.171875 8 "/></g></g></g><g fill="#ffffff" fill-opacity="1"><g transform="translate(495.029877, 436.717652)"><g/></g></g><g fill="#ffffff" fill-opacity="1"><g transform="translate(503.282429, 436.717652)"><g><path d="M 4.171875 8 C 3.359375 8 2.625 7.9375 1.96875 7.8125 C 1.3125 7.6875 0.78125 7.519531 0.375 7.3125 L 1.125 3.484375 L 1.4375 3.390625 C 1.71875 3.535156 2.066406 3.648438 2.484375 3.734375 C 2.910156 3.828125 3.347656 3.875 3.796875 3.875 C 4.554688 3.875 5.1875 3.773438 5.6875 3.578125 C 6.195312 3.378906 6.628906 3.046875 6.984375 2.578125 C 7.335938 2.117188 7.65625 1.484375 7.9375 0.671875 L 0.40625 -18.84375 L 5.359375 -18.84375 L 10.046875 -5.75 L 10.453125 -5.75 L 15.015625 -18.84375 L 19.84375 -18.84375 L 12.265625 1.171875 C 11.660156 2.796875 10.992188 4.097656 10.265625 5.078125 C 9.546875 6.066406 8.691406 6.800781 7.703125 7.28125 C 6.722656 7.757812 5.546875 8 4.171875 8 Z M 4.171875 8 "/></g></g></g><g fill="#ffffff" fill-opacity="1"><g transform="translate(523.153445, 436.717652)"><g><path d="M 18.625 -8.359375 L 6.515625 -8.359375 C 6.648438 -6.710938 7.113281 -5.515625 7.90625 -4.765625 C 8.707031 -4.023438 9.796875 -3.65625 11.171875 -3.65625 C 12.253906 -3.65625 13.128906 -3.859375 13.796875 -4.265625 C 14.472656 -4.671875 15.019531 -5.28125 15.4375 -6.09375 L 15.796875 -6.09375 L 18.9375 -4.078125 C 18.320312 -2.765625 17.390625 -1.695312 16.140625 -0.875 C 14.898438 -0.0507812 13.242188 0.359375 11.171875 0.359375 C 9.222656 0.359375 7.539062 -0.0078125 6.125 -0.75 C 4.707031 -1.488281 3.613281 -2.585938 2.84375 -4.046875 C 2.070312 -5.515625 1.6875 -7.304688 1.6875 -9.421875 C 1.6875 -11.554688 2.09375 -13.359375 2.90625 -14.828125 C 3.71875 -16.296875 4.8125 -17.390625 6.1875 -18.109375 C 7.5625 -18.835938 9.109375 -19.203125 10.828125 -19.203125 C 13.492188 -19.203125 15.535156 -18.492188 16.953125 -17.078125 C 18.378906 -15.671875 19.09375 -13.601562 19.09375 -10.875 C 19.09375 -9.875 19.054688 -9.101562 18.984375 -8.5625 Z M 14.5625 -11.421875 C 14.519531 -12.847656 14.1875 -13.890625 13.5625 -14.546875 C 12.9375 -15.203125 12.023438 -15.53125 10.828125 -15.53125 C 8.441406 -15.53125 7.035156 -14.160156 6.609375 -11.421875 Z M 14.5625 -11.421875 "/></g></g></g><g fill="#ffffff" fill-opacity="1"><g transform="translate(543.639604, 436.717652)"><g><path d="M 7.34375 0.359375 C 6.132812 0.359375 5.085938 0.140625 4.203125 -0.296875 C 3.316406 -0.742188 2.632812 -1.398438 2.15625 -2.265625 C 1.675781 -3.128906 1.4375 -4.160156 1.4375 -5.359375 C 1.4375 -6.484375 1.675781 -7.421875 2.15625 -8.171875 C 2.632812 -8.929688 3.375 -9.550781 4.375 -10.03125 C 5.375 -10.519531 6.6875 -10.894531 8.3125 -11.15625 C 9.4375 -11.34375 10.289062 -11.539062 10.875 -11.75 C 11.46875 -11.96875 11.863281 -12.210938 12.0625 -12.484375 C 12.269531 -12.765625 12.375 -13.113281 12.375 -13.53125 C 12.375 -14.132812 12.160156 -14.59375 11.734375 -14.90625 C 11.316406 -15.226562 10.617188 -15.390625 9.640625 -15.390625 C 8.585938 -15.390625 7.585938 -15.15625 6.640625 -14.6875 C 5.703125 -14.226562 4.882812 -13.617188 4.1875 -12.859375 L 3.84375 -12.859375 L 1.859375 -15.84375 C 2.816406 -16.90625 3.984375 -17.726562 5.359375 -18.3125 C 6.742188 -18.90625 8.25 -19.203125 9.875 -19.203125 C 12.375 -19.203125 14.179688 -18.671875 15.296875 -17.609375 C 16.410156 -16.554688 16.96875 -15.054688 16.96875 -13.109375 L 16.96875 -4.921875 C 16.96875 -4.078125 17.335938 -3.65625 18.078125 -3.65625 C 18.367188 -3.65625 18.648438 -3.707031 18.921875 -3.8125 L 19.15625 -3.75 L 19.5 -0.4375 C 19.238281 -0.269531 18.875 -0.128906 18.40625 -0.015625 C 17.9375 0.0859375 17.425781 0.140625 16.875 0.140625 C 15.738281 0.140625 14.851562 -0.0703125 14.21875 -0.5 C 13.59375 -0.9375 13.144531 -1.617188 12.875 -2.546875 L 12.515625 -2.578125 C 11.585938 -0.617188 9.863281 0.359375 7.34375 0.359375 Z M 8.859375 -3.171875 C 9.953125 -3.171875 10.820312 -3.539062 11.46875 -4.28125 C 12.125 -5.019531 12.453125 -6.039062 12.453125 -7.34375 L 12.453125 -9.265625 L 12.140625 -9.328125 C 11.847656 -9.097656 11.472656 -8.90625 11.015625 -8.75 C 10.554688 -8.601562 9.894531 -8.457031 9.03125 -8.3125 C 8 -8.132812 7.257812 -7.835938 6.8125 -7.421875 C 6.363281 -7.003906 6.140625 -6.414062 6.140625 -5.65625 C 6.140625 -4.84375 6.378906 -4.222656 6.859375 -3.796875 C 7.335938 -3.378906 8.003906 -3.171875 8.859375 -3.171875 Z M 8.859375 -3.171875 "/></g></g></g><g fill="#ffffff" fill-opacity="1"><g transform="translate(563.510643, 436.717652)"><g><path d="M 2.71875 0 L 2.71875 -18.84375 L 7.3125 -18.84375 L 7.3125 -16.046875 L 7.671875 -15.984375 C 8.128906 -17.023438 8.726562 -17.789062 9.46875 -18.28125 C 10.207031 -18.769531 11.109375 -19.015625 12.171875 -19.015625 C 13.242188 -19.015625 14.054688 -18.832031 14.609375 -18.46875 L 13.8125 -14.390625 L 13.453125 -14.328125 C 13.140625 -14.453125 12.84375 -14.539062 12.5625 -14.59375 C 12.28125 -14.65625 11.929688 -14.6875 11.515625 -14.6875 C 10.191406 -14.6875 9.179688 -14.21875 8.484375 -13.28125 C 7.796875 -12.351562 7.453125 -10.863281 7.453125 -8.8125 L 7.453125 0 Z M 2.71875 0 "/></g></g></g><g fill="#ffffff" fill-opacity="1"><g transform="translate(578.290069, 436.717652)"><g><path d="M 5.8125 -9.171875 C 5.8125 -9.984375 5.878906 -10.660156 6.015625 -11.203125 C 6.148438 -11.742188 6.390625 -12.238281 6.734375 -12.6875 C 7.078125 -13.132812 7.566406 -13.617188 8.203125 -14.140625 L 9.6875 -15.34375 C 10.414062 -15.9375 10.929688 -16.476562 11.234375 -16.96875 C 11.535156 -17.457031 11.6875 -18.015625 11.6875 -18.640625 C 11.6875 -19.410156 11.414062 -20.019531 10.875 -20.46875 C 10.332031 -20.914062 9.546875 -21.140625 8.515625 -21.140625 C 7.472656 -21.140625 6.570312 -20.890625 5.8125 -20.390625 C 5.0625 -19.890625 4.394531 -19.175781 3.8125 -18.25 L 3.421875 -18.1875 L 0.609375 -21.21875 C 1.554688 -22.582031 2.695312 -23.609375 4.03125 -24.296875 C 5.363281 -24.992188 6.953125 -25.34375 8.796875 -25.34375 C 10.546875 -25.34375 12.007812 -25.078125 13.1875 -24.546875 C 14.363281 -24.015625 15.234375 -23.28125 15.796875 -22.34375 C 16.367188 -21.414062 16.65625 -20.351562 16.65625 -19.15625 C 16.65625 -17.84375 16.382812 -16.71875 15.84375 -15.78125 C 15.3125 -14.84375 14.484375 -13.929688 13.359375 -13.046875 L 11.703125 -11.71875 C 11.078125 -11.226562 10.660156 -10.785156 10.453125 -10.390625 C 10.242188 -10.003906 10.140625 -9.484375 10.140625 -8.828125 L 10.140625 -8.28125 L 5.8125 -8.28125 Z M 7.984375 0.171875 C 7.390625 0.171875 6.867188 0.0507812 6.421875 -0.1875 C 5.972656 -0.425781 5.625 -0.753906 5.375 -1.171875 C 5.125 -1.597656 5 -2.070312 5 -2.59375 C 5 -3.132812 5.125 -3.617188 5.375 -4.046875 C 5.625 -4.472656 5.972656 -4.804688 6.421875 -5.046875 C 6.867188 -5.285156 7.390625 -5.40625 7.984375 -5.40625 C 8.867188 -5.40625 9.582031 -5.140625 10.125 -4.609375 C 10.664062 -4.085938 10.9375 -3.421875 10.9375 -2.609375 C 10.9375 -1.804688 10.664062 -1.140625 10.125 -0.609375 C 9.582031 -0.0859375 8.867188 0.171875 7.984375 0.171875 Z M 7.984375 0.171875 "/></g></g></g></svg>