<svg xmlns="http://www.w3.org/2000/svg" xmlns:xlink="http://www.w3.org/1999/xlink" width="1200" zoomAndPan="magnify" viewBox="0 0 900 749.999995" height="1000" preserveAspectRatio="xMidYMid meet" version="1.0"><defs><clipPath id="08434d3bc7"><path d="M 423 183.519531 L 613 183.519531 L 613 372 L 423 372 Z M 423 183.519531 " clip-rule="nonzero"/></clipPath><clipPath id="308f1deda6"><path d="M 212.007812 379 L 686 379 L 686 566.769531 L 212.007812 566.769531 Z M 212.007812 379 " clip-rule="nonzero"/></clipPath></defs><g clip-path="url(#08434d3bc7)"><path fill="#00ae8c" d="M 518.082031 371.832031 C 569.992188 371.832031 612.226562 329.601562 612.226562 277.691406 C 612.226562 225.777344 569.992188 183.546875 518.082031 183.546875 C 466.171875 183.546875 423.9375 225.777344 423.9375 277.691406 C 423.9375 329.601562 466.171875 371.832031 518.082031 371.832031 Z M 439.59375 277.691406 C 439.59375 234.410156 474.804688 199.199219 518.082031 199.199219 C 561.363281 199.199219 596.570312 234.410156 596.570312 277.691406 C 596.570312 320.96875 561.363281 356.179688 518.082031 356.179688 C 474.804688 356.179688 439.59375 320.96875 439.59375 277.691406 Z M 439.59375 277.691406 " fill-opacity="1" fill-rule="nonzero"/></g><path fill="#00ae8c" d="M 495.085938 320.804688 C 499.152344 324.777344 504.570312 327.570312 510.527344 328.804688 L 510.464844 337.121094 C 510.433594 341.320312 513.824219 344.761719 518.023438 344.792969 L 518.082031 344.792969 C 522.25 344.792969 525.664062 341.402344 525.695312 337.234375 L 525.761719 328.777344 C 531.695312 327.523438 537.089844 324.722656 541.132812 320.75 C 545.828125 316.144531 548.414062 310.242188 548.414062 304.136719 L 548.414062 300.773438 C 548.414062 292.660156 543.84375 284.984375 536.1875 280.246094 L 509.035156 263.433594 C 505.851562 261.460938 504.023438 258.699219 504.023438 255.855469 L 504.023438 250.597656 C 504.023438 248.039062 505.441406 245.578125 508.011719 243.671875 C 510.816406 241.59375 514.578125 240.445312 518.601562 240.445312 C 522.628906 240.445312 526.390625 241.589844 529.191406 243.671875 C 531.765625 245.578125 533.179688 248.039062 533.179688 250.597656 L 533.179688 256.53125 C 533.179688 260.730469 536.597656 264.144531 540.796875 264.144531 C 545 264.144531 548.414062 260.730469 548.414062 256.53125 L 548.414062 250.597656 C 548.414062 239 539.207031 228.964844 526.21875 226.058594 L 526.21875 218.199219 C 526.21875 214 522.800781 210.585938 518.601562 210.585938 C 514.402344 210.585938 510.988281 214 510.988281 218.199219 L 510.988281 226.058594 C 498 228.964844 488.792969 238.996094 488.792969 250.597656 L 488.792969 255.855469 C 488.792969 263.972656 493.363281 271.644531 501.015625 276.382812 L 528.171875 293.195312 C 531.355469 295.167969 533.179688 297.929688 533.179688 300.773438 L 533.179688 304.136719 C 533.179688 306.695312 531.765625 309.152344 529.191406 311.0625 C 526.390625 313.140625 522.628906 314.289062 518.601562 314.289062 L 517.566406 314.289062 C 513.539062 314.289062 509.78125 313.140625 506.976562 311.0625 C 504.40625 309.152344 502.988281 306.695312 502.988281 304.136719 L 502.988281 300.867188 C 502.988281 296.667969 499.570312 293.25 495.371094 293.25 C 491.171875 293.25 487.757812 296.667969 487.757812 300.867188 L 487.757812 304.136719 C 487.753906 310.269531 490.359375 316.191406 495.085938 320.804688 Z M 495.085938 320.804688 " fill-opacity="1" fill-rule="nonzero"/><g clip-path="url(#308f1deda6)"><path fill="#00ae8c" d="M 676.890625 394.457031 C 666.273438 382.65625 649.3125 381.480469 637.386719 391.695312 L 567.460938 448.257812 C 567.492188 447.566406 567.5 446.875 567.488281 446.175781 C 567.210938 429.308594 553.96875 415.589844 537.964844 415.589844 L 460.320312 415.589844 C 455.847656 415.589844 451.625 413.003906 449.027344 408.675781 C 448.46875 407.742188 447.695312 406.964844 446.835938 406.289062 C 415.050781 381.210938 372.328125 377.925781 335.75 394.183594 L 322.226562 400.195312 L 295.066406 400.195312 L 295.066406 387.792969 C 295.066406 383.34375 291.457031 379.734375 287.003906 379.734375 L 220.074219 379.734375 C 215.621094 379.734375 212.011719 383.34375 212.011719 387.792969 L 212.011719 536.867188 C 212.011719 541.316406 215.621094 544.925781 220.074219 544.925781 L 287.003906 544.925781 C 291.453125 544.925781 295.0625 541.316406 295.0625 536.867188 L 295.0625 524.074219 L 322.691406 524.074219 L 418.285156 554.425781 C 439.964844 562.441406 458.144531 566.453125 476.316406 566.453125 C 490.886719 566.453125 505.453125 563.875 521.828125 558.726562 C 523.332031 558.253906 524.855469 557.757812 526.390625 557.238281 C 529.707031 555.964844 532.929688 554.449219 536.03125 552.714844 C 538.589844 551.289062 541.011719 549.628906 543.285156 547.777344 L 676.859375 438.800781 C 677.300781 438.4375 677.703125 438.035156 678.058594 437.589844 C 687.992188 425.171875 687.480469 406.222656 676.890625 394.457031 Z M 278.945312 528.808594 L 228.132812 528.808594 L 228.132812 395.855469 L 278.945312 395.855469 Z M 665.933594 426.910156 L 541.351562 528.550781 C 530.46875 537.429688 517.714844 543.730469 504.042969 546.929688 C 476.957031 553.265625 454.628906 550.703125 423.707031 539.246094 C 423.585938 539.203125 423.464844 539.164062 423.34375 539.125 L 326.375 508.335938 C 325.589844 508.085938 324.765625 507.957031 323.9375 507.957031 L 295.066406 507.957031 L 295.066406 416.316406 L 323.941406 416.316406 C 325.066406 416.316406 326.183594 416.078125 327.214844 415.621094 L 342.296875 408.917969 C 373.117188 395.214844 408.097656 398.808594 436.171875 418.484375 C 441.796875 426.800781 450.703125 431.710938 460.320312 431.710938 L 537.964844 431.710938 C 545.222656 431.710938 551.238281 438.320312 551.371094 446.445312 C 551.445312 450.929688 549.824219 455.191406 546.929688 458.136719 C 545.507812 459.582031 543.84375 460.628906 542.074219 461.21875 C 539.777344 461.589844 537.449219 461.777344 535.097656 461.777344 L 448.730469 461.777344 C 444.300781 461.777344 440.609375 465.300781 440.550781 469.730469 C 440.496094 474.230469 444.125 477.894531 448.613281 477.894531 L 538.65625 477.894531 C 541.078125 477.894531 543.460938 477.570312 545.757812 476.945312 C 555.808594 475.132812 565.296875 470.746094 573.632812 464 L 647.617188 404.15625 C 647.6875 404.097656 647.753906 404.042969 647.820312 403.984375 C 653.019531 399.488281 660.207031 400.019531 664.910156 405.242188 C 670.105469 411.015625 670.507812 420.570312 665.933594 426.910156 Z M 665.933594 426.910156 " fill-opacity="1" fill-rule="nonzero"/></g></svg>