<svg xmlns="http://www.w3.org/2000/svg" xmlns:xlink="http://www.w3.org/1999/xlink" width="1200" zoomAndPan="magnify" viewBox="0 0 900 749.999995" height="1000" preserveAspectRatio="xMidYMid meet" version="1.0"><defs><clipPath id="df50ed2906"><path d="M 231 506 L 437 506 L 437 538.730469 L 231 538.730469 Z M 231 506 " clip-rule="nonzero"/></clipPath></defs><rect x="-90" width="1080" fill="#ffffff" y="-74.999999" height="899.999994" fill-opacity="1"/><rect x="-90" width="1080" fill="#ffffff" y="-74.999999" height="899.999994" fill-opacity="1"/><path fill="#00ae8c" d="M 340.578125 425.335938 L 383.679688 425.246094 L 383.722656 424.585938 C 383.746094 423.707031 383.769531 422.800781 383.769531 421.921875 C 383.769531 421.324219 383.769531 420.753906 383.789062 420.15625 L 383.8125 419.453125 L 383.085938 419.453125 C 380.242188 419.453125 377.378906 419.453125 374.445312 419.40625 C 371.363281 419.386719 368.230469 419.34375 365.214844 419.34375 L 340.863281 419.34375 L 340.578125 425.335938 " fill-opacity="1" fill-rule="nonzero"/><path fill="#00ae8c" d="M 368.539062 507.53125 L 368.496094 506.847656 L 367.792969 506.847656 L 340.355469 502.308594 L 340.53125 507.066406 C 340.621094 509.578125 340.710938 512.089844 340.820312 514.582031 L 340.796875 515.417969 L 368.496094 521.082031 L 368.496094 520.222656 C 368.476562 517.6875 368.496094 515.15625 368.519531 512.621094 C 368.519531 510.921875 368.539062 509.226562 368.539062 507.53125 " fill-opacity="1" fill-rule="nonzero"/><path fill="#00ae8c" d="M 385 489.660156 L 423.761719 489.660156 L 423.742188 488.933594 C 423.695312 487.675781 423.742188 486.375 423.785156 485.164062 C 423.785156 484.699219 423.785156 484.214844 423.808594 483.753906 C 423.808594 483.289062 423.808594 482.828125 423.808594 482.363281 L 423.808594 481.660156 L 385.023438 481.703125 L 385 489.660156 " fill-opacity="1" fill-rule="nonzero"/><path fill="#00ae8c" d="M 351.042969 492.941406 L 352.675781 493.097656 L 352.585938 480.292969 L 351.882812 480.292969 C 350.757812 480.292969 350.007812 480.359375 349.589844 480.757812 C 349.390625 480.933594 348.929688 481.417969 349.082031 484.371094 L 349.039062 486.683594 C 349.015625 488.160156 348.972656 489.4375 348.929688 490.539062 L 348.863281 492.789062 L 349.566406 492.808594 C 350.074219 492.832031 350.558594 492.875 351.042969 492.941406 " fill-opacity="1" fill-rule="nonzero"/><path fill="#00ae8c" d="M 385.664062 429.28125 L 371.539062 429.28125 L 371.933594 430.273438 C 372 430.402344 372.023438 430.492188 372.023438 430.582031 C 372.109375 435.980469 372.375 441.070312 372.617188 445.542969 L 372.640625 446.246094 C 372.96875 452.945312 373.257812 459.292969 373.144531 466.5 L 372.96875 477.714844 C 372.726562 491.203125 372.464844 506.515625 372.574219 521.171875 L 372.574219 521.984375 L 373.367188 521.855469 C 375.769531 521.523438 378.082031 520.996094 380.242188 520.3125 L 380.726562 520.15625 L 381.035156 479.65625 C 381.035156 478.53125 381.917969 477.671875 383.039062 477.671875 L 395.953125 477.628906 L 395.359375 476.570312 C 394.960938 475.886719 394.765625 475.09375 394.765625 474.300781 L 394.765625 394.398438 C 394.765625 393.714844 394.894531 393.074219 395.203125 392.457031 L 395.269531 392.28125 L 395.160156 390.167969 C 394.941406 386.90625 394.675781 383.046875 394.609375 379.171875 L 394.433594 370.246094 C 394.257812 359.953125 394.191406 346.578125 395.226562 334.128906 L 395.269531 333.511719 L 394.675781 333.378906 C 391.613281 332.695312 388.792969 332.144531 386.390625 331.769531 C 386.167969 331.703125 385.949219 331.703125 385.796875 331.703125 L 385.089844 331.703125 L 385.859375 357.53125 C 385.882812 358.28125 385.882812 359.03125 385.859375 359.777344 L 385.859375 360.96875 C 385.816406 362.488281 385.796875 363.898438 385.90625 365.375 C 387.824219 385.914062 388.4375 407.355469 387.667969 427.339844 C 387.625 428.441406 386.742188 429.28125 385.664062 429.28125 " fill-opacity="1" fill-rule="nonzero"/><path fill="#00ae8c" d="M 424.183594 515.484375 L 424.160156 514.800781 L 384.804688 514.800781 L 384.804688 519.9375 L 385.507812 519.9375 C 386.832031 519.9375 388.152344 519.9375 389.476562 519.9375 C 400.800781 519.9375 412.238281 519.804688 423.519531 519.519531 L 424.226562 519.496094 L 424.203125 518.789062 C 424.203125 518.238281 424.203125 517.710938 424.203125 517.160156 C 424.203125 516.609375 424.203125 516.035156 424.183594 515.484375 " fill-opacity="1" fill-rule="nonzero"/><path fill="#00ae8c" d="M 424.226562 494.902344 C 424.183594 494.683594 424.136719 494.484375 424.09375 494.285156 L 424.003906 493.691406 L 384.957031 493.691406 L 384.847656 510.746094 L 424.183594 510.746094 L 424.183594 510.042969 C 424.203125 505.261719 424.246094 500.5 424.359375 495.585938 C 424.3125 495.367188 424.269531 495.125 424.226562 494.902344 " fill-opacity="1" fill-rule="nonzero"/><path fill="#00ae8c" d="M 485.441406 471.214844 L 484.515625 471.523438 C 484.007812 471.699219 483.523438 471.789062 483.039062 471.789062 L 472.902344 471.789062 L 472.882812 472.472656 C 472.792969 475.84375 472.769531 481.042969 472.816406 487.941406 L 472.816406 488.625 L 485.640625 488.625 L 485.441406 471.214844 " fill-opacity="1" fill-rule="nonzero"/><path fill="#00ae8c" d="M 472.882812 492.679688 L 472.882812 493.382812 C 472.882812 495.058594 472.925781 496.621094 472.96875 497.945312 L 472.992188 498.628906 L 485.75 498.628906 L 485.664062 492.679688 L 472.882812 492.679688 " fill-opacity="1" fill-rule="nonzero"/><path fill="#00ae8c" d="M 520.613281 396.929688 L 520.613281 396.910156 C 520.566406 395.917969 520.523438 394.53125 520.742188 393.164062 L 520.855469 392.414062 L 520.105469 392.347656 C 519.839844 392.324219 519.574219 392.324219 519.355469 392.324219 C 519.113281 392.304688 518.914062 392.304688 518.671875 392.28125 C 518.1875 392.28125 517.746094 392.238281 517.4375 392.214844 C 511.863281 391.644531 506.132812 391.730469 500.582031 391.796875 L 499.832031 391.820312 C 496.503906 391.839844 493.042969 391.886719 490.179688 393.140625 C 488.128906 394 486.5 395.71875 485.992188 397.527344 L 485.882812 397.945312 L 486.191406 398.230469 C 487.226562 399.15625 487.777344 400.367188 487.777344 401.667969 L 487.777344 430.007812 L 488.152344 430.207031 C 488.328125 430.316406 488.503906 430.492188 488.703125 430.777344 L 488.902344 431.109375 L 520.875 431.109375 L 520.613281 396.929688 " fill-opacity="1" fill-rule="nonzero"/><path fill="#00ae8c" d="M 341.128906 414.539062 L 341.0625 415.308594 L 365.214844 415.308594 C 368.1875 415.308594 371.273438 415.332031 374.511719 415.375 C 377.398438 415.417969 380.351562 415.417969 383.195312 415.417969 L 383.898438 415.417969 L 383.898438 414.714844 C 384.054688 398.230469 383.371094 381.75 381.894531 365.707031 C 381.71875 363.988281 381.761719 362.335938 381.828125 360.769531 L 381.828125 359.757812 C 381.851562 359.074219 381.851562 358.367188 381.828125 357.664062 L 381.035156 331.199219 L 380.375 331.199219 C 366.691406 330.867188 352.566406 336.75 342.691406 347.0625 L 342.496094 347.261719 L 342.496094 347.546875 C 342.539062 352.59375 342.605469 357.574219 342.714844 362.597656 C 342.980469 374.851562 343.222656 387.5 342.140625 400.347656 C 341.765625 404.953125 341.4375 409.710938 341.128906 414.539062 " fill-opacity="1" fill-rule="nonzero"/><path fill="#00ae8c" d="M 344.742188 494.574219 L 344.851562 491.820312 C 344.917969 489.988281 344.984375 487.742188 345.027344 486.507812 L 345.027344 484.480469 C 344.960938 482.628906 344.851562 479.542969 346.878906 477.738281 C 348.289062 476.480469 350.183594 476.21875 351.816406 476.21875 C 352.386719 476.21875 352.9375 476.261719 353.402344 476.28125 L 354.152344 476.328125 C 357.390625 476.4375 360.652344 476.679688 363.847656 477.078125 C 364.421875 477.164062 364.949219 477.472656 365.257812 477.914062 C 365.589844 478.398438 365.699219 478.949219 365.589844 479.476562 L 365.566406 479.5 C 364.421875 484.988281 364.132812 490.5625 364.730469 496.117188 C 364.816406 496.6875 364.597656 497.285156 364.15625 497.722656 C 363.78125 498.121094 363.273438 498.339844 362.8125 498.386719 L 362.570312 498.296875 C 360.984375 498.144531 359.441406 497.964844 357.851562 497.769531 L 357.28125 497.679688 C 354.019531 497.261719 350.339844 496.777344 346.769531 496.777344 C 345.644531 496.777344 344.742188 495.875 344.742188 494.75 C 344.742188 494.683594 344.742188 494.617188 344.742188 494.574219 Z M 368.5625 502.019531 C 368.628906 493.847656 368.785156 485.691406 368.9375 477.671875 L 369.003906 473.441406 L 368.871094 472.78125 L 368.210938 472.734375 C 359.636719 471.964844 350.910156 471.742188 342.296875 472.074219 C 342.230469 472.074219 342.140625 472.074219 341.988281 472.050781 C 341.328125 471.964844 340.863281 471.964844 340.445312 471.964844 L 339.738281 471.964844 L 339.738281 472.667969 C 339.804688 481.417969 339.960938 489.570312 340.203125 497.613281 L 340.222656 498.1875 L 368.5625 502.859375 L 368.5625 502.019531 " fill-opacity="1" fill-rule="nonzero"/><path fill="#00ae8c" d="M 356.75 493.492188 L 357.300781 493.601562 C 357.5 493.648438 357.675781 493.691406 357.832031 493.667969 C 358.140625 493.714844 358.425781 493.757812 358.734375 493.800781 C 359.042969 493.847656 359.375 493.890625 359.683594 493.933594 L 360.496094 494.023438 L 360.476562 493.207031 C 360.300781 489.304688 360.496094 485.382812 361.113281 481.570312 L 361.226562 480.84375 L 360.496094 480.757812 C 359.417969 480.644531 358.382812 480.625 357.347656 480.582031 L 356.621094 480.558594 L 356.683594 492.921875 L 356.75 493.492188 " fill-opacity="1" fill-rule="nonzero"/><path fill="#00ae8c" d="M 340.355469 430.050781 C 339.871094 442.898438 339.671875 455.039062 339.695312 467.226562 L 339.695312 467.929688 L 340.402344 467.929688 C 340.90625 467.929688 341.480469 467.929688 342.1875 468.042969 L 342.382812 468.042969 C 342.648438 467.996094 342.957031 468.019531 343.199219 467.996094 L 343.925781 467.996094 L 343.109375 434.039062 C 343.089844 433.511719 343.289062 433.003906 343.664062 432.609375 C 344.035156 432.234375 344.566406 432.011719 345.09375 432.011719 L 345.886719 432.011719 C 349.371094 431.96875 352.851562 431.925781 356.3125 431.859375 L 360.078125 431.8125 C 362.480469 431.792969 364.882812 431.75 367.285156 431.75 L 367.988281 431.75 L 367.988281 430.648438 C 367.988281 430.582031 368.011719 430.46875 368.035156 430.359375 L 368.253906 429.324219 L 340.378906 429.367188 L 340.355469 430.050781 " fill-opacity="1" fill-rule="nonzero"/><path fill="#00ae8c" d="M 363.671875 445.941406 L 363.539062 461.253906 L 363.539062 461.277344 C 363.539062 462.378906 362.613281 463.28125 361.535156 463.28125 C 360.386719 463.261719 359.484375 462.355469 359.484375 461.234375 L 359.636719 445.894531 C 359.636719 444.816406 360.542969 443.933594 361.644531 443.933594 C 362.765625 443.933594 363.671875 444.835938 363.671875 445.941406 Z M 350.515625 446.425781 C 350.425781 445.324219 351.242188 444.351562 352.386719 444.242188 C 352.453125 444.242188 352.519531 444.242188 352.566406 444.242188 C 353.027344 444.242188 353.46875 444.398438 353.84375 444.707031 C 354.238281 445.058594 354.503906 445.566406 354.546875 446.117188 C 355.011719 451.425781 355.210938 456.714844 355.164062 461.847656 C 355.164062 462.953125 354.261719 463.832031 353.160156 463.832031 C 352.035156 463.832031 351.132812 462.929688 351.132812 461.828125 C 351.175781 456.824219 350.957031 451.648438 350.515625 446.425781 Z M 369.113281 466.433594 C 369.222656 459.359375 368.914062 453.101562 368.605469 446.445312 L 368.5625 445.71875 C 368.429688 442.746094 368.277344 439.636719 368.167969 436.464844 L 368.144531 435.804688 L 367.460938 435.804688 C 365.015625 435.804688 362.589844 435.824219 360.167969 435.847656 L 353.535156 435.957031 C 351.660156 435.980469 349.765625 436 347.894531 436 L 347.164062 436 L 347.960938 467.886719 L 348.664062 467.886719 C 355.386719 467.820312 361.972656 468.128906 368.296875 468.703125 L 369.070312 468.746094 L 369.113281 466.433594 " fill-opacity="1" fill-rule="nonzero"/><path fill="#00ae8c" d="M 282.644531 489.417969 L 281.542969 490.144531 C 281.191406 490.363281 280.882812 490.453125 280.550781 490.453125 L 278.28125 490.453125 L 278.324219 491.203125 C 278.457031 493.625 278.148438 496.003906 277.398438 498.144531 C 277.070312 499.179688 275.792969 499.75 274.84375 499.398438 C 274.359375 499.222656 273.941406 498.871094 273.699219 498.386719 C 273.457031 497.902344 273.410156 497.347656 273.585938 496.84375 C 274.203125 495.101562 274.402344 493.183594 274.203125 491.136719 L 274.136719 490.496094 L 267.703125 490.539062 L 267.703125 500.324219 C 267.703125 501.402344 266.777344 502.328125 265.699219 502.328125 C 264.574219 502.328125 263.671875 501.425781 263.671875 500.324219 L 263.671875 490.5625 L 260.519531 490.5625 L 260.476562 505.414062 L 261.027344 505.546875 C 268.320312 507.289062 275.109375 508.5 281.742188 509.269531 L 282.554688 509.359375 L 282.511719 508.542969 C 282.402344 505.0625 282.488281 499.246094 282.621094 490.738281 L 282.644531 489.417969 " fill-opacity="1" fill-rule="nonzero"/><g clip-path="url(#df50ed2906)"><path fill="#00ae8c" d="M 433.765625 530.359375 L 433.746094 530.382812 C 432.355469 530.800781 430.816406 530.578125 429.601562 529.765625 C 428.984375 529.324219 428.480469 528.773438 428.125 528.089844 L 427.773438 527.429688 L 427.132812 527.824219 C 426.847656 527.980469 426.5625 528.089844 426.230469 528.089844 C 425.128906 528.089844 424.203125 527.1875 424.203125 526.0625 C 424.183594 525.664062 424.203125 525.269531 424.203125 524.871094 L 424.203125 523.574219 L 423.5 523.574219 C 410.078125 523.882812 398.949219 524.011719 388.527344 524.011719 C 387.515625 524.011719 386.523438 524.011719 385.507812 523.992188 L 384.78125 523.945312 L 384.738281 527.339844 C 384.738281 528.421875 383.832031 529.324219 382.710938 529.324219 C 381.609375 529.324219 380.703125 528.421875 380.703125 527.296875 L 380.703125 524.320312 L 379.800781 524.585938 C 376.957031 525.421875 374.402344 525.929688 371.980469 526.128906 L 371.914062 526.105469 L 371.78125 526.152344 C 371.25 526.152344 370.832031 525.886719 370.566406 525.664062 L 370.414062 525.511719 L 334.824219 518.371094 C 334.1875 518.21875 333.65625 517.753906 333.394531 517.117188 L 333.261719 516.761719 L 318.894531 513.765625 C 312.878906 512.445312 306.839844 511.144531 300.800781 509.910156 L 300.648438 509.867188 L 300.472656 509.910156 C 295.25 511.386719 290.597656 512.839844 286.257812 514.316406 C 285.683594 514.539062 284.804688 514.382812 284.1875 513.746094 L 284.011719 513.546875 L 283.746094 513.523438 C 275.304688 512.6875 266.890625 511.1875 257.984375 508.960938 C 257.125 508.742188 256.507812 507.972656 256.488281 507.089844 L 256.464844 506.40625 L 246.617188 506.40625 L 246.570312 508.960938 C 246.570312 510.042969 245.667969 510.945312 244.523438 510.945312 C 243.421875 510.945312 242.539062 510.019531 242.539062 508.894531 L 242.582031 506.40625 L 237.449219 506.40625 L 237.382812 507.023438 C 237.273438 508.167969 236.675781 509.226562 235.796875 510 C 235.222656 510.503906 234.519531 510.859375 233.679688 511.078125 L 231.785156 511.519531 L 233.527344 512.378906 C 235.289062 513.257812 238.265625 514.054688 242.40625 514.714844 L 379.84375 537.082031 C 382.863281 537.566406 385.75 537.585938 388.8125 537.632812 C 390.554688 537.632812 392.363281 537.675781 394.191406 537.742188 C 397.671875 537.917969 401.066406 538.027344 404.371094 538.027344 C 413.207031 538.027344 421.40625 537.34375 429.226562 535.980469 C 433.152344 535.296875 435.375 534.304688 436.039062 532.914062 C 436.300781 532.320312 436.167969 531.417969 435.707031 530.910156 C 435.222656 530.425781 434.382812 530.183594 433.765625 530.359375 " fill-opacity="1" fill-rule="nonzero"/></g><path fill="#00ae8c" d="M 237.425781 502.351562 L 242.628906 502.351562 L 242.980469 475.421875 L 237.164062 475.421875 L 237.164062 476.128906 C 237.207031 482.386719 237.273438 488.578125 237.339844 494.792969 L 237.425781 502.351562 " fill-opacity="1" fill-rule="nonzero"/><path fill="#00ae8c" d="M 498.179688 300.988281 L 480.925781 268.394531 C 480.902344 268.375 480.925781 268.328125 480.902344 268.285156 C 479.46875 267.933594 478.039062 267.535156 476.5625 267.140625 C 469.136719 265.179688 461.421875 263.105469 453.84375 260.527344 C 450.207031 259.292969 446.789062 257.796875 443.484375 256.339844 L 442.03125 255.679688 C 438.878906 254.3125 435.640625 253.941406 431.9375 253.519531 C 429.976562 253.300781 428.015625 253.082031 425.988281 252.707031 C 422.066406 251.976562 418.34375 250.898438 414.707031 249.839844 C 413.605469 249.511719 412.4375 249.179688 411.3125 248.847656 L 299.65625 217.777344 C 297.1875 217.074219 294.609375 216.214844 291.988281 215.332031 C 287.625 213.855469 283.171875 212.402344 279.097656 211.785156 C 277.269531 227.761719 278.148438 242.832031 281.71875 256.605469 C 353.621094 270.511719 426.273438 285.429688 498.179688 300.988281 " fill-opacity="1" fill-rule="nonzero"/><path fill="#00ae8c" d="M 533.238281 308.566406 C 539.847656 310.019531 546.503906 311.519531 553.136719 312.972656 C 548.929688 303.410156 544.433594 293.867188 539.628906 284.636719 L 516.269531 278.089844 C 520.984375 288.734375 526.671875 298.9375 533.238281 308.542969 L 533.238281 308.566406 " fill-opacity="1" fill-rule="nonzero"/><path fill="#00ae8c" d="M 526.230469 307.046875 C 519.90625 297.304688 514.464844 287.039062 509.945312 276.351562 L 487.625 270.15625 L 504.679688 302.398438 C 511.886719 303.960938 519.070312 305.480469 526.230469 307.046875 " fill-opacity="1" fill-rule="nonzero"/><path fill="#00ae8c" d="M 256.507812 474.9375 L 255.628906 475.179688 C 255.078125 475.335938 254.636719 475.421875 254.21875 475.421875 L 247.011719 475.421875 L 246.683594 502.351562 L 256.488281 502.351562 L 256.507812 474.9375 " fill-opacity="1" fill-rule="nonzero"/><path fill="#00ae8c" d="M 200.890625 312.996094 C 206.445312 306.582031 213.9375 301.625 221.1875 296.84375 C 223.960938 295.015625 226.652344 293.25 229.164062 291.421875 L 274.667969 258.566406 C 271.25 245.34375 270.128906 231.066406 271.363281 215.992188 C 270.414062 217.050781 269.53125 218.066406 268.917969 218.8125 C 268.300781 219.585938 267.726562 220.269531 267.175781 220.886719 C 264.246094 224.234375 261.050781 227.101562 257.921875 229.898438 C 256.753906 230.957031 255.628906 231.96875 254.503906 233.027344 C 252.101562 235.253906 249.8125 237.523438 247.542969 239.792969 C 242.957031 244.355469 238.242188 249.089844 232.667969 253.300781 C 230.242188 255.171875 227.90625 257.464844 225.4375 259.933594 C 224.183594 261.210938 222.90625 262.445312 221.605469 263.679688 C 219.136719 266.015625 216.582031 268.285156 214.046875 270.578125 C 209.132812 275.09375 204.0625 279.699219 199.328125 284.414062 L 125.351562 353.386719 C 122 356.472656 123.191406 361.234375 125.527344 368.679688 C 125.570312 368.835938 125.59375 368.945312 125.636719 369.078125 C 143.464844 355.964844 161.621094 343.007812 179.757812 330.535156 C 187.339844 325.3125 194.542969 320.378906 200.890625 312.996094 " fill-opacity="1" fill-rule="nonzero"/><path fill="#00ae8c" d="M 260.652344 425.46875 L 260.652344 426.394531 L 261.535156 426.171875 C 263.582031 425.710938 265.785156 425.226562 268.035156 424.917969 C 271.230469 424.476562 274.226562 423.792969 277.136719 423.132812 C 278.898438 422.734375 280.683594 422.339844 282.46875 421.988281 L 283.238281 421.988281 L 283.238281 421.28125 C 283.285156 413.941406 283.285156 406.605469 283.285156 399.378906 L 283.285156 366.71875 L 282.578125 366.71875 C 281.191406 366.71875 279.824219 366.785156 278.5 366.941406 C 275.085938 367.335938 265.542969 369.34375 262.546875 373.574219 C 260.984375 375.753906 260.984375 380.050781 261.09375 383.90625 C 261.09375 384.480469 261.117188 385.054688 261.117188 385.5625 C 261.136719 386.023438 261.136719 386.484375 261.136719 386.859375 C 261.003906 393.296875 260.960938 399.730469 260.894531 406.1875 C 260.851562 412.597656 260.785156 419.035156 260.652344 425.46875 " fill-opacity="1" fill-rule="nonzero"/><path fill="#00ae8c" d="M 278.898438 485.625 C 279.515625 481.792969 279.691406 477.757812 279.425781 473.332031 L 279.382812 472.625 L 278.679688 472.648438 C 272.925781 473.023438 267.066406 473.085938 261.292969 472.867188 L 260.5625 472.84375 L 260.519531 486.53125 L 278.898438 486.417969 L 278.898438 485.625 " fill-opacity="1" fill-rule="nonzero"/><path fill="#00ae8c" d="M 287.207031 437.5 C 287.183594 443.472656 287.140625 449.421875 287.074219 455.371094 L 286.742188 487.015625 L 286.699219 489.371094 C 286.609375 495.101562 286.457031 504.710938 286.480469 509.027344 L 286.5 510 L 287.402344 509.691406 C 290.953125 508.542969 294.125 507.574219 297.167969 506.691406 L 297.804688 506.515625 L 297.605469 505.679688 C 297.539062 505.414062 297.496094 505.171875 297.496094 504.90625 L 296.460938 438.820312 L 295.910156 438.710938 C 294.71875 438.46875 293.53125 438.183594 292.363281 437.851562 L 292.074219 437.765625 C 290.6875 437.390625 289.367188 437.015625 288.019531 436.816406 L 287.226562 436.683594 L 287.207031 437.5 " fill-opacity="1" fill-rule="nonzero"/><path fill="#00ae8c" d="M 296 369.296875 L 295.558594 369.121094 C 293.222656 368.21875 290.730469 367.558594 288.132812 367.183594 L 287.316406 367.074219 L 287.316406 399.378906 C 287.316406 410.085938 287.292969 420.90625 287.25 431.8125 L 287.25 432.652344 L 287.867188 432.738281 C 289.828125 432.980469 291.765625 433.488281 293.421875 433.953125 C 293.992188 434.105469 294.566406 434.261719 295.09375 434.394531 L 296.4375 434.746094 L 296.503906 433.886719 C 296.617188 432.453125 296.746094 431 296.945312 429.566406 C 297.296875 426.769531 297.652344 423.859375 297.144531 421.191406 C 296.261719 416.257812 296.175781 411.363281 296.109375 406.648438 L 296.109375 404.886719 C 295.953125 393.25 295.910156 382.101562 296 369.78125 L 296 369.296875 " fill-opacity="1" fill-rule="nonzero"/><path fill="#00ae8c" d="M 260.5625 431.109375 C 260.519531 433.027344 260.476562 434.589844 260.453125 435.625 L 260.410156 436.507812 L 267.484375 435.230469 C 269.972656 434.765625 272.308594 434.414062 274.644531 434.0625 L 276.5625 433.753906 C 278.015625 433.554688 279.472656 433.335938 280.96875 433.09375 L 283.21875 432.738281 L 283.21875 432.144531 C 283.21875 430.359375 283.21875 428.597656 283.238281 426.8125 L 283.261719 425.929688 L 280.617188 426.480469 C 279.757812 426.679688 278.898438 426.855469 278.039062 427.054688 L 277.707031 427.121094 C 274.777344 427.804688 271.738281 428.488281 268.5625 428.90625 C 265.984375 429.28125 263.472656 429.808594 261.070312 430.449219 L 260.5625 430.582031 L 260.5625 431.109375 " fill-opacity="1" fill-rule="nonzero"/><path fill="#00ae8c" d="M 520.898438 435.140625 L 489.101562 435.140625 L 489.167969 438.578125 L 520.898438 438.578125 L 520.898438 435.140625 " fill-opacity="1" fill-rule="nonzero"/><path fill="#00ae8c" d="M 259.925781 448.339844 L 260.101562 448.539062 C 260.433594 448.914062 260.585938 449.332031 260.585938 449.796875 L 260.5625 468.789062 L 261.226562 468.835938 C 261.578125 468.855469 261.929688 468.855469 262.304688 468.855469 C 262.613281 468.835938 262.964844 468.855469 263.296875 468.878906 L 264.023438 468.945312 L 264.023438 468.195312 C 265.125 461.320312 265.523438 454.269531 265.234375 447.238281 C 265.214844 446.734375 265.390625 446.226562 265.742188 445.828125 C 266.117188 445.433594 266.644531 445.191406 267.152344 445.144531 C 267.175781 445.144531 267.195312 445.144531 267.21875 445.144531 C 268.300781 445.144531 269.222656 446.027344 269.269531 447.105469 C 269.554688 454.046875 269.179688 461.121094 268.121094 468.128906 L 267.992188 468.96875 L 273.71875 468.8125 L 273.742188 468.152344 C 273.960938 460.988281 273.828125 453.894531 273.367188 447.085938 C 273.300781 445.960938 274.117188 445.015625 275.242188 444.949219 C 275.285156 444.925781 275.328125 444.925781 275.351562 444.925781 C 276.453125 444.925781 277.332031 445.742188 277.421875 446.800781 C 277.839844 453.34375 277.972656 460.242188 277.773438 467.867188 L 277.753906 468.613281 L 279.339844 468.546875 C 279.933594 468.546875 280.507812 468.527344 281.078125 468.480469 C 281.300781 468.460938 281.609375 468.503906 281.960938 468.636719 L 282.910156 469.035156 L 283.042969 455.347656 C 283.105469 449.929688 283.128906 444.464844 283.171875 439.019531 L 283.195312 436.816406 L 282.359375 436.972656 C 281.035156 437.167969 279.734375 437.367188 278.457031 437.566406 L 277.179688 437.765625 C 274.226562 438.203125 271.339844 438.644531 268.210938 439.175781 L 260.257812 440.671875 L 259.925781 448.339844 " fill-opacity="1" fill-rule="nonzero"/><path fill="#00ae8c" d="M 777.96875 350.0625 C 776.273438 349.621094 773.785156 349.246094 772.375 349.023438 C 770.699219 348.78125 769.222656 348.5625 768.054688 348.230469 C 766.644531 347.878906 765.078125 347.285156 763.40625 346.710938 C 760.761719 345.71875 757.695312 344.640625 755.824219 344.640625 C 755.296875 344.640625 754.832031 344.574219 754.371094 344.464844 L 546.195312 286.464844 C 550.84375 295.609375 555.316406 304.929688 559.351562 314.339844 C 603.113281 324.015625 647.980469 334.105469 693.816406 345.542969 C 715.71875 351.03125 735.066406 354.730469 755.605469 358.699219 C 762.632812 360.042969 769.90625 361.429688 777.464844 362.953125 C 777.464844 362.886719 777.53125 362.753906 777.53125 362.6875 C 777.683594 361.738281 777.464844 360.441406 777.242188 359.03125 C 777.089844 358.148438 776.980469 357.246094 776.914062 356.363281 C 776.691406 354.117188 777.351562 352.023438 777.925781 350.171875 C 777.925781 350.125 777.925781 350.082031 777.96875 350.0625 " fill-opacity="1" fill-rule="nonzero"/><path fill="#00ae8c" d="M 619.421875 455.988281 C 615.609375 456.03125 611.796875 456.03125 607.941406 456.03125 L 607.257812 456.03125 L 606.96875 465.089844 L 628.898438 465.242188 C 628.960938 465.242188 629.050781 465.265625 629.140625 465.289062 L 630.152344 465.507812 L 630.195312 464.691406 C 630.351562 461.761719 630.59375 459.09375 630.945312 456.757812 L 631.078125 455.945312 L 630.242188 455.945312 C 626.648438 455.945312 623.011719 455.945312 619.421875 455.988281 " fill-opacity="1" fill-rule="nonzero"/><path fill="#00ae8c" d="M 606.242188 489.261719 L 605.847656 502.570312 L 629.382812 503.738281 L 629.644531 488.183594 L 628.589844 489.261719 L 606.242188 489.261719 " fill-opacity="1" fill-rule="nonzero"/><path fill="#00ae8c" d="M 620.171875 479.476562 C 620.347656 478.308594 620.390625 477.140625 620.28125 475.953125 C 620.171875 474.851562 620.984375 473.882812 622.109375 473.769531 C 622.175781 473.769531 622.242188 473.769531 622.308594 473.769531 C 622.769531 473.769531 623.210938 473.925781 623.585938 474.234375 C 624.003906 474.585938 624.246094 475.070312 624.269531 475.601562 C 624.421875 477.078125 624.378906 478.574219 624.179688 480.074219 C 624.003906 481.066406 623.167969 481.769531 622.175781 481.769531 L 621.867188 481.792969 C 620.742188 481.59375 619.992188 480.582031 620.171875 479.476562 Z M 610.472656 479.257812 L 610.539062 475.488281 C 610.5625 474.386719 611.664062 473.574219 612.613281 473.527344 C 613.164062 473.527344 613.667969 473.75 614.023438 474.144531 C 614.398438 474.542969 614.59375 475.070312 614.574219 475.601562 L 614.507812 479.347656 C 614.484375 480.425781 613.582031 481.308594 612.414062 481.308594 C 611.90625 481.308594 611.421875 481.085938 611.046875 480.710938 C 610.671875 480.335938 610.453125 479.785156 610.472656 479.257812 Z M 628.898438 469.277344 L 606.859375 469.121094 L 606.355469 485.230469 L 628.71875 485.230469 L 629.710938 485.691406 L 629.976562 469.210938 L 629.269531 469.210938 C 629.074219 469.210938 628.941406 469.253906 628.898438 469.277344 " fill-opacity="1" fill-rule="nonzero"/><path fill="#00ae8c" d="M 627.175781 451.957031 L 627.289062 433.863281 L 614.109375 433.863281 L 614.902344 451.957031 L 627.175781 451.957031 " fill-opacity="1" fill-rule="nonzero"/><path fill="#00ae8c" d="M 636.015625 420.820312 L 636.761719 420.839844 L 635.066406 372.757812 L 634.382812 372.78125 C 620.875 373.042969 607.277344 376.414062 598.246094 378.929688 L 597.738281 379.082031 L 597.539062 421.0625 L 598.265625 421.039062 C 611.820312 420.6875 624.160156 420.621094 636.015625 420.820312 " fill-opacity="1" fill-rule="nonzero"/><path fill="#00ae8c" d="M 610.078125 433.863281 L 597.515625 433.863281 L 597.429688 452.441406 C 597.40625 461.980469 597.472656 471.675781 597.539062 481.066406 L 597.539062 481.746094 C 597.582031 488.335938 597.628906 494.949219 597.628906 501.515625 L 597.628906 502.199219 L 601.8125 502.351562 L 603.269531 453.9375 C 603.3125 452.859375 604.195312 451.976562 605.296875 451.976562 L 610.871094 451.976562 L 610.078125 433.863281 " fill-opacity="1" fill-rule="nonzero"/><path fill="#00ae8c" d="M 636.984375 429.832031 L 636.984375 428.554688 C 637.003906 428.15625 637.003906 427.738281 636.984375 427.363281 L 636.875 424.828125 L 636.210938 424.828125 L 635.949219 424.851562 C 624.246094 424.652344 611.554688 424.71875 598.222656 425.070312 L 597.5625 425.09375 L 597.496094 429.832031 L 636.984375 429.832031 " fill-opacity="1" fill-rule="nonzero"/><path fill="#00ae8c" d="M 642.691406 478.949219 C 642.691406 488.074219 642.734375 496.203125 642.84375 503.761719 L 642.84375 504.445312 L 651.195312 504.820312 L 651.21875 504.113281 C 651.617188 494.265625 651.925781 484.238281 652.101562 474.320312 L 652.101562 473.59375 L 642.691406 473.59375 L 642.691406 478.949219 " fill-opacity="1" fill-rule="nonzero"/><path fill="#00ae8c" d="M 655.933594 483.796875 L 655.914062 484.503906 C 655.867188 486.992188 655.78125 489.484375 655.714844 491.949219 L 655.558594 496.46875 L 656.265625 496.488281 C 657.609375 496.511719 658.976562 496.535156 660.386719 496.535156 C 663.515625 496.535156 666.777344 496.445312 670.125 496.226562 L 670.785156 496.179688 L 670.785156 483.773438 L 664.574219 483.839844 L 655.933594 483.796875 " fill-opacity="1" fill-rule="nonzero"/><path fill="#00ae8c" d="M 638.789062 449.773438 C 638.789062 449.441406 638.789062 449.113281 638.789062 448.804688 C 638.878906 447.105469 638.902344 445.742188 638.722656 444.484375 C 638.660156 443.890625 638.460938 443.359375 638.285156 442.875 L 638.21875 442.699219 C 638.042969 442.148438 637.863281 441.578125 637.734375 441.027344 C 637.226562 438.910156 637.09375 436.664062 637.027344 434.546875 L 637.003906 433.863281 L 631.320312 433.863281 L 631.210938 451.910156 L 633.546875 451.910156 C 634.140625 451.910156 634.714844 452.199219 635.109375 452.683594 C 635.507812 453.144531 635.660156 453.761719 635.507812 454.355469 C 634.625 458.347656 634.117188 463.238281 634.007812 469.320312 L 633.414062 503.960938 L 638.8125 504.226562 L 638.789062 503.476562 C 638.703125 496.136719 638.660156 488.136719 638.660156 478.992188 C 638.613281 469.585938 638.660156 460.066406 638.769531 450.65625 C 638.769531 450.367188 638.769531 450.058594 638.789062 449.773438 " fill-opacity="1" fill-rule="nonzero"/><path fill="#00ae8c" d="M 692.03125 352.59375 C 635.484375 338.515625 580.261719 326.371094 526.914062 314.648438 C 445.117188 296.667969 362.0625 279.523438 280 263.679688 L 233.394531 297.304688 C 230.816406 299.203125 228.015625 301.007812 225.195312 302.902344 C 218.367188 307.398438 211.269531 312.070312 206.421875 317.734375 C 199.4375 325.820312 191.527344 331.265625 183.902344 336.53125 C 165.875 348.914062 147.828125 361.785156 130.109375 374.828125 C 130.289062 374.828125 130.464844 374.828125 130.640625 374.828125 C 131.257812 374.851562 131.917969 374.851562 132.578125 374.894531 L 246.726562 381.066406 C 249.457031 381.21875 252.210938 381.351562 254.945312 381.507812 L 255.078125 372.714844 C 255.121094 371.632812 255.605469 370.621094 256.464844 369.914062 C 261.117188 366.167969 268.609375 361.496094 277.707031 360.394531 C 285.53125 359.492188 293.398438 360.769531 300.515625 364.097656 C 301.792969 364.738281 302.632812 366.035156 302.585938 367.445312 C 302.519531 373.773438 302.476562 380.382812 302.519531 387.457031 C 302.566406 387.457031 302.585938 387.433594 302.632812 387.433594 L 336.234375 387.433594 C 336.433594 379.28125 336.347656 371.148438 336.148438 362.730469 C 336.039062 357.199219 335.949219 351.691406 335.949219 346.136719 C 335.949219 345.210938 336.257812 344.351562 336.875 343.691406 C 349.632812 329.566406 369.421875 322.339844 387.335938 325.25 C 391.4375 325.929688 395.625 326.835938 399.238281 327.671875 C 401.023438 328.070312 402.234375 329.742188 402.035156 331.59375 C 400.691406 344.683594 400.78125 359.050781 400.976562 370.136719 L 401.175781 379.039062 C 401.242188 382.410156 401.460938 385.757812 401.640625 389.128906 L 439.121094 392.371094 C 441.523438 392.589844 443.726562 393.140625 445.84375 393.671875 C 448.179688 394.265625 450.339844 394.839844 452.191406 394.726562 L 453.246094 394.683594 C 457.324219 394.464844 461.136719 394.285156 465.566406 394.683594 L 479.582031 395.894531 C 480.683594 391.796875 484.097656 388.601562 487.578125 387.101562 C 491.65625 385.363281 495.976562 385.273438 499.742188 385.253906 C 505.738281 385.1875 511.886719 385.097656 518.078125 385.691406 C 518.296875 385.714844 518.628906 385.714844 518.957031 385.757812 C 521.691406 385.871094 526.738281 386.046875 527.75 390.230469 C 528.148438 391.753906 527.640625 393.054688 527.308594 393.957031 L 527.199219 394.285156 C 527.132812 394.839844 527.132812 395.742188 527.179688 396.734375 L 527.199219 397.96875 L 527.199219 399.421875 L 590.445312 387.457031 C 590.664062 387.390625 590.90625 387.390625 591.125 387.390625 L 591.171875 376.8125 C 591.171875 375.226562 592.25 373.816406 593.816406 373.375 C 608.335938 369.230469 627.242188 364.738281 644.695312 366.609375 C 644.960938 366.609375 645.226562 366.609375 645.46875 366.609375 C 646.636719 366.585938 648.421875 366.5 650.074219 367.625 C 651.085938 368.351562 651.703125 369.5625 651.636719 370.820312 C 651.417969 374.34375 651.503906 378.023438 651.636719 381.441406 L 667.636719 379.214844 C 680.835938 377.363281 692.757812 375.6875 704.921875 373.617188 C 711.464844 372.492188 717.921875 371.765625 724.179688 371.082031 C 728.5 370.621094 732.820312 370.136719 737.179688 369.5625 C 741.832031 368.902344 746.480469 368.21875 751.128906 367.535156 C 753.421875 367.203125 755.691406 366.875 757.984375 366.542969 C 756.75 366.277344 755.449219 366.035156 754.214844 365.816406 C 733.613281 361.851562 714.152344 358.105469 692.03125 352.59375 " fill-opacity="1" fill-rule="nonzero"/><path fill="#00ae8c" d="M 656.046875 479.765625 L 659.484375 479.808594 L 670.785156 479.722656 L 670.785156 471.789062 L 656.175781 471.789062 L 656.046875 479.765625 " fill-opacity="1" fill-rule="nonzero"/><path fill="#00ae8c" d="M 642.84375 448.957031 L 642.84375 449.003906 C 642.84375 449.289062 642.824219 449.574219 642.824219 449.839844 C 642.800781 450.148438 642.800781 450.414062 642.800781 450.699219 C 642.734375 456.757812 642.734375 462.796875 642.734375 468.855469 L 642.734375 469.5625 L 649.632812 469.5625 L 649.191406 468.570312 C 648.265625 466.433594 648.308594 463.414062 648.488281 459.050781 L 648.507812 458.632812 C 648.550781 458.125 648.574219 457.683594 648.574219 457.375 C 648.355469 452.660156 648.617188 447.921875 648.859375 443.714844 L 648.90625 442.632812 C 649.148438 437.960938 649.390625 433.554688 649.039062 429.125 C 648.882812 427.515625 648.441406 425.734375 648.066406 424.34375 C 647.605469 422.40625 647.207031 420.773438 646.964844 418.902344 C 646.746094 417.203125 646.171875 408.964844 645.777344 401.957031 C 645.3125 394.417969 645.050781 389.660156 645.402344 386.617188 C 645.050781 382.011719 644.917969 377.714844 644.984375 373.859375 L 644.984375 373.132812 L 644.011719 373.132812 C 642.714844 373 641.367188 372.933594 639.871094 372.847656 L 639.097656 372.800781 L 641.015625 427.207031 C 641.058594 428.488281 641.058594 429.832031 641.058594 431.152344 C 641.015625 434.347656 641.039062 437.433594 641.65625 440.078125 C 641.765625 440.472656 641.875 440.828125 642.007812 441.179688 L 642.183594 441.730469 C 642.40625 442.457031 642.601562 443.117188 642.691406 443.867188 C 642.976562 445.609375 642.910156 447.304688 642.84375 448.957031 " fill-opacity="1" fill-rule="nonzero"/><path fill="#00ae8c" d="M 656.089844 500.523438 L 655.382812 500.5 L 655.230469 505.0625 L 670.039062 505.789062 L 670.785156 505.039062 L 670.785156 500.257812 L 670.058594 500.300781 C 665.011719 500.589844 660.652344 500.632812 656.089844 500.523438 " fill-opacity="1" fill-rule="nonzero"/><path fill="#00ae8c" d="M 535.175781 437.765625 L 534.558594 437.832031 L 534.558594 445.652344 L 542.140625 445.851562 C 542.40625 445.851562 542.714844 445.941406 543.042969 446.136719 L 543.285156 446.292969 L 543.882812 446.136719 L 560.847656 446.203125 L 560.847656 435.757812 L 560.121094 435.804688 C 551.75 436.089844 543.574219 436.75 535.175781 437.765625 " fill-opacity="1" fill-rule="nonzero"/><path fill="#00ae8c" d="M 544.566406 476.171875 L 543.835938 476.152344 L 543.816406 476.878906 C 543.75 484.195312 543.683594 491.488281 543.640625 498.78125 L 543.640625 499.464844 L 560.210938 500.300781 L 560.429688 500.082031 C 560.539062 499.972656 560.605469 499.863281 560.628906 499.773438 L 560.738281 499.664062 L 560.78125 477.011719 L 559.945312 477.011719 C 555.339844 476.65625 550.292969 476.394531 544.566406 476.171875 " fill-opacity="1" fill-rule="nonzero"/><path fill="#00ae8c" d="M 514.550781 442.613281 L 514.550781 443.339844 C 514.617188 461.960938 514.507812 480.316406 514.175781 497.902344 L 514.175781 498.628906 L 520.613281 498.628906 L 520.789062 494.417969 C 521.007812 488.25 521.183594 482.167969 521.164062 475.535156 L 520.921875 442.613281 L 514.550781 442.613281 " fill-opacity="1" fill-rule="nonzero"/><path fill="#00ae8c" d="M 534.605469 450.414062 C 534.605469 465.617188 534.738281 481.746094 535 498.363281 L 535 499.023438 L 539.605469 499.289062 L 539.847656 472.800781 C 539.914062 465.375 539.980469 457.949219 540.003906 450.523438 L 540.003906 449.839844 L 534.605469 449.6875 L 534.605469 450.414062 " fill-opacity="1" fill-rule="nonzero"/><path fill="#00ae8c" d="M 510.519531 442.613281 L 489.1875 442.613281 L 489.34375 455.480469 L 510.519531 455.480469 L 510.519531 450.964844 C 510.542969 448.40625 510.542969 445.875 510.519531 443.316406 L 510.519531 442.613281 " fill-opacity="1" fill-rule="nonzero"/><path fill="#00ae8c" d="M 500.339844 467.070312 C 500.273438 466.519531 500.425781 465.992188 500.757812 465.574219 C 501.085938 465.132812 501.550781 464.867188 502.078125 464.800781 C 502.167969 464.800781 502.253906 464.78125 502.34375 464.78125 C 502.785156 464.78125 503.226562 464.933594 503.578125 465.222656 C 504.019531 465.550781 504.28125 466.035156 504.347656 466.585938 C 504.613281 468.988281 504.746094 471.191406 504.703125 473.308594 C 504.679688 474.410156 503.777344 475.3125 502.628906 475.3125 C 502.101562 475.292969 501.59375 475.070312 501.21875 474.695312 C 500.84375 474.300781 500.648438 473.792969 500.667969 473.265625 C 500.714844 471.191406 500.601562 469.097656 500.339844 467.070312 Z M 496.503906 474.785156 C 496.570312 475.3125 496.414062 475.820312 496.085938 476.238281 C 495.753906 476.679688 495.269531 476.945312 494.808594 477.011719 L 494.476562 477.011719 C 493.464844 477.011719 492.605469 476.238281 492.492188 475.246094 C 492.164062 472.492188 492.097656 469.695312 492.273438 466.917969 C 492.316406 466.324219 492.625 465.75 493.066406 465.398438 C 493.332031 465.175781 493.792969 464.933594 494.433594 465.023438 C 494.960938 465.066406 495.46875 465.308594 495.820312 465.707031 C 496.171875 466.125 496.351562 466.632812 496.304688 467.183594 C 496.152344 469.847656 496.21875 472.40625 496.503906 474.785156 Z M 489.652344 485.980469 L 510.320312 486.066406 L 510.34375 483.511719 C 510.410156 475.753906 510.476562 467.996094 510.519531 460.21875 L 510.519531 459.515625 L 489.363281 459.515625 L 489.652344 485.980469 " fill-opacity="1" fill-rule="nonzero"/><path fill="#00ae8c" d="M 582.09375 475.929688 L 582.070312 475.335938 L 581.476562 475.269531 C 578.28125 474.960938 574.929688 475.488281 571.382812 476.0625 L 571.03125 476.128906 C 569.023438 476.4375 567.195312 476.679688 565.453125 476.835938 L 564.816406 476.898438 L 564.792969 500.5 L 583.4375 501.449219 L 583.414062 500.699219 C 583.148438 492.128906 582.597656 483.421875 582.09375 475.929688 " fill-opacity="1" fill-rule="nonzero"/><path fill="#00ae8c" d="M 579.777344 436.507812 L 579.757812 435.867188 L 579.117188 435.824219 C 574.6875 435.605469 569.996094 435.605469 565.585938 435.648438 L 564.902344 435.648438 L 564.902344 446.203125 L 580.285156 446.292969 L 580.242188 445.542969 C 580.066406 442.523438 579.886719 439.484375 579.777344 436.507812 " fill-opacity="1" fill-rule="nonzero"/><path fill="#00ae8c" d="M 489.78125 498.628906 L 510.121094 498.628906 L 510.144531 497.945312 C 510.1875 496.402344 510.210938 494.859375 510.234375 493.292969 L 510.277344 490.101562 L 489.695312 490.011719 L 489.78125 498.628906 " fill-opacity="1" fill-rule="nonzero"/><path fill="#00ae8c" d="M 564.859375 472.933594 L 565.652344 472.824219 C 566.996094 472.667969 568.386719 472.449219 569.816406 472.226562 L 570.390625 472.140625 C 573.960938 471.546875 577.464844 471.015625 581.035156 471.191406 L 581.851562 471.238281 L 581.785156 470.421875 C 581.738281 470.046875 581.71875 469.671875 581.695312 469.296875 C 581.652344 468.878906 581.628906 468.460938 581.585938 468.042969 L 581.277344 463.214844 C 581.011719 459.160156 580.746094 455.0625 580.503906 450.984375 L 580.460938 450.324219 L 564.859375 450.238281 L 564.859375 472.933594 " fill-opacity="1" fill-rule="nonzero"/><path fill="#00ae8c" d="M 544.035156 450.875 C 544.015625 457.332031 543.949219 463.8125 543.882812 470.246094 L 543.859375 472.117188 L 544.542969 472.140625 C 550.316406 472.339844 555.382812 472.625 560.054688 472.976562 L 560.828125 473.042969 L 560.828125 450.257812 L 544.058594 450.171875 L 544.035156 450.875 " fill-opacity="1" fill-rule="nonzero"/></svg>