<svg xmlns="http://www.w3.org/2000/svg" xmlns:xlink="http://www.w3.org/1999/xlink" width="1200" zoomAndPan="magnify" viewBox="0 0 900 749.999995" height="1000" preserveAspectRatio="xMidYMid meet" version="1.0"><defs><clipPath id="58755136c2"><path d="M 419.464844 418.214844 L 736.714844 418.214844 L 736.714844 565 L 419.464844 565 Z M 419.464844 418.214844 " clip-rule="nonzero"/></clipPath></defs><path fill="#00ae8c" d="M 340.578125 399.089844 L 383.679688 399.003906 L 383.722656 398.339844 C 383.746094 397.460938 383.769531 396.558594 383.769531 395.675781 C 383.769531 395.082031 383.769531 394.507812 383.789062 393.914062 L 383.8125 393.207031 L 383.085938 393.207031 C 380.242188 393.207031 377.378906 393.207031 374.445312 393.164062 C 371.363281 393.140625 368.230469 393.097656 365.214844 393.097656 L 340.863281 393.097656 L 340.578125 399.089844 " fill-opacity="1" fill-rule="nonzero"/><path fill="#00ae8c" d="M 368.539062 481.285156 L 368.496094 480.601562 L 367.792969 480.601562 L 340.355469 476.0625 L 340.53125 480.824219 C 340.621094 483.335938 340.710938 485.847656 340.820312 488.335938 L 340.796875 489.175781 L 368.496094 494.835938 L 368.496094 493.976562 C 368.476562 491.445312 368.496094 488.910156 368.519531 486.375 C 368.519531 484.679688 368.539062 482.980469 368.539062 481.285156 " fill-opacity="1" fill-rule="nonzero"/><path fill="#00ae8c" d="M 385 463.414062 L 423.761719 463.414062 L 423.742188 462.6875 C 423.695312 461.429688 423.742188 460.128906 423.785156 458.917969 C 423.785156 458.457031 423.785156 457.972656 423.808594 457.507812 C 423.808594 457.046875 423.808594 456.582031 423.808594 456.121094 L 423.808594 455.414062 L 385.023438 455.460938 L 385 463.414062 " fill-opacity="1" fill-rule="nonzero"/><path fill="#00ae8c" d="M 351.042969 466.699219 L 352.675781 466.851562 L 352.585938 454.046875 L 351.882812 454.046875 C 350.757812 454.046875 350.007812 454.113281 349.589844 454.511719 C 349.390625 454.6875 348.929688 455.171875 349.082031 458.125 L 349.039062 460.4375 C 349.015625 461.914062 348.972656 463.195312 348.929688 464.296875 L 348.863281 466.542969 L 349.566406 466.566406 C 350.074219 466.585938 350.558594 466.632812 351.042969 466.699219 " fill-opacity="1" fill-rule="nonzero"/><path fill="#00ae8c" d="M 385.664062 403.035156 L 371.539062 403.035156 L 371.933594 404.027344 C 372 404.160156 372.023438 404.246094 372.023438 404.335938 C 372.109375 409.734375 372.375 414.824219 372.617188 419.296875 L 372.640625 420.003906 C 372.96875 426.703125 373.257812 433.046875 373.144531 440.253906 L 372.96875 451.46875 C 372.726562 464.957031 372.464844 480.273438 372.574219 494.925781 L 372.574219 495.742188 L 373.367188 495.609375 C 375.769531 495.277344 378.082031 494.75 380.242188 494.066406 L 380.726562 493.910156 L 381.035156 453.410156 C 381.035156 452.285156 381.917969 451.425781 383.039062 451.425781 L 395.953125 451.382812 L 395.359375 450.324219 C 394.960938 449.640625 394.765625 448.847656 394.765625 448.054688 L 394.765625 368.152344 C 394.765625 367.46875 394.894531 366.832031 395.203125 366.214844 L 395.269531 366.035156 L 395.160156 363.921875 C 394.941406 360.660156 394.675781 356.804688 394.609375 352.925781 L 394.433594 344 C 394.257812 333.710938 394.191406 320.335938 395.226562 307.882812 L 395.269531 307.265625 L 394.675781 307.132812 C 391.613281 306.453125 388.792969 305.902344 386.390625 305.527344 C 386.167969 305.460938 385.949219 305.460938 385.796875 305.460938 L 385.089844 305.460938 L 385.859375 331.285156 C 385.882812 332.035156 385.882812 332.785156 385.859375 333.535156 L 385.859375 334.722656 C 385.816406 336.246094 385.796875 337.65625 385.90625 339.132812 C 387.824219 359.667969 388.4375 381.109375 387.667969 401.097656 C 387.625 402.199219 386.742188 403.035156 385.664062 403.035156 " fill-opacity="1" fill-rule="nonzero"/><path fill="#00ae8c" d="M 424.183594 489.242188 L 424.160156 488.558594 L 384.804688 488.558594 L 384.804688 493.691406 L 385.507812 493.691406 C 386.832031 493.691406 388.152344 493.691406 389.476562 493.691406 C 400.800781 493.691406 412.238281 493.558594 423.519531 493.273438 L 424.226562 493.25 L 424.203125 492.546875 C 424.203125 491.996094 424.203125 491.464844 424.203125 490.914062 C 424.203125 490.363281 424.203125 489.792969 424.183594 489.242188 " fill-opacity="1" fill-rule="nonzero"/><path fill="#00ae8c" d="M 424.226562 468.660156 C 424.183594 468.4375 424.136719 468.238281 424.09375 468.042969 L 424.003906 467.445312 L 384.957031 467.445312 L 384.847656 484.503906 L 424.183594 484.503906 L 424.183594 483.796875 C 424.203125 479.015625 424.246094 474.253906 424.359375 469.34375 C 424.3125 469.121094 424.269531 468.878906 424.226562 468.660156 " fill-opacity="1" fill-rule="nonzero"/><path fill="#00ae8c" d="M 485.441406 444.96875 L 484.515625 445.277344 C 484.007812 445.453125 483.523438 445.542969 483.039062 445.542969 L 472.902344 445.542969 L 472.882812 446.226562 C 472.792969 449.597656 472.769531 454.796875 472.816406 461.695312 L 472.816406 462.378906 L 485.640625 462.378906 L 485.441406 444.96875 " fill-opacity="1" fill-rule="nonzero"/><path fill="#00ae8c" d="M 472.882812 466.433594 L 472.882812 467.136719 C 472.882812 468.8125 472.925781 470.378906 472.96875 471.699219 L 472.992188 472.382812 L 485.75 472.382812 L 485.664062 466.433594 L 472.882812 466.433594 " fill-opacity="1" fill-rule="nonzero"/><path fill="#00ae8c" d="M 520.613281 370.6875 L 520.613281 370.664062 C 520.566406 369.671875 520.523438 368.285156 520.742188 366.917969 L 520.855469 366.167969 L 520.105469 366.101562 C 519.839844 366.082031 519.574219 366.082031 519.355469 366.082031 C 519.113281 366.058594 518.914062 366.058594 518.671875 366.035156 C 518.1875 366.035156 517.746094 365.992188 517.4375 365.972656 C 511.863281 365.398438 506.132812 365.484375 500.582031 365.550781 L 499.832031 365.574219 C 496.503906 365.597656 493.042969 365.640625 490.179688 366.894531 C 488.128906 367.753906 486.5 369.472656 485.992188 371.28125 L 485.882812 371.699219 L 486.191406 371.988281 C 487.226562 372.914062 487.777344 374.125 487.777344 375.425781 L 487.777344 403.761719 L 488.152344 403.960938 C 488.328125 404.070312 488.503906 404.246094 488.703125 404.535156 L 488.902344 404.863281 L 520.875 404.863281 L 520.613281 370.6875 " fill-opacity="1" fill-rule="nonzero"/><path fill="#00ae8c" d="M 341.128906 388.292969 L 341.0625 389.066406 L 365.214844 389.066406 C 368.1875 389.066406 371.273438 389.085938 374.511719 389.128906 C 377.398438 389.175781 380.351562 389.175781 383.195312 389.175781 L 383.898438 389.175781 L 383.898438 388.46875 C 384.054688 371.988281 383.371094 355.503906 381.894531 339.460938 C 381.71875 337.742188 381.761719 336.089844 381.828125 334.527344 L 381.828125 333.511719 C 381.851562 332.828125 381.851562 332.125 381.828125 331.417969 L 381.035156 304.953125 L 380.375 304.953125 C 366.691406 304.621094 352.566406 310.507812 342.691406 320.820312 L 342.496094 321.015625 L 342.496094 321.304688 C 342.539062 326.351562 342.605469 331.332031 342.714844 336.355469 C 342.980469 348.605469 343.222656 361.253906 342.140625 374.101562 C 341.765625 378.707031 341.4375 383.46875 341.128906 388.292969 " fill-opacity="1" fill-rule="nonzero"/><path fill="#00ae8c" d="M 344.742188 468.328125 L 344.851562 465.574219 C 344.917969 463.746094 344.984375 461.496094 345.027344 460.261719 L 345.027344 458.234375 C 344.960938 456.382812 344.851562 453.300781 346.878906 451.492188 C 348.289062 450.238281 350.183594 449.972656 351.816406 449.972656 C 352.386719 449.972656 352.9375 450.015625 353.402344 450.039062 L 354.152344 450.082031 C 357.390625 450.191406 360.652344 450.433594 363.847656 450.832031 C 364.421875 450.917969 364.949219 451.226562 365.257812 451.667969 C 365.589844 452.152344 365.699219 452.703125 365.589844 453.234375 L 365.566406 453.253906 C 364.421875 458.742188 364.132812 464.316406 364.730469 469.871094 C 364.816406 470.445312 364.597656 471.039062 364.15625 471.480469 C 363.78125 471.875 363.273438 472.097656 362.8125 472.140625 L 362.570312 472.050781 C 360.984375 471.898438 359.441406 471.722656 357.851562 471.523438 L 357.28125 471.433594 C 354.019531 471.015625 350.339844 470.53125 346.769531 470.53125 C 345.644531 470.53125 344.742188 469.628906 344.742188 468.503906 C 344.742188 468.4375 344.742188 468.371094 344.742188 468.328125 Z M 368.5625 475.777344 C 368.628906 467.601562 368.785156 459.449219 368.9375 451.425781 L 369.003906 447.195312 L 368.871094 446.535156 L 368.210938 446.492188 C 359.636719 445.71875 350.910156 445.5 342.296875 445.828125 C 342.230469 445.828125 342.140625 445.828125 341.988281 445.808594 C 341.328125 445.71875 340.863281 445.71875 340.445312 445.71875 L 339.738281 445.71875 L 339.738281 446.425781 C 339.804688 455.171875 339.960938 463.324219 340.203125 471.367188 L 340.222656 471.941406 L 368.5625 476.613281 L 368.5625 475.777344 " fill-opacity="1" fill-rule="nonzero"/><path fill="#00ae8c" d="M 356.75 467.25 L 357.300781 467.359375 C 357.5 467.402344 357.675781 467.445312 357.832031 467.425781 C 358.140625 467.46875 358.425781 467.511719 358.734375 467.558594 C 359.042969 467.601562 359.375 467.644531 359.683594 467.6875 L 360.496094 467.777344 L 360.476562 466.960938 C 360.300781 463.0625 360.496094 459.140625 361.113281 455.328125 L 361.226562 454.601562 L 360.496094 454.511719 C 359.417969 454.402344 358.382812 454.378906 357.347656 454.335938 L 356.621094 454.3125 L 356.683594 466.675781 L 356.75 467.25 " fill-opacity="1" fill-rule="nonzero"/><path fill="#00ae8c" d="M 340.355469 403.808594 C 339.871094 416.652344 339.671875 428.796875 339.695312 440.980469 L 339.695312 441.6875 L 340.402344 441.6875 C 340.90625 441.6875 341.480469 441.6875 342.1875 441.796875 L 342.382812 441.796875 C 342.648438 441.753906 342.957031 441.773438 343.199219 441.753906 L 343.925781 441.753906 L 343.109375 407.796875 C 343.089844 407.265625 343.289062 406.757812 343.664062 406.363281 C 344.035156 405.988281 344.566406 405.769531 345.09375 405.769531 L 345.886719 405.769531 C 349.371094 405.722656 352.851562 405.679688 356.3125 405.613281 L 360.078125 405.570312 C 362.480469 405.546875 364.882812 405.503906 367.285156 405.503906 L 367.988281 405.503906 L 367.988281 404.402344 C 367.988281 404.335938 368.011719 404.226562 368.035156 404.113281 L 368.253906 403.078125 L 340.378906 403.125 L 340.355469 403.808594 " fill-opacity="1" fill-rule="nonzero"/><path fill="#00ae8c" d="M 363.671875 419.695312 L 363.539062 435.007812 L 363.539062 435.03125 C 363.539062 436.132812 362.613281 437.035156 361.535156 437.035156 C 360.386719 437.015625 359.484375 436.113281 359.484375 434.988281 L 359.636719 419.652344 C 359.636719 418.570312 360.542969 417.6875 361.644531 417.6875 C 362.765625 417.6875 363.671875 418.59375 363.671875 419.695312 Z M 350.515625 420.179688 C 350.425781 419.078125 351.242188 418.109375 352.386719 417.996094 C 352.453125 417.996094 352.519531 417.996094 352.566406 417.996094 C 353.027344 417.996094 353.46875 418.152344 353.84375 418.460938 C 354.238281 418.8125 354.503906 419.320312 354.546875 419.871094 C 355.011719 425.179688 355.210938 430.46875 355.164062 435.605469 C 355.164062 436.707031 354.261719 437.585938 353.160156 437.585938 C 352.035156 437.585938 351.132812 436.683594 351.132812 435.582031 C 351.175781 430.582031 350.957031 425.402344 350.515625 420.179688 Z M 369.113281 440.1875 C 369.222656 433.113281 368.914062 426.855469 368.605469 420.203125 L 368.5625 419.472656 C 368.429688 416.5 368.277344 413.390625 368.167969 410.21875 L 368.144531 409.558594 L 367.460938 409.558594 C 365.015625 409.558594 362.589844 409.582031 360.167969 409.601562 L 353.535156 409.710938 C 351.660156 409.734375 349.765625 409.757812 347.894531 409.757812 L 347.164062 409.757812 L 347.960938 441.640625 L 348.664062 441.640625 C 355.386719 441.578125 361.972656 441.886719 368.296875 442.457031 L 369.070312 442.5 L 369.113281 440.1875 " fill-opacity="1" fill-rule="nonzero"/><path fill="#00ae8c" d="M 282.644531 463.171875 L 281.542969 463.898438 C 281.191406 464.121094 280.882812 464.207031 280.550781 464.207031 L 278.28125 464.207031 L 278.324219 464.957031 C 278.457031 467.378906 278.148438 469.761719 277.398438 471.898438 C 277.070312 472.933594 275.792969 473.507812 274.84375 473.152344 C 274.359375 472.976562 273.941406 472.625 273.699219 472.140625 C 273.457031 471.65625 273.410156 471.105469 273.585938 470.597656 C 274.203125 468.855469 274.402344 466.941406 274.203125 464.890625 L 274.136719 464.25 L 267.703125 464.296875 L 267.703125 474.078125 C 267.703125 475.160156 266.777344 476.085938 265.699219 476.085938 C 264.574219 476.085938 263.671875 475.179688 263.671875 474.078125 L 263.671875 464.316406 L 260.519531 464.316406 L 260.476562 479.167969 L 261.027344 479.300781 C 268.320312 481.042969 275.109375 482.253906 281.742188 483.027344 L 282.554688 483.113281 L 282.511719 482.300781 C 282.402344 478.816406 282.488281 473 282.621094 464.492188 L 282.644531 463.171875 " fill-opacity="1" fill-rule="nonzero"/><path fill="#00ae8c" d="M 433.765625 504.113281 L 433.746094 504.136719 C 432.355469 504.554688 430.816406 504.335938 429.601562 503.519531 C 428.984375 503.078125 428.480469 502.527344 428.125 501.84375 L 427.773438 501.183594 L 427.132812 501.582031 C 426.847656 501.734375 426.5625 501.84375 426.230469 501.84375 C 425.128906 501.84375 424.203125 500.941406 424.203125 499.816406 C 424.183594 499.421875 424.203125 499.023438 424.203125 498.628906 L 424.203125 497.328125 L 423.5 497.328125 C 410.078125 497.636719 398.949219 497.769531 388.527344 497.769531 C 387.515625 497.769531 386.523438 497.769531 385.507812 497.746094 L 384.78125 497.703125 L 384.738281 501.097656 C 384.738281 502.175781 383.832031 503.078125 382.710938 503.078125 C 381.609375 503.078125 380.703125 502.175781 380.703125 501.050781 L 380.703125 498.078125 L 379.800781 498.339844 C 376.957031 499.179688 374.402344 499.683594 371.980469 499.882812 L 371.914062 499.863281 L 371.78125 499.90625 C 371.25 499.90625 370.832031 499.640625 370.566406 499.421875 L 370.414062 499.265625 L 334.824219 492.128906 C 334.1875 491.972656 333.65625 491.511719 333.394531 490.871094 L 333.261719 490.519531 L 318.894531 487.523438 C 312.878906 486.199219 306.839844 484.898438 300.800781 483.664062 L 300.648438 483.621094 L 300.472656 483.664062 C 295.25 485.140625 290.597656 486.597656 286.257812 488.074219 C 285.683594 488.292969 284.804688 488.136719 284.1875 487.5 L 284.011719 487.300781 L 283.746094 487.277344 C 275.304688 486.441406 266.890625 484.941406 257.984375 482.71875 C 257.125 482.496094 256.507812 481.726562 256.488281 480.84375 L 256.464844 480.160156 L 246.617188 480.160156 L 246.570312 482.71875 C 246.570312 483.796875 245.667969 484.699219 244.523438 484.699219 C 243.421875 484.699219 242.539062 483.777344 242.539062 482.652344 L 242.582031 480.160156 L 237.449219 480.160156 L 237.382812 480.777344 C 237.273438 481.925781 236.675781 482.980469 235.796875 483.753906 C 235.222656 484.261719 234.519531 484.613281 233.679688 484.832031 L 231.785156 485.273438 L 233.527344 486.132812 C 235.289062 487.015625 238.265625 487.808594 242.40625 488.46875 L 379.84375 510.835938 C 382.863281 511.320312 385.75 511.34375 388.8125 511.386719 C 390.554688 511.386719 392.363281 511.429688 394.191406 511.496094 C 397.671875 511.671875 401.066406 511.78125 404.371094 511.78125 C 413.207031 511.78125 421.40625 511.101562 429.226562 509.734375 C 433.152344 509.050781 435.375 508.058594 436.039062 506.671875 C 436.300781 506.074219 436.167969 505.171875 435.707031 504.664062 C 435.222656 504.179688 434.382812 503.9375 433.765625 504.113281 " fill-opacity="1" fill-rule="nonzero"/><path fill="#00ae8c" d="M 237.425781 476.105469 L 242.628906 476.105469 L 242.980469 449.179688 L 237.164062 449.179688 L 237.164062 449.882812 C 237.207031 456.140625 237.273438 462.335938 237.339844 468.546875 L 237.425781 476.105469 " fill-opacity="1" fill-rule="nonzero"/><path fill="#00ae8c" d="M 498.179688 274.742188 L 480.925781 242.148438 C 480.902344 242.128906 480.925781 242.085938 480.902344 242.039062 C 479.46875 241.6875 478.039062 241.289062 476.5625 240.894531 C 469.136719 238.933594 461.421875 236.863281 453.84375 234.285156 C 450.207031 233.050781 446.789062 231.550781 443.484375 230.097656 L 442.03125 229.4375 C 438.878906 228.070312 435.640625 227.695312 431.9375 227.277344 C 429.976562 227.054688 428.015625 226.835938 425.988281 226.460938 C 422.066406 225.734375 418.34375 224.652344 414.707031 223.597656 C 413.605469 223.265625 412.4375 222.933594 411.3125 222.605469 L 299.65625 191.535156 C 297.1875 190.828125 294.609375 189.96875 291.988281 189.085938 C 287.625 187.609375 283.171875 186.15625 279.097656 185.539062 C 277.269531 201.515625 278.148438 216.589844 281.71875 230.359375 C 353.621094 244.265625 426.273438 259.183594 498.179688 274.742188 " fill-opacity="1" fill-rule="nonzero"/><path fill="#00ae8c" d="M 533.238281 282.320312 C 539.847656 283.777344 546.503906 285.273438 553.136719 286.730469 C 548.929688 277.164062 544.433594 267.625 539.628906 258.390625 L 516.269531 251.847656 C 520.984375 262.488281 526.671875 272.691406 533.238281 282.300781 L 533.238281 282.320312 " fill-opacity="1" fill-rule="nonzero"/><path fill="#00ae8c" d="M 526.230469 280.800781 C 519.90625 271.0625 514.464844 260.792969 509.945312 250.105469 L 487.625 243.914062 L 504.679688 276.152344 C 511.886719 277.714844 519.070312 279.238281 526.230469 280.800781 " fill-opacity="1" fill-rule="nonzero"/><path fill="#00ae8c" d="M 256.507812 448.695312 L 255.628906 448.9375 C 255.078125 449.089844 254.636719 449.179688 254.21875 449.179688 L 247.011719 449.179688 L 246.683594 476.105469 L 256.488281 476.105469 L 256.507812 448.695312 " fill-opacity="1" fill-rule="nonzero"/><path fill="#00ae8c" d="M 200.890625 286.75 C 206.445312 280.339844 213.9375 275.378906 221.1875 270.597656 C 223.960938 268.769531 226.652344 267.007812 229.164062 265.179688 L 274.667969 232.324219 C 271.25 219.101562 270.128906 204.820312 271.363281 189.75 C 270.414062 190.804688 269.53125 191.820312 268.917969 192.570312 C 268.300781 193.339844 267.726562 194.023438 267.175781 194.640625 C 264.246094 197.988281 261.050781 200.855469 257.921875 203.652344 C 256.753906 204.710938 255.628906 205.726562 254.503906 206.78125 C 252.101562 209.007812 249.8125 211.277344 247.542969 213.546875 C 242.957031 218.109375 238.242188 222.847656 232.667969 227.054688 C 230.242188 228.929688 227.90625 231.21875 225.4375 233.6875 C 224.183594 234.964844 222.90625 236.199219 221.605469 237.433594 C 219.136719 239.769531 216.582031 242.039062 214.046875 244.332031 C 209.132812 248.847656 204.0625 253.453125 199.328125 258.171875 L 125.351562 327.144531 C 122 330.226562 123.191406 334.988281 125.527344 342.4375 C 125.570312 342.589844 125.59375 342.699219 125.636719 342.832031 C 143.464844 329.722656 161.621094 316.765625 179.757812 304.292969 C 187.339844 299.070312 194.542969 294.132812 200.890625 286.75 " fill-opacity="1" fill-rule="nonzero"/><path fill="#00ae8c" d="M 260.652344 399.222656 L 260.652344 400.148438 L 261.535156 399.929688 C 263.582031 399.464844 265.785156 398.980469 268.035156 398.671875 C 271.230469 398.230469 274.226562 397.546875 277.136719 396.886719 C 278.898438 396.492188 280.683594 396.09375 282.46875 395.742188 L 283.238281 395.742188 L 283.238281 395.035156 C 283.285156 387.699219 283.285156 380.359375 283.285156 373.132812 L 283.285156 340.476562 L 282.578125 340.476562 C 281.191406 340.476562 279.824219 340.542969 278.5 340.695312 C 275.085938 341.09375 265.542969 343.097656 262.546875 347.328125 C 260.984375 349.511719 260.984375 353.808594 261.09375 357.664062 C 261.09375 358.234375 261.117188 358.808594 261.117188 359.316406 C 261.136719 359.777344 261.136719 360.242188 261.136719 360.617188 C 261.003906 367.050781 260.960938 373.484375 260.894531 379.941406 C 260.851562 386.355469 260.785156 392.789062 260.652344 399.222656 " fill-opacity="1" fill-rule="nonzero"/><path fill="#00ae8c" d="M 278.898438 459.382812 C 279.515625 455.546875 279.691406 451.515625 279.425781 447.085938 L 279.382812 446.378906 L 278.679688 446.402344 C 272.925781 446.777344 267.066406 446.84375 261.292969 446.621094 L 260.5625 446.601562 L 260.519531 460.285156 L 278.898438 460.175781 L 278.898438 459.382812 " fill-opacity="1" fill-rule="nonzero"/><path fill="#00ae8c" d="M 287.207031 411.253906 C 287.183594 417.226562 287.140625 423.175781 287.074219 429.125 L 286.742188 460.769531 L 286.699219 463.128906 C 286.609375 468.855469 286.457031 478.464844 286.480469 482.785156 L 286.5 483.753906 L 287.402344 483.445312 C 290.953125 482.300781 294.125 481.328125 297.167969 480.449219 L 297.804688 480.273438 L 297.605469 479.433594 C 297.539062 479.167969 297.496094 478.925781 297.496094 478.664062 L 296.460938 412.578125 L 295.910156 412.46875 C 294.71875 412.222656 293.53125 411.9375 292.363281 411.605469 L 292.074219 411.519531 C 290.6875 411.144531 289.367188 410.769531 288.019531 410.570312 L 287.226562 410.441406 L 287.207031 411.253906 " fill-opacity="1" fill-rule="nonzero"/><path fill="#00ae8c" d="M 296 343.054688 L 295.558594 342.878906 C 293.222656 341.972656 290.730469 341.3125 288.132812 340.9375 L 287.316406 340.828125 L 287.316406 373.132812 C 287.316406 383.84375 287.292969 394.660156 287.25 405.570312 L 287.25 406.40625 L 287.867188 406.496094 C 289.828125 406.738281 291.765625 407.246094 293.421875 407.707031 C 293.992188 407.859375 294.566406 408.015625 295.09375 408.148438 L 296.4375 408.5 L 296.503906 407.640625 C 296.617188 406.207031 296.746094 404.753906 296.945312 403.320312 C 297.296875 400.523438 297.652344 397.613281 297.144531 394.949219 C 296.261719 390.011719 296.175781 385.121094 296.109375 380.40625 L 296.109375 378.640625 C 295.953125 367.007812 295.910156 355.855469 296 343.539062 L 296 343.054688 " fill-opacity="1" fill-rule="nonzero"/><path fill="#00ae8c" d="M 260.5625 404.863281 C 260.519531 406.78125 260.476562 408.347656 260.453125 409.382812 L 260.410156 410.261719 L 267.484375 408.984375 C 269.972656 408.523438 272.308594 408.167969 274.644531 407.816406 L 276.5625 407.507812 C 278.015625 407.308594 279.472656 407.089844 280.96875 406.847656 L 283.21875 406.496094 L 283.21875 405.898438 C 283.21875 404.113281 283.21875 402.351562 283.238281 400.566406 L 283.261719 399.6875 L 280.617188 400.238281 C 279.757812 400.433594 278.898438 400.613281 278.039062 400.808594 L 277.707031 400.875 C 274.777344 401.558594 271.738281 402.242188 268.5625 402.660156 C 265.984375 403.035156 263.472656 403.5625 261.070312 404.203125 L 260.5625 404.335938 L 260.5625 404.863281 " fill-opacity="1" fill-rule="nonzero"/><path fill="#00ae8c" d="M 520.898438 408.898438 L 489.101562 408.898438 L 489.167969 412.335938 L 520.898438 412.335938 L 520.898438 408.898438 " fill-opacity="1" fill-rule="nonzero"/><path fill="#00ae8c" d="M 259.925781 422.097656 L 260.101562 422.292969 C 260.433594 422.667969 260.585938 423.089844 260.585938 423.550781 L 260.5625 442.546875 L 261.226562 442.589844 C 261.578125 442.613281 261.929688 442.613281 262.304688 442.613281 C 262.613281 442.589844 262.964844 442.613281 263.296875 442.632812 L 264.023438 442.699219 L 264.023438 441.949219 C 265.125 435.074219 265.523438 428.023438 265.234375 420.996094 C 265.214844 420.488281 265.390625 419.980469 265.742188 419.585938 C 266.117188 419.1875 266.644531 418.945312 267.152344 418.902344 C 267.175781 418.902344 267.195312 418.902344 267.21875 418.902344 C 268.300781 418.902344 269.222656 419.78125 269.269531 420.863281 C 269.554688 427.804688 269.179688 434.878906 268.121094 441.886719 L 267.992188 442.722656 L 273.71875 442.566406 L 273.742188 441.90625 C 273.960938 434.746094 273.828125 427.648438 273.367188 420.839844 C 273.300781 419.714844 274.117188 418.769531 275.242188 418.703125 C 275.285156 418.679688 275.328125 418.679688 275.351562 418.679688 C 276.453125 418.679688 277.332031 419.496094 277.421875 420.554688 C 277.839844 427.097656 277.972656 433.996094 277.773438 441.621094 L 277.753906 442.371094 L 279.339844 442.304688 C 279.933594 442.304688 280.507812 442.28125 281.078125 442.238281 C 281.300781 442.214844 281.609375 442.257812 281.960938 442.390625 L 282.910156 442.789062 L 283.042969 429.105469 C 283.105469 423.683594 283.128906 418.21875 283.171875 412.773438 L 283.195312 410.570312 L 282.359375 410.726562 C 281.035156 410.925781 279.734375 411.121094 278.457031 411.320312 L 277.179688 411.519531 C 274.226562 411.960938 271.339844 412.402344 268.210938 412.929688 L 260.257812 414.429688 L 259.925781 422.097656 " fill-opacity="1" fill-rule="nonzero"/><path fill="#00ae8c" d="M 777.96875 323.816406 C 776.273438 323.375 773.785156 323 772.375 322.78125 C 770.699219 322.539062 769.222656 322.316406 768.054688 321.988281 C 766.644531 321.632812 765.078125 321.039062 763.40625 320.464844 C 760.761719 319.476562 757.695312 318.394531 755.824219 318.394531 C 755.296875 318.394531 754.832031 318.328125 754.371094 318.21875 L 546.195312 260.21875 C 550.84375 269.363281 555.316406 278.6875 559.351562 288.09375 C 603.113281 297.769531 647.980469 307.863281 693.816406 319.296875 C 715.71875 324.785156 735.066406 328.488281 755.605469 332.453125 C 762.632812 333.796875 769.90625 335.1875 777.464844 336.707031 C 777.464844 336.640625 777.53125 336.507812 777.53125 336.441406 C 777.683594 335.496094 777.464844 334.195312 777.242188 332.785156 C 777.089844 331.902344 776.980469 331 776.914062 330.117188 C 776.691406 327.871094 777.351562 325.777344 777.925781 323.925781 C 777.925781 323.882812 777.925781 323.839844 777.96875 323.816406 " fill-opacity="1" fill-rule="nonzero"/><path fill="#00ae8c" d="M 619.421875 429.742188 C 615.609375 429.789062 611.796875 429.789062 607.941406 429.789062 L 607.257812 429.789062 L 606.96875 438.84375 L 628.898438 439 C 628.960938 439 629.050781 439.019531 629.140625 439.042969 L 630.152344 439.261719 L 630.195312 438.449219 C 630.351562 435.515625 630.59375 432.851562 630.945312 430.515625 L 631.078125 429.699219 L 630.242188 429.699219 C 626.648438 429.699219 623.011719 429.699219 619.421875 429.742188 " fill-opacity="1" fill-rule="nonzero"/><path fill="#00ae8c" d="M 606.242188 463.015625 L 605.847656 476.328125 L 629.382812 477.496094 L 629.644531 461.9375 L 628.589844 463.015625 L 606.242188 463.015625 " fill-opacity="1" fill-rule="nonzero"/><path fill="#00ae8c" d="M 620.171875 453.234375 C 620.347656 452.066406 620.390625 450.898438 620.28125 449.707031 C 620.171875 448.605469 620.984375 447.636719 622.109375 447.527344 C 622.175781 447.527344 622.242188 447.527344 622.308594 447.527344 C 622.769531 447.527344 623.210938 447.679688 623.585938 447.988281 C 624.003906 448.339844 624.246094 448.828125 624.269531 449.355469 C 624.421875 450.832031 624.378906 452.328125 624.179688 453.828125 C 624.003906 454.820312 623.167969 455.523438 622.175781 455.523438 L 621.867188 455.546875 C 620.742188 455.347656 619.992188 454.335938 620.171875 453.234375 Z M 610.472656 453.011719 L 610.539062 449.246094 C 610.5625 448.144531 611.664062 447.328125 612.613281 447.285156 C 613.164062 447.285156 613.667969 447.503906 614.023438 447.902344 C 614.398438 448.296875 614.59375 448.828125 614.574219 449.355469 L 614.507812 453.101562 C 614.484375 454.179688 613.582031 455.0625 612.414062 455.0625 C 611.90625 455.0625 611.421875 454.84375 611.046875 454.46875 C 610.671875 454.09375 610.453125 453.542969 610.472656 453.011719 Z M 628.898438 443.03125 L 606.859375 442.875 L 606.355469 458.984375 L 628.71875 458.984375 L 629.710938 459.449219 L 629.976562 442.964844 L 629.269531 442.964844 C 629.074219 442.964844 628.941406 443.007812 628.898438 443.03125 " fill-opacity="1" fill-rule="nonzero"/><path fill="#00ae8c" d="M 627.175781 425.710938 L 627.289062 407.617188 L 614.109375 407.617188 L 614.902344 425.710938 L 627.175781 425.710938 " fill-opacity="1" fill-rule="nonzero"/><path fill="#00ae8c" d="M 636.015625 394.574219 L 636.761719 394.59375 L 635.066406 346.511719 L 634.382812 346.535156 C 620.875 346.800781 607.277344 350.171875 598.246094 352.683594 L 597.738281 352.835938 L 597.539062 394.816406 L 598.265625 394.792969 C 611.820312 394.441406 624.160156 394.375 636.015625 394.574219 " fill-opacity="1" fill-rule="nonzero"/><path fill="#00ae8c" d="M 610.078125 407.617188 L 597.515625 407.617188 L 597.429688 426.195312 C 597.40625 435.738281 597.472656 445.433594 597.539062 454.820312 L 597.539062 455.503906 C 597.582031 462.09375 597.628906 468.703125 597.628906 475.269531 L 597.628906 475.953125 L 601.8125 476.105469 L 603.269531 427.695312 C 603.3125 426.613281 604.195312 425.734375 605.296875 425.734375 L 610.871094 425.734375 L 610.078125 407.617188 " fill-opacity="1" fill-rule="nonzero"/><path fill="#00ae8c" d="M 636.984375 403.585938 L 636.984375 402.308594 C 637.003906 401.910156 637.003906 401.492188 636.984375 401.117188 L 636.875 398.585938 L 636.210938 398.585938 L 635.949219 398.605469 C 624.246094 398.40625 611.554688 398.472656 598.222656 398.828125 L 597.5625 398.847656 L 597.496094 403.585938 L 636.984375 403.585938 " fill-opacity="1" fill-rule="nonzero"/><path fill="#00ae8c" d="M 642.691406 452.703125 C 642.691406 461.828125 642.734375 469.957031 642.84375 477.515625 L 642.84375 478.199219 L 651.195312 478.574219 L 651.21875 477.871094 C 651.617188 468.019531 651.925781 457.992188 652.101562 448.078125 L 652.101562 447.351562 L 642.691406 447.351562 L 642.691406 452.703125 " fill-opacity="1" fill-rule="nonzero"/><path fill="#00ae8c" d="M 655.933594 457.550781 L 655.914062 458.257812 C 655.867188 460.746094 655.78125 463.238281 655.714844 465.707031 L 655.558594 470.222656 L 656.265625 470.246094 C 657.609375 470.265625 658.976562 470.289062 660.386719 470.289062 C 663.515625 470.289062 666.777344 470.203125 670.125 469.980469 L 670.785156 469.9375 L 670.785156 457.53125 L 664.574219 457.597656 L 655.933594 457.550781 " fill-opacity="1" fill-rule="nonzero"/><path fill="#00ae8c" d="M 638.789062 423.527344 C 638.789062 423.199219 638.789062 422.867188 638.789062 422.558594 C 638.878906 420.863281 638.902344 419.496094 638.722656 418.242188 C 638.660156 417.644531 638.460938 417.117188 638.285156 416.632812 L 638.21875 416.457031 C 638.042969 415.90625 637.863281 415.332031 637.734375 414.78125 C 637.226562 412.664062 637.09375 410.417969 637.027344 408.300781 L 637.003906 407.617188 L 631.320312 407.617188 L 631.210938 425.667969 L 633.546875 425.667969 C 634.140625 425.667969 634.714844 425.953125 635.109375 426.4375 C 635.507812 426.902344 635.660156 427.515625 635.507812 428.113281 C 634.625 432.101562 634.117188 436.992188 634.007812 443.074219 L 633.414062 477.714844 L 638.8125 477.980469 L 638.789062 477.230469 C 638.703125 469.894531 638.660156 461.894531 638.660156 452.75 C 638.613281 443.339844 638.660156 433.820312 638.769531 424.410156 C 638.769531 424.125 638.769531 423.816406 638.789062 423.527344 " fill-opacity="1" fill-rule="nonzero"/><path fill="#00ae8c" d="M 692.03125 326.351562 C 635.484375 312.269531 580.261719 300.128906 526.914062 288.402344 C 445.117188 270.421875 362.0625 253.277344 280 237.433594 L 233.394531 271.0625 C 230.816406 272.957031 228.015625 274.765625 225.195312 276.660156 C 218.367188 281.152344 211.269531 285.824219 206.421875 291.488281 C 199.4375 299.578125 191.527344 305.019531 183.902344 310.285156 C 165.875 322.671875 147.828125 335.539062 130.109375 348.585938 C 130.289062 348.585938 130.464844 348.585938 130.640625 348.585938 C 131.257812 348.605469 131.917969 348.605469 132.578125 348.652344 L 246.726562 354.820312 C 249.457031 354.976562 252.210938 355.105469 254.945312 355.261719 L 255.078125 346.46875 C 255.121094 345.390625 255.605469 344.375 256.464844 343.671875 C 261.117188 339.925781 268.609375 335.253906 277.707031 334.152344 C 285.53125 333.246094 293.398438 334.527344 300.515625 337.851562 C 301.792969 338.492188 302.632812 339.792969 302.585938 341.203125 C 302.519531 347.527344 302.476562 354.136719 302.519531 361.210938 C 302.566406 361.210938 302.585938 361.1875 302.632812 361.1875 L 336.234375 361.1875 C 336.433594 353.035156 336.347656 344.90625 336.148438 336.488281 C 336.039062 330.957031 335.949219 325.445312 335.949219 319.894531 C 335.949219 318.96875 336.257812 318.109375 336.875 317.449219 C 349.632812 303.324219 369.421875 296.09375 387.335938 299.003906 C 391.4375 299.6875 395.625 300.589844 399.238281 301.425781 C 401.023438 301.824219 402.234375 303.5 402.035156 305.351562 C 400.691406 318.4375 400.78125 332.804688 400.976562 343.890625 L 401.175781 352.792969 C 401.242188 356.164062 401.460938 359.515625 401.640625 362.886719 L 439.121094 366.125 C 441.523438 366.34375 443.726562 366.894531 445.84375 367.425781 C 448.179688 368.019531 450.339844 368.59375 452.191406 368.484375 L 453.246094 368.4375 C 457.324219 368.21875 461.136719 368.042969 465.566406 368.4375 L 479.582031 369.652344 C 480.683594 365.550781 484.097656 362.355469 487.578125 360.859375 C 491.65625 359.117188 495.976562 359.03125 499.742188 359.007812 C 505.738281 358.941406 511.886719 358.851562 518.078125 359.449219 C 518.296875 359.46875 518.628906 359.46875 518.957031 359.515625 C 521.691406 359.625 526.738281 359.800781 527.75 363.988281 C 528.148438 365.507812 527.640625 366.808594 527.308594 367.710938 L 527.199219 368.042969 C 527.132812 368.59375 527.132812 369.496094 527.179688 370.488281 L 527.199219 371.722656 L 527.199219 373.175781 L 590.445312 361.210938 C 590.664062 361.144531 590.90625 361.144531 591.125 361.144531 L 591.171875 350.566406 C 591.171875 348.980469 592.25 347.570312 593.816406 347.128906 C 608.335938 342.988281 627.242188 338.492188 644.695312 340.363281 C 644.960938 340.363281 645.226562 340.363281 645.46875 340.363281 C 646.636719 340.34375 648.421875 340.253906 650.074219 341.378906 C 651.085938 342.105469 651.703125 343.316406 651.636719 344.574219 C 651.417969 348.097656 651.503906 351.78125 651.636719 355.195312 L 667.636719 352.96875 C 680.835938 351.117188 692.757812 349.445312 704.921875 347.371094 C 711.464844 346.25 717.921875 345.519531 724.179688 344.839844 C 728.5 344.375 732.820312 343.890625 737.179688 343.316406 C 741.832031 342.65625 746.480469 341.972656 751.128906 341.289062 C 753.421875 340.960938 755.691406 340.628906 757.984375 340.300781 C 756.75 340.035156 755.449219 339.792969 754.214844 339.570312 C 733.613281 335.605469 714.152344 331.859375 692.03125 326.351562 " fill-opacity="1" fill-rule="nonzero"/><path fill="#00ae8c" d="M 656.046875 453.519531 L 659.484375 453.5625 L 670.785156 453.476562 L 670.785156 445.542969 L 656.175781 445.542969 L 656.046875 453.519531 " fill-opacity="1" fill-rule="nonzero"/><path fill="#00ae8c" d="M 642.84375 422.714844 L 642.84375 422.757812 C 642.84375 423.042969 642.824219 423.332031 642.824219 423.59375 C 642.800781 423.902344 642.800781 424.167969 642.800781 424.453125 C 642.734375 430.515625 642.734375 436.550781 642.734375 442.613281 L 642.734375 443.316406 L 649.632812 443.316406 L 649.191406 442.324219 C 648.265625 440.1875 648.308594 437.167969 648.488281 432.804688 L 648.507812 432.386719 C 648.550781 431.878906 648.574219 431.441406 648.574219 431.132812 C 648.355469 426.414062 648.617188 421.679688 648.859375 417.46875 L 648.90625 416.390625 C 649.148438 411.71875 649.390625 407.308594 649.039062 402.882812 C 648.882812 401.273438 648.441406 399.488281 648.066406 398.097656 C 647.605469 396.160156 647.207031 394.53125 646.964844 392.65625 C 646.746094 390.960938 646.171875 382.71875 645.777344 375.710938 C 645.3125 368.175781 645.050781 363.414062 645.402344 360.375 C 645.050781 355.769531 644.917969 351.472656 644.984375 347.613281 L 644.984375 346.886719 L 644.011719 346.886719 C 642.714844 346.753906 641.367188 346.6875 639.871094 346.601562 L 639.097656 346.558594 L 641.015625 400.964844 C 641.058594 402.242188 641.058594 403.585938 641.058594 404.910156 C 641.015625 408.105469 641.039062 411.1875 641.65625 413.832031 C 641.765625 414.230469 641.875 414.582031 642.007812 414.933594 L 642.183594 415.484375 C 642.40625 416.214844 642.601562 416.875 642.691406 417.625 C 642.976562 419.363281 642.910156 421.0625 642.84375 422.714844 " fill-opacity="1" fill-rule="nonzero"/><path fill="#00ae8c" d="M 656.089844 474.277344 L 655.382812 474.253906 L 655.230469 478.816406 L 670.039062 479.542969 L 670.785156 478.796875 L 670.785156 474.011719 L 670.058594 474.058594 C 665.011719 474.34375 660.652344 474.386719 656.089844 474.277344 " fill-opacity="1" fill-rule="nonzero"/><path fill="#00ae8c" d="M 535.175781 411.519531 L 534.558594 411.585938 L 534.558594 419.40625 L 542.140625 419.605469 C 542.40625 419.605469 542.714844 419.695312 543.042969 419.894531 L 543.285156 420.046875 L 543.882812 419.894531 L 560.847656 419.960938 L 560.847656 409.515625 L 560.121094 409.558594 C 551.75 409.84375 543.574219 410.503906 535.175781 411.519531 " fill-opacity="1" fill-rule="nonzero"/><path fill="#00ae8c" d="M 544.566406 449.929688 L 543.835938 449.90625 L 543.816406 450.632812 C 543.75 457.949219 543.683594 465.242188 543.640625 472.535156 L 543.640625 473.21875 L 560.210938 474.058594 L 560.429688 473.835938 C 560.539062 473.726562 560.605469 473.617188 560.628906 473.527344 L 560.738281 473.417969 L 560.78125 450.765625 L 559.945312 450.765625 C 555.339844 450.414062 550.292969 450.148438 544.566406 449.929688 " fill-opacity="1" fill-rule="nonzero"/><path fill="#00ae8c" d="M 514.550781 416.367188 L 514.550781 417.09375 C 514.617188 435.714844 514.507812 454.070312 514.175781 471.65625 L 514.175781 472.382812 L 520.613281 472.382812 L 520.789062 468.175781 C 521.007812 462.003906 521.183594 455.921875 521.164062 449.289062 L 520.921875 416.367188 L 514.550781 416.367188 " fill-opacity="1" fill-rule="nonzero"/><path fill="#00ae8c" d="M 534.605469 424.167969 C 534.605469 439.371094 534.738281 455.503906 535 472.117188 L 535 472.78125 L 539.605469 473.042969 L 539.847656 446.554688 C 539.914062 439.128906 539.980469 431.703125 540.003906 424.277344 L 540.003906 423.59375 L 534.605469 423.441406 L 534.605469 424.167969 " fill-opacity="1" fill-rule="nonzero"/><path fill="#00ae8c" d="M 510.519531 416.367188 L 489.1875 416.367188 L 489.34375 429.234375 L 510.519531 429.234375 L 510.519531 424.71875 C 510.542969 422.164062 510.542969 419.628906 510.519531 417.074219 L 510.519531 416.367188 " fill-opacity="1" fill-rule="nonzero"/><path fill="#00ae8c" d="M 500.339844 440.828125 C 500.273438 440.277344 500.425781 439.746094 500.757812 439.328125 C 501.085938 438.886719 501.550781 438.625 502.078125 438.558594 C 502.167969 438.558594 502.253906 438.535156 502.34375 438.535156 C 502.785156 438.535156 503.226562 438.691406 503.578125 438.976562 C 504.019531 439.308594 504.28125 439.792969 504.347656 440.34375 C 504.613281 442.746094 504.746094 444.949219 504.703125 447.0625 C 504.679688 448.164062 503.777344 449.070312 502.628906 449.070312 C 502.101562 449.046875 501.59375 448.828125 501.21875 448.453125 C 500.84375 448.054688 500.648438 447.546875 500.667969 447.019531 C 500.714844 444.949219 500.601562 442.855469 500.339844 440.828125 Z M 496.503906 448.539062 C 496.570312 449.070312 496.414062 449.574219 496.085938 449.996094 C 495.753906 450.433594 495.269531 450.699219 494.808594 450.765625 L 494.476562 450.765625 C 493.464844 450.765625 492.605469 449.996094 492.492188 449.003906 C 492.164062 446.246094 492.097656 443.449219 492.273438 440.671875 C 492.316406 440.078125 492.625 439.503906 493.066406 439.152344 C 493.332031 438.933594 493.792969 438.691406 494.433594 438.777344 C 494.960938 438.820312 495.46875 439.0625 495.820312 439.460938 C 496.171875 439.878906 496.351562 440.386719 496.304688 440.9375 C 496.152344 443.605469 496.21875 446.160156 496.503906 448.539062 Z M 489.652344 459.734375 L 510.320312 459.820312 L 510.34375 457.265625 C 510.410156 449.507812 510.476562 441.753906 510.519531 433.972656 L 510.519531 433.269531 L 489.363281 433.269531 L 489.652344 459.734375 " fill-opacity="1" fill-rule="nonzero"/><path fill="#00ae8c" d="M 582.09375 449.6875 L 582.070312 449.089844 L 581.476562 449.023438 C 578.28125 448.714844 574.929688 449.246094 571.382812 449.816406 L 571.03125 449.882812 C 569.023438 450.191406 567.195312 450.433594 565.453125 450.589844 L 564.816406 450.65625 L 564.792969 474.253906 L 583.4375 475.203125 L 583.414062 474.453125 C 583.148438 465.882812 582.597656 457.179688 582.09375 449.6875 " fill-opacity="1" fill-rule="nonzero"/><path fill="#00ae8c" d="M 579.777344 410.261719 L 579.757812 409.625 L 579.117188 409.582031 C 574.6875 409.359375 569.996094 409.359375 565.585938 409.402344 L 564.902344 409.402344 L 564.902344 419.960938 L 580.285156 420.046875 L 580.242188 419.296875 C 580.066406 416.277344 579.886719 413.238281 579.777344 410.261719 " fill-opacity="1" fill-rule="nonzero"/><path fill="#00ae8c" d="M 489.78125 472.382812 L 510.121094 472.382812 L 510.144531 471.699219 C 510.1875 470.15625 510.210938 468.613281 510.234375 467.050781 L 510.277344 463.855469 L 489.695312 463.765625 L 489.78125 472.382812 " fill-opacity="1" fill-rule="nonzero"/><path fill="#00ae8c" d="M 564.859375 446.6875 L 565.652344 446.578125 C 566.996094 446.425781 568.386719 446.203125 569.816406 445.984375 L 570.390625 445.894531 C 573.960938 445.300781 577.464844 444.773438 581.035156 444.949219 L 581.851562 444.992188 L 581.785156 444.175781 C 581.738281 443.800781 581.71875 443.425781 581.695312 443.054688 C 581.652344 442.632812 581.628906 442.214844 581.585938 441.796875 L 581.277344 436.972656 C 581.011719 432.917969 580.746094 428.816406 580.503906 424.742188 L 580.460938 424.078125 L 564.859375 423.992188 L 564.859375 446.6875 " fill-opacity="1" fill-rule="nonzero"/><path fill="#00ae8c" d="M 544.035156 424.628906 C 544.015625 431.085938 543.949219 437.566406 543.882812 444 L 543.859375 445.875 L 544.542969 445.894531 C 550.316406 446.09375 555.382812 446.378906 560.054688 446.734375 L 560.828125 446.800781 L 560.828125 424.015625 L 544.058594 423.925781 L 544.035156 424.628906 " fill-opacity="1" fill-rule="nonzero"/><g clip-path="url(#58755136c2)"><path fill="#00ae8c" d="M 492.238281 471.34375 L 494.457031 469.148438 L 535.105469 429.039062 C 535.109375 429.035156 535.117188 429.03125 535.117188 429.03125 C 535.9375 428.222656 536.8125 427.464844 537.730469 426.765625 C 538.671875 426.050781 539.648438 425.386719 540.65625 424.761719 C 542.730469 423.484375 544.898438 422.378906 547.152344 421.464844 C 549.398438 420.539062 551.726562 419.796875 554.09375 419.246094 C 555.246094 418.980469 556.410156 418.773438 557.582031 418.621094 C 558.722656 418.476562 559.871094 418.394531 561.03125 418.394531 L 659.761719 418.394531 C 664.625 418.394531 669.390625 419.710938 673.558594 422.207031 C 677.730469 424.703125 681.152344 428.28125 683.441406 432.558594 L 703.460938 469.855469 L 718.582031 469.855469 C 723.363281 469.855469 727.949219 471.757812 731.335938 475.136719 C 734.707031 478.519531 736.613281 483.113281 736.613281 487.894531 L 736.488281 545.875 L 704.730469 545.875 C 703.171875 549.546875 700.910156 552.925781 698.035156 555.792969 C 692.148438 561.679688 684.160156 564.988281 675.839844 564.988281 C 667.511719 564.988281 659.53125 561.679688 653.640625 555.792969 C 650.761719 552.925781 648.503906 549.546875 646.945312 545.875 L 520.929688 545.875 C 519.371094 549.546875 517.113281 552.925781 514.238281 555.792969 C 508.351562 561.679688 500.363281 564.988281 492.035156 564.988281 C 483.71875 564.988281 475.722656 561.679688 469.839844 555.792969 C 466.964844 552.925781 464.707031 549.546875 463.148438 545.875 L 419.472656 545.875 L 419.472656 509.972656 C 419.472656 505.117188 421.039062 500.394531 423.941406 496.492188 C 426.835938 492.597656 430.914062 489.746094 435.566406 488.351562 Z M 470.496094 533.597656 C 470.496094 527.886719 472.769531 522.40625 476.808594 518.367188 C 480.847656 514.328125 486.328125 512.054688 492.035156 512.054688 C 497.75 512.054688 503.226562 514.328125 507.269531 518.367188 C 511.308594 522.40625 513.582031 527.886719 513.582031 533.597656 C 513.582031 539.3125 511.308594 544.796875 507.269531 548.835938 C 503.226562 552.875 497.75 555.136719 492.035156 555.136719 C 486.328125 555.136719 480.847656 552.875 476.808594 548.835938 C 472.769531 544.796875 470.496094 539.3125 470.496094 533.597656 Z M 654.292969 533.597656 C 654.292969 527.886719 656.566406 522.40625 660.601562 518.367188 C 664.640625 514.328125 670.125 512.054688 675.839844 512.054688 C 681.550781 512.054688 687.035156 514.328125 691.070312 518.367188 C 695.109375 522.40625 697.382812 527.886719 697.382812 533.597656 C 697.382812 539.3125 695.109375 544.796875 691.070312 548.835938 C 687.035156 552.875 681.550781 555.136719 675.839844 555.136719 C 670.125 555.136719 664.640625 552.875 660.601562 548.835938 C 656.566406 544.796875 654.292969 539.3125 654.292969 533.597656 Z M 604.585938 479.707031 L 604.585938 536.023438 L 523.332031 536.023438 C 523.398438 535.21875 523.429688 534.410156 523.429688 533.597656 C 523.429688 525.277344 520.121094 517.289062 514.238281 511.398438 C 508.351562 505.519531 500.363281 502.203125 492.035156 502.203125 C 483.71875 502.203125 475.722656 505.519531 469.839844 511.398438 C 463.957031 517.289062 460.648438 525.277344 460.648438 533.597656 C 460.648438 534.410156 460.679688 535.21875 460.738281 536.023438 L 429.324219 536.023438 L 429.324219 509.972656 C 429.324219 507.234375 430.207031 504.570312 431.839844 502.378906 C 433.476562 500.183594 435.773438 498.566406 438.390625 497.78125 L 498.640625 479.707031 Z M 696.519531 509.980469 C 690.8125 504.988281 683.464844 502.203125 675.839844 502.203125 C 667.511719 502.203125 659.53125 505.519531 653.640625 511.398438 C 647.753906 517.289062 644.445312 525.277344 644.445312 533.597656 C 644.445312 534.410156 644.476562 535.21875 644.535156 536.023438 L 607.867188 536.023438 L 607.867188 479.707031 L 696.519531 479.707031 Z M 699.800781 479.707031 L 718.582031 479.707031 C 720.75 479.707031 722.828125 480.566406 724.367188 482.105469 C 725.898438 483.636719 726.757812 485.714844 726.757812 487.882812 L 726.667969 536.023438 L 707.140625 536.023438 C 707.203125 535.21875 707.234375 534.410156 707.234375 533.597656 C 707.234375 526.148438 704.582031 518.96875 699.800781 513.320312 Z M 581.667969 485.449219 L 597.429688 485.449219 L 597.429688 488.738281 L 581.667969 488.738281 Z M 673.597656 485.449219 L 689.359375 485.449219 L 689.359375 488.738281 L 673.597656 488.738281 Z M 604.585938 428.246094 L 604.585938 469.855469 L 507.765625 469.855469 L 542.019531 436.050781 C 542.550781 435.53125 543.109375 435.050781 543.703125 434.601562 C 544.386719 434.082031 545.085938 433.597656 545.816406 433.144531 C 547.441406 432.152344 549.128906 431.292969 550.890625 430.578125 C 552.644531 429.847656 554.457031 429.273438 556.308594 428.84375 C 557.144531 428.644531 557.988281 428.503906 558.835938 428.390625 C 559.574219 428.296875 560.316406 428.246094 561.058594 428.246094 Z M 607.867188 428.246094 L 659.761719 428.246094 C 662.84375 428.246094 665.867188 429.078125 668.503906 430.660156 C 671.144531 432.242188 673.3125 434.503906 674.765625 437.222656 L 692.273438 469.855469 L 607.867188 469.855469 L 607.867188 428.246094 " fill-opacity="1" fill-rule="evenodd"/></g></svg>