<svg xmlns="http://www.w3.org/2000/svg" xmlns:xlink="http://www.w3.org/1999/xlink" width="1200" zoomAndPan="magnify" viewBox="0 0 900 749.999995" height="1000" preserveAspectRatio="xMidYMid meet" version="1.0"><defs><g/><clipPath id="13bf35cca6"><path d="M 119.558594 36.085938 L 771.082031 36.085938 L 771.082031 687.605469 L 119.558594 687.605469 Z M 119.558594 36.085938 " clip-rule="nonzero"/></clipPath><clipPath id="758867fa30"><path d="M 445.320312 36.085938 C 265.40625 36.085938 119.558594 181.933594 119.558594 361.847656 C 119.558594 541.757812 265.40625 687.605469 445.320312 687.605469 C 625.230469 687.605469 771.082031 541.757812 771.082031 361.847656 C 771.082031 181.933594 625.230469 36.085938 445.320312 36.085938 Z M 445.320312 36.085938 " clip-rule="nonzero"/></clipPath><clipPath id="21ac4c961c"><path d="M 0.558594 0.0859375 L 652.082031 0.0859375 L 652.082031 651.605469 L 0.558594 651.605469 Z M 0.558594 0.0859375 " clip-rule="nonzero"/></clipPath><clipPath id="21c72f3c88"><path d="M 326.320312 0.0859375 C 146.40625 0.0859375 0.558594 145.933594 0.558594 325.847656 C 0.558594 505.757812 146.40625 651.605469 326.320312 651.605469 C 506.230469 651.605469 652.082031 505.757812 652.082031 325.847656 C 652.082031 145.933594 506.230469 0.0859375 326.320312 0.0859375 Z M 326.320312 0.0859375 " clip-rule="nonzero"/></clipPath><clipPath id="a30c736f9d"><rect x="0" width="653" y="0" height="652"/></clipPath><clipPath id="b7ddeb10bf"><path d="M 273 194 L 616 194 L 616 674.738281 L 273 674.738281 Z M 273 194 " clip-rule="nonzero"/></clipPath><clipPath id="af4c5abafe"><path d="M 146 67.238281 L 744 67.238281 L 744 587 L 146 587 Z M 146 67.238281 " clip-rule="nonzero"/></clipPath><clipPath id="114f8da71c"><path d="M 291 211 L 600 211 L 600 644.304688 L 291 644.304688 Z M 291 211 " clip-rule="nonzero"/></clipPath><clipPath id="b89a9e4a4c"><path d="M 176 96.804688 L 715 96.804688 L 715 565 L 176 565 Z M 176 96.804688 " clip-rule="nonzero"/></clipPath><clipPath id="7447ae2854"><path d="M 437 390 L 552 390 L 552 469.152344 L 437 469.152344 Z M 437 390 " clip-rule="nonzero"/></clipPath><clipPath id="cbffc2679a"><path d="M 422 254.652344 L 526 254.652344 L 526 338 L 422 338 Z M 422 254.652344 " clip-rule="nonzero"/></clipPath></defs><g clip-path="url(#13bf35cca6)"><g clip-path="url(#758867fa30)"><g transform="matrix(1, 0, 0, 1, 119, 36)"><g clip-path="url(#a30c736f9d)"><g clip-path="url(#21ac4c961c)"><g clip-path="url(#21c72f3c88)"><path fill="#ffffff" d="M 0.558594 0.0859375 L 652.082031 0.0859375 L 652.082031 651.605469 L 0.558594 651.605469 Z M 0.558594 0.0859375 " fill-opacity="1" fill-rule="nonzero"/></g></g></g></g></g></g><g clip-path="url(#b7ddeb10bf)"><path fill="#9b4dca" d="M 553.507812 233.054688 C 513.925781 200.457031 461.929688 187.632812 410.667969 197.410156 C 342.421875 210.707031 288.492188 265.8125 276.554688 334.535156 C 267.097656 389.035156 283.253906 443.03125 320.964844 482.644531 C 337.089844 499.59375 345.945312 520.355469 345.945312 541.050781 L 345.945312 550.191406 C 345.945312 558.984375 353.054688 566.0625 361.816406 566.0625 L 527.859375 566.0625 C 536.652344 566.0625 543.730469 558.984375 543.730469 550.191406 L 543.730469 541.050781 C 543.730469 520.320312 552.585938 499.59375 568.679688 482.707031 C 599.058594 450.871094 615.785156 409.035156 615.785156 365.039062 C 615.785156 313.808594 593.089844 265.71875 553.507812 233.054688 M 503.796875 643.671875 L 385.90625 643.671875 C 377.117188 643.671875 370.035156 650.75 370.035156 659.542969 C 370.035156 668.304688 377.117188 675.414062 385.90625 675.414062 L 503.796875 675.414062 C 512.558594 675.414062 519.667969 668.304688 519.667969 659.542969 C 519.667969 650.75 512.558594 643.671875 503.796875 643.671875 M 520.589844 590.851562 L 369.117188 590.851562 C 360.355469 590.851562 353.246094 597.929688 353.246094 606.722656 C 353.246094 615.484375 360.355469 622.59375 369.117188 622.59375 L 520.589844 622.59375 C 529.351562 622.59375 536.460938 615.484375 536.460938 606.722656 C 536.460938 597.929688 529.351562 590.851562 520.589844 590.851562 " fill-opacity="1" fill-rule="evenodd"/></g><g clip-path="url(#af4c5abafe)"><path fill="#9b4dca" d="M 605.636719 221.285156 C 609.699219 221.285156 613.761719 219.726562 616.875 216.648438 L 661.34375 172.144531 C 667.535156 165.957031 667.535156 155.894531 661.34375 149.703125 C 655.15625 143.515625 645.09375 143.515625 638.902344 149.703125 L 594.402344 194.175781 C 588.210938 200.398438 588.210938 210.425781 594.402344 216.648438 C 597.511719 219.726562 601.574219 221.285156 605.636719 221.285156 Z M 273.816406 514.761719 L 229.40625 559.199219 C 223.21875 565.390625 223.21875 575.453125 229.40625 581.640625 C 232.519531 584.753906 236.550781 586.308594 240.613281 586.308594 C 244.675781 586.308594 248.738281 584.753906 251.847656 581.640625 L 296.257812 537.203125 C 302.476562 530.980469 302.476562 520.949219 296.257812 514.761719 C 290.066406 508.539062 280.035156 508.539062 273.816406 514.761719 Z M 273.847656 216.648438 C 276.957031 219.726562 281.019531 221.285156 285.082031 221.285156 C 289.144531 221.285156 293.210938 219.726562 296.289062 216.648438 C 302.511719 210.425781 302.511719 200.398438 296.289062 194.175781 L 251.847656 149.703125 C 245.660156 143.515625 235.597656 143.515625 229.40625 149.703125 C 223.21875 155.894531 223.21875 165.957031 229.40625 172.144531 Z M 608.441406 506.328125 C 602.25 500.105469 592.222656 500.105469 586 506.328125 C 579.808594 512.519531 579.808594 522.546875 586 528.769531 L 630.4375 573.175781 C 633.550781 576.289062 637.582031 577.84375 641.644531 577.84375 C 645.707031 577.84375 649.769531 576.289062 652.878906 573.175781 C 659.070312 566.988281 659.070312 556.925781 652.878906 550.734375 Z M 445.359375 161.832031 C 454.152344 161.832031 461.230469 154.71875 461.230469 145.960938 L 461.230469 83.109375 C 461.230469 74.347656 454.152344 67.238281 445.359375 67.238281 C 436.597656 67.238281 429.488281 74.347656 429.488281 83.109375 L 429.488281 145.960938 C 429.488281 154.71875 436.597656 161.832031 445.359375 161.832031 Z M 241.753906 365.6875 C 241.753906 356.898438 234.644531 349.816406 225.882812 349.816406 L 162.8125 349.816406 C 154.050781 349.816406 146.941406 356.898438 146.941406 365.6875 C 146.941406 374.449219 154.050781 381.558594 162.8125 381.558594 L 225.882812 381.558594 C 234.644531 381.558594 241.753906 374.449219 241.753906 365.6875 Z M 727.910156 349.816406 L 666.011719 349.816406 C 657.25 349.816406 650.140625 356.898438 650.140625 365.6875 C 650.140625 374.449219 657.25 381.558594 666.011719 381.558594 L 727.910156 381.558594 C 736.667969 381.558594 743.78125 374.449219 743.78125 365.6875 C 743.78125 356.898438 736.667969 349.816406 727.910156 349.816406 Z M 727.910156 349.816406 " fill-opacity="1" fill-rule="evenodd"/></g><g clip-path="url(#114f8da71c)"><path fill="#00ae8c" d="M 543.292969 246.214844 C 507.625 216.839844 460.777344 205.285156 414.585938 214.09375 C 353.09375 226.078125 304.5 275.730469 293.746094 337.652344 C 285.222656 386.761719 299.78125 435.410156 333.761719 471.105469 C 348.289062 486.378906 356.269531 505.082031 356.269531 523.730469 L 356.269531 531.96875 C 356.269531 539.890625 362.675781 546.269531 370.570312 546.269531 L 520.183594 546.269531 C 528.105469 546.269531 534.484375 539.890625 534.484375 531.96875 L 534.484375 523.730469 C 534.484375 505.054688 542.464844 486.378906 556.964844 471.164062 C 584.335938 442.476562 599.40625 404.78125 599.40625 365.136719 C 599.40625 318.976562 578.957031 275.644531 543.292969 246.214844 M 498.503906 616.199219 L 392.277344 616.199219 C 384.355469 616.199219 377.976562 622.578125 377.976562 630.5 C 377.976562 638.394531 384.355469 644.800781 392.277344 644.800781 L 498.503906 644.800781 C 506.398438 644.800781 512.804688 638.394531 512.804688 630.5 C 512.804688 622.578125 506.398438 616.199219 498.503906 616.199219 M 513.632812 568.605469 L 377.148438 568.605469 C 369.253906 568.605469 362.847656 574.984375 362.847656 582.90625 C 362.847656 590.800781 369.253906 597.207031 377.148438 597.207031 L 513.632812 597.207031 C 521.527344 597.207031 527.933594 590.800781 527.933594 582.90625 C 527.933594 574.984375 521.527344 568.605469 513.632812 568.605469 " fill-opacity="1" fill-rule="evenodd"/></g><g clip-path="url(#b89a9e4a4c)"><path fill="#00ae8c" d="M 590.265625 235.609375 C 593.925781 235.609375 597.585938 234.207031 600.390625 231.433594 L 640.460938 191.332031 C 646.035156 185.757812 646.035156 176.691406 640.460938 171.113281 C 634.882812 165.535156 625.816406 165.535156 620.238281 171.113281 L 580.140625 211.183594 C 574.5625 216.789062 574.5625 225.828125 580.140625 231.433594 C 582.941406 234.207031 586.605469 235.609375 590.265625 235.609375 Z M 291.277344 500.046875 L 251.265625 540.085938 C 245.6875 545.664062 245.6875 554.730469 251.265625 560.308594 C 254.066406 563.109375 257.699219 564.511719 261.359375 564.511719 C 265.023438 564.511719 268.683594 563.109375 271.484375 560.308594 L 311.5 520.265625 C 317.105469 514.660156 317.105469 505.621094 311.5 500.046875 C 305.921875 494.4375 296.882812 494.4375 291.277344 500.046875 Z M 291.304688 231.433594 C 294.109375 234.207031 297.769531 235.609375 301.429688 235.609375 C 305.089844 235.609375 308.753906 234.207031 311.527344 231.433594 C 317.132812 225.828125 317.132812 216.789062 311.527344 211.183594 L 271.484375 171.113281 C 265.90625 165.535156 256.839844 165.535156 251.265625 171.113281 C 245.6875 176.691406 245.6875 185.757812 251.265625 191.332031 Z M 592.789062 492.445312 C 587.214844 486.839844 578.175781 486.839844 572.570312 492.445312 C 566.992188 498.023438 566.992188 507.0625 572.570312 512.667969 L 612.613281 552.679688 C 615.414062 555.484375 619.046875 556.886719 622.707031 556.886719 C 626.367188 556.886719 630.03125 555.484375 632.832031 552.679688 C 638.410156 547.101562 638.410156 538.035156 632.832031 532.460938 Z M 445.847656 182.039062 C 453.769531 182.039062 460.148438 175.632812 460.148438 167.738281 L 460.148438 111.105469 C 460.148438 103.214844 453.769531 96.804688 445.847656 96.804688 C 437.953125 96.804688 431.546875 103.214844 431.546875 111.105469 L 431.546875 167.738281 C 431.546875 175.632812 437.953125 182.039062 445.847656 182.039062 Z M 262.390625 365.722656 C 262.390625 357.800781 255.984375 351.421875 248.089844 351.421875 L 191.257812 351.421875 C 183.363281 351.421875 176.957031 357.800781 176.957031 365.722656 C 176.957031 373.617188 183.363281 380.023438 191.257812 380.023438 L 248.089844 380.023438 C 255.984375 380.023438 262.390625 373.617188 262.390625 365.722656 Z M 700.4375 351.421875 L 644.664062 351.421875 C 636.769531 351.421875 630.363281 357.800781 630.363281 365.722656 C 630.363281 373.617188 636.769531 380.023438 644.664062 380.023438 L 700.4375 380.023438 C 708.332031 380.023438 714.738281 373.617188 714.738281 365.722656 C 714.738281 357.800781 708.332031 351.421875 700.4375 351.421875 Z M 700.4375 351.421875 " fill-opacity="1" fill-rule="evenodd"/></g><path fill="#00ae8c" d="M 418.894531 406.144531 L 375.542969 406.261719 C 366.554688 418.152344 360.597656 430.535156 366.394531 441.335938 C 372.820312 453.304688 380.488281 456.082031 392.050781 456.027344 L 418.894531 455.90625 Z M 418.894531 406.144531 " fill-opacity="1" fill-rule="evenodd"/><path fill="#9b4dca" d="M 362.128906 438.191406 C 353.953125 424.03125 345.777344 409.871094 337.601562 395.710938 C 333.972656 389.425781 332.59375 384.507812 333.882812 377.390625 C 336.410156 363.410156 346.8125 347.871094 353.726562 336.042969 L 343.550781 329.824219 L 392.515625 324.792969 L 410.238281 370.582031 L 395.695312 361.691406 L 366.5625 408.742188 C 361.539062 416.859375 358.1875 428.574219 362.128906 438.191406 Z M 362.128906 438.191406 " fill-opacity="1" fill-rule="evenodd"/><path fill="#00ae8c" d="M 495.15625 365.621094 L 516.9375 403.105469 C 531.726562 404.945312 545.429688 403.910156 551.882812 393.492188 C 559.039062 381.941406 557.609375 373.914062 551.78125 363.925781 L 538.253906 340.738281 Z M 495.15625 365.621094 " fill-opacity="1" fill-rule="evenodd"/><g clip-path="url(#7447ae2854)"><path fill="#9b4dca" d="M 551.296875 398.757812 C 543.121094 412.917969 534.945312 427.078125 526.769531 441.238281 C 523.140625 447.523438 519.570312 451.175781 512.765625 453.621094 C 499.394531 458.421875 480.734375 457.183594 467.035156 457.105469 L 466.734375 469.03125 L 437.894531 429.144531 L 468.6875 390.898438 L 468.261719 407.9375 L 523.574219 409.640625 C 533.117188 409.9375 544.9375 406.980469 551.296875 398.757812 Z M 551.296875 398.757812 " fill-opacity="1" fill-rule="evenodd"/></g><path fill="#00ae8c" d="M 421.933594 319.835938 L 443.503906 282.234375 C 437.703125 268.503906 429.953125 257.15625 417.707031 256.777344 C 404.125 256.355469 397.890625 261.609375 392.152344 271.648438 L 378.835938 294.957031 Z M 421.933594 319.835938 " fill-opacity="1" fill-rule="evenodd"/><g clip-path="url(#cbffc2679a)"><path fill="#9b4dca" d="M 422.5625 254.652344 C 438.910156 254.652344 455.261719 254.652344 471.617188 254.652344 C 478.875 254.652344 483.820312 255.917969 489.339844 260.589844 C 500.183594 269.769531 508.441406 286.546875 515.226562 298.449219 L 525.699219 292.746094 L 505.578125 337.667969 L 457.0625 330.121094 L 472.03125 321.972656 L 445.847656 273.21875 C 441.332031 264.808594 432.859375 256.046875 422.5625 254.652344 Z M 422.5625 254.652344 " fill-opacity="1" fill-rule="evenodd"/></g><g fill="#000000" fill-opacity="1"><g transform="translate(154.978107, 748.407056)"><g><path d="M 31.015625 1.015625 C 24.671875 1.015625 19.554688 0.332031 15.671875 -1.03125 C 11.785156 -2.394531 8.828125 -4.269531 6.796875 -6.65625 C 4.773438 -9.039062 3.414062 -11.796875 2.71875 -14.921875 L 23.625 -14.921875 C 25.164062 -12.691406 27.628906 -11.578125 31.015625 -11.578125 C 34.390625 -11.578125 36.851562 -12.691406 38.40625 -14.921875 C 38.539062 -15.140625 38.609375 -15.332031 38.609375 -15.5 C 38.609375 -16.09375 37.828125 -16.535156 36.265625 -16.828125 C 34.703125 -17.128906 32.375 -17.351562 29.28125 -17.5 C 25.375 -17.675781 21.273438 -18.09375 16.984375 -18.75 C 7.410156 -20.226562 2.625 -24.078125 2.625 -30.296875 C 2.625 -30.816406 2.65625 -31.375 2.71875 -31.96875 C 3.414062 -35.082031 4.773438 -37.832031 6.796875 -40.21875 C 8.828125 -42.613281 11.785156 -44.488281 15.671875 -45.84375 C 19.554688 -47.207031 24.671875 -47.890625 31.015625 -47.890625 C 37.359375 -47.890625 42.472656 -47.207031 46.359375 -45.84375 C 50.242188 -44.488281 53.195312 -42.613281 55.21875 -40.21875 C 57.25 -37.832031 58.613281 -35.082031 59.3125 -31.96875 L 38.40625 -31.96875 C 36.851562 -34.1875 34.390625 -35.296875 31.015625 -35.296875 C 27.628906 -35.296875 25.164062 -34.1875 23.625 -31.96875 C 23.507812 -31.789062 23.453125 -31.625 23.453125 -31.46875 C 23.453125 -30.945312 24.195312 -30.5625 25.6875 -30.3125 C 27.1875 -30.0625 29.390625 -29.847656 32.296875 -29.671875 C 35.210938 -29.492188 38.316406 -29.207031 41.609375 -28.8125 C 44.898438 -28.425781 47.976562 -27.75 50.84375 -26.78125 C 53.71875 -25.8125 55.960938 -24.375 57.578125 -22.46875 C 58.835938 -21.007812 59.46875 -19.15625 59.46875 -16.90625 C 59.46875 -16.28125 59.414062 -15.617188 59.3125 -14.921875 C 58.613281 -11.796875 57.25 -9.039062 55.21875 -6.65625 C 53.195312 -4.269531 50.242188 -2.394531 46.359375 -1.03125 C 42.472656 0.332031 37.359375 1.015625 31.015625 1.015625 Z M 31.015625 1.015625 "/></g></g></g><g fill="#000000" fill-opacity="1"><g transform="translate(217.067257, 748.407056)"><g><path d="M 61.765625 0 L 5.234375 0 L 5.234375 -46.953125 L 59.1875 -46.953125 L 59.1875 -35.328125 L 24.921875 -35.328125 L 24.921875 -27.96875 L 53.875 -27.96875 L 53.875 -18.9375 L 24.921875 -18.9375 L 24.921875 -11.609375 L 61.765625 -11.609375 Z M 61.765625 0 "/></g></g></g><g fill="#000000" fill-opacity="1"><g transform="translate(281.446313, 748.407056)"><g><path d="M 94.484375 0 L 74.78125 0 L 74.78125 -29.9375 L 57.1875 0 L 42.5 0 L 24.921875 -29.9375 L 24.921875 0 L 5.234375 0 L 5.234375 -46.953125 L 28.625 -46.953125 L 49.859375 -13.40625 L 71.0625 -46.953125 L 94.484375 -46.953125 Z M 94.484375 0 "/></g></g></g><g fill="#000000" fill-opacity="1"><g transform="translate(381.155327, 748.407056)"><g><path d="M 33.015625 1.015625 C 21.554688 1.015625 13.492188 -1.363281 8.828125 -6.125 C 4.898438 -10.113281 2.9375 -15.878906 2.9375 -23.421875 L 2.9375 -46.90625 L 22.640625 -46.90625 L 22.640625 -23.421875 C 22.640625 -20.148438 23.195312 -17.566406 24.3125 -15.671875 C 25.90625 -12.941406 28.804688 -11.578125 33.015625 -11.578125 C 37.265625 -11.578125 40.175781 -12.941406 41.75 -15.671875 C 42.851562 -17.628906 43.40625 -20.210938 43.40625 -23.421875 L 43.40625 -46.90625 L 63.109375 -46.90625 L 63.109375 -23.15625 C 63.109375 -15.789062 61.15625 -10.113281 57.25 -6.125 C 52.5625 -1.363281 44.484375 1.015625 33.015625 1.015625 Z M 33.015625 1.015625 "/></g></g></g><g fill="#000000" fill-opacity="1"><g transform="translate(447.202747, 748.407056)"><g><path d="M 60.03125 0 L 5.234375 0 L 5.234375 -46.953125 L 24.921875 -46.953125 L 24.921875 -11.609375 L 60.03125 -11.609375 Z M 60.03125 0 "/></g></g></g><g fill="#000000" fill-opacity="1"><g transform="translate(508.539506, 748.407056)"><g><path d="M 24.921875 0 L 5.234375 0 L 5.234375 -46.953125 L 24.921875 -46.953125 Z M 24.921875 0 "/></g></g></g><g fill="#000000" fill-opacity="1"><g transform="translate(538.700843, 748.407056)"><g><path d="M 35.5 1.015625 C 23.894531 1.015625 15.351562 -1.375 9.875 -6.15625 C 5.039062 -10.382812 2.625 -16.140625 2.625 -23.421875 C 2.625 -30.734375 5.039062 -36.503906 9.875 -40.734375 C 15.351562 -45.503906 23.894531 -47.890625 35.5 -47.890625 C 42.101562 -47.890625 47.597656 -47.148438 51.984375 -45.671875 C 56.367188 -44.191406 59.804688 -42.164062 62.296875 -39.59375 C 64.796875 -37.03125 66.503906 -34.082031 67.421875 -30.75 L 46.359375 -30.75 C 44.148438 -33.78125 40.53125 -35.296875 35.5 -35.296875 C 30.738281 -35.296875 27.238281 -33.929688 25 -31.203125 C 23.207031 -29.003906 22.3125 -26.410156 22.3125 -23.421875 C 22.3125 -20.429688 23.207031 -17.847656 25 -15.671875 C 27.238281 -12.941406 30.738281 -11.578125 35.5 -11.578125 C 39.332031 -11.578125 42.210938 -11.910156 44.140625 -12.578125 C 46.078125 -13.242188 47.492188 -14.113281 48.390625 -15.1875 L 40.703125 -15.1875 L 40.703125 -23.421875 L 67.421875 -23.421875 L 67.421875 0.03125 L 59.25 0.03125 L 57.578125 -4.515625 C 52.367188 -0.828125 45.007812 1.015625 35.5 1.015625 Z M 35.5 1.015625 "/></g></g></g><g fill="#000000" fill-opacity="1"><g transform="translate(610.047771, 748.407056)"><g><path d="M 69.359375 0 L 49.65625 0 L 49.65625 -18.9375 L 24.921875 -18.9375 L 24.921875 0 L 5.234375 0 L 5.234375 -46.953125 L 24.921875 -46.953125 L 24.921875 -27.96875 L 49.65625 -27.96875 L 49.65625 -46.953125 L 69.359375 -46.953125 Z M 69.359375 0 "/></g></g></g><g fill="#000000" fill-opacity="1"><g transform="translate(684.633263, 748.407056)"><g><path d="M 40.046875 0 L 20.34375 0 L 20.34375 -35.328125 L 1.96875 -35.328125 L 1.96875 -46.953125 L 58.421875 -46.953125 L 58.421875 -35.328125 L 40.046875 -35.328125 Z M 40.046875 0 "/></g></g></g></svg>