<svg xmlns="http://www.w3.org/2000/svg" xmlns:xlink="http://www.w3.org/1999/xlink" width="1200" zoomAndPan="magnify" viewBox="0 0 900 749.999995" height="1000" preserveAspectRatio="xMidYMid meet" version="1.0"><defs><clipPath id="505343c890"><path d="M 333.316406 141.628906 L 566.566406 141.628906 L 566.566406 608.128906 L 333.316406 608.128906 Z M 333.316406 141.628906 " clip-rule="nonzero"/></clipPath></defs><g clip-path="url(#505343c890)"><path fill="#00ae8c" d="M 496.671875 188.304688 L 403.324219 188.304688 L 403.324219 164.96875 C 403.324219 152.078125 413.773438 141.628906 426.660156 141.628906 L 473.335938 141.628906 C 486.222656 141.628906 496.671875 152.078125 496.671875 164.96875 Z M 566.683594 351.660156 L 566.683594 561.691406 C 566.683594 587.46875 545.785156 608.363281 520.007812 608.363281 L 379.988281 608.363281 C 354.210938 608.363281 333.316406 587.46875 333.316406 561.691406 L 333.316406 351.660156 C 333.316406 303.839844 362.148438 262.847656 403.324219 244.828125 L 403.324219 223.308594 L 496.671875 223.308594 L 496.671875 244.828125 C 537.847656 262.847656 566.683594 303.839844 566.683594 351.660156 Z M 499.003906 447.589844 C 499.003906 439.785156 496.933594 432.121094 493 425.378906 L 450 351.660156 L 406.996094 425.378906 C 403.066406 432.121094 400.992188 439.785156 400.992188 447.589844 C 400.992188 471.941406 420.730469 491.679688 445.082031 491.679688 L 454.917969 491.679688 C 479.265625 491.679688 499.003906 471.941406 499.003906 447.589844 Z M 499.003906 447.589844 " fill-opacity="1" fill-rule="nonzero"/></g></svg>