<svg xmlns="http://www.w3.org/2000/svg" xmlns:xlink="http://www.w3.org/1999/xlink" width="1200" zoomAndPan="magnify" viewBox="0 0 900 749.999995" height="1000" preserveAspectRatio="xMidYMid meet" version="1.0"><defs><clipPath id="0f50c16008"><path d="M 333 264.105469 L 483 264.105469 L 483 325 L 333 325 Z M 333 264.105469 " clip-rule="nonzero"/></clipPath><clipPath id="20e240e539"><path d="M 515 315 L 671.460938 315 L 671.460938 367 L 515 367 Z M 515 315 " clip-rule="nonzero"/></clipPath></defs><rect x="-90" width="1080" fill="#ffffff" y="-74.999999" height="899.999994" fill-opacity="1"/><rect x="-90" width="1080" fill="#ffffff" y="-74.999999" height="899.999994" fill-opacity="1"/><path fill="#00ae8c" d="M 376.015625 409.027344 L 405.15625 408.96875 L 405.1875 408.523438 C 405.203125 407.925781 405.21875 407.316406 405.21875 406.71875 C 405.21875 406.316406 405.21875 405.929688 405.230469 405.527344 L 405.246094 405.050781 L 404.753906 405.050781 C 402.832031 405.050781 400.894531 405.050781 398.914062 405.019531 C 396.828125 405.007812 394.714844 404.976562 392.671875 404.976562 L 376.210938 404.976562 L 376.015625 409.027344 " fill-opacity="1" fill-rule="nonzero"/><path fill="#00ae8c" d="M 394.921875 464.601562 L 394.890625 464.136719 L 394.414062 464.136719 L 375.867188 461.070312 L 375.984375 464.285156 C 376.046875 465.984375 376.105469 467.683594 376.179688 469.367188 L 376.164062 469.933594 L 394.890625 473.761719 L 394.890625 473.179688 C 394.878906 471.46875 394.890625 469.753906 394.90625 468.042969 C 394.90625 466.894531 394.921875 465.746094 394.921875 464.601562 " fill-opacity="1" fill-rule="nonzero"/><path fill="#00ae8c" d="M 406.050781 452.515625 L 432.257812 452.515625 L 432.242188 452.027344 C 432.210938 451.175781 432.242188 450.296875 432.273438 449.476562 C 432.273438 449.164062 432.273438 448.835938 432.289062 448.523438 C 432.289062 448.210938 432.289062 447.898438 432.289062 447.585938 L 432.289062 447.109375 L 406.066406 447.140625 L 406.050781 452.515625 " fill-opacity="1" fill-rule="nonzero"/><path fill="#00ae8c" d="M 383.09375 454.738281 L 384.195312 454.839844 L 384.136719 446.183594 L 383.660156 446.183594 C 382.898438 446.183594 382.390625 446.230469 382.109375 446.5 C 381.976562 446.617188 381.664062 446.945312 381.765625 448.941406 L 381.738281 450.503906 C 381.722656 451.503906 381.691406 452.367188 381.664062 453.113281 L 381.617188 454.632812 L 382.09375 454.648438 C 382.4375 454.664062 382.765625 454.691406 383.09375 454.738281 " fill-opacity="1" fill-rule="nonzero"/><path fill="#00ae8c" d="M 406.5 411.695312 L 396.949219 411.695312 L 397.214844 412.367188 C 397.261719 412.457031 397.277344 412.515625 397.277344 412.574219 C 397.335938 416.222656 397.515625 419.667969 397.679688 422.691406 L 397.691406 423.167969 C 397.917969 427.695312 398.109375 431.988281 398.035156 436.859375 L 397.917969 444.441406 C 397.753906 453.558594 397.574219 463.914062 397.648438 473.820312 L 397.648438 474.371094 L 398.183594 474.285156 C 399.808594 474.058594 401.375 473.703125 402.832031 473.242188 L 403.160156 473.136719 L 403.371094 445.753906 C 403.371094 444.992188 403.964844 444.414062 404.726562 444.414062 L 413.457031 444.382812 L 413.054688 443.667969 C 412.785156 443.207031 412.652344 442.667969 412.652344 442.132812 L 412.652344 388.113281 C 412.652344 387.648438 412.742188 387.21875 412.949219 386.800781 L 412.992188 386.679688 L 412.917969 385.25 C 412.769531 383.046875 412.589844 380.4375 412.546875 377.816406 L 412.425781 371.78125 C 412.308594 364.824219 412.265625 355.78125 412.964844 347.363281 L 412.992188 346.945312 L 412.589844 346.859375 C 410.519531 346.394531 408.613281 346.023438 406.988281 345.769531 C 406.839844 345.726562 406.691406 345.726562 406.585938 345.726562 L 406.109375 345.726562 L 406.632812 363.1875 C 406.648438 363.691406 406.648438 364.199219 406.632812 364.707031 L 406.632812 365.511719 C 406.601562 366.539062 406.585938 367.492188 406.660156 368.488281 C 407.957031 382.375 408.375 396.871094 407.855469 410.382812 C 407.824219 411.128906 407.226562 411.695312 406.5 411.695312 " fill-opacity="1" fill-rule="nonzero"/><path fill="#00ae8c" d="M 432.539062 469.976562 L 432.527344 469.515625 L 405.917969 469.515625 L 405.917969 472.988281 L 406.394531 472.988281 C 407.289062 472.988281 408.183594 472.988281 409.074219 472.988281 C 416.734375 472.988281 424.464844 472.898438 432.09375 472.703125 L 432.570312 472.6875 L 432.554688 472.210938 C 432.554688 471.839844 432.554688 471.484375 432.554688 471.109375 C 432.554688 470.738281 432.554688 470.351562 432.539062 469.976562 " fill-opacity="1" fill-rule="nonzero"/><path fill="#00ae8c" d="M 432.570312 456.0625 C 432.539062 455.914062 432.511719 455.78125 432.480469 455.644531 L 432.421875 455.242188 L 406.019531 455.242188 L 405.945312 466.773438 L 432.539062 466.773438 L 432.539062 466.296875 C 432.554688 463.066406 432.585938 459.847656 432.660156 456.523438 C 432.628906 456.375 432.601562 456.210938 432.570312 456.0625 " fill-opacity="1" fill-rule="nonzero"/><path fill="#00ae8c" d="M 473.957031 440.046875 L 473.332031 440.253906 C 472.988281 440.375 472.660156 440.433594 472.335938 440.433594 L 465.480469 440.433594 L 465.464844 440.894531 C 465.40625 443.175781 465.390625 446.691406 465.421875 451.355469 L 465.421875 451.816406 L 474.09375 451.816406 L 473.957031 440.046875 " fill-opacity="1" fill-rule="nonzero"/><path fill="#00ae8c" d="M 465.464844 454.558594 L 465.464844 455.035156 C 465.464844 456.167969 465.496094 457.226562 465.527344 458.117188 L 465.539062 458.582031 L 474.167969 458.582031 L 474.105469 454.558594 L 465.464844 454.558594 " fill-opacity="1" fill-rule="nonzero"/><path fill="#00ae8c" d="M 497.734375 389.824219 L 497.734375 389.808594 C 497.707031 389.140625 497.675781 388.199219 497.824219 387.277344 L 497.898438 386.769531 L 497.394531 386.726562 C 497.214844 386.710938 497.035156 386.710938 496.886719 386.710938 C 496.722656 386.695312 496.589844 386.695312 496.425781 386.679688 C 496.097656 386.679688 495.800781 386.652344 495.589844 386.636719 C 491.820312 386.25 487.949219 386.308594 484.191406 386.351562 L 483.6875 386.367188 C 481.4375 386.382812 479.097656 386.414062 477.160156 387.261719 C 475.777344 387.84375 474.671875 389.003906 474.332031 390.226562 L 474.257812 390.511719 L 474.464844 390.703125 C 475.164062 391.328125 475.539062 392.148438 475.539062 393.027344 L 475.539062 412.1875 L 475.789062 412.320312 C 475.910156 412.394531 476.027344 412.515625 476.164062 412.707031 L 476.296875 412.933594 L 497.914062 412.933594 L 497.734375 389.824219 " fill-opacity="1" fill-rule="nonzero"/><path fill="#00ae8c" d="M 376.386719 401.726562 L 376.34375 402.25 L 392.671875 402.25 C 394.683594 402.25 396.769531 402.265625 398.960938 402.292969 C 400.910156 402.324219 402.90625 402.324219 404.828125 402.324219 L 405.304688 402.324219 L 405.304688 401.847656 C 405.410156 390.703125 404.949219 379.558594 403.949219 368.714844 C 403.832031 367.550781 403.859375 366.433594 403.90625 365.375 L 403.90625 364.691406 C 403.921875 364.230469 403.921875 363.753906 403.90625 363.277344 L 403.371094 345.382812 L 402.921875 345.382812 C 393.671875 345.160156 384.121094 349.136719 377.445312 356.109375 L 377.3125 356.242188 L 377.3125 356.4375 C 377.34375 359.847656 377.386719 363.214844 377.460938 366.613281 C 377.640625 374.898438 377.804688 383.449219 377.074219 392.132812 C 376.820312 395.246094 376.597656 398.464844 376.386719 401.726562 " fill-opacity="1" fill-rule="nonzero"/><path fill="#00ae8c" d="M 378.832031 455.839844 L 378.90625 453.976562 C 378.949219 452.742188 378.996094 451.222656 379.027344 450.386719 L 379.027344 449.015625 C 378.980469 447.765625 378.90625 445.679688 380.277344 444.457031 C 381.230469 443.609375 382.511719 443.429688 383.613281 443.429688 C 384 443.429688 384.375 443.457031 384.6875 443.472656 L 385.195312 443.503906 C 387.382812 443.578125 389.589844 443.742188 391.75 444.011719 C 392.136719 444.070312 392.492188 444.277344 392.703125 444.578125 C 392.925781 444.902344 393 445.277344 392.925781 445.632812 L 392.910156 445.648438 C 392.136719 449.359375 391.941406 453.128906 392.34375 456.882812 C 392.402344 457.269531 392.253906 457.671875 391.957031 457.96875 C 391.703125 458.238281 391.363281 458.386719 391.046875 458.417969 L 390.882812 458.355469 C 389.8125 458.253906 388.769531 458.132812 387.695312 458 L 387.308594 457.941406 C 385.105469 457.65625 382.617188 457.328125 380.203125 457.328125 C 379.441406 457.328125 378.832031 456.71875 378.832031 455.957031 C 378.832031 455.914062 378.832031 455.871094 378.832031 455.839844 Z M 394.9375 460.875 C 394.980469 455.347656 395.085938 449.835938 395.191406 444.414062 L 395.234375 441.550781 L 395.144531 441.105469 L 394.699219 441.074219 C 388.902344 440.554688 383.003906 440.40625 377.179688 440.628906 C 377.132812 440.628906 377.074219 440.628906 376.96875 440.613281 C 376.523438 440.554688 376.210938 440.554688 375.925781 440.554688 L 375.449219 440.554688 L 375.449219 441.03125 C 375.496094 446.945312 375.597656 452.457031 375.761719 457.894531 L 375.777344 458.28125 L 394.9375 461.441406 L 394.9375 460.875 " fill-opacity="1" fill-rule="nonzero"/><path fill="#00ae8c" d="M 386.953125 455.109375 L 387.324219 455.183594 C 387.457031 455.214844 387.578125 455.242188 387.679688 455.230469 C 387.890625 455.257812 388.082031 455.289062 388.292969 455.316406 C 388.5 455.347656 388.722656 455.378906 388.933594 455.40625 L 389.484375 455.46875 L 389.46875 454.914062 C 389.351562 452.277344 389.484375 449.625 389.902344 447.050781 L 389.976562 446.558594 L 389.484375 446.5 C 388.753906 446.421875 388.054688 446.410156 387.355469 446.378906 L 386.863281 446.363281 L 386.90625 454.722656 L 386.953125 455.109375 " fill-opacity="1" fill-rule="nonzero"/><path fill="#00ae8c" d="M 375.867188 412.21875 C 375.539062 420.902344 375.40625 429.113281 375.421875 437.351562 L 375.421875 437.828125 L 375.898438 437.828125 C 376.238281 437.828125 376.625 437.828125 377.105469 437.902344 L 377.238281 437.902344 C 377.417969 437.871094 377.625 437.886719 377.789062 437.871094 L 378.28125 437.871094 L 377.730469 414.914062 C 377.714844 414.554688 377.847656 414.214844 378.101562 413.945312 C 378.355469 413.691406 378.710938 413.542969 379.070312 413.542969 L 379.605469 413.542969 C 381.960938 413.511719 384.316406 413.484375 386.652344 413.4375 L 389.199219 413.410156 C 390.824219 413.394531 392.449219 413.363281 394.074219 413.363281 L 394.550781 413.363281 L 394.550781 412.621094 C 394.550781 412.574219 394.566406 412.5 394.578125 412.425781 L 394.726562 411.726562 L 375.882812 411.753906 L 375.867188 412.21875 " fill-opacity="1" fill-rule="nonzero"/><path fill="#00ae8c" d="M 391.628906 422.957031 L 391.539062 433.3125 L 391.539062 433.328125 C 391.539062 434.074219 390.914062 434.683594 390.183594 434.683594 C 389.410156 434.667969 388.800781 434.058594 388.800781 433.296875 L 388.902344 422.929688 C 388.902344 422.199219 389.515625 421.601562 390.257812 421.601562 C 391.019531 421.601562 391.628906 422.214844 391.628906 422.957031 Z M 382.734375 423.285156 C 382.675781 422.542969 383.226562 421.886719 384 421.8125 C 384.046875 421.8125 384.089844 421.8125 384.121094 421.8125 C 384.433594 421.8125 384.730469 421.914062 384.984375 422.125 C 385.253906 422.363281 385.433594 422.707031 385.460938 423.078125 C 385.773438 426.667969 385.910156 430.242188 385.878906 433.714844 C 385.878906 434.460938 385.269531 435.054688 384.523438 435.054688 C 383.761719 435.054688 383.152344 434.445312 383.152344 433.699219 C 383.183594 430.320312 383.03125 426.816406 382.734375 423.285156 Z M 395.308594 436.8125 C 395.382812 432.03125 395.175781 427.800781 394.964844 423.300781 L 394.9375 422.808594 C 394.847656 420.796875 394.742188 418.699219 394.667969 416.550781 L 394.652344 416.105469 L 394.191406 416.105469 C 392.539062 416.105469 390.898438 416.121094 389.261719 416.136719 L 384.777344 416.210938 C 383.511719 416.222656 382.230469 416.238281 380.960938 416.238281 L 380.46875 416.238281 L 381.007812 437.796875 L 381.484375 437.796875 C 386.027344 437.753906 390.480469 437.960938 394.757812 438.347656 L 395.28125 438.378906 L 395.308594 436.8125 " fill-opacity="1" fill-rule="nonzero"/><path fill="#00ae8c" d="M 336.847656 452.351562 L 336.101562 452.84375 C 335.863281 452.992188 335.65625 453.054688 335.433594 453.054688 L 333.898438 453.054688 L 333.929688 453.558594 C 334.015625 455.199219 333.808594 456.808594 333.300781 458.253906 C 333.078125 458.953125 332.214844 459.339844 331.574219 459.101562 C 331.246094 458.984375 330.964844 458.746094 330.800781 458.417969 C 330.636719 458.089844 330.605469 457.714844 330.726562 457.375 C 331.140625 456.195312 331.277344 454.902344 331.140625 453.515625 L 331.097656 453.082031 L 326.746094 453.113281 L 326.746094 459.726562 C 326.746094 460.457031 326.121094 461.082031 325.390625 461.082031 C 324.632812 461.082031 324.019531 460.472656 324.019531 459.726562 L 324.019531 453.128906 L 321.890625 453.128906 L 321.859375 463.167969 L 322.234375 463.257812 C 327.164062 464.4375 331.753906 465.253906 336.238281 465.777344 L 336.789062 465.835938 L 336.757812 465.285156 C 336.683594 462.929688 336.742188 458.996094 336.832031 453.246094 L 336.847656 452.351562 " fill-opacity="1" fill-rule="nonzero"/><path fill="#00ae8c" d="M 439.019531 480.035156 L 439.007812 480.050781 C 438.066406 480.332031 437.023438 480.183594 436.207031 479.632812 C 435.789062 479.335938 435.445312 478.960938 435.207031 478.5 L 434.96875 478.054688 L 434.535156 478.320312 C 434.34375 478.425781 434.148438 478.5 433.925781 478.5 C 433.179688 478.5 432.554688 477.890625 432.554688 477.128906 C 432.539062 476.859375 432.554688 476.59375 432.554688 476.324219 L 432.554688 475.445312 L 432.078125 475.445312 C 423.003906 475.652344 415.480469 475.742188 408.433594 475.742188 C 407.75 475.742188 407.078125 475.742188 406.394531 475.730469 L 405.902344 475.699219 L 405.871094 477.992188 C 405.871094 478.722656 405.261719 479.335938 404.5 479.335938 C 403.757812 479.335938 403.144531 478.722656 403.144531 477.964844 L 403.144531 475.953125 L 402.535156 476.132812 C 400.613281 476.695312 398.886719 477.039062 397.246094 477.175781 L 397.203125 477.160156 L 397.113281 477.1875 C 396.753906 477.1875 396.472656 477.011719 396.292969 476.859375 L 396.1875 476.757812 L 372.128906 471.929688 C 371.695312 471.824219 371.339844 471.511719 371.160156 471.082031 L 371.070312 470.84375 L 361.355469 468.816406 C 357.289062 467.921875 353.207031 467.042969 349.125 466.207031 L 349.019531 466.179688 L 348.902344 466.207031 C 345.371094 467.207031 342.226562 468.191406 339.292969 469.1875 C 338.902344 469.335938 338.308594 469.234375 337.890625 468.800781 L 337.773438 468.667969 L 337.59375 468.652344 C 331.886719 468.085938 326.195312 467.074219 320.175781 465.566406 C 319.597656 465.417969 319.179688 464.898438 319.164062 464.300781 L 319.148438 463.839844 L 312.488281 463.839844 L 312.460938 465.566406 C 312.460938 466.296875 311.847656 466.910156 311.074219 466.910156 C 310.328125 466.910156 309.734375 466.28125 309.734375 465.523438 L 309.761719 463.839844 L 306.292969 463.839844 L 306.246094 464.257812 C 306.171875 465.03125 305.769531 465.746094 305.175781 466.269531 C 304.785156 466.609375 304.308594 466.847656 303.742188 467 L 302.460938 467.296875 L 303.640625 467.878906 C 304.832031 468.472656 306.84375 469.007812 309.644531 469.457031 L 402.566406 484.578125 C 404.605469 484.90625 406.558594 484.921875 408.628906 484.949219 C 409.804688 484.949219 411.027344 484.980469 412.265625 485.023438 C 414.617188 485.144531 416.910156 485.21875 419.148438 485.21875 C 425.121094 485.21875 430.664062 484.757812 435.953125 483.832031 C 438.605469 483.371094 440.109375 482.699219 440.554688 481.761719 C 440.734375 481.359375 440.644531 480.75 440.332031 480.40625 C 440.003906 480.078125 439.4375 479.914062 439.019531 480.035156 " fill-opacity="1" fill-rule="nonzero"/><path fill="#00ae8c" d="M 306.277344 461.097656 L 309.792969 461.097656 L 310.03125 442.894531 L 306.097656 442.894531 L 306.097656 443.371094 C 306.128906 447.601562 306.171875 451.785156 306.21875 455.988281 L 306.277344 461.097656 " fill-opacity="1" fill-rule="nonzero"/><g clip-path="url(#0f50c16008)"><path fill="#00ae8c" d="M 482.570312 324.957031 L 470.902344 302.921875 C 470.890625 302.90625 470.902344 302.878906 470.890625 302.847656 C 469.921875 302.609375 468.953125 302.339844 467.953125 302.074219 C 462.933594 300.746094 457.71875 299.347656 452.59375 297.605469 C 450.136719 296.769531 447.828125 295.757812 445.589844 294.773438 L 444.609375 294.324219 C 442.476562 293.402344 440.289062 293.148438 437.785156 292.867188 C 436.457031 292.71875 435.132812 292.566406 433.761719 292.316406 C 431.109375 291.824219 428.59375 291.09375 426.132812 290.378906 C 425.390625 290.15625 424.601562 289.929688 423.839844 289.707031 L 348.351562 268.699219 C 346.679688 268.222656 344.9375 267.644531 343.164062 267.046875 C 340.214844 266.050781 337.207031 265.066406 334.449219 264.648438 C 333.214844 275.449219 333.808594 285.640625 336.222656 294.953125 C 384.835938 304.351562 433.957031 314.4375 482.570312 324.957031 " fill-opacity="1" fill-rule="nonzero"/></g><path fill="#00ae8c" d="M 506.273438 330.082031 C 510.742188 331.066406 515.242188 332.078125 519.726562 333.0625 C 516.878906 326.597656 513.839844 320.144531 510.59375 313.902344 L 494.800781 309.476562 C 497.988281 316.671875 501.832031 323.570312 506.273438 330.066406 L 506.273438 330.082031 " fill-opacity="1" fill-rule="nonzero"/><path fill="#00ae8c" d="M 501.535156 329.054688 C 497.257812 322.46875 493.578125 315.527344 490.523438 308.300781 L 475.433594 304.113281 L 486.964844 325.910156 C 491.835938 326.96875 496.691406 327.996094 501.535156 329.054688 " fill-opacity="1" fill-rule="nonzero"/><path fill="#00ae8c" d="M 319.179688 442.566406 L 318.582031 442.730469 C 318.210938 442.832031 317.914062 442.894531 317.628906 442.894531 L 312.757812 442.894531 L 312.535156 461.097656 L 319.164062 461.097656 L 319.179688 442.566406 " fill-opacity="1" fill-rule="nonzero"/><path fill="#00ae8c" d="M 281.574219 333.078125 C 285.328125 328.742188 290.394531 325.390625 295.296875 322.15625 C 297.175781 320.917969 298.992188 319.726562 300.691406 318.492188 L 331.453125 296.277344 C 329.144531 287.339844 328.386719 277.683594 329.21875 267.492188 C 328.578125 268.210938 327.984375 268.894531 327.566406 269.402344 C 327.148438 269.921875 326.761719 270.382812 326.390625 270.800781 C 324.40625 273.066406 322.246094 275.003906 320.132812 276.894531 C 319.34375 277.609375 318.582031 278.296875 317.824219 279.011719 C 316.199219 280.515625 314.648438 282.050781 313.113281 283.585938 C 310.015625 286.667969 306.828125 289.871094 303.058594 292.71875 C 301.417969 293.984375 299.839844 295.53125 298.171875 297.203125 C 297.324219 298.066406 296.457031 298.898438 295.578125 299.734375 C 293.910156 301.3125 292.183594 302.847656 290.46875 304.398438 C 287.148438 307.453125 283.71875 310.566406 280.515625 313.753906 L 230.503906 360.386719 C 228.238281 362.472656 229.042969 365.6875 230.621094 370.726562 C 230.652344 370.828125 230.667969 370.902344 230.699219 370.992188 C 242.75 362.128906 255.027344 353.367188 267.289062 344.9375 C 272.414062 341.40625 277.285156 338.066406 281.574219 333.078125 " fill-opacity="1" fill-rule="nonzero"/><path fill="#00ae8c" d="M 321.980469 409.117188 L 321.980469 409.742188 L 322.574219 409.59375 C 323.960938 409.28125 325.449219 408.953125 326.96875 408.746094 C 329.132812 408.449219 331.15625 407.984375 333.125 407.539062 C 334.316406 407.269531 335.523438 407.003906 336.730469 406.765625 L 337.25 406.765625 L 337.25 406.289062 C 337.28125 401.328125 337.28125 396.363281 337.28125 391.476562 L 337.28125 369.398438 L 336.804688 369.398438 C 335.863281 369.398438 334.941406 369.445312 334.046875 369.546875 C 331.738281 369.816406 325.285156 371.171875 323.261719 374.03125 C 322.203125 375.507812 322.203125 378.414062 322.277344 381.019531 C 322.277344 381.40625 322.292969 381.792969 322.292969 382.136719 C 322.308594 382.449219 322.308594 382.761719 322.308594 383.015625 C 322.21875 387.367188 322.1875 391.714844 322.144531 396.082031 C 322.113281 400.417969 322.070312 404.769531 321.980469 409.117188 " fill-opacity="1" fill-rule="nonzero"/><path fill="#00ae8c" d="M 334.316406 449.789062 C 334.734375 447.199219 334.851562 444.472656 334.671875 441.476562 L 334.644531 441 L 334.167969 441.015625 C 330.277344 441.269531 326.316406 441.3125 322.410156 441.164062 L 321.921875 441.148438 L 321.890625 450.402344 L 334.316406 450.328125 L 334.316406 449.789062 " fill-opacity="1" fill-rule="nonzero"/><path fill="#00ae8c" d="M 339.933594 417.253906 C 339.917969 421.289062 339.886719 425.3125 339.84375 429.335938 L 339.621094 450.730469 L 339.589844 452.324219 C 339.53125 456.195312 339.425781 462.691406 339.441406 465.613281 L 339.457031 466.269531 L 340.066406 466.058594 C 342.464844 465.285156 344.609375 464.628906 346.667969 464.035156 L 347.097656 463.914062 L 346.964844 463.347656 C 346.917969 463.167969 346.890625 463.003906 346.890625 462.828125 L 346.191406 418.148438 L 345.816406 418.070312 C 345.011719 417.90625 344.207031 417.714844 343.417969 417.492188 L 343.226562 417.429688 C 342.285156 417.179688 341.390625 416.925781 340.484375 416.789062 L 339.945312 416.703125 L 339.933594 417.253906 " fill-opacity="1" fill-rule="nonzero"/><path fill="#00ae8c" d="M 345.875 371.140625 L 345.578125 371.023438 C 344 370.410156 342.316406 369.964844 340.558594 369.710938 L 340.007812 369.636719 L 340.007812 391.476562 C 340.007812 398.71875 339.992188 406.035156 339.960938 413.410156 L 339.960938 413.976562 L 340.378906 414.035156 C 341.707031 414.199219 343.015625 414.542969 344.132812 414.855469 C 344.519531 414.957031 344.910156 415.0625 345.265625 415.152344 L 346.175781 415.390625 L 346.21875 414.808594 C 346.292969 413.839844 346.382812 412.859375 346.515625 411.890625 C 346.753906 409.996094 346.992188 408.03125 346.652344 406.226562 C 346.054688 402.890625 345.996094 399.582031 345.949219 396.394531 L 345.949219 395.203125 C 345.847656 387.335938 345.816406 379.796875 345.875 371.46875 L 345.875 371.140625 " fill-opacity="1" fill-rule="nonzero"/><path fill="#00ae8c" d="M 321.921875 412.933594 C 321.890625 414.226562 321.859375 415.285156 321.84375 415.984375 L 321.816406 416.582031 L 326.597656 415.71875 C 328.28125 415.40625 329.859375 415.167969 331.441406 414.929688 L 332.734375 414.71875 C 333.71875 414.585938 334.703125 414.4375 335.714844 414.273438 L 337.234375 414.035156 L 337.234375 413.632812 C 337.234375 412.425781 337.234375 411.234375 337.25 410.027344 L 337.265625 409.429688 L 335.476562 409.804688 C 334.898438 409.9375 334.316406 410.058594 333.734375 410.191406 L 333.511719 410.234375 C 331.53125 410.699219 329.472656 411.160156 327.328125 411.441406 C 325.585938 411.695312 323.886719 412.054688 322.261719 412.484375 L 321.921875 412.574219 L 321.921875 412.933594 " fill-opacity="1" fill-rule="nonzero"/><path fill="#00ae8c" d="M 497.929688 415.660156 L 476.429688 415.660156 L 476.476562 417.984375 L 497.929688 417.984375 L 497.929688 415.660156 " fill-opacity="1" fill-rule="nonzero"/><path fill="#00ae8c" d="M 321.488281 424.582031 L 321.605469 424.714844 C 321.832031 424.96875 321.933594 425.253906 321.933594 425.566406 L 321.921875 438.410156 L 322.367188 438.4375 C 322.605469 438.453125 322.84375 438.453125 323.097656 438.453125 C 323.304688 438.4375 323.542969 438.453125 323.765625 438.46875 L 324.257812 438.511719 L 324.257812 438.007812 C 325.003906 433.359375 325.273438 428.589844 325.078125 423.835938 C 325.0625 423.496094 325.183594 423.152344 325.421875 422.882812 C 325.675781 422.617188 326.03125 422.453125 326.375 422.421875 C 326.390625 422.421875 326.40625 422.421875 326.417969 422.421875 C 327.148438 422.421875 327.773438 423.019531 327.804688 423.75 C 328 428.441406 327.746094 433.222656 327.03125 437.960938 L 326.941406 438.527344 L 330.8125 438.421875 L 330.828125 437.976562 C 330.976562 433.132812 330.890625 428.335938 330.574219 423.734375 C 330.53125 422.972656 331.082031 422.332031 331.84375 422.289062 C 331.871094 422.273438 331.902344 422.273438 331.917969 422.273438 C 332.660156 422.273438 333.257812 422.824219 333.316406 423.539062 C 333.601562 427.964844 333.691406 432.628906 333.554688 437.78125 L 333.539062 438.289062 L 334.613281 438.246094 C 335.015625 438.246094 335.402344 438.230469 335.789062 438.199219 C 335.9375 438.183594 336.148438 438.214844 336.386719 438.304688 L 337.027344 438.570312 L 337.117188 429.320312 C 337.160156 425.65625 337.175781 421.960938 337.207031 418.28125 L 337.21875 416.789062 L 336.65625 416.894531 C 335.761719 417.027344 334.882812 417.164062 334.015625 417.296875 L 333.152344 417.429688 C 331.15625 417.730469 329.207031 418.027344 327.089844 418.386719 L 321.710938 419.398438 L 321.488281 424.582031 " fill-opacity="1" fill-rule="nonzero"/><g clip-path="url(#20e240e539)"><path fill="#00ae8c" d="M 671.734375 358.136719 C 670.585938 357.835938 668.902344 357.585938 667.949219 357.4375 C 666.816406 357.273438 665.820312 357.121094 665.03125 356.898438 C 664.078125 356.660156 663.019531 356.257812 661.886719 355.871094 C 660.097656 355.199219 658.027344 354.472656 656.761719 354.472656 C 656.402344 354.472656 656.089844 354.425781 655.777344 354.351562 L 515.03125 315.140625 C 518.175781 321.320312 521.199219 327.625 523.925781 333.984375 C 553.515625 340.527344 583.847656 347.347656 614.835938 355.082031 C 629.644531 358.792969 642.726562 361.292969 656.613281 363.976562 C 661.363281 364.886719 666.28125 365.824219 671.390625 366.851562 C 671.390625 366.808594 671.4375 366.71875 671.4375 366.671875 C 671.539062 366.03125 671.390625 365.152344 671.242188 364.199219 C 671.136719 363.605469 671.0625 362.992188 671.019531 362.398438 C 670.871094 360.878906 671.316406 359.460938 671.703125 358.210938 C 671.703125 358.179688 671.703125 358.152344 671.734375 358.136719 " fill-opacity="1" fill-rule="nonzero"/></g><path fill="#00ae8c" d="M 564.539062 429.753906 C 561.960938 429.78125 559.386719 429.78125 556.777344 429.78125 L 556.316406 429.78125 L 556.121094 435.90625 L 570.945312 436.007812 C 570.992188 436.007812 571.050781 436.023438 571.109375 436.039062 L 571.796875 436.1875 L 571.824219 435.636719 C 571.929688 433.65625 572.09375 431.851562 572.332031 430.273438 L 572.421875 429.722656 L 571.855469 429.722656 C 569.425781 429.722656 566.96875 429.722656 564.539062 429.753906 " fill-opacity="1" fill-rule="nonzero"/><path fill="#00ae8c" d="M 555.632812 452.25 L 555.363281 461.246094 L 571.273438 462.035156 L 571.453125 451.519531 L 570.738281 452.25 L 555.632812 452.25 " fill-opacity="1" fill-rule="nonzero"/><path fill="#00ae8c" d="M 565.046875 445.632812 C 565.164062 444.84375 565.195312 444.054688 565.121094 443.25 C 565.046875 442.503906 565.597656 441.851562 566.359375 441.773438 C 566.402344 441.773438 566.445312 441.773438 566.492188 441.773438 C 566.804688 441.773438 567.101562 441.878906 567.355469 442.089844 C 567.640625 442.328125 567.804688 442.65625 567.816406 443.011719 C 567.921875 444.011719 567.890625 445.023438 567.757812 446.035156 C 567.640625 446.707031 567.074219 447.183594 566.402344 447.183594 L 566.195312 447.199219 C 565.433594 447.0625 564.925781 446.378906 565.046875 445.632812 Z M 558.492188 445.484375 L 558.535156 442.9375 C 558.550781 442.191406 559.296875 441.640625 559.9375 441.613281 C 560.308594 441.613281 560.652344 441.761719 560.890625 442.027344 C 561.144531 442.296875 561.277344 442.65625 561.261719 443.011719 L 561.21875 445.542969 C 561.203125 446.273438 560.59375 446.871094 559.800781 446.871094 C 559.460938 446.871094 559.132812 446.722656 558.878906 446.46875 C 558.625 446.214844 558.476562 445.84375 558.492188 445.484375 Z M 570.945312 438.734375 L 556.046875 438.632812 L 555.707031 449.523438 L 570.828125 449.523438 L 571.496094 449.835938 L 571.675781 438.691406 L 571.199219 438.691406 C 571.066406 438.691406 570.976562 438.722656 570.945312 438.734375 " fill-opacity="1" fill-rule="nonzero"/><path fill="#00ae8c" d="M 569.785156 427.027344 L 569.859375 414.792969 L 560.949219 414.792969 L 561.484375 427.027344 L 569.785156 427.027344 " fill-opacity="1" fill-rule="nonzero"/><path fill="#00ae8c" d="M 575.757812 405.972656 L 576.265625 405.988281 L 575.117188 373.480469 L 574.65625 373.496094 C 565.523438 373.675781 556.332031 375.953125 550.222656 377.652344 L 549.878906 377.757812 L 549.746094 406.136719 L 550.238281 406.125 C 559.398438 405.886719 567.742188 405.839844 575.757812 405.972656 " fill-opacity="1" fill-rule="nonzero"/><path fill="#00ae8c" d="M 558.222656 414.792969 L 549.730469 414.792969 L 549.671875 427.355469 C 549.65625 433.804688 549.703125 440.359375 549.746094 446.707031 L 549.746094 447.167969 C 549.777344 451.625 549.804688 456.09375 549.804688 460.53125 L 549.804688 460.996094 L 552.636719 461.097656 L 553.621094 428.367188 C 553.648438 427.636719 554.246094 427.039062 554.992188 427.039062 L 558.757812 427.039062 L 558.222656 414.792969 " fill-opacity="1" fill-rule="nonzero"/><path fill="#00ae8c" d="M 576.414062 412.066406 L 576.414062 411.203125 C 576.429688 410.9375 576.429688 410.652344 576.414062 410.398438 L 576.339844 408.6875 L 575.894531 408.6875 L 575.714844 408.699219 C 567.804688 408.566406 559.222656 408.613281 550.207031 408.851562 L 549.761719 408.863281 L 549.714844 412.066406 L 576.414062 412.066406 " fill-opacity="1" fill-rule="nonzero"/><path fill="#00ae8c" d="M 580.273438 445.277344 C 580.273438 451.445312 580.300781 456.941406 580.378906 462.050781 L 580.378906 462.515625 L 586.023438 462.765625 L 586.039062 462.289062 C 586.308594 455.628906 586.515625 448.851562 586.632812 442.148438 L 586.632812 441.65625 L 580.273438 441.65625 L 580.273438 445.277344 " fill-opacity="1" fill-rule="nonzero"/><path fill="#00ae8c" d="M 589.226562 448.554688 L 589.210938 449.03125 C 589.183594 450.714844 589.121094 452.398438 589.078125 454.066406 L 588.972656 457.121094 L 589.449219 457.136719 C 590.359375 457.152344 591.28125 457.164062 592.234375 457.164062 C 594.351562 457.164062 596.558594 457.105469 598.820312 456.957031 L 599.269531 456.925781 L 599.269531 448.539062 L 595.066406 448.582031 L 589.226562 448.554688 " fill-opacity="1" fill-rule="nonzero"/><path fill="#00ae8c" d="M 577.636719 425.550781 C 577.636719 425.328125 577.636719 425.105469 577.636719 424.894531 C 577.695312 423.75 577.710938 422.824219 577.589844 421.976562 C 577.546875 421.574219 577.414062 421.214844 577.292969 420.886719 L 577.25 420.769531 C 577.128906 420.394531 577.011719 420.007812 576.921875 419.636719 C 576.578125 418.207031 576.488281 416.6875 576.445312 415.257812 L 576.429688 414.792969 L 572.585938 414.792969 L 572.511719 426.996094 L 574.089844 426.996094 C 574.492188 426.996094 574.878906 427.191406 575.148438 427.515625 C 575.414062 427.832031 575.519531 428.246094 575.414062 428.648438 C 574.820312 431.347656 574.476562 434.652344 574.402344 438.765625 L 574 462.1875 L 577.652344 462.363281 L 577.636719 461.859375 C 577.578125 456.898438 577.546875 451.488281 577.546875 445.304688 C 577.515625 438.945312 577.546875 432.507812 577.621094 426.148438 C 577.621094 425.953125 577.621094 425.746094 577.636719 425.550781 " fill-opacity="1" fill-rule="nonzero"/><path fill="#00ae8c" d="M 613.628906 359.847656 C 575.402344 350.328125 538.066406 342.121094 501.996094 334.195312 C 446.695312 322.035156 390.542969 310.445312 335.058594 299.734375 L 303.550781 322.46875 C 301.808594 323.75 299.914062 324.972656 298.007812 326.253906 C 293.390625 329.292969 288.59375 332.449219 285.316406 336.28125 C 280.59375 341.746094 275.242188 345.425781 270.089844 348.988281 C 257.902344 357.359375 245.699219 366.0625 233.722656 374.882812 C 233.839844 374.882812 233.960938 374.882812 234.078125 374.882812 C 234.496094 374.898438 234.941406 374.898438 235.390625 374.925781 L 312.5625 379.097656 C 314.410156 379.203125 316.273438 379.292969 318.121094 379.394531 L 318.210938 373.453125 C 318.238281 372.722656 318.566406 372.035156 319.148438 371.558594 C 322.292969 369.027344 327.359375 365.867188 333.511719 365.125 C 338.800781 364.511719 344.117188 365.375 348.929688 367.625 C 349.792969 368.058594 350.359375 368.9375 350.332031 369.890625 C 350.285156 374.167969 350.257812 378.636719 350.285156 383.417969 C 350.316406 383.417969 350.332031 383.402344 350.359375 383.402344 L 373.082031 383.402344 C 373.214844 377.890625 373.15625 372.394531 373.023438 366.703125 C 372.945312 362.964844 372.886719 359.238281 372.886719 355.484375 C 372.886719 354.859375 373.097656 354.277344 373.511719 353.832031 C 382.140625 344.28125 395.519531 339.394531 407.628906 341.359375 C 410.402344 341.820312 413.230469 342.433594 415.675781 343 C 416.882812 343.265625 417.703125 344.398438 417.566406 345.652344 C 416.660156 354.5 416.71875 364.214844 416.851562 371.707031 L 416.988281 377.726562 C 417.03125 380.007812 417.179688 382.269531 417.300781 384.550781 L 442.640625 386.742188 C 444.265625 386.890625 445.753906 387.261719 447.1875 387.621094 C 448.765625 388.023438 450.226562 388.410156 451.476562 388.335938 L 452.191406 388.304688 C 454.949219 388.15625 457.523438 388.035156 460.519531 388.304688 L 469.996094 389.125 C 470.738281 386.351562 473.050781 384.191406 475.402344 383.179688 C 478.160156 382.003906 481.078125 381.945312 483.628906 381.929688 C 487.679688 381.882812 491.835938 381.824219 496.023438 382.226562 C 496.171875 382.242188 496.394531 382.242188 496.617188 382.269531 C 498.464844 382.34375 501.878906 382.464844 502.5625 385.296875 C 502.832031 386.324219 502.488281 387.203125 502.265625 387.8125 L 502.191406 388.035156 C 502.144531 388.410156 502.144531 389.019531 502.175781 389.691406 L 502.191406 390.523438 L 502.191406 391.507812 L 544.949219 383.417969 C 545.097656 383.375 545.261719 383.375 545.410156 383.375 L 545.441406 376.222656 C 545.441406 375.148438 546.171875 374.195312 547.226562 373.898438 C 557.046875 371.097656 569.828125 368.058594 581.628906 369.324219 C 581.808594 369.324219 581.984375 369.324219 582.148438 369.324219 C 582.941406 369.308594 584.144531 369.25 585.265625 370.011719 C 585.949219 370.5 586.367188 371.320312 586.320312 372.171875 C 586.171875 374.554688 586.230469 377.042969 586.320312 379.351562 L 597.136719 377.847656 C 606.0625 376.59375 614.121094 375.460938 622.347656 374.0625 C 626.769531 373.300781 631.136719 372.8125 635.367188 372.347656 C 638.285156 372.035156 641.207031 371.707031 644.15625 371.320312 C 647.300781 370.875 650.445312 370.410156 653.585938 369.949219 C 655.136719 369.726562 656.671875 369.503906 658.222656 369.28125 C 657.386719 369.101562 656.507812 368.9375 655.671875 368.789062 C 641.742188 366.105469 628.589844 363.574219 613.628906 359.847656 " fill-opacity="1" fill-rule="nonzero"/><path fill="#00ae8c" d="M 589.300781 445.828125 L 591.625 445.859375 L 599.269531 445.796875 L 599.269531 440.433594 L 589.390625 440.433594 L 589.300781 445.828125 " fill-opacity="1" fill-rule="nonzero"/><path fill="#00ae8c" d="M 580.378906 425 L 580.378906 425.03125 C 580.378906 425.222656 580.363281 425.417969 580.363281 425.59375 C 580.347656 425.804688 580.347656 425.984375 580.347656 426.175781 C 580.300781 430.273438 580.300781 434.355469 580.300781 438.453125 L 580.300781 438.929688 L 584.964844 438.929688 L 584.667969 438.257812 C 584.042969 436.8125 584.070312 434.773438 584.191406 431.824219 L 584.207031 431.539062 C 584.234375 431.199219 584.25 430.898438 584.25 430.691406 C 584.101562 427.503906 584.28125 424.300781 584.445312 421.453125 L 584.472656 420.722656 C 584.636719 417.566406 584.800781 414.585938 584.5625 411.589844 C 584.460938 410.503906 584.160156 409.296875 583.90625 408.359375 C 583.59375 407.046875 583.328125 405.945312 583.164062 404.679688 C 583.015625 403.53125 582.625 397.960938 582.359375 393.222656 C 582.046875 388.125 581.867188 384.910156 582.105469 382.851562 C 581.867188 379.738281 581.777344 376.832031 581.820312 374.226562 L 581.820312 373.734375 L 581.167969 373.734375 C 580.289062 373.644531 579.378906 373.601562 578.367188 373.539062 L 577.84375 373.511719 L 579.140625 410.296875 C 579.171875 411.160156 579.171875 412.066406 579.171875 412.960938 C 579.140625 415.121094 579.15625 417.207031 579.574219 418.996094 C 579.648438 419.265625 579.722656 419.503906 579.8125 419.742188 L 579.929688 420.113281 C 580.078125 420.605469 580.214844 421.050781 580.273438 421.558594 C 580.464844 422.734375 580.421875 423.882812 580.378906 425 " fill-opacity="1" fill-rule="nonzero"/><path fill="#00ae8c" d="M 589.332031 459.863281 L 588.855469 459.847656 L 588.75 462.929688 L 598.761719 463.421875 L 599.269531 462.917969 L 599.269531 459.683594 L 598.777344 459.714844 C 595.363281 459.90625 592.414062 459.9375 589.332031 459.863281 " fill-opacity="1" fill-rule="nonzero"/><path fill="#00ae8c" d="M 507.582031 417.429688 L 507.167969 417.476562 L 507.167969 422.765625 L 512.292969 422.898438 C 512.46875 422.898438 512.679688 422.957031 512.902344 423.09375 L 513.066406 423.195312 L 513.46875 423.09375 L 524.941406 423.136719 L 524.941406 416.074219 L 524.449219 416.105469 C 518.789062 416.300781 513.261719 416.746094 507.582031 417.429688 " fill-opacity="1" fill-rule="nonzero"/><path fill="#00ae8c" d="M 513.929688 443.398438 L 513.4375 443.382812 L 513.421875 443.875 C 513.378906 448.820312 513.335938 453.753906 513.304688 458.683594 L 513.304688 459.148438 L 524.507812 459.714844 L 524.65625 459.5625 C 524.730469 459.488281 524.777344 459.414062 524.792969 459.355469 L 524.867188 459.28125 L 524.894531 443.964844 L 524.328125 443.964844 C 521.214844 443.726562 517.804688 443.546875 513.929688 443.398438 " fill-opacity="1" fill-rule="nonzero"/><path fill="#00ae8c" d="M 493.640625 420.710938 L 493.640625 421.199219 C 493.683594 433.789062 493.609375 446.199219 493.386719 458.089844 L 493.386719 458.582031 L 497.734375 458.582031 L 497.855469 455.734375 C 498.003906 451.5625 498.125 447.453125 498.109375 442.96875 L 497.945312 420.710938 L 493.640625 420.710938 " fill-opacity="1" fill-rule="nonzero"/><path fill="#00ae8c" d="M 507.195312 425.984375 C 507.195312 436.261719 507.285156 447.167969 507.464844 458.402344 L 507.464844 458.847656 L 510.578125 459.027344 L 510.742188 441.121094 C 510.785156 436.097656 510.832031 431.078125 510.847656 426.058594 L 510.847656 425.59375 L 507.195312 425.492188 L 507.195312 425.984375 " fill-opacity="1" fill-rule="nonzero"/><path fill="#00ae8c" d="M 490.914062 420.710938 L 476.492188 420.710938 L 476.59375 429.410156 L 490.914062 429.410156 L 490.914062 426.355469 C 490.925781 424.628906 490.925781 422.914062 490.914062 421.1875 L 490.914062 420.710938 " fill-opacity="1" fill-rule="nonzero"/><path fill="#00ae8c" d="M 484.027344 437.246094 C 483.984375 436.875 484.089844 436.515625 484.3125 436.234375 C 484.535156 435.933594 484.847656 435.757812 485.207031 435.710938 C 485.265625 435.710938 485.324219 435.695312 485.386719 435.695312 C 485.683594 435.695312 485.980469 435.800781 486.21875 435.996094 C 486.515625 436.21875 486.695312 436.546875 486.742188 436.917969 C 486.917969 438.542969 487.007812 440.03125 486.980469 441.460938 C 486.964844 442.207031 486.351562 442.816406 485.578125 442.816406 C 485.222656 442.804688 484.878906 442.65625 484.625 442.402344 C 484.371094 442.132812 484.238281 441.789062 484.253906 441.433594 C 484.28125 440.03125 484.207031 438.617188 484.027344 437.246094 Z M 481.4375 442.460938 C 481.480469 442.816406 481.378906 443.160156 481.152344 443.445312 C 480.929688 443.742188 480.601562 443.921875 480.289062 443.964844 L 480.066406 443.964844 C 479.382812 443.964844 478.800781 443.445312 478.726562 442.773438 C 478.503906 440.910156 478.457031 439.019531 478.578125 437.140625 C 478.605469 436.738281 478.816406 436.351562 479.113281 436.113281 C 479.292969 435.964844 479.605469 435.800781 480.035156 435.859375 C 480.394531 435.890625 480.738281 436.054688 480.976562 436.324219 C 481.214844 436.605469 481.332031 436.949219 481.304688 437.320312 C 481.199219 439.125 481.242188 440.851562 481.4375 442.460938 Z M 476.804688 450.027344 L 490.777344 450.089844 L 490.792969 448.359375 C 490.835938 443.117188 490.882812 437.871094 490.914062 432.613281 L 490.914062 432.136719 L 476.609375 432.136719 L 476.804688 450.027344 " fill-opacity="1" fill-rule="nonzero"/><path fill="#00ae8c" d="M 539.300781 443.234375 L 539.289062 442.832031 L 538.886719 442.789062 C 536.726562 442.578125 534.460938 442.9375 532.0625 443.324219 L 531.824219 443.371094 C 530.46875 443.578125 529.230469 443.742188 528.054688 443.847656 L 527.621094 443.890625 L 527.605469 459.847656 L 540.210938 460.488281 L 540.195312 459.980469 C 540.015625 454.1875 539.644531 448.300781 539.300781 443.234375 " fill-opacity="1" fill-rule="nonzero"/><path fill="#00ae8c" d="M 537.738281 416.582031 L 537.722656 416.148438 L 537.289062 416.121094 C 534.296875 415.972656 531.125 415.972656 528.144531 416 L 527.679688 416 L 527.679688 423.136719 L 538.082031 423.195312 L 538.050781 422.691406 C 537.929688 420.648438 537.8125 418.59375 537.738281 416.582031 " fill-opacity="1" fill-rule="nonzero"/><path fill="#00ae8c" d="M 476.894531 458.582031 L 490.644531 458.582031 L 490.660156 458.117188 C 490.6875 457.074219 490.703125 456.03125 490.71875 454.976562 L 490.75 452.816406 L 476.832031 452.753906 L 476.894531 458.582031 " fill-opacity="1" fill-rule="nonzero"/><path fill="#00ae8c" d="M 527.652344 441.210938 L 528.1875 441.132812 C 529.097656 441.03125 530.035156 440.882812 531.003906 440.734375 L 531.390625 440.671875 C 533.804688 440.269531 536.171875 439.914062 538.585938 440.03125 L 539.136719 440.0625 L 539.09375 439.511719 C 539.0625 439.257812 539.050781 439.003906 539.035156 438.75 C 539.003906 438.46875 538.988281 438.183594 538.960938 437.902344 L 538.75 434.640625 C 538.570312 431.898438 538.394531 429.125 538.230469 426.371094 L 538.199219 425.921875 L 527.652344 425.863281 L 527.652344 441.210938 " fill-opacity="1" fill-rule="nonzero"/><path fill="#00ae8c" d="M 513.574219 426.296875 C 513.558594 430.660156 513.511719 435.042969 513.46875 439.390625 L 513.453125 440.65625 L 513.914062 440.671875 C 517.820312 440.808594 521.246094 441 524.402344 441.238281 L 524.925781 441.285156 L 524.925781 425.878906 L 513.585938 425.820312 L 513.574219 426.296875 " fill-opacity="1" fill-rule="nonzero"/></svg>