<svg xmlns="http://www.w3.org/2000/svg" xmlns:xlink="http://www.w3.org/1999/xlink" width="1200" zoomAndPan="magnify" viewBox="0 0 900 749.999995" height="1000" preserveAspectRatio="xMidYMid meet" version="1.0"><defs><g/><clipPath id="18a064f6d1"><path d="M 235 137 L 606 137 L 606 657.75 L 235 657.75 Z M 235 137 " clip-rule="nonzero"/></clipPath><clipPath id="f08b959131"><path d="M 246 141 L 609 141 L 609 650.726562 L 246 650.726562 Z M 246 141 " clip-rule="nonzero"/></clipPath><clipPath id="5487baf8be"><path d="M 111 7.226562 L 744 7.226562 L 744 557 L 111 557 Z M 111 7.226562 " clip-rule="nonzero"/></clipPath><clipPath id="07de26f366"><path d="M 418 352 L 552 352 L 552 444.695312 L 418 444.695312 Z M 418 352 " clip-rule="nonzero"/></clipPath><clipPath id="b9fbb348d0"><path d="M 400 192.695312 L 522 192.695312 L 522 291 L 400 291 Z M 400 192.695312 " clip-rule="nonzero"/></clipPath></defs><g clip-path="url(#18a064f6d1)"><path fill="#9b4dca" d="M 537.703125 179.496094 C 494.855469 144.207031 438.574219 130.324219 383.082031 140.90625 C 309.207031 155.304688 250.828125 214.953125 237.90625 289.34375 C 227.667969 348.34375 245.15625 406.789062 285.980469 449.671875 C 303.433594 468.019531 313.019531 490.492188 313.019531 512.894531 L 313.019531 522.789062 C 313.019531 532.308594 320.71875 539.972656 330.199219 539.972656 L 509.941406 539.972656 C 519.457031 539.972656 527.121094 532.308594 527.121094 522.789062 L 527.121094 512.894531 C 527.121094 490.457031 536.707031 468.019531 554.128906 449.742188 C 587.011719 415.277344 605.121094 369.988281 605.121094 322.367188 C 605.121094 266.90625 580.550781 214.851562 537.703125 179.496094 M 483.894531 623.984375 L 356.28125 623.984375 C 346.761719 623.984375 339.101562 631.644531 339.101562 641.164062 C 339.101562 650.648438 346.761719 658.34375 356.28125 658.34375 L 483.894531 658.34375 C 493.378906 658.34375 501.074219 650.648438 501.074219 641.164062 C 501.074219 631.644531 493.378906 623.984375 483.894531 623.984375 M 502.070312 566.808594 L 338.105469 566.808594 C 328.621094 566.808594 320.921875 574.46875 320.921875 583.988281 C 320.921875 593.46875 328.621094 601.167969 338.105469 601.167969 L 502.070312 601.167969 C 511.554688 601.167969 519.253906 593.46875 519.253906 583.988281 C 519.253906 574.46875 511.554688 566.808594 502.070312 566.808594 " fill-opacity="1" fill-rule="evenodd"/></g><path fill="#9b4dca" d="M 594.136719 166.75 C 598.53125 166.75 602.929688 165.066406 606.296875 161.734375 L 654.4375 113.5625 C 661.136719 106.863281 661.136719 95.96875 654.4375 89.269531 C 647.738281 82.570312 636.84375 82.570312 630.144531 89.269531 L 581.972656 137.40625 C 575.269531 144.144531 575.269531 155 581.972656 161.734375 C 585.339844 165.066406 589.738281 166.75 594.136719 166.75 Z M 234.941406 484.4375 L 186.871094 532.542969 C 180.171875 539.242188 180.171875 550.136719 186.871094 556.835938 C 190.238281 560.203125 194.601562 561.886719 199 561.886719 C 203.398438 561.886719 207.796875 560.203125 211.164062 556.835938 L 259.234375 508.730469 C 265.96875 501.996094 265.96875 491.140625 259.234375 484.4375 C 252.535156 477.703125 241.675781 477.703125 234.941406 484.4375 Z M 234.976562 161.734375 C 238.34375 165.066406 242.742188 166.75 247.140625 166.75 C 251.535156 166.75 255.933594 165.066406 259.269531 161.734375 C 266.003906 155 266.003906 144.144531 259.269531 137.40625 L 211.164062 89.269531 C 204.464844 82.570312 193.570312 82.570312 186.871094 89.269531 C 180.171875 95.96875 180.171875 106.863281 186.871094 113.5625 Z M 597.171875 475.308594 C 590.46875 468.574219 579.613281 468.574219 572.878906 475.308594 C 566.175781 482.011719 566.175781 492.867188 572.878906 499.601562 L 620.980469 547.671875 C 624.347656 551.039062 628.714844 552.722656 633.109375 552.722656 C 637.507812 552.722656 641.90625 551.039062 645.273438 547.671875 C 651.976562 540.972656 651.976562 530.082031 645.273438 523.378906 Z M 420.636719 102.394531 C 430.15625 102.394531 437.816406 94.699219 437.816406 85.214844 L 437.816406 17.179688 C 437.816406 7.695312 430.15625 0 420.636719 0 C 411.152344 0 403.457031 7.695312 403.457031 17.179688 L 403.457031 85.214844 C 403.457031 94.699219 411.152344 102.394531 420.636719 102.394531 Z M 200.238281 323.070312 C 200.238281 313.550781 192.539062 305.890625 183.054688 305.890625 L 114.78125 305.890625 C 105.296875 305.890625 97.601562 313.550781 97.601562 323.070312 C 97.601562 332.554688 105.296875 340.25 114.78125 340.25 L 183.054688 340.25 C 192.539062 340.25 200.238281 332.554688 200.238281 323.070312 Z M 726.492188 305.890625 L 659.488281 305.890625 C 650.003906 305.890625 642.308594 313.550781 642.308594 323.070312 C 642.308594 332.554688 650.003906 340.25 659.488281 340.25 L 726.492188 340.25 C 735.976562 340.25 743.671875 332.554688 743.671875 323.070312 C 743.671875 313.550781 735.976562 305.890625 726.492188 305.890625 Z M 726.492188 305.890625 " fill-opacity="1" fill-rule="evenodd"/><g clip-path="url(#f08b959131)"><path fill="#00ae8c" d="M 542.265625 182.78125 C 500.359375 148.265625 445.3125 134.691406 391.039062 145.042969 C 318.785156 159.121094 261.6875 217.460938 249.054688 290.21875 C 239.039062 347.921875 256.144531 405.082031 296.066406 447.023438 C 313.140625 464.96875 322.515625 486.949219 322.515625 508.859375 L 322.515625 518.539062 C 322.515625 527.847656 330.042969 535.339844 339.320312 535.339844 L 515.113281 535.339844 C 524.421875 535.339844 531.914062 527.847656 531.914062 518.539062 L 531.914062 508.859375 C 531.914062 486.914062 541.289062 464.96875 558.328125 447.089844 C 590.488281 413.382812 608.199219 369.09375 608.199219 322.515625 C 608.199219 268.273438 584.171875 217.359375 542.265625 182.78125 M 489.636719 617.507812 L 364.824219 617.507812 C 355.515625 617.507812 348.023438 625 348.023438 634.308594 C 348.023438 643.585938 355.515625 651.113281 364.824219 651.113281 L 489.636719 651.113281 C 498.914062 651.113281 506.441406 643.585938 506.441406 634.308594 C 506.441406 625 498.914062 617.507812 489.636719 617.507812 M 507.414062 561.585938 L 347.046875 561.585938 C 337.773438 561.585938 330.246094 569.082031 330.246094 578.390625 C 330.246094 587.664062 337.773438 595.191406 347.046875 595.191406 L 507.414062 595.191406 C 516.691406 595.191406 524.21875 587.664062 524.21875 578.390625 C 524.21875 569.082031 516.691406 561.585938 507.414062 561.585938 " fill-opacity="1" fill-rule="evenodd"/></g><g clip-path="url(#5487baf8be)"><path fill="#00ae8c" d="M 597.457031 170.316406 C 601.757812 170.316406 606.058594 168.671875 609.351562 165.410156 L 656.433594 118.296875 C 662.988281 111.742188 662.988281 101.089844 656.433594 94.535156 C 649.882812 87.984375 639.230469 87.984375 632.675781 94.535156 L 585.558594 141.617188 C 579.007812 148.207031 579.007812 158.824219 585.558594 165.410156 C 588.855469 168.671875 593.15625 170.316406 597.457031 170.316406 Z M 246.152344 481.027344 L 199.136719 528.074219 C 192.582031 534.628906 192.582031 545.28125 199.136719 551.835938 C 202.429688 555.128906 206.699219 556.773438 211 556.773438 C 215.300781 556.773438 219.601562 555.128906 222.894531 551.835938 L 269.910156 504.785156 C 276.496094 498.199219 276.496094 487.582031 269.910156 481.027344 C 263.359375 474.441406 252.738281 474.441406 246.152344 481.027344 Z M 246.183594 165.410156 C 249.480469 168.671875 253.78125 170.316406 258.082031 170.316406 C 262.382812 170.316406 266.683594 168.671875 269.945312 165.410156 C 276.53125 158.824219 276.53125 148.207031 269.945312 141.617188 L 222.894531 94.535156 C 216.34375 87.984375 205.691406 87.984375 199.136719 94.535156 C 192.582031 101.089844 192.582031 111.742188 199.136719 118.296875 Z M 600.425781 472.097656 C 593.871094 465.511719 583.253906 465.511719 576.664062 472.097656 C 570.113281 478.652344 570.113281 489.273438 576.664062 495.859375 L 623.714844 542.875 C 627.007812 546.167969 631.273438 547.8125 635.578125 547.8125 C 639.878906 547.8125 644.179688 546.167969 647.472656 542.875 C 654.027344 536.320312 654.027344 525.667969 647.472656 519.113281 Z M 427.769531 107.375 C 437.078125 107.375 444.570312 99.847656 444.570312 90.570312 L 444.570312 24.03125 C 444.570312 14.757812 437.078125 7.226562 427.769531 7.226562 C 418.492188 7.226562 410.964844 14.757812 410.964844 24.03125 L 410.964844 90.570312 C 410.964844 99.847656 418.492188 107.375 427.769531 107.375 Z M 212.210938 323.203125 C 212.210938 313.894531 204.683594 306.398438 195.40625 306.398438 L 128.632812 306.398438 C 119.355469 306.398438 111.828125 313.894531 111.828125 323.203125 C 111.828125 332.476562 119.355469 340.003906 128.632812 340.003906 L 195.40625 340.003906 C 204.683594 340.003906 212.210938 332.476562 212.210938 323.203125 Z M 726.90625 306.398438 L 661.375 306.398438 C 652.101562 306.398438 644.570312 313.894531 644.570312 323.203125 C 644.570312 332.476562 652.101562 340.003906 661.375 340.003906 L 726.90625 340.003906 C 736.183594 340.003906 743.710938 332.476562 743.710938 323.203125 C 743.710938 313.894531 736.183594 306.398438 726.90625 306.398438 Z M 726.90625 306.398438 " fill-opacity="1" fill-rule="evenodd"/></g><path fill="#00ae8c" d="M 396.097656 370.691406 L 345.160156 370.832031 C 334.597656 384.800781 327.601562 399.351562 334.410156 412.039062 C 341.960938 426.105469 350.96875 429.367188 364.554688 429.304688 L 396.097656 429.160156 Z M 396.097656 370.691406 " fill-opacity="1" fill-rule="evenodd"/><path fill="#9b4dca" d="M 329.398438 408.347656 C 319.792969 391.707031 310.1875 375.070312 300.582031 358.433594 C 296.316406 351.046875 294.695312 345.269531 296.207031 336.90625 C 299.175781 320.480469 311.402344 302.226562 319.527344 288.328125 L 307.566406 281.015625 L 365.101562 275.105469 L 385.925781 328.90625 L 368.835938 318.460938 L 334.609375 373.746094 C 328.703125 383.285156 324.765625 397.050781 329.398438 408.347656 Z M 329.398438 408.347656 " fill-opacity="1" fill-rule="evenodd"/><path fill="#00ae8c" d="M 485.703125 323.078125 L 511.292969 367.121094 C 528.671875 369.28125 544.773438 368.066406 552.355469 355.824219 C 560.761719 342.257812 559.082031 332.824219 552.234375 321.085938 L 536.339844 293.84375 Z M 485.703125 323.078125 " fill-opacity="1" fill-rule="evenodd"/><g clip-path="url(#07de26f366)"><path fill="#9b4dca" d="M 551.664062 362.011719 C 542.058594 378.652344 532.449219 395.289062 522.84375 411.925781 C 518.578125 419.3125 514.386719 423.605469 506.390625 426.476562 C 490.679688 432.117188 468.757812 430.664062 452.660156 430.574219 L 452.308594 444.585938 L 418.417969 397.714844 L 454.601562 352.78125 L 454.101562 372.800781 L 519.09375 374.800781 C 530.304688 375.148438 544.195312 371.675781 551.664062 362.011719 Z M 551.664062 362.011719 " fill-opacity="1" fill-rule="evenodd"/></g><path fill="#00ae8c" d="M 399.664062 269.285156 L 425.011719 225.101562 C 418.195312 208.96875 409.089844 195.636719 394.699219 195.1875 C 378.742188 194.691406 371.414062 200.867188 364.675781 212.664062 L 349.027344 240.050781 Z M 399.664062 269.285156 " fill-opacity="1" fill-rule="evenodd"/><g clip-path="url(#b9fbb348d0)"><path fill="#9b4dca" d="M 400.402344 192.695312 C 419.617188 192.695312 438.828125 192.695312 458.042969 192.695312 C 466.570312 192.695312 472.382812 194.179688 478.867188 199.667969 C 491.609375 210.453125 501.308594 230.167969 509.28125 244.15625 L 521.589844 237.453125 L 497.945312 290.234375 L 440.941406 281.367188 L 458.527344 271.792969 L 427.761719 214.507812 C 422.457031 204.625 412.503906 194.332031 400.402344 192.695312 Z M 400.402344 192.695312 " fill-opacity="1" fill-rule="evenodd"/></g><g fill="#000000" fill-opacity="1"><g transform="translate(154.978107, 718.698849)"><g><path d="M 31.015625 1.015625 C 24.671875 1.015625 19.554688 0.332031 15.671875 -1.03125 C 11.785156 -2.394531 8.828125 -4.269531 6.796875 -6.65625 C 4.773438 -9.039062 3.414062 -11.796875 2.71875 -14.921875 L 23.625 -14.921875 C 25.164062 -12.691406 27.628906 -11.578125 31.015625 -11.578125 C 34.390625 -11.578125 36.851562 -12.691406 38.40625 -14.921875 C 38.539062 -15.140625 38.609375 -15.332031 38.609375 -15.5 C 38.609375 -16.09375 37.828125 -16.535156 36.265625 -16.828125 C 34.703125 -17.128906 32.375 -17.351562 29.28125 -17.5 C 25.375 -17.675781 21.273438 -18.09375 16.984375 -18.75 C 7.410156 -20.226562 2.625 -24.078125 2.625 -30.296875 C 2.625 -30.816406 2.65625 -31.375 2.71875 -31.96875 C 3.414062 -35.082031 4.773438 -37.832031 6.796875 -40.21875 C 8.828125 -42.613281 11.785156 -44.488281 15.671875 -45.84375 C 19.554688 -47.207031 24.671875 -47.890625 31.015625 -47.890625 C 37.359375 -47.890625 42.472656 -47.207031 46.359375 -45.84375 C 50.242188 -44.488281 53.195312 -42.613281 55.21875 -40.21875 C 57.25 -37.832031 58.613281 -35.082031 59.3125 -31.96875 L 38.40625 -31.96875 C 36.851562 -34.1875 34.390625 -35.296875 31.015625 -35.296875 C 27.628906 -35.296875 25.164062 -34.1875 23.625 -31.96875 C 23.507812 -31.789062 23.453125 -31.625 23.453125 -31.46875 C 23.453125 -30.945312 24.195312 -30.5625 25.6875 -30.3125 C 27.1875 -30.0625 29.390625 -29.847656 32.296875 -29.671875 C 35.210938 -29.492188 38.316406 -29.207031 41.609375 -28.8125 C 44.898438 -28.425781 47.976562 -27.75 50.84375 -26.78125 C 53.71875 -25.8125 55.960938 -24.375 57.578125 -22.46875 C 58.835938 -21.007812 59.46875 -19.15625 59.46875 -16.90625 C 59.46875 -16.28125 59.414062 -15.617188 59.3125 -14.921875 C 58.613281 -11.796875 57.25 -9.039062 55.21875 -6.65625 C 53.195312 -4.269531 50.242188 -2.394531 46.359375 -1.03125 C 42.472656 0.332031 37.359375 1.015625 31.015625 1.015625 Z M 31.015625 1.015625 "/></g></g></g><g fill="#000000" fill-opacity="1"><g transform="translate(217.067257, 718.698849)"><g><path d="M 61.765625 0 L 5.234375 0 L 5.234375 -46.953125 L 59.1875 -46.953125 L 59.1875 -35.328125 L 24.921875 -35.328125 L 24.921875 -27.96875 L 53.875 -27.96875 L 53.875 -18.9375 L 24.921875 -18.9375 L 24.921875 -11.609375 L 61.765625 -11.609375 Z M 61.765625 0 "/></g></g></g><g fill="#000000" fill-opacity="1"><g transform="translate(281.446313, 718.698849)"><g><path d="M 94.484375 0 L 74.78125 0 L 74.78125 -29.9375 L 57.1875 0 L 42.5 0 L 24.921875 -29.9375 L 24.921875 0 L 5.234375 0 L 5.234375 -46.953125 L 28.625 -46.953125 L 49.859375 -13.40625 L 71.0625 -46.953125 L 94.484375 -46.953125 Z M 94.484375 0 "/></g></g></g><g fill="#000000" fill-opacity="1"><g transform="translate(381.155327, 718.698849)"><g><path d="M 33.015625 1.015625 C 21.554688 1.015625 13.492188 -1.363281 8.828125 -6.125 C 4.898438 -10.113281 2.9375 -15.878906 2.9375 -23.421875 L 2.9375 -46.90625 L 22.640625 -46.90625 L 22.640625 -23.421875 C 22.640625 -20.148438 23.195312 -17.566406 24.3125 -15.671875 C 25.90625 -12.941406 28.804688 -11.578125 33.015625 -11.578125 C 37.265625 -11.578125 40.175781 -12.941406 41.75 -15.671875 C 42.851562 -17.628906 43.40625 -20.210938 43.40625 -23.421875 L 43.40625 -46.90625 L 63.109375 -46.90625 L 63.109375 -23.15625 C 63.109375 -15.789062 61.15625 -10.113281 57.25 -6.125 C 52.5625 -1.363281 44.484375 1.015625 33.015625 1.015625 Z M 33.015625 1.015625 "/></g></g></g><g fill="#000000" fill-opacity="1"><g transform="translate(447.202747, 718.698849)"><g><path d="M 60.03125 0 L 5.234375 0 L 5.234375 -46.953125 L 24.921875 -46.953125 L 24.921875 -11.609375 L 60.03125 -11.609375 Z M 60.03125 0 "/></g></g></g><g fill="#000000" fill-opacity="1"><g transform="translate(508.539506, 718.698849)"><g><path d="M 24.921875 0 L 5.234375 0 L 5.234375 -46.953125 L 24.921875 -46.953125 Z M 24.921875 0 "/></g></g></g><g fill="#000000" fill-opacity="1"><g transform="translate(538.700843, 718.698849)"><g><path d="M 35.5 1.015625 C 23.894531 1.015625 15.351562 -1.375 9.875 -6.15625 C 5.039062 -10.382812 2.625 -16.140625 2.625 -23.421875 C 2.625 -30.734375 5.039062 -36.503906 9.875 -40.734375 C 15.351562 -45.503906 23.894531 -47.890625 35.5 -47.890625 C 42.101562 -47.890625 47.597656 -47.148438 51.984375 -45.671875 C 56.367188 -44.191406 59.804688 -42.164062 62.296875 -39.59375 C 64.796875 -37.03125 66.503906 -34.082031 67.421875 -30.75 L 46.359375 -30.75 C 44.148438 -33.78125 40.53125 -35.296875 35.5 -35.296875 C 30.738281 -35.296875 27.238281 -33.929688 25 -31.203125 C 23.207031 -29.003906 22.3125 -26.410156 22.3125 -23.421875 C 22.3125 -20.429688 23.207031 -17.847656 25 -15.671875 C 27.238281 -12.941406 30.738281 -11.578125 35.5 -11.578125 C 39.332031 -11.578125 42.210938 -11.910156 44.140625 -12.578125 C 46.078125 -13.242188 47.492188 -14.113281 48.390625 -15.1875 L 40.703125 -15.1875 L 40.703125 -23.421875 L 67.421875 -23.421875 L 67.421875 0.03125 L 59.25 0.03125 L 57.578125 -4.515625 C 52.367188 -0.828125 45.007812 1.015625 35.5 1.015625 Z M 35.5 1.015625 "/></g></g></g><g fill="#000000" fill-opacity="1"><g transform="translate(610.047771, 718.698849)"><g><path d="M 69.359375 0 L 49.65625 0 L 49.65625 -18.9375 L 24.921875 -18.9375 L 24.921875 0 L 5.234375 0 L 5.234375 -46.953125 L 24.921875 -46.953125 L 24.921875 -27.96875 L 49.65625 -27.96875 L 49.65625 -46.953125 L 69.359375 -46.953125 Z M 69.359375 0 "/></g></g></g><g fill="#000000" fill-opacity="1"><g transform="translate(684.633263, 718.698849)"><g><path d="M 40.046875 0 L 20.34375 0 L 20.34375 -35.328125 L 1.96875 -35.328125 L 1.96875 -46.953125 L 58.421875 -46.953125 L 58.421875 -35.328125 L 40.046875 -35.328125 Z M 40.046875 0 "/></g></g></g></svg>