<svg xmlns="http://www.w3.org/2000/svg" xmlns:xlink="http://www.w3.org/1999/xlink" width="1200" zoomAndPan="magnify" viewBox="0 0 900 749.999995" height="1000" preserveAspectRatio="xMidYMid meet" version="1.0"><defs><clipPath id="2e2a8d623c"><path d="M 388 415 L 447 415 L 447 424.140625 L 388 424.140625 Z M 388 415 " clip-rule="nonzero"/></clipPath><clipPath id="c864dd308d"><path d="M 357.488281 333 L 401 333 L 401 377 L 357.488281 377 Z M 357.488281 333 " clip-rule="nonzero"/></clipPath><clipPath id="93a566005a"><path d="M 477 353 L 542.738281 353 L 542.738281 375 L 477 375 Z M 477 353 " clip-rule="nonzero"/></clipPath></defs><rect x="-90" width="1080" fill="#ffffff" y="-74.999999" height="899.999994" fill-opacity="1"/><rect x="-90" width="1080" fill="#ffffff" y="-74.999999" height="899.999994" fill-opacity="1"/><path fill="#00ae8c" d="M 419.191406 392.394531 L 431.359375 392.371094 L 431.371094 392.183594 C 431.375 391.933594 431.382812 391.679688 431.382812 391.429688 C 431.382812 391.261719 431.382812 391.101562 431.390625 390.933594 L 431.394531 390.734375 L 431.191406 390.734375 C 430.386719 390.734375 429.578125 390.734375 428.75 390.722656 C 427.882812 390.714844 426.996094 390.703125 426.144531 390.703125 L 419.273438 390.703125 L 419.191406 392.394531 " fill-opacity="1" fill-rule="nonzero"/><path fill="#00ae8c" d="M 427.085938 415.59375 L 427.074219 415.402344 L 426.875 415.402344 L 419.128906 414.121094 L 419.179688 415.464844 C 419.203125 416.171875 419.230469 416.882812 419.261719 417.585938 L 419.253906 417.820312 L 427.074219 419.417969 L 427.074219 419.175781 C 427.066406 418.460938 427.074219 417.746094 427.078125 417.03125 C 427.078125 416.550781 427.085938 416.074219 427.085938 415.59375 " fill-opacity="1" fill-rule="nonzero"/><path fill="#00ae8c" d="M 431.730469 410.550781 L 442.671875 410.550781 L 442.664062 410.34375 C 442.652344 409.988281 442.664062 409.621094 442.675781 409.28125 C 442.675781 409.148438 442.675781 409.011719 442.683594 408.882812 C 442.683594 408.753906 442.683594 408.621094 442.683594 408.492188 L 442.683594 408.292969 L 431.738281 408.304688 L 431.730469 410.550781 " fill-opacity="1" fill-rule="nonzero"/><path fill="#00ae8c" d="M 422.144531 411.476562 L 422.605469 411.519531 L 422.582031 407.90625 L 422.382812 407.90625 C 422.066406 407.90625 421.855469 407.925781 421.734375 408.035156 C 421.679688 408.085938 421.550781 408.222656 421.59375 409.058594 L 421.582031 409.710938 C 421.574219 410.125 421.5625 410.488281 421.550781 410.796875 L 421.53125 411.433594 L 421.730469 411.4375 C 421.871094 411.445312 422.007812 411.457031 422.144531 411.476562 " fill-opacity="1" fill-rule="nonzero"/><path fill="#00ae8c" d="M 431.917969 393.507812 L 427.929688 393.507812 L 428.042969 393.789062 C 428.0625 393.824219 428.066406 393.851562 428.066406 393.875 C 428.09375 395.398438 428.167969 396.835938 428.234375 398.097656 L 428.242188 398.296875 C 428.335938 400.1875 428.414062 401.980469 428.382812 404.011719 L 428.335938 407.179688 C 428.265625 410.984375 428.191406 415.308594 428.222656 419.445312 L 428.222656 419.675781 L 428.445312 419.636719 C 429.125 419.542969 429.777344 419.394531 430.386719 419.203125 L 430.523438 419.15625 L 430.613281 407.726562 C 430.613281 407.410156 430.859375 407.167969 431.175781 407.167969 L 434.820312 407.152344 L 434.652344 406.855469 C 434.542969 406.664062 434.484375 406.4375 434.484375 406.214844 L 434.484375 383.660156 C 434.484375 383.46875 434.523438 383.289062 434.609375 383.113281 L 434.628906 383.066406 L 434.597656 382.46875 C 434.535156 381.546875 434.460938 380.457031 434.441406 379.363281 L 434.394531 376.84375 C 434.34375 373.941406 434.324219 370.164062 434.617188 366.652344 L 434.628906 366.476562 L 434.460938 366.4375 C 433.597656 366.246094 432.800781 366.089844 432.121094 365.984375 C 432.058594 365.964844 432 365.964844 431.953125 365.964844 L 431.753906 365.964844 L 431.972656 373.257812 C 431.980469 373.46875 431.980469 373.679688 431.972656 373.890625 L 431.972656 374.226562 C 431.960938 374.65625 431.953125 375.054688 431.984375 375.46875 C 432.527344 381.265625 432.703125 387.320312 432.484375 392.960938 C 432.472656 393.269531 432.222656 393.507812 431.917969 393.507812 " fill-opacity="1" fill-rule="nonzero"/><path fill="#00ae8c" d="M 442.789062 417.839844 L 442.785156 417.644531 L 431.675781 417.644531 L 431.675781 419.09375 L 431.875 419.09375 C 432.246094 419.09375 432.621094 419.09375 432.992188 419.09375 C 436.191406 419.09375 439.417969 419.058594 442.601562 418.976562 L 442.800781 418.972656 L 442.796875 418.773438 C 442.796875 418.617188 442.796875 418.46875 442.796875 418.3125 C 442.796875 418.15625 442.796875 417.996094 442.789062 417.839844 " fill-opacity="1" fill-rule="nonzero"/><path fill="#00ae8c" d="M 442.800781 412.03125 C 442.789062 411.96875 442.777344 411.910156 442.765625 411.855469 L 442.738281 411.6875 L 431.71875 411.6875 L 431.6875 416.503906 L 442.789062 416.503906 L 442.789062 416.304688 C 442.796875 414.953125 442.808594 413.609375 442.839844 412.222656 C 442.828125 412.160156 442.816406 412.09375 442.800781 412.03125 " fill-opacity="1" fill-rule="nonzero"/><path fill="#00ae8c" d="M 460.082031 405.34375 L 459.820312 405.429688 C 459.675781 405.480469 459.539062 405.503906 459.402344 405.503906 L 456.542969 405.503906 L 456.535156 405.699219 C 456.511719 406.648438 456.503906 408.117188 456.515625 410.066406 L 456.515625 410.257812 L 460.136719 410.257812 L 460.082031 405.34375 " fill-opacity="1" fill-rule="nonzero"/><path fill="#00ae8c" d="M 456.535156 411.402344 L 456.535156 411.601562 C 456.535156 412.074219 456.546875 412.515625 456.558594 412.886719 L 456.566406 413.082031 L 460.167969 413.082031 L 460.144531 411.402344 L 456.535156 411.402344 " fill-opacity="1" fill-rule="nonzero"/><path fill="#00ae8c" d="M 470.007812 384.378906 L 470.007812 384.371094 C 469.996094 384.089844 469.984375 383.699219 470.042969 383.3125 L 470.074219 383.101562 L 469.863281 383.082031 C 469.789062 383.078125 469.714844 383.078125 469.652344 383.078125 C 469.585938 383.070312 469.527344 383.070312 469.460938 383.066406 C 469.324219 383.066406 469.199219 383.050781 469.113281 383.046875 C 467.539062 382.882812 465.921875 382.910156 464.355469 382.929688 L 464.140625 382.933594 C 463.203125 382.941406 462.226562 382.953125 461.417969 383.308594 C 460.839844 383.550781 460.378906 384.035156 460.234375 384.542969 L 460.203125 384.664062 L 460.292969 384.742188 C 460.585938 385.003906 460.738281 385.347656 460.738281 385.714844 L 460.738281 393.710938 L 460.84375 393.769531 C 460.894531 393.800781 460.945312 393.851562 461 393.929688 L 461.058594 394.023438 L 470.082031 394.023438 L 470.007812 384.378906 " fill-opacity="1" fill-rule="nonzero"/><path fill="#00ae8c" d="M 419.347656 389.347656 L 419.328125 389.5625 L 426.144531 389.5625 C 426.984375 389.5625 427.855469 389.570312 428.769531 389.582031 C 429.585938 389.59375 430.417969 389.59375 431.222656 389.59375 L 431.417969 389.59375 L 431.417969 389.394531 C 431.464844 384.742188 431.269531 380.089844 430.855469 375.5625 C 430.804688 375.078125 430.816406 374.613281 430.835938 374.171875 L 430.835938 373.882812 C 430.839844 373.691406 430.839844 373.492188 430.835938 373.292969 L 430.613281 365.824219 L 430.425781 365.824219 C 426.5625 365.730469 422.574219 367.390625 419.789062 370.300781 L 419.734375 370.359375 L 419.734375 370.4375 C 419.746094 371.863281 419.765625 373.269531 419.796875 374.6875 C 419.871094 378.144531 419.9375 381.714844 419.632812 385.339844 C 419.527344 386.640625 419.433594 387.984375 419.347656 389.347656 " fill-opacity="1" fill-rule="nonzero"/><path fill="#00ae8c" d="M 420.367188 411.9375 L 420.398438 411.160156 C 420.417969 410.644531 420.4375 410.007812 420.449219 409.660156 L 420.449219 409.089844 C 420.429688 408.566406 420.398438 407.695312 420.972656 407.183594 C 421.367188 406.832031 421.902344 406.753906 422.363281 406.753906 C 422.527344 406.753906 422.679688 406.769531 422.8125 406.773438 L 423.023438 406.785156 C 423.9375 406.816406 424.859375 406.886719 425.761719 407 C 425.921875 407.023438 426.070312 407.109375 426.15625 407.234375 C 426.25 407.371094 426.28125 407.527344 426.25 407.675781 L 426.246094 407.683594 C 425.921875 409.230469 425.839844 410.804688 426.007812 412.371094 C 426.035156 412.535156 425.972656 412.703125 425.847656 412.824219 C 425.742188 412.9375 425.597656 413 425.46875 413.011719 L 425.398438 412.988281 C 424.953125 412.945312 424.515625 412.894531 424.066406 412.839844 L 423.90625 412.8125 C 422.984375 412.695312 421.945312 412.558594 420.941406 412.558594 C 420.621094 412.558594 420.367188 412.304688 420.367188 411.988281 C 420.367188 411.96875 420.367188 411.949219 420.367188 411.9375 Z M 427.089844 414.039062 C 427.109375 411.730469 427.152344 409.429688 427.195312 407.167969 L 427.214844 405.972656 L 427.179688 405.785156 L 426.992188 405.773438 C 424.570312 405.554688 422.109375 405.492188 419.675781 405.585938 C 419.660156 405.585938 419.632812 405.585938 419.589844 405.582031 C 419.402344 405.554688 419.273438 405.554688 419.15625 405.554688 L 418.957031 405.554688 L 418.957031 405.753906 C 418.972656 408.222656 419.019531 410.523438 419.085938 412.796875 L 419.09375 412.957031 L 427.089844 414.273438 L 427.089844 414.039062 " fill-opacity="1" fill-rule="nonzero"/><path fill="#00ae8c" d="M 423.757812 411.632812 L 423.914062 411.664062 C 423.96875 411.675781 424.019531 411.6875 424.0625 411.683594 C 424.148438 411.695312 424.230469 411.707031 424.316406 411.71875 C 424.402344 411.730469 424.496094 411.742188 424.585938 411.757812 L 424.816406 411.78125 L 424.808594 411.550781 C 424.757812 410.449219 424.816406 409.34375 424.988281 408.265625 L 425.019531 408.0625 L 424.816406 408.035156 C 424.507812 408.003906 424.21875 408 423.925781 407.988281 L 423.71875 407.980469 L 423.738281 411.46875 L 423.757812 411.632812 " fill-opacity="1" fill-rule="nonzero"/><path fill="#00ae8c" d="M 419.128906 393.726562 C 418.992188 397.351562 418.9375 400.777344 418.941406 404.21875 L 418.941406 404.417969 L 419.140625 404.417969 C 419.285156 404.417969 419.445312 404.417969 419.644531 404.449219 L 419.703125 404.449219 C 419.777344 404.4375 419.863281 404.441406 419.933594 404.4375 L 420.136719 404.4375 L 419.90625 394.851562 C 419.902344 394.703125 419.957031 394.558594 420.0625 394.445312 C 420.167969 394.339844 420.316406 394.277344 420.46875 394.277344 L 420.691406 394.277344 C 421.671875 394.265625 422.65625 394.253906 423.632812 394.234375 L 424.695312 394.222656 C 425.375 394.214844 426.050781 394.203125 426.730469 394.203125 L 426.929688 394.203125 L 426.929688 393.894531 C 426.929688 393.875 426.933594 393.84375 426.941406 393.8125 L 427.003906 393.519531 L 419.136719 393.53125 L 419.128906 393.726562 " fill-opacity="1" fill-rule="nonzero"/><path fill="#00ae8c" d="M 425.710938 398.210938 L 425.671875 402.53125 L 425.671875 402.539062 C 425.671875 402.851562 425.410156 403.105469 425.105469 403.105469 C 424.785156 403.097656 424.527344 402.84375 424.527344 402.527344 L 424.570312 398.199219 C 424.570312 397.890625 424.828125 397.644531 425.136719 397.644531 C 425.457031 397.644531 425.710938 397.898438 425.710938 398.210938 Z M 421.996094 398.347656 C 421.972656 398.035156 422.203125 397.761719 422.527344 397.730469 C 422.542969 397.730469 422.5625 397.730469 422.574219 397.730469 C 422.707031 397.730469 422.832031 397.773438 422.9375 397.863281 C 423.046875 397.960938 423.121094 398.105469 423.136719 398.257812 C 423.265625 399.757812 423.320312 401.25 423.308594 402.699219 C 423.308594 403.011719 423.054688 403.261719 422.742188 403.261719 C 422.425781 403.261719 422.171875 403.003906 422.171875 402.695312 C 422.183594 401.28125 422.121094 399.820312 421.996094 398.347656 Z M 427.246094 403.992188 C 427.277344 401.996094 427.191406 400.230469 427.101562 398.351562 L 427.089844 398.148438 C 427.054688 397.308594 427.011719 396.429688 426.980469 395.535156 L 426.972656 395.347656 L 426.78125 395.347656 C 426.089844 395.347656 425.40625 395.355469 424.722656 395.359375 L 422.847656 395.390625 C 422.320312 395.398438 421.785156 395.40625 421.257812 395.40625 L 421.050781 395.40625 L 421.277344 404.40625 L 421.472656 404.40625 C 423.371094 404.386719 425.230469 404.472656 427.015625 404.632812 L 427.234375 404.648438 L 427.246094 403.992188 " fill-opacity="1" fill-rule="nonzero"/><path fill="#00ae8c" d="M 402.839844 410.480469 L 402.527344 410.6875 C 402.429688 410.75 402.34375 410.773438 402.25 410.773438 L 401.609375 410.773438 L 401.621094 410.984375 C 401.660156 411.667969 401.570312 412.339844 401.359375 412.945312 C 401.265625 413.238281 400.90625 413.398438 400.636719 413.300781 C 400.5 413.25 400.382812 413.148438 400.316406 413.011719 C 400.246094 412.875 400.234375 412.71875 400.285156 412.578125 C 400.457031 412.085938 400.515625 411.542969 400.457031 410.964844 L 400.4375 410.785156 L 398.625 410.796875 L 398.625 413.558594 C 398.625 413.863281 398.363281 414.125 398.058594 414.125 C 397.738281 414.125 397.484375 413.871094 397.484375 413.558594 L 397.484375 410.804688 L 396.59375 410.804688 L 396.582031 414.996094 L 396.738281 415.035156 C 398.796875 415.527344 400.714844 415.867188 402.585938 416.085938 L 402.816406 416.109375 L 402.804688 415.878906 C 402.773438 414.898438 402.796875 413.253906 402.832031 410.855469 L 402.839844 410.480469 " fill-opacity="1" fill-rule="nonzero"/><g clip-path="url(#2e2a8d623c)"><path fill="#00ae8c" d="M 445.496094 422.039062 L 445.488281 422.042969 C 445.097656 422.160156 444.660156 422.101562 444.320312 421.871094 C 444.144531 421.746094 444.003906 421.589844 443.902344 421.398438 L 443.804688 421.210938 L 443.625 421.324219 C 443.542969 421.367188 443.460938 421.398438 443.367188 421.398438 C 443.058594 421.398438 442.796875 421.140625 442.796875 420.824219 C 442.789062 420.710938 442.796875 420.601562 442.796875 420.488281 L 442.796875 420.121094 L 442.597656 420.121094 C 438.808594 420.210938 435.667969 420.246094 432.726562 420.246094 C 432.441406 420.246094 432.160156 420.246094 431.875 420.238281 L 431.667969 420.226562 L 431.65625 421.183594 C 431.65625 421.492188 431.402344 421.746094 431.085938 421.746094 C 430.773438 421.746094 430.519531 421.492188 430.519531 421.171875 L 430.519531 420.332031 L 430.261719 420.40625 C 429.460938 420.644531 428.738281 420.789062 428.054688 420.84375 L 428.035156 420.835938 L 428 420.851562 C 427.851562 420.851562 427.730469 420.773438 427.65625 420.710938 L 427.613281 420.667969 L 417.570312 418.652344 C 417.386719 418.609375 417.238281 418.480469 417.164062 418.300781 L 417.125 418.199219 L 413.070312 417.355469 C 411.375 416.980469 409.667969 416.613281 407.964844 416.265625 L 407.921875 416.253906 L 407.871094 416.265625 C 406.398438 416.683594 405.085938 417.09375 403.859375 417.507812 C 403.699219 417.570312 403.449219 417.527344 403.277344 417.347656 L 403.226562 417.292969 L 403.152344 417.285156 C 400.769531 417.050781 398.394531 416.625 395.878906 416 C 395.636719 415.9375 395.464844 415.71875 395.457031 415.46875 L 395.449219 415.277344 L 392.671875 415.277344 L 392.660156 416 C 392.660156 416.304688 392.402344 416.558594 392.078125 416.558594 C 391.769531 416.558594 391.519531 416.296875 391.519531 415.980469 L 391.53125 415.277344 L 390.082031 415.277344 L 390.066406 415.449219 C 390.035156 415.773438 389.867188 416.074219 389.617188 416.289062 C 389.457031 416.433594 389.257812 416.53125 389.019531 416.59375 L 388.484375 416.71875 L 388.976562 416.960938 C 389.472656 417.210938 390.3125 417.433594 391.484375 417.621094 L 430.277344 423.933594 C 431.128906 424.070312 431.941406 424.078125 432.808594 424.089844 C 433.296875 424.089844 433.808594 424.101562 434.324219 424.121094 C 435.308594 424.171875 436.265625 424.203125 437.199219 424.203125 C 439.691406 424.203125 442.007812 424.007812 444.214844 423.625 C 445.320312 423.429688 445.949219 423.152344 446.136719 422.757812 C 446.210938 422.589844 446.171875 422.335938 446.042969 422.191406 C 445.90625 422.054688 445.667969 421.988281 445.496094 422.039062 " fill-opacity="1" fill-rule="nonzero"/></g><path fill="#00ae8c" d="M 390.078125 414.132812 L 391.546875 414.132812 L 391.644531 406.53125 L 390.003906 406.53125 L 390.003906 406.730469 C 390.015625 408.496094 390.035156 410.246094 390.050781 412 L 390.078125 414.132812 " fill-opacity="1" fill-rule="nonzero"/><path fill="#00ae8c" d="M 463.675781 357.296875 L 458.804688 348.097656 C 458.800781 348.089844 458.804688 348.078125 458.800781 348.066406 C 458.394531 347.964844 457.992188 347.855469 457.574219 347.742188 C 455.476562 347.1875 453.300781 346.605469 451.160156 345.875 C 450.136719 345.527344 449.171875 345.105469 448.238281 344.695312 L 447.828125 344.507812 C 446.9375 344.121094 446.023438 344.015625 444.980469 343.898438 C 444.425781 343.835938 443.871094 343.773438 443.300781 343.667969 C 442.191406 343.464844 441.140625 343.160156 440.113281 342.859375 C 439.804688 342.765625 439.472656 342.671875 439.15625 342.582031 L 407.640625 333.808594 C 406.945312 333.609375 406.21875 333.367188 405.476562 333.121094 C 404.246094 332.703125 402.988281 332.292969 401.839844 332.117188 C 401.324219 336.628906 401.570312 340.882812 402.578125 344.769531 C 422.875 348.695312 443.378906 352.90625 463.675781 357.296875 " fill-opacity="1" fill-rule="nonzero"/><path fill="#00ae8c" d="M 473.570312 359.4375 C 475.4375 359.847656 477.316406 360.269531 479.1875 360.679688 C 478 357.980469 476.730469 355.289062 475.375 352.679688 L 468.78125 350.832031 C 470.113281 353.839844 471.71875 356.71875 473.570312 359.429688 L 473.570312 359.4375 " fill-opacity="1" fill-rule="nonzero"/><path fill="#00ae8c" d="M 471.59375 359.007812 C 469.808594 356.257812 468.273438 353.359375 466.996094 350.34375 L 460.695312 348.59375 L 465.511719 357.695312 C 467.542969 358.136719 469.570312 358.566406 471.59375 359.007812 " fill-opacity="1" fill-rule="nonzero"/><path fill="#00ae8c" d="M 395.464844 406.394531 L 395.214844 406.464844 C 395.058594 406.507812 394.933594 406.53125 394.816406 406.53125 L 392.78125 406.53125 L 392.691406 414.132812 L 395.457031 414.132812 L 395.464844 406.394531 " fill-opacity="1" fill-rule="nonzero"/><g clip-path="url(#c864dd308d)"><path fill="#00ae8c" d="M 379.765625 360.6875 C 381.332031 358.875 383.445312 357.476562 385.492188 356.125 C 386.277344 355.609375 387.035156 355.113281 387.746094 354.597656 L 400.589844 345.324219 C 399.625 341.589844 399.308594 337.5625 399.65625 333.304688 C 399.386719 333.605469 399.140625 333.890625 398.964844 334.101562 C 398.792969 334.320312 398.628906 334.511719 398.472656 334.6875 C 397.648438 335.632812 396.746094 336.441406 395.863281 337.230469 C 395.53125 337.53125 395.214844 337.816406 394.898438 338.113281 C 394.21875 338.742188 393.574219 339.382812 392.933594 340.023438 C 391.636719 341.3125 390.308594 342.648438 388.734375 343.835938 C 388.050781 344.367188 387.390625 345.011719 386.695312 345.707031 C 386.339844 346.070312 385.976562 346.417969 385.613281 346.765625 C 384.914062 347.425781 384.191406 348.066406 383.476562 348.710938 C 382.089844 349.988281 380.660156 351.289062 379.324219 352.617188 L 358.445312 372.085938 C 357.5 372.957031 357.832031 374.300781 358.492188 376.402344 C 358.503906 376.445312 358.511719 376.476562 358.523438 376.515625 C 363.554688 372.8125 368.679688 369.15625 373.800781 365.636719 C 375.941406 364.164062 377.972656 362.769531 379.765625 360.6875 " fill-opacity="1" fill-rule="nonzero"/></g><path fill="#00ae8c" d="M 396.632812 392.429688 L 396.632812 392.691406 L 396.882812 392.628906 C 397.460938 392.5 398.082031 392.363281 398.714844 392.277344 C 399.617188 392.152344 400.464844 391.957031 401.285156 391.773438 C 401.78125 391.660156 402.285156 391.546875 402.789062 391.449219 L 403.007812 391.449219 L 403.007812 391.25 C 403.019531 389.179688 403.019531 387.109375 403.019531 385.066406 L 403.019531 375.851562 L 402.820312 375.851562 C 402.429688 375.851562 402.042969 375.867188 401.671875 375.910156 C 400.707031 376.023438 398.011719 376.589844 397.167969 377.785156 C 396.726562 378.398438 396.726562 379.613281 396.757812 380.699219 C 396.757812 380.863281 396.761719 381.023438 396.761719 381.167969 C 396.769531 381.296875 396.769531 381.429688 396.769531 381.535156 C 396.730469 383.351562 396.71875 385.167969 396.703125 386.988281 C 396.6875 388.800781 396.671875 390.617188 396.632812 392.429688 " fill-opacity="1" fill-rule="nonzero"/><path fill="#00ae8c" d="M 401.78125 409.410156 C 401.957031 408.328125 402.007812 407.191406 401.933594 405.941406 L 401.917969 405.742188 L 401.71875 405.75 C 400.097656 405.855469 398.441406 405.871094 396.8125 405.808594 L 396.609375 405.804688 L 396.59375 409.667969 L 401.78125 409.636719 L 401.78125 409.410156 " fill-opacity="1" fill-rule="nonzero"/><path fill="#00ae8c" d="M 404.128906 395.828125 C 404.121094 397.511719 404.109375 399.191406 404.089844 400.871094 L 403.996094 409.804688 L 403.984375 410.46875 C 403.960938 412.085938 403.917969 414.796875 403.921875 416.015625 L 403.929688 416.289062 L 404.183594 416.203125 C 405.183594 415.878906 406.082031 415.605469 406.9375 415.359375 L 407.121094 415.308594 L 407.0625 415.070312 C 407.042969 414.996094 407.03125 414.929688 407.03125 414.855469 L 406.738281 396.199219 L 406.585938 396.167969 C 406.25 396.101562 405.914062 396.019531 405.582031 395.925781 L 405.503906 395.902344 C 405.109375 395.796875 404.738281 395.691406 404.359375 395.632812 L 404.132812 395.597656 L 404.128906 395.828125 " fill-opacity="1" fill-rule="nonzero"/><path fill="#00ae8c" d="M 406.609375 376.578125 L 406.484375 376.527344 C 405.824219 376.273438 405.121094 376.085938 404.390625 375.980469 L 404.160156 375.949219 L 404.160156 385.066406 C 404.160156 388.089844 404.152344 391.144531 404.140625 394.222656 L 404.140625 394.460938 L 404.3125 394.484375 C 404.867188 394.550781 405.414062 394.695312 405.882812 394.828125 C 406.042969 394.871094 406.203125 394.914062 406.355469 394.949219 L 406.734375 395.050781 L 406.753906 394.808594 C 406.785156 394.402344 406.820312 393.992188 406.875 393.589844 C 406.976562 392.796875 407.074219 391.976562 406.933594 391.226562 C 406.683594 389.832031 406.660156 388.449219 406.640625 387.121094 L 406.640625 386.621094 C 406.597656 383.339844 406.585938 380.191406 406.609375 376.714844 L 406.609375 376.578125 " fill-opacity="1" fill-rule="nonzero"/><path fill="#00ae8c" d="M 396.609375 394.023438 C 396.59375 394.566406 396.582031 395.007812 396.578125 395.300781 L 396.5625 395.546875 L 398.5625 395.1875 C 399.265625 395.054688 399.921875 394.957031 400.582031 394.855469 L 401.125 394.769531 C 401.535156 394.714844 401.945312 394.652344 402.367188 394.582031 L 403 394.484375 L 403 394.316406 C 403 393.8125 403 393.316406 403.007812 392.8125 L 403.015625 392.5625 L 402.269531 392.71875 C 402.023438 392.773438 401.78125 392.824219 401.539062 392.878906 L 401.445312 392.898438 C 400.621094 393.089844 399.761719 393.285156 398.867188 393.402344 C 398.136719 393.507812 397.429688 393.65625 396.75 393.835938 L 396.609375 393.875 L 396.609375 394.023438 " fill-opacity="1" fill-rule="nonzero"/><path fill="#00ae8c" d="M 470.089844 395.160156 L 461.113281 395.160156 L 461.132812 396.132812 L 470.089844 396.132812 L 470.089844 395.160156 " fill-opacity="1" fill-rule="nonzero"/><path fill="#00ae8c" d="M 396.425781 398.886719 L 396.476562 398.945312 C 396.570312 399.050781 396.613281 399.167969 396.613281 399.296875 L 396.609375 404.660156 L 396.792969 404.671875 C 396.894531 404.679688 396.992188 404.679688 397.097656 404.679688 C 397.1875 404.671875 397.285156 404.679688 397.378906 404.683594 L 397.585938 404.703125 L 397.585938 404.492188 C 397.894531 402.550781 398.007812 400.5625 397.925781 398.578125 C 397.921875 398.433594 397.96875 398.289062 398.070312 398.179688 C 398.175781 398.066406 398.324219 398 398.46875 397.984375 C 398.472656 397.984375 398.480469 397.984375 398.484375 397.984375 C 398.792969 397.984375 399.050781 398.234375 399.066406 398.539062 C 399.144531 400.5 399.039062 402.496094 398.742188 404.472656 L 398.703125 404.710938 L 400.320312 404.664062 L 400.328125 404.480469 C 400.390625 402.457031 400.351562 400.453125 400.222656 398.53125 C 400.203125 398.214844 400.433594 397.949219 400.75 397.929688 C 400.761719 397.921875 400.773438 397.921875 400.78125 397.921875 C 401.09375 397.921875 401.339844 398.152344 401.367188 398.453125 C 401.484375 400.300781 401.523438 402.246094 401.464844 404.398438 L 401.460938 404.609375 L 401.90625 404.589844 C 402.074219 404.589844 402.238281 404.585938 402.398438 404.574219 C 402.460938 404.566406 402.546875 404.578125 402.648438 404.617188 L 402.914062 404.726562 L 402.953125 400.867188 C 402.972656 399.335938 402.976562 397.792969 402.988281 396.257812 L 402.996094 395.632812 L 402.757812 395.679688 C 402.386719 395.734375 402.019531 395.789062 401.660156 395.847656 L 401.296875 395.902344 C 400.464844 396.027344 399.648438 396.152344 398.765625 396.300781 L 396.519531 396.722656 L 396.425781 398.886719 " fill-opacity="1" fill-rule="nonzero"/><g clip-path="url(#93a566005a)"><path fill="#00ae8c" d="M 542.648438 371.148438 C 542.167969 371.023438 541.464844 370.917969 541.066406 370.855469 C 540.59375 370.785156 540.179688 370.726562 539.847656 370.632812 C 539.449219 370.53125 539.007812 370.363281 538.535156 370.203125 C 537.789062 369.921875 536.925781 369.617188 536.398438 369.617188 C 536.246094 369.617188 536.117188 369.597656 535.988281 369.566406 L 477.226562 353.199219 C 478.539062 355.777344 479.804688 358.410156 480.941406 361.066406 C 493.292969 363.796875 505.957031 366.644531 518.894531 369.871094 C 525.078125 371.421875 530.539062 372.464844 536.335938 373.585938 C 538.320312 373.964844 540.371094 374.355469 542.503906 374.785156 C 542.503906 374.765625 542.523438 374.730469 542.523438 374.710938 C 542.566406 374.445312 542.503906 374.078125 542.441406 373.679688 C 542.398438 373.429688 542.367188 373.175781 542.347656 372.925781 C 542.289062 372.292969 542.472656 371.699219 542.636719 371.179688 C 542.636719 371.167969 542.636719 371.152344 542.648438 371.148438 " fill-opacity="1" fill-rule="nonzero"/></g><path fill="#00ae8c" d="M 497.898438 401.046875 C 496.820312 401.058594 495.746094 401.058594 494.65625 401.058594 L 494.464844 401.058594 L 494.382812 403.613281 L 500.570312 403.660156 C 500.589844 403.660156 500.613281 403.664062 500.640625 403.671875 L 500.925781 403.734375 L 500.9375 403.503906 C 500.980469 402.675781 501.050781 401.921875 501.148438 401.261719 L 501.1875 401.035156 L 500.949219 401.035156 C 499.9375 401.035156 498.910156 401.035156 497.898438 401.046875 " fill-opacity="1" fill-rule="nonzero"/><path fill="#00ae8c" d="M 494.175781 410.4375 L 494.066406 414.195312 L 500.707031 414.523438 L 500.78125 410.132812 L 500.484375 410.4375 L 494.175781 410.4375 " fill-opacity="1" fill-rule="nonzero"/><path fill="#00ae8c" d="M 498.109375 407.675781 C 498.15625 407.347656 498.171875 407.015625 498.140625 406.679688 C 498.109375 406.371094 498.339844 406.097656 498.65625 406.066406 C 498.675781 406.066406 498.691406 406.066406 498.710938 406.066406 C 498.84375 406.066406 498.964844 406.109375 499.070312 406.195312 C 499.191406 406.296875 499.257812 406.433594 499.265625 406.582031 C 499.308594 407 499.296875 407.421875 499.238281 407.84375 C 499.191406 408.125 498.953125 408.324219 498.675781 408.324219 L 498.585938 408.328125 C 498.269531 408.273438 498.058594 407.988281 498.109375 407.675781 Z M 495.371094 407.613281 L 495.390625 406.550781 C 495.394531 406.238281 495.707031 406.007812 495.976562 405.996094 C 496.128906 405.996094 496.273438 406.058594 496.371094 406.171875 C 496.480469 406.28125 496.535156 406.433594 496.527344 406.582031 L 496.507812 407.640625 C 496.503906 407.945312 496.25 408.191406 495.917969 408.191406 C 495.777344 408.191406 495.640625 408.128906 495.53125 408.023438 C 495.425781 407.917969 495.367188 407.761719 495.371094 407.613281 Z M 500.570312 404.796875 L 494.351562 404.753906 L 494.207031 409.300781 L 500.519531 409.300781 L 500.800781 409.429688 L 500.875 404.777344 L 500.675781 404.777344 C 500.621094 404.777344 500.582031 404.789062 500.570312 404.796875 " fill-opacity="1" fill-rule="nonzero"/><path fill="#00ae8c" d="M 500.085938 399.90625 L 500.117188 394.800781 L 496.398438 394.800781 L 496.621094 399.90625 L 500.085938 399.90625 " fill-opacity="1" fill-rule="nonzero"/><path fill="#00ae8c" d="M 502.582031 391.121094 L 502.792969 391.125 L 502.3125 377.554688 L 502.121094 377.558594 C 498.308594 377.632812 494.46875 378.585938 491.917969 379.296875 L 491.777344 379.339844 L 491.71875 391.1875 L 491.925781 391.179688 C 495.75 391.082031 499.234375 391.0625 502.582031 391.121094 " fill-opacity="1" fill-rule="nonzero"/><path fill="#00ae8c" d="M 495.257812 394.800781 L 491.714844 394.800781 L 491.6875 400.042969 C 491.683594 402.738281 491.703125 405.472656 491.71875 408.125 L 491.71875 408.316406 C 491.734375 410.175781 491.746094 412.042969 491.746094 413.894531 L 491.746094 414.089844 L 492.925781 414.132812 L 493.335938 400.46875 C 493.351562 400.164062 493.597656 399.914062 493.910156 399.914062 L 495.484375 399.914062 L 495.257812 394.800781 " fill-opacity="1" fill-rule="nonzero"/><path fill="#00ae8c" d="M 502.855469 393.664062 L 502.855469 393.300781 C 502.859375 393.191406 502.859375 393.070312 502.855469 392.964844 L 502.824219 392.25 L 502.636719 392.25 L 502.5625 392.257812 C 499.257812 392.203125 495.675781 392.21875 491.914062 392.320312 L 491.726562 392.324219 L 491.707031 393.664062 L 502.855469 393.664062 " fill-opacity="1" fill-rule="nonzero"/><path fill="#00ae8c" d="M 504.464844 407.527344 C 504.464844 410.101562 504.476562 412.398438 504.507812 414.53125 L 504.507812 414.722656 L 506.867188 414.828125 L 506.871094 414.628906 C 506.984375 411.851562 507.070312 409.019531 507.121094 406.222656 L 507.121094 406.015625 L 504.464844 406.015625 L 504.464844 407.527344 " fill-opacity="1" fill-rule="nonzero"/><path fill="#00ae8c" d="M 508.203125 408.894531 L 508.195312 409.09375 C 508.183594 409.796875 508.160156 410.5 508.140625 411.195312 L 508.097656 412.472656 L 508.296875 412.476562 C 508.675781 412.484375 509.0625 412.492188 509.460938 412.492188 C 510.34375 412.492188 511.261719 412.464844 512.207031 412.402344 L 512.394531 412.390625 L 512.394531 408.890625 L 510.640625 408.90625 L 508.203125 408.894531 " fill-opacity="1" fill-rule="nonzero"/><path fill="#00ae8c" d="M 503.363281 399.292969 C 503.363281 399.199219 503.363281 399.105469 503.363281 399.019531 C 503.390625 398.539062 503.394531 398.152344 503.34375 397.800781 C 503.328125 397.632812 503.269531 397.480469 503.222656 397.34375 L 503.203125 397.296875 C 503.152344 397.140625 503.101562 396.976562 503.066406 396.824219 C 502.921875 396.226562 502.886719 395.589844 502.867188 394.992188 L 502.859375 394.800781 L 501.253906 394.800781 L 501.222656 399.894531 L 501.882812 399.894531 C 502.050781 399.894531 502.214844 399.976562 502.324219 400.113281 C 502.4375 400.242188 502.480469 400.417969 502.4375 400.585938 C 502.1875 401.710938 502.046875 403.09375 502.015625 404.808594 L 501.847656 414.585938 L 503.371094 414.660156 L 503.363281 414.449219 C 503.339844 412.378906 503.328125 410.121094 503.328125 407.539062 C 503.3125 404.882812 503.328125 402.195312 503.359375 399.539062 C 503.359375 399.460938 503.359375 399.371094 503.363281 399.292969 " fill-opacity="1" fill-rule="nonzero"/><path fill="#00ae8c" d="M 518.390625 371.863281 C 502.429688 367.886719 486.84375 364.460938 471.785156 361.152344 C 448.699219 356.078125 425.257812 351.238281 402.09375 346.765625 L 388.9375 356.257812 C 388.210938 356.792969 387.421875 357.300781 386.625 357.835938 C 384.695312 359.105469 382.695312 360.425781 381.324219 362.023438 C 379.355469 364.304688 377.121094 365.84375 374.96875 367.328125 C 369.882812 370.824219 364.789062 374.457031 359.785156 378.136719 C 359.835938 378.136719 359.886719 378.136719 359.9375 378.136719 C 360.109375 378.144531 360.296875 378.144531 360.484375 378.15625 L 392.703125 379.898438 C 393.472656 379.941406 394.25 379.980469 395.023438 380.023438 L 395.058594 377.542969 C 395.070312 377.238281 395.207031 376.949219 395.449219 376.75 C 396.761719 375.695312 398.878906 374.375 401.445312 374.066406 C 403.65625 373.808594 405.875 374.171875 407.882812 375.109375 C 408.246094 375.289062 408.480469 375.65625 408.46875 376.054688 C 408.449219 377.839844 408.4375 379.707031 408.449219 381.703125 C 408.460938 381.703125 408.46875 381.695312 408.480469 381.695312 L 417.964844 381.695312 C 418.023438 379.394531 417.996094 377.101562 417.941406 374.722656 C 417.910156 373.164062 417.886719 371.609375 417.886719 370.039062 C 417.886719 369.777344 417.972656 369.535156 418.148438 369.351562 C 421.75 365.363281 427.332031 363.324219 432.390625 364.144531 C 433.546875 364.335938 434.730469 364.59375 435.75 364.828125 C 436.253906 364.941406 436.59375 365.414062 436.539062 365.933594 C 436.160156 369.628906 436.183594 373.683594 436.238281 376.8125 L 436.296875 379.328125 C 436.316406 380.277344 436.378906 381.222656 436.425781 382.175781 L 447.007812 383.089844 C 447.683594 383.152344 448.304688 383.308594 448.902344 383.457031 C 449.5625 383.625 450.171875 383.785156 450.695312 383.753906 L 450.992188 383.742188 C 452.144531 383.679688 453.21875 383.628906 454.46875 383.742188 L 458.425781 384.085938 C 458.738281 382.929688 459.699219 382.027344 460.683594 381.601562 C 461.835938 381.113281 463.054688 381.085938 464.117188 381.082031 C 465.808594 381.0625 467.542969 381.035156 469.292969 381.203125 C 469.355469 381.210938 469.449219 381.210938 469.539062 381.222656 C 470.3125 381.253906 471.738281 381.304688 472.023438 382.484375 C 472.132812 382.914062 471.992188 383.28125 471.898438 383.539062 L 471.867188 383.628906 C 471.847656 383.785156 471.847656 384.042969 471.859375 384.320312 L 471.867188 384.667969 L 471.867188 385.078125 L 489.71875 381.703125 C 489.78125 381.683594 489.847656 381.683594 489.910156 381.683594 L 489.921875 378.699219 C 489.921875 378.25 490.226562 377.851562 490.667969 377.726562 C 494.769531 376.558594 500.105469 375.289062 505.03125 375.820312 C 505.105469 375.820312 505.179688 375.820312 505.25 375.820312 C 505.578125 375.8125 506.082031 375.789062 506.546875 376.105469 C 506.835938 376.308594 507.007812 376.652344 506.988281 377.007812 C 506.929688 378 506.953125 379.039062 506.988281 380.003906 L 511.503906 379.375 C 515.230469 378.855469 518.597656 378.382812 522.03125 377.796875 C 523.875 377.480469 525.699219 377.273438 527.464844 377.082031 C 528.683594 376.949219 529.902344 376.8125 531.136719 376.652344 C 532.449219 376.464844 533.761719 376.273438 535.070312 376.078125 C 535.71875 375.988281 536.359375 375.894531 537.007812 375.800781 C 536.660156 375.726562 536.292969 375.65625 535.941406 375.59375 C 530.128906 374.476562 524.636719 373.417969 518.390625 371.863281 " fill-opacity="1" fill-rule="nonzero"/><path fill="#00ae8c" d="M 508.234375 407.757812 L 509.203125 407.769531 L 512.394531 407.746094 L 512.394531 405.503906 L 508.269531 405.503906 L 508.234375 407.757812 " fill-opacity="1" fill-rule="nonzero"/><path fill="#00ae8c" d="M 504.507812 399.0625 L 504.507812 399.074219 C 504.507812 399.15625 504.503906 399.234375 504.503906 399.3125 C 504.496094 399.398438 504.496094 399.472656 504.496094 399.554688 C 504.476562 401.261719 504.476562 402.96875 504.476562 404.679688 L 504.476562 404.878906 L 506.425781 404.878906 L 506.300781 404.597656 C 506.039062 403.992188 506.050781 403.140625 506.101562 401.910156 L 506.105469 401.792969 C 506.121094 401.648438 506.125 401.523438 506.125 401.4375 C 506.0625 400.105469 506.136719 398.769531 506.207031 397.582031 L 506.21875 397.277344 C 506.289062 395.957031 506.355469 394.714844 506.257812 393.464844 C 506.210938 393.011719 506.089844 392.507812 505.980469 392.113281 C 505.851562 391.566406 505.738281 391.105469 505.671875 390.578125 C 505.609375 390.097656 505.449219 387.773438 505.335938 385.796875 C 505.203125 383.667969 505.128906 382.324219 505.230469 381.464844 C 505.128906 380.167969 505.09375 378.953125 505.113281 377.863281 L 505.113281 377.660156 L 504.839844 377.660156 C 504.472656 377.621094 504.089844 377.605469 503.667969 377.578125 L 503.449219 377.566406 L 503.992188 392.921875 C 504.003906 393.285156 504.003906 393.664062 504.003906 394.035156 C 503.992188 394.9375 504 395.808594 504.171875 396.554688 C 504.203125 396.667969 504.234375 396.765625 504.273438 396.867188 L 504.320312 397.023438 C 504.382812 397.226562 504.441406 397.414062 504.464844 397.625 C 504.546875 398.117188 504.527344 398.59375 504.507812 399.0625 " fill-opacity="1" fill-rule="nonzero"/><path fill="#00ae8c" d="M 508.246094 413.617188 L 508.046875 413.609375 L 508.003906 414.898438 L 512.183594 415.101562 L 512.394531 414.890625 L 512.394531 413.542969 L 512.191406 413.554688 C 510.765625 413.632812 509.535156 413.648438 508.246094 413.617188 " fill-opacity="1" fill-rule="nonzero"/><path fill="#00ae8c" d="M 474.117188 395.902344 L 473.945312 395.921875 L 473.945312 398.128906 L 476.085938 398.183594 C 476.160156 398.183594 476.246094 398.210938 476.339844 398.265625 L 476.40625 398.308594 L 476.574219 398.265625 L 481.363281 398.285156 L 481.363281 395.335938 L 481.160156 395.347656 C 478.796875 395.429688 476.488281 395.617188 474.117188 395.902344 " fill-opacity="1" fill-rule="nonzero"/><path fill="#00ae8c" d="M 476.769531 406.742188 L 476.5625 406.738281 L 476.558594 406.941406 C 476.539062 409.007812 476.519531 411.066406 476.507812 413.125 L 476.507812 413.316406 L 481.183594 413.554688 L 481.246094 413.492188 C 481.277344 413.460938 481.296875 413.429688 481.300781 413.40625 L 481.332031 413.375 L 481.347656 406.980469 L 481.109375 406.980469 C 479.808594 406.878906 478.386719 406.804688 476.769531 406.742188 " fill-opacity="1" fill-rule="nonzero"/><path fill="#00ae8c" d="M 468.296875 397.269531 L 468.296875 397.476562 C 468.316406 402.730469 468.285156 407.914062 468.191406 412.875 L 468.191406 413.082031 L 470.007812 413.082031 L 470.058594 411.894531 C 470.121094 410.152344 470.167969 408.433594 470.164062 406.5625 L 470.09375 397.269531 L 468.296875 397.269531 " fill-opacity="1" fill-rule="nonzero"/><path fill="#00ae8c" d="M 473.957031 399.472656 C 473.957031 403.765625 473.996094 408.316406 474.070312 413.007812 L 474.070312 413.191406 L 475.367188 413.269531 L 475.4375 405.792969 C 475.457031 403.695312 475.472656 401.597656 475.480469 399.503906 L 475.480469 399.3125 L 473.957031 399.265625 L 473.957031 399.472656 " fill-opacity="1" fill-rule="nonzero"/><path fill="#00ae8c" d="M 467.160156 397.269531 L 461.136719 397.269531 L 461.179688 400.902344 L 467.160156 400.902344 L 467.160156 399.628906 C 467.164062 398.90625 467.164062 398.191406 467.160156 397.46875 L 467.160156 397.269531 " fill-opacity="1" fill-rule="nonzero"/><path fill="#00ae8c" d="M 464.285156 404.175781 C 464.265625 404.019531 464.308594 403.871094 464.402344 403.75 C 464.496094 403.628906 464.628906 403.550781 464.777344 403.535156 C 464.800781 403.535156 464.828125 403.527344 464.851562 403.527344 C 464.976562 403.527344 465.101562 403.570312 465.199219 403.652344 C 465.324219 403.746094 465.398438 403.882812 465.417969 404.039062 C 465.492188 404.714844 465.527344 405.335938 465.515625 405.933594 C 465.511719 406.246094 465.253906 406.5 464.933594 406.5 C 464.78125 406.496094 464.640625 406.433594 464.535156 406.328125 C 464.429688 406.214844 464.371094 406.070312 464.378906 405.921875 C 464.390625 405.335938 464.359375 404.746094 464.285156 404.175781 Z M 463.203125 406.351562 C 463.222656 406.5 463.179688 406.644531 463.085938 406.761719 C 462.992188 406.886719 462.855469 406.960938 462.722656 406.980469 L 462.628906 406.980469 C 462.34375 406.980469 462.101562 406.761719 462.070312 406.480469 C 461.976562 405.703125 461.957031 404.914062 462.007812 404.132812 C 462.019531 403.964844 462.109375 403.800781 462.234375 403.703125 C 462.308594 403.640625 462.4375 403.570312 462.617188 403.597656 C 462.765625 403.609375 462.910156 403.675781 463.011719 403.789062 C 463.109375 403.90625 463.160156 404.050781 463.148438 404.207031 C 463.101562 404.957031 463.121094 405.679688 463.203125 406.351562 Z M 461.269531 409.511719 L 467.101562 409.535156 L 467.109375 408.8125 C 467.128906 406.625 467.144531 404.4375 467.160156 402.238281 L 467.160156 402.042969 L 461.1875 402.042969 L 461.269531 409.511719 " fill-opacity="1" fill-rule="nonzero"/><path fill="#00ae8c" d="M 487.359375 406.675781 L 487.355469 406.507812 L 487.1875 406.488281 C 486.285156 406.402344 485.339844 406.550781 484.335938 406.710938 L 484.238281 406.730469 C 483.671875 406.816406 483.15625 406.886719 482.664062 406.929688 L 482.484375 406.949219 L 482.476562 413.609375 L 487.738281 413.878906 L 487.734375 413.664062 C 487.660156 411.246094 487.503906 408.789062 487.359375 406.675781 " fill-opacity="1" fill-rule="nonzero"/><path fill="#00ae8c" d="M 486.707031 395.546875 L 486.699219 395.367188 L 486.519531 395.355469 C 485.269531 395.292969 483.945312 395.292969 482.703125 395.304688 L 482.507812 395.304688 L 482.507812 398.285156 L 486.851562 398.308594 L 486.839844 398.097656 C 486.789062 397.246094 486.738281 396.386719 486.707031 395.546875 " fill-opacity="1" fill-rule="nonzero"/><path fill="#00ae8c" d="M 461.304688 413.082031 L 467.046875 413.082031 L 467.054688 412.886719 C 467.066406 412.453125 467.070312 412.019531 467.078125 411.574219 L 467.089844 410.675781 L 461.28125 410.648438 L 461.304688 413.082031 " fill-opacity="1" fill-rule="nonzero"/><path fill="#00ae8c" d="M 482.496094 405.828125 L 482.71875 405.796875 C 483.101562 405.753906 483.492188 405.691406 483.894531 405.628906 L 484.058594 405.605469 C 485.066406 405.4375 486.054688 405.289062 487.0625 405.335938 L 487.292969 405.351562 L 487.273438 405.121094 C 487.261719 405.015625 487.253906 404.910156 487.25 404.800781 C 487.234375 404.683594 487.230469 404.566406 487.21875 404.449219 L 487.128906 403.085938 C 487.054688 401.941406 486.980469 400.785156 486.914062 399.632812 L 486.898438 399.449219 L 482.496094 399.421875 L 482.496094 405.828125 " fill-opacity="1" fill-rule="nonzero"/><path fill="#00ae8c" d="M 476.617188 399.601562 C 476.613281 401.425781 476.59375 403.253906 476.574219 405.070312 L 476.570312 405.597656 L 476.761719 405.605469 C 478.390625 405.660156 479.820312 405.742188 481.140625 405.839844 L 481.359375 405.859375 L 481.359375 399.429688 L 476.625 399.402344 L 476.617188 399.601562 " fill-opacity="1" fill-rule="nonzero"/></svg>