<svg xmlns="http://www.w3.org/2000/svg" xmlns:xlink="http://www.w3.org/1999/xlink" width="1200" zoomAndPan="magnify" viewBox="0 0 900 749.999995" height="1000" preserveAspectRatio="xMidYMid meet" version="1.0"><defs><clipPath id="69631ee661"><path d="M 391 314 L 509 314 L 509 478.800781 L 391 478.800781 Z M 391 314 " clip-rule="nonzero"/></clipPath><clipPath id="ece60b9e16"><path d="M 347.480469 271.050781 L 552.230469 271.050781 L 552.230469 449 L 347.480469 449 Z M 347.480469 271.050781 " clip-rule="nonzero"/></clipPath><clipPath id="1055977a4a"><path d="M 397 320 L 503 320 L 503 468.664062 L 397 468.664062 Z M 397 320 " clip-rule="nonzero"/></clipPath><clipPath id="c357301cf5"><path d="M 358 281.164062 L 542.292969 281.164062 L 542.292969 442 L 358 442 Z M 358 281.164062 " clip-rule="nonzero"/></clipPath><clipPath id="6659acc3af"><path d="M 411.417969 359 L 438 359 L 438 398 L 411.417969 398 Z M 411.417969 359 " clip-rule="nonzero"/></clipPath><clipPath id="932b0bebf8"><path d="M 467 364 L 488.667969 364 L 488.667969 387 L 467 387 Z M 467 364 " clip-rule="nonzero"/></clipPath><clipPath id="d14a1cf990"><path d="M 447 381 L 487 381 L 487 408.660156 L 447 408.660156 Z M 447 381 " clip-rule="nonzero"/></clipPath><clipPath id="1df4d43677"><path d="M 427 335.160156 L 450 335.160156 L 450 358 L 427 358 Z M 427 335.160156 " clip-rule="nonzero"/></clipPath><clipPath id="ee8d36fbeb"><path d="M 442 335.160156 L 478 335.160156 L 478 364 L 442 364 Z M 442 335.160156 " clip-rule="nonzero"/></clipPath></defs><rect x="-90" width="1080" fill="#ffffff" y="-74.999999" height="899.999994" fill-opacity="1"/><rect x="-90" width="1080" fill="#ffffff" y="-74.999999" height="899.999994" fill-opacity="1"/><g clip-path="url(#69631ee661)"><path fill="#9b4dca" d="M 487.003906 327.769531 C 473.464844 316.617188 455.679688 312.230469 438.140625 315.578125 C 414.796875 320.125 396.351562 338.976562 392.269531 362.480469 C 389.03125 381.125 394.558594 399.59375 407.457031 413.144531 C 412.972656 418.941406 416.003906 426.042969 416.003906 433.125 L 416.003906 436.25 C 416.003906 439.257812 418.4375 441.679688 421.433594 441.679688 L 478.230469 441.679688 C 481.238281 441.679688 483.660156 439.257812 483.660156 436.25 L 483.660156 433.125 C 483.660156 426.03125 486.6875 418.941406 492.191406 413.167969 C 502.582031 402.277344 508.304688 387.964844 508.304688 372.917969 C 508.304688 355.390625 500.542969 338.941406 487.003906 327.769531 M 470 468.226562 L 429.671875 468.226562 C 426.664062 468.226562 424.246094 470.648438 424.246094 473.65625 C 424.246094 476.652344 426.664062 479.085938 429.671875 479.085938 L 470 479.085938 C 472.996094 479.085938 475.429688 476.652344 475.429688 473.65625 C 475.429688 470.648438 472.996094 468.226562 470 468.226562 M 475.742188 450.160156 L 423.929688 450.160156 C 420.933594 450.160156 418.5 452.582031 418.5 455.589844 C 418.5 458.585938 420.933594 461.015625 423.929688 461.015625 L 475.742188 461.015625 C 478.738281 461.015625 481.171875 458.585938 481.171875 455.589844 C 481.171875 452.582031 478.738281 450.160156 475.742188 450.160156 " fill-opacity="1" fill-rule="evenodd"/></g><g clip-path="url(#ece60b9e16)"><path fill="#9b4dca" d="M 504.835938 323.742188 C 506.222656 323.742188 507.613281 323.210938 508.679688 322.15625 L 523.890625 306.933594 C 526.007812 304.816406 526.007812 301.375 523.890625 299.257812 C 521.773438 297.140625 518.332031 297.140625 516.214844 299.257812 L 500.992188 314.472656 C 498.875 316.597656 498.875 320.03125 500.992188 322.15625 C 502.054688 323.210938 503.445312 323.742188 504.835938 323.742188 Z M 391.332031 424.132812 L 376.140625 439.332031 C 374.023438 441.449219 374.023438 444.890625 376.140625 447.007812 C 377.203125 448.074219 378.582031 448.605469 379.972656 448.605469 C 381.363281 448.605469 382.753906 448.074219 383.816406 447.007812 L 399.007812 431.808594 C 401.136719 429.679688 401.136719 426.25 399.007812 424.132812 C 396.890625 422.003906 393.457031 422.003906 391.332031 424.132812 Z M 391.339844 322.15625 C 392.40625 323.210938 393.796875 323.742188 395.183594 323.742188 C 396.574219 323.742188 397.964844 323.210938 399.019531 322.15625 C 401.144531 320.03125 401.144531 316.597656 399.019531 314.472656 L 383.816406 299.257812 C 381.699219 297.140625 378.257812 297.140625 376.140625 299.257812 C 374.023438 301.375 374.023438 304.816406 376.140625 306.933594 Z M 505.792969 421.246094 C 503.675781 419.117188 500.246094 419.117188 498.117188 421.246094 C 496 423.363281 496 426.792969 498.117188 428.921875 L 513.316406 444.113281 C 514.382812 445.175781 515.761719 445.710938 517.152344 445.710938 C 518.539062 445.710938 519.929688 445.175781 520.996094 444.113281 C 523.113281 441.996094 523.113281 438.554688 520.996094 436.4375 Z M 450.011719 303.40625 C 453.015625 303.40625 455.4375 300.972656 455.4375 297.976562 L 455.4375 276.480469 C 455.4375 273.484375 453.015625 271.050781 450.011719 271.050781 C 447.011719 271.050781 444.582031 273.484375 444.582031 276.480469 L 444.582031 297.976562 C 444.582031 300.972656 447.011719 303.40625 450.011719 303.40625 Z M 380.363281 373.140625 C 380.363281 370.132812 377.933594 367.710938 374.933594 367.710938 L 353.359375 367.710938 C 350.363281 367.710938 347.933594 370.132812 347.933594 373.140625 C 347.933594 376.136719 350.363281 378.566406 353.359375 378.566406 L 374.933594 378.566406 C 377.933594 378.566406 380.363281 376.136719 380.363281 373.140625 Z M 546.660156 367.710938 L 525.484375 367.710938 C 522.488281 367.710938 520.058594 370.132812 520.058594 373.140625 C 520.058594 376.136719 522.488281 378.566406 525.484375 378.566406 L 546.660156 378.566406 C 549.65625 378.566406 552.085938 376.136719 552.085938 373.140625 C 552.085938 370.132812 549.65625 367.710938 546.660156 367.710938 Z M 546.660156 367.710938 " fill-opacity="1" fill-rule="evenodd"/></g><g clip-path="url(#1055977a4a)"><path fill="#00ae8c" d="M 483.511719 332.273438 C 471.3125 322.226562 455.289062 318.273438 439.488281 321.285156 C 418.453125 325.386719 401.828125 342.371094 398.152344 363.550781 C 395.234375 380.351562 400.214844 396.992188 411.839844 409.203125 C 416.808594 414.425781 419.539062 420.824219 419.539062 427.203125 L 419.539062 430.023438 C 419.539062 432.730469 421.730469 434.914062 424.429688 434.914062 L 475.609375 434.914062 C 478.316406 434.914062 480.5 432.730469 480.5 430.023438 L 480.5 427.203125 C 480.5 420.816406 483.230469 414.425781 488.191406 409.222656 C 497.550781 399.410156 502.707031 386.515625 502.707031 372.953125 C 502.707031 357.164062 495.714844 342.339844 483.511719 332.273438 M 468.191406 458.835938 L 431.855469 458.835938 C 429.144531 458.835938 426.964844 461.015625 426.964844 463.726562 C 426.964844 466.425781 429.144531 468.617188 431.855469 468.617188 L 468.191406 468.617188 C 470.890625 468.617188 473.082031 466.425781 473.082031 463.726562 C 473.082031 461.015625 470.890625 458.835938 468.191406 458.835938 M 473.367188 442.554688 L 426.679688 442.554688 C 423.980469 442.554688 421.789062 444.734375 421.789062 447.445312 C 421.789062 450.148438 423.980469 452.339844 426.679688 452.339844 L 473.367188 452.339844 C 476.066406 452.339844 478.257812 450.148438 478.257812 447.445312 C 478.257812 444.734375 476.066406 442.554688 473.367188 442.554688 " fill-opacity="1" fill-rule="evenodd"/></g><g clip-path="url(#c357301cf5)"><path fill="#00ae8c" d="M 499.582031 328.644531 C 500.832031 328.644531 502.085938 328.164062 503.042969 327.214844 L 516.75 313.5 C 518.660156 311.59375 518.660156 308.492188 516.75 306.582031 C 514.84375 304.675781 511.742188 304.675781 509.835938 306.582031 L 496.117188 320.289062 C 494.210938 322.207031 494.210938 325.300781 496.117188 327.214844 C 497.078125 328.164062 498.328125 328.644531 499.582031 328.644531 Z M 397.304688 419.101562 L 383.617188 432.796875 C 381.710938 434.707031 381.710938 437.808594 383.617188 439.714844 C 384.578125 440.675781 385.820312 441.152344 387.070312 441.152344 C 388.324219 441.152344 389.578125 440.675781 390.535156 439.714844 L 404.222656 426.019531 C 406.140625 424.101562 406.140625 421.007812 404.222656 419.101562 C 402.316406 417.183594 399.222656 417.183594 397.304688 419.101562 Z M 397.316406 327.214844 C 398.273438 328.164062 399.527344 328.644531 400.777344 328.644531 C 402.03125 328.644531 403.285156 328.164062 404.234375 327.214844 C 406.148438 325.300781 406.148438 322.207031 404.234375 320.289062 L 390.535156 306.582031 C 388.628906 304.675781 385.527344 304.675781 383.617188 306.582031 C 381.710938 308.492188 381.710938 311.59375 383.617188 313.5 Z M 500.445312 416.503906 C 498.539062 414.585938 495.445312 414.585938 493.527344 416.503906 C 491.621094 418.410156 491.621094 421.5 493.527344 423.417969 L 507.226562 437.105469 C 508.183594 438.066406 509.425781 438.542969 510.679688 438.542969 C 511.929688 438.542969 513.183594 438.066406 514.140625 437.105469 C 516.050781 435.199219 516.050781 432.097656 514.140625 430.191406 Z M 450.179688 310.320312 C 452.890625 310.320312 455.070312 308.128906 455.070312 305.429688 L 455.070312 286.058594 C 455.070312 283.355469 452.890625 281.164062 450.179688 281.164062 C 447.480469 281.164062 445.289062 283.355469 445.289062 286.058594 L 445.289062 305.429688 C 445.289062 308.128906 447.480469 310.320312 450.179688 310.320312 Z M 387.425781 373.152344 C 387.425781 370.445312 385.234375 368.261719 382.53125 368.261719 L 363.09375 368.261719 C 360.390625 368.261719 358.199219 370.445312 358.199219 373.152344 C 358.199219 375.855469 360.390625 378.046875 363.09375 378.046875 L 382.53125 378.046875 C 385.234375 378.046875 387.425781 375.855469 387.425781 373.152344 Z M 537.265625 368.261719 L 518.1875 368.261719 C 515.488281 368.261719 513.296875 370.445312 513.296875 373.152344 C 513.296875 375.855469 515.488281 378.046875 518.1875 378.046875 L 537.265625 378.046875 C 539.96875 378.046875 542.160156 375.855469 542.160156 373.152344 C 542.160156 370.445312 539.96875 368.261719 537.265625 368.261719 Z M 537.265625 368.261719 " fill-opacity="1" fill-rule="evenodd"/></g><path fill="#00ae8c" d="M 440.960938 386.972656 L 426.132812 387.015625 C 423.058594 391.082031 421.023438 395.316406 423.003906 399.011719 C 425.203125 403.105469 427.824219 404.054688 431.777344 404.035156 L 440.960938 403.992188 Z M 440.960938 386.972656 " fill-opacity="1" fill-rule="evenodd"/><g clip-path="url(#6659acc3af)"><path fill="#9b4dca" d="M 421.546875 397.933594 C 418.75 393.089844 415.953125 388.25 413.15625 383.40625 C 411.914062 381.253906 411.445312 379.574219 411.882812 377.140625 C 412.75 372.359375 416.304688 367.042969 418.671875 362.996094 L 415.191406 360.871094 L 431.9375 359.148438 L 438 374.808594 L 433.027344 371.769531 L 423.0625 387.863281 C 421.34375 390.640625 420.195312 394.644531 421.546875 397.933594 Z M 421.546875 397.933594 " fill-opacity="1" fill-rule="evenodd"/></g><g clip-path="url(#932b0bebf8)"><path fill="#00ae8c" d="M 467.042969 373.113281 L 474.492188 385.933594 C 479.550781 386.5625 484.238281 386.210938 486.445312 382.644531 C 488.894531 378.695312 488.402344 375.949219 486.410156 372.535156 L 481.785156 364.605469 Z M 467.042969 373.113281 " fill-opacity="1" fill-rule="evenodd"/></g><g clip-path="url(#d14a1cf990)"><path fill="#9b4dca" d="M 486.246094 384.445312 C 483.449219 389.289062 480.652344 394.132812 477.855469 398.976562 C 476.613281 401.125 475.394531 402.375 473.066406 403.210938 C 468.492188 404.855469 462.113281 404.429688 457.425781 404.40625 L 457.324219 408.484375 L 447.457031 394.839844 L 457.992188 381.761719 L 457.84375 387.585938 L 476.761719 388.167969 C 480.027344 388.269531 484.070312 387.261719 486.246094 384.445312 Z M 486.246094 384.445312 " fill-opacity="1" fill-rule="evenodd"/></g><g clip-path="url(#1df4d43677)"><path fill="#00ae8c" d="M 442 357.453125 L 449.378906 344.59375 C 447.394531 339.898438 444.742188 336.015625 440.554688 335.886719 C 435.910156 335.742188 433.777344 337.539062 431.8125 340.972656 L 427.257812 348.945312 Z M 442 357.453125 " fill-opacity="1" fill-rule="evenodd"/></g><g clip-path="url(#ee8d36fbeb)"><path fill="#9b4dca" d="M 442.214844 335.160156 C 447.804688 335.160156 453.398438 335.160156 458.992188 335.160156 C 461.472656 335.160156 463.167969 335.59375 465.054688 337.191406 C 468.761719 340.328125 471.585938 346.070312 473.90625 350.140625 L 477.492188 348.1875 L 470.609375 363.554688 L 454.015625 360.972656 L 459.132812 358.183594 L 450.179688 341.507812 C 448.632812 338.632812 445.738281 335.636719 442.214844 335.160156 Z M 442.214844 335.160156 " fill-opacity="1" fill-rule="evenodd"/></g></svg>