<svg xmlns="http://www.w3.org/2000/svg" xmlns:xlink="http://www.w3.org/1999/xlink" width="1200" zoomAndPan="magnify" viewBox="0 0 900 749.999995" height="1000" preserveAspectRatio="xMidYMid meet" version="1.0"><defs><clipPath id="43543e8d95"><path d="M 360 282 L 540 282 L 540 534.445312 L 360 534.445312 Z M 360 282 " clip-rule="nonzero"/></clipPath><clipPath id="84bd34d011"><path d="M 293 215.695312 L 607 215.695312 L 607 488 L 293 488 Z M 293 215.695312 " clip-rule="nonzero"/></clipPath><clipPath id="680bc9d8e8"><path d="M 369 291 L 531 291 L 531 518.445312 L 369 518.445312 Z M 369 291 " clip-rule="nonzero"/></clipPath><clipPath id="6ad782c022"><path d="M 309 231.195312 L 592 231.195312 L 592 477 L 309 477 Z M 309 231.195312 " clip-rule="nonzero"/></clipPath><clipPath id="a10a80e018"><path d="M 446 385 L 506 385 L 506 426.445312 L 446 426.445312 Z M 446 385 " clip-rule="nonzero"/></clipPath><clipPath id="3945bfe676"><path d="M 438 313.945312 L 493 313.945312 L 493 358 L 438 358 Z M 438 313.945312 " clip-rule="nonzero"/></clipPath></defs><rect x="-90" width="1080" fill="#ffffff" y="-74.999999" height="899.999994" fill-opacity="1"/><rect x="-90" width="1080" fill="#ffffff" y="-74.999999" height="899.999994" fill-opacity="1"/><g clip-path="url(#43543e8d95)"><path fill="#9b4dca" d="M 506.714844 302.621094 C 485.964844 285.53125 458.707031 278.808594 431.832031 283.933594 C 396.054688 290.90625 367.785156 319.792969 361.527344 355.820312 C 356.566406 384.394531 365.039062 412.699219 384.808594 433.464844 C 393.261719 442.351562 397.902344 453.234375 397.902344 464.085938 L 397.902344 468.875 C 397.902344 473.484375 401.628906 477.195312 406.222656 477.195312 L 493.269531 477.195312 C 497.878906 477.195312 501.589844 473.484375 501.589844 468.875 L 501.589844 464.085938 C 501.589844 453.21875 506.230469 442.351562 514.667969 433.5 C 530.59375 416.808594 539.363281 394.875 539.363281 371.8125 C 539.363281 344.953125 527.464844 319.746094 506.714844 302.621094 M 480.65625 517.882812 L 418.851562 517.882812 C 414.242188 517.882812 410.53125 521.59375 410.53125 526.203125 C 410.53125 530.796875 414.242188 534.523438 418.851562 534.523438 L 480.65625 534.523438 C 485.25 534.523438 488.976562 530.796875 488.976562 526.203125 C 488.976562 521.59375 485.25 517.882812 480.65625 517.882812 M 489.457031 490.191406 L 410.050781 490.191406 C 405.457031 490.191406 401.730469 493.902344 401.730469 498.511719 C 401.730469 503.105469 405.457031 506.832031 410.050781 506.832031 L 489.457031 506.832031 C 494.050781 506.832031 497.777344 503.105469 497.777344 498.511719 C 497.777344 493.902344 494.050781 490.191406 489.457031 490.191406 " fill-opacity="1" fill-rule="evenodd"/></g><g clip-path="url(#84bd34d011)"><path fill="#9b4dca" d="M 534.042969 296.449219 C 536.171875 296.449219 538.304688 295.636719 539.933594 294.019531 L 563.246094 270.691406 C 566.492188 267.445312 566.492188 262.171875 563.246094 258.925781 C 560.003906 255.679688 554.726562 255.679688 551.484375 258.925781 L 528.152344 282.238281 C 524.90625 285.5 524.90625 290.757812 528.152344 294.019531 C 529.785156 295.636719 531.914062 296.449219 534.042969 296.449219 Z M 360.089844 450.300781 L 336.808594 473.597656 C 333.566406 476.84375 333.566406 482.121094 336.808594 485.363281 C 338.441406 486.996094 340.554688 487.808594 342.683594 487.808594 C 344.8125 487.808594 346.945312 486.996094 348.574219 485.363281 L 371.855469 462.066406 C 375.117188 458.804688 375.117188 453.546875 371.855469 450.300781 C 368.609375 447.042969 363.351562 447.042969 360.089844 450.300781 Z M 360.105469 294.019531 C 361.738281 295.636719 363.867188 296.449219 365.996094 296.449219 C 368.128906 296.449219 370.257812 295.636719 371.871094 294.019531 C 375.132812 290.757812 375.132812 285.5 371.871094 282.238281 L 348.574219 258.925781 C 345.328125 255.679688 340.054688 255.679688 336.808594 258.925781 C 333.566406 262.171875 333.566406 267.445312 336.808594 270.691406 Z M 535.511719 445.882812 C 532.269531 442.621094 527.011719 442.621094 523.75 445.882812 C 520.503906 449.125 520.503906 454.386719 523.75 457.648438 L 547.046875 480.925781 C 548.675781 482.558594 550.789062 483.371094 552.917969 483.371094 C 555.050781 483.371094 557.179688 482.558594 558.808594 480.925781 C 562.054688 477.683594 562.054688 472.40625 558.808594 469.160156 Z M 450.019531 265.28125 C 454.628906 265.28125 458.339844 261.554688 458.339844 256.960938 L 458.339844 224.015625 C 458.339844 219.421875 454.628906 215.695312 450.019531 215.695312 C 445.425781 215.695312 441.699219 219.421875 441.699219 224.015625 L 441.699219 256.960938 C 441.699219 261.554688 445.425781 265.28125 450.019531 265.28125 Z M 343.28125 372.152344 C 343.28125 367.542969 339.554688 363.832031 334.960938 363.832031 L 301.898438 363.832031 C 297.304688 363.832031 293.578125 367.542969 293.578125 372.152344 C 293.578125 376.746094 297.304688 380.472656 301.898438 380.472656 L 334.960938 380.472656 C 339.554688 380.472656 343.28125 376.746094 343.28125 372.152344 Z M 598.144531 363.832031 L 565.695312 363.832031 C 561.101562 363.832031 557.375 367.542969 557.375 372.152344 C 557.375 376.746094 561.101562 380.472656 565.695312 380.472656 L 598.144531 380.472656 C 602.734375 380.472656 606.460938 376.746094 606.460938 372.152344 C 606.460938 367.542969 602.734375 363.832031 598.144531 363.832031 Z M 598.144531 363.832031 " fill-opacity="1" fill-rule="evenodd"/></g><g clip-path="url(#680bc9d8e8)"><path fill="#00ae8c" d="M 501.355469 309.519531 C 482.660156 294.121094 458.101562 288.0625 433.886719 292.679688 C 401.652344 298.964844 376.175781 324.992188 370.539062 357.453125 C 366.070312 383.195312 373.703125 408.699219 391.515625 427.410156 C 399.132812 435.417969 403.316406 445.222656 403.316406 455 L 403.316406 459.316406 C 403.316406 463.472656 406.671875 466.816406 410.8125 466.816406 L 489.242188 466.816406 C 493.394531 466.816406 496.738281 463.472656 496.738281 459.316406 L 496.738281 455 C 496.738281 445.210938 500.921875 435.417969 508.523438 427.441406 C 522.871094 412.402344 530.773438 392.640625 530.773438 371.859375 C 530.773438 347.660156 520.054688 324.945312 501.355469 309.519531 M 477.878906 503.472656 L 422.191406 503.472656 C 418.039062 503.472656 414.695312 506.816406 414.695312 510.96875 C 414.695312 515.109375 418.039062 518.46875 422.191406 518.46875 L 477.878906 518.46875 C 482.015625 518.46875 485.375 515.109375 485.375 510.96875 C 485.375 506.816406 482.015625 503.472656 477.878906 503.472656 M 485.808594 478.523438 L 414.261719 478.523438 C 410.121094 478.523438 406.761719 481.867188 406.761719 486.019531 C 406.761719 490.160156 410.121094 493.519531 414.261719 493.519531 L 485.808594 493.519531 C 489.945312 493.519531 493.304688 490.160156 493.304688 486.019531 C 493.304688 481.867188 489.945312 478.523438 485.808594 478.523438 " fill-opacity="1" fill-rule="evenodd"/></g><g clip-path="url(#6ad782c022)"><path fill="#00ae8c" d="M 525.980469 303.957031 C 527.898438 303.957031 529.820312 303.222656 531.289062 301.769531 L 552.292969 280.75 C 555.21875 277.824219 555.21875 273.070312 552.292969 270.148438 C 549.371094 267.222656 544.617188 267.222656 541.695312 270.148438 L 520.671875 291.152344 C 517.75 294.09375 517.75 298.832031 520.671875 301.769531 C 522.140625 303.222656 524.0625 303.957031 525.980469 303.957031 Z M 369.246094 442.582031 L 348.269531 463.574219 C 345.34375 466.496094 345.34375 471.25 348.269531 474.171875 C 349.738281 475.644531 351.640625 476.378906 353.5625 476.378906 C 355.480469 476.378906 357.398438 475.644531 358.867188 474.171875 L 379.84375 453.183594 C 382.785156 450.246094 382.785156 445.507812 379.84375 442.582031 C 376.921875 439.644531 372.183594 439.644531 369.246094 442.582031 Z M 369.257812 301.769531 C 370.730469 303.222656 372.648438 303.957031 374.566406 303.957031 C 376.484375 303.957031 378.40625 303.222656 379.859375 301.769531 C 382.796875 298.832031 382.796875 294.09375 379.859375 291.152344 L 358.867188 270.148438 C 355.945312 267.222656 351.191406 267.222656 348.269531 270.148438 C 345.34375 273.070312 345.34375 277.824219 348.269531 280.75 Z M 527.304688 438.597656 C 524.382812 435.660156 519.644531 435.660156 516.703125 438.597656 C 513.78125 441.523438 513.78125 446.261719 516.703125 449.199219 L 537.695312 470.175781 C 539.164062 471.644531 541.070312 472.378906 542.988281 472.378906 C 544.90625 472.378906 546.828125 471.644531 548.296875 470.175781 C 551.21875 467.25 551.21875 462.5 548.296875 459.574219 Z M 450.273438 275.875 C 454.425781 275.875 457.769531 272.515625 457.769531 268.378906 L 457.769531 238.691406 C 457.769531 234.554688 454.425781 231.195312 450.273438 231.195312 C 446.136719 231.195312 442.777344 234.554688 442.777344 238.691406 L 442.777344 268.378906 C 442.777344 272.515625 446.136719 275.875 450.273438 275.875 Z M 354.101562 372.167969 C 354.101562 368.015625 350.742188 364.671875 346.605469 364.671875 L 316.8125 364.671875 C 312.675781 364.671875 309.316406 368.015625 309.316406 372.167969 C 309.316406 376.304688 312.675781 379.664062 316.8125 379.664062 L 346.605469 379.664062 C 350.742188 379.664062 354.101562 376.304688 354.101562 372.167969 Z M 583.734375 364.671875 L 554.5 364.671875 C 550.359375 364.671875 547 368.015625 547 372.167969 C 547 376.304688 550.359375 379.664062 554.5 379.664062 L 583.734375 379.664062 C 587.875 379.664062 591.230469 376.304688 591.230469 372.167969 C 591.230469 368.015625 587.875 364.671875 583.734375 364.671875 Z M 583.734375 364.671875 " fill-opacity="1" fill-rule="evenodd"/></g><path fill="#00ae8c" d="M 436.148438 393.359375 L 413.421875 393.421875 C 408.710938 399.652344 405.589844 406.144531 408.625 411.804688 C 411.996094 418.082031 416.015625 419.535156 422.074219 419.507812 L 436.148438 419.445312 Z M 436.148438 393.359375 " fill-opacity="1" fill-rule="evenodd"/><path fill="#9b4dca" d="M 406.390625 410.15625 C 402.105469 402.734375 397.820312 395.3125 393.53125 387.886719 C 391.628906 384.59375 390.90625 382.015625 391.582031 378.285156 C 392.90625 370.957031 398.359375 362.8125 401.984375 356.609375 L 396.652344 353.347656 L 422.320312 350.710938 L 431.609375 374.714844 L 423.984375 370.054688 L 408.714844 394.722656 C 406.082031 398.976562 404.324219 405.117188 406.390625 410.15625 Z M 406.390625 410.15625 " fill-opacity="1" fill-rule="evenodd"/><path fill="#00ae8c" d="M 476.125 372.117188 L 487.542969 391.765625 C 495.296875 392.730469 502.480469 392.1875 505.863281 386.726562 C 509.613281 380.671875 508.863281 376.460938 505.808594 371.226562 L 498.71875 359.070312 Z M 476.125 372.117188 " fill-opacity="1" fill-rule="evenodd"/><g clip-path="url(#a10a80e018)"><path fill="#9b4dca" d="M 505.554688 389.484375 C 501.269531 396.910156 496.980469 404.332031 492.695312 411.753906 C 490.792969 415.050781 488.921875 416.964844 485.355469 418.246094 C 478.347656 420.761719 468.566406 420.113281 461.382812 420.074219 L 461.226562 426.324219 L 446.105469 405.414062 L 462.25 385.367188 L 462.027344 394.300781 L 491.023438 395.191406 C 496.023438 395.347656 502.222656 393.796875 505.554688 389.484375 Z M 505.554688 389.484375 " fill-opacity="1" fill-rule="evenodd"/></g><path fill="#00ae8c" d="M 437.738281 348.113281 L 449.046875 328.402344 C 446.007812 321.207031 441.945312 315.257812 435.523438 315.058594 C 428.40625 314.835938 425.136719 317.589844 422.128906 322.851562 L 415.148438 335.070312 Z M 437.738281 348.113281 " fill-opacity="1" fill-rule="evenodd"/><g clip-path="url(#3945bfe676)"><path fill="#9b4dca" d="M 438.070312 313.945312 C 446.640625 313.945312 455.210938 313.945312 463.785156 313.945312 C 467.589844 313.945312 470.183594 314.605469 473.078125 317.054688 C 478.761719 321.867188 483.089844 330.664062 486.644531 336.902344 L 492.136719 333.914062 L 481.585938 357.460938 L 456.15625 353.503906 L 464 349.234375 L 450.277344 323.675781 C 447.910156 319.265625 443.46875 314.675781 438.070312 313.945312 Z M 438.070312 313.945312 " fill-opacity="1" fill-rule="evenodd"/></g></svg>