<svg xmlns="http://www.w3.org/2000/svg" xmlns:xlink="http://www.w3.org/1999/xlink" width="1200" zoomAndPan="magnify" viewBox="0 0 900 749.999995" height="1000" preserveAspectRatio="xMidYMid meet" version="1.0"><defs><clipPath id="221494897a"><path d="M 423 347 L 477 347 L 477 422.496094 L 423 422.496094 Z M 423 347 " clip-rule="nonzero"/></clipPath><clipPath id="e4fc062f02"><path d="M 403 327.246094 L 497 327.246094 L 497 409 L 403 409 Z M 403 327.246094 " clip-rule="nonzero"/></clipPath><clipPath id="afb5b665ab"><path d="M 407.640625 331.890625 L 492.390625 331.890625 L 492.390625 406 L 407.640625 406 Z M 407.640625 331.890625 " clip-rule="nonzero"/></clipPath><clipPath id="0f010af282"><path d="M 432.273438 367 L 445 367 L 445 386 L 432.273438 386 Z M 432.273438 367 " clip-rule="nonzero"/></clipPath><clipPath id="1066a3a5a9"><path d="M 457 370 L 467.523438 370 L 467.523438 381 L 457 381 Z M 457 370 " clip-rule="nonzero"/></clipPath><clipPath id="feee66d3e1"><path d="M 448 378 L 467 378 L 467 390.445312 L 448 390.445312 Z M 448 378 " clip-rule="nonzero"/></clipPath><clipPath id="fc68ff9cda"><path d="M 446 356.695312 L 463 356.695312 L 463 370 L 446 370 Z M 446 356.695312 " clip-rule="nonzero"/></clipPath></defs><rect x="-90" width="1080" fill="#ffffff" y="-74.999999" height="899.999994" fill-opacity="1"/><rect x="-90" width="1080" fill="#ffffff" y="-74.999999" height="899.999994" fill-opacity="1"/><g clip-path="url(#221494897a)"><path fill="#9b4dca" d="M 467 353.300781 C 460.78125 348.179688 452.609375 346.164062 444.554688 347.699219 C 433.828125 349.789062 425.351562 358.449219 423.476562 369.25 C 421.992188 377.8125 424.53125 386.300781 430.457031 392.523438 C 432.992188 395.1875 434.382812 398.449219 434.382812 401.703125 L 434.382812 403.140625 C 434.382812 404.519531 435.5 405.632812 436.875 405.632812 L 462.96875 405.632812 C 464.351562 405.632812 465.464844 404.519531 465.464844 403.140625 L 465.464844 401.703125 C 465.464844 398.445312 466.855469 395.1875 469.382812 392.535156 C 474.15625 387.53125 476.785156 380.957031 476.785156 374.042969 C 476.785156 365.992188 473.21875 358.433594 467 353.300781 M 459.1875 417.828125 L 440.664062 417.828125 C 439.28125 417.828125 438.167969 418.941406 438.167969 420.324219 C 438.167969 421.699219 439.28125 422.816406 440.664062 422.816406 L 459.1875 422.816406 C 460.566406 422.816406 461.683594 421.699219 461.683594 420.324219 C 461.683594 418.941406 460.566406 417.828125 459.1875 417.828125 M 461.828125 409.527344 L 438.023438 409.527344 C 436.648438 409.527344 435.53125 410.640625 435.53125 412.023438 C 435.53125 413.398438 436.648438 414.515625 438.023438 414.515625 L 461.828125 414.515625 C 463.203125 414.515625 464.320312 413.398438 464.320312 412.023438 C 464.320312 410.640625 463.203125 409.527344 461.828125 409.527344 " fill-opacity="1" fill-rule="evenodd"/></g><g clip-path="url(#e4fc062f02)"><path fill="#9b4dca" d="M 475.191406 351.453125 C 475.832031 351.453125 476.46875 351.207031 476.957031 350.722656 L 483.945312 343.730469 C 484.917969 342.757812 484.917969 341.175781 483.945312 340.203125 C 482.972656 339.230469 481.394531 339.230469 480.421875 340.203125 L 473.425781 347.191406 C 472.453125 348.167969 472.453125 349.746094 473.425781 350.722656 C 473.914062 351.207031 474.554688 351.453125 475.191406 351.453125 Z M 423.046875 397.570312 L 416.070312 404.554688 C 415.097656 405.527344 415.097656 407.109375 416.070312 408.082031 C 416.558594 408.570312 417.191406 408.816406 417.828125 408.816406 C 418.46875 408.816406 419.105469 408.570312 419.59375 408.082031 L 426.574219 401.097656 C 427.550781 400.121094 427.550781 398.542969 426.574219 397.570312 C 425.601562 396.59375 424.023438 396.59375 423.046875 397.570312 Z M 423.050781 350.722656 C 423.539062 351.207031 424.179688 351.453125 424.816406 351.453125 C 425.457031 351.453125 426.09375 351.207031 426.578125 350.722656 C 427.554688 349.746094 427.554688 348.167969 426.578125 347.191406 L 419.59375 340.203125 C 418.621094 339.230469 417.042969 339.230469 416.070312 340.203125 C 415.097656 341.175781 415.097656 342.757812 416.070312 343.730469 Z M 475.632812 396.246094 C 474.660156 395.269531 473.082031 395.269531 472.105469 396.246094 C 471.132812 397.21875 471.132812 398.796875 472.105469 399.773438 L 479.089844 406.75 C 479.578125 407.242188 480.210938 407.484375 480.851562 407.484375 C 481.488281 407.484375 482.128906 407.242188 482.617188 406.75 C 483.589844 405.777344 483.589844 404.199219 482.617188 403.226562 Z M 450.003906 342.109375 C 451.386719 342.109375 452.5 340.992188 452.5 339.613281 L 452.5 329.738281 C 452.5 328.363281 451.386719 327.246094 450.003906 327.246094 C 448.628906 327.246094 447.511719 328.363281 447.511719 329.738281 L 447.511719 339.613281 C 447.511719 340.992188 448.628906 342.109375 450.003906 342.109375 Z M 418.007812 374.144531 C 418.007812 372.761719 416.890625 371.652344 415.515625 371.652344 L 405.601562 371.652344 C 404.226562 371.652344 403.109375 372.761719 403.109375 374.144531 C 403.109375 375.523438 404.226562 376.640625 405.601562 376.640625 L 415.515625 376.640625 C 416.890625 376.640625 418.007812 375.523438 418.007812 374.144531 Z M 494.40625 371.652344 L 484.679688 371.652344 C 483.304688 371.652344 482.1875 372.761719 482.1875 374.144531 C 482.1875 375.523438 483.304688 376.640625 484.679688 376.640625 L 494.40625 376.640625 C 495.785156 376.640625 496.902344 375.523438 496.902344 374.144531 C 496.902344 372.761719 495.785156 371.652344 494.40625 371.652344 Z M 494.40625 371.652344 " fill-opacity="1" fill-rule="evenodd"/></g><path fill="#00ae8c" d="M 465.390625 355.367188 C 459.785156 350.753906 452.425781 348.9375 445.167969 350.320312 C 435.503906 352.203125 427.867188 360.007812 426.179688 369.738281 C 424.839844 377.453125 427.125 385.097656 432.464844 390.707031 C 434.75 393.105469 436.003906 396.046875 436.003906 398.976562 L 436.003906 400.269531 C 436.003906 401.515625 437.007812 402.519531 438.25 402.519531 L 461.757812 402.519531 C 463.003906 402.519531 464.007812 401.515625 464.007812 400.269531 L 464.007812 398.976562 C 464.007812 396.042969 465.261719 393.105469 467.539062 390.714844 C 471.839844 386.207031 474.207031 380.285156 474.207031 374.054688 C 474.207031 366.800781 470.996094 359.992188 465.390625 355.367188 M 458.351562 413.507812 L 441.660156 413.507812 C 440.417969 413.507812 439.414062 414.507812 439.414062 415.753906 C 439.414062 416.996094 440.417969 418 441.660156 418 L 458.351562 418 C 459.59375 418 460.601562 416.996094 460.601562 415.753906 C 460.601562 414.507812 459.59375 413.507812 458.351562 413.507812 M 460.730469 406.027344 L 439.285156 406.027344 C 438.042969 406.027344 437.035156 407.03125 437.035156 408.273438 C 437.035156 409.515625 438.042969 410.523438 439.285156 410.523438 L 460.730469 410.523438 C 461.972656 410.523438 462.976562 409.515625 462.976562 408.273438 C 462.976562 407.03125 461.972656 406.027344 460.730469 406.027344 " fill-opacity="1" fill-rule="evenodd"/><g clip-path="url(#afb5b665ab)"><path fill="#00ae8c" d="M 472.773438 353.703125 C 473.347656 353.703125 473.921875 353.480469 474.363281 353.046875 L 480.660156 346.746094 C 481.535156 345.867188 481.535156 344.445312 480.660156 343.566406 C 479.78125 342.691406 478.359375 342.691406 477.480469 343.566406 L 471.179688 349.863281 C 470.304688 350.746094 470.304688 352.164062 471.179688 353.046875 C 471.621094 353.480469 472.195312 353.703125 472.773438 353.703125 Z M 425.789062 395.253906 L 419.503906 401.546875 C 418.625 402.421875 418.625 403.847656 419.503906 404.722656 C 419.941406 405.164062 420.515625 405.382812 421.089844 405.382812 C 421.664062 405.382812 422.238281 405.164062 422.679688 404.722656 L 428.96875 398.433594 C 429.847656 397.550781 429.847656 396.132812 428.96875 395.253906 C 428.089844 394.375 426.671875 394.375 425.789062 395.253906 Z M 425.792969 353.046875 C 426.234375 353.480469 426.808594 353.703125 427.386719 353.703125 C 427.960938 353.703125 428.535156 353.480469 428.972656 353.046875 C 429.851562 352.164062 429.851562 350.746094 428.972656 349.863281 L 422.679688 343.566406 C 421.804688 342.691406 420.378906 342.691406 419.503906 343.566406 C 418.625 344.445312 418.625 345.867188 419.503906 346.746094 Z M 473.167969 394.058594 C 472.292969 393.179688 470.871094 393.179688 469.992188 394.058594 C 469.113281 394.9375 469.113281 396.355469 469.992188 397.238281 L 476.285156 403.527344 C 476.722656 403.964844 477.292969 404.1875 477.871094 404.1875 C 478.445312 404.1875 479.019531 403.964844 479.460938 403.527344 C 480.335938 402.648438 480.335938 401.222656 479.460938 400.347656 Z M 450.078125 345.285156 C 451.324219 345.285156 452.324219 344.277344 452.324219 343.035156 L 452.324219 334.136719 C 452.324219 332.898438 451.324219 331.890625 450.078125 331.890625 C 448.839844 331.890625 447.832031 332.898438 447.832031 334.136719 L 447.832031 343.035156 C 447.832031 344.277344 448.839844 345.285156 450.078125 345.285156 Z M 421.25 374.148438 C 421.25 372.902344 420.246094 371.902344 419.003906 371.902344 L 410.074219 371.902344 C 408.832031 371.902344 407.828125 372.902344 407.828125 374.148438 C 407.828125 375.386719 408.832031 376.394531 410.074219 376.394531 L 419.003906 376.394531 C 420.246094 376.394531 421.25 375.386719 421.25 374.148438 Z M 490.085938 371.902344 L 481.320312 371.902344 C 480.078125 371.902344 479.074219 372.902344 479.074219 374.148438 C 479.074219 375.386719 480.078125 376.394531 481.320312 376.394531 L 490.085938 376.394531 C 491.324219 376.394531 492.332031 375.386719 492.332031 374.148438 C 492.332031 372.902344 491.324219 371.902344 490.085938 371.902344 Z M 490.085938 371.902344 " fill-opacity="1" fill-rule="evenodd"/></g><path fill="#00ae8c" d="M 445.847656 380.496094 L 439.035156 380.515625 C 437.625 382.382812 436.6875 384.328125 437.597656 386.023438 C 438.609375 387.90625 439.8125 388.339844 441.628906 388.332031 L 445.847656 388.3125 Z M 445.847656 380.496094 " fill-opacity="1" fill-rule="evenodd"/><g clip-path="url(#0f010af282)"><path fill="#9b4dca" d="M 436.929688 385.53125 C 435.644531 383.304688 434.359375 381.082031 433.078125 378.855469 C 432.507812 377.871094 432.289062 377.097656 432.492188 375.980469 C 432.890625 373.78125 434.523438 371.34375 435.609375 369.484375 L 434.011719 368.507812 L 441.703125 367.714844 L 444.488281 374.910156 L 442.203125 373.511719 L 437.625 380.90625 C 436.835938 382.179688 436.308594 384.019531 436.929688 385.53125 Z M 436.929688 385.53125 " fill-opacity="1" fill-rule="evenodd"/></g><g clip-path="url(#1066a3a5a9)"><path fill="#00ae8c" d="M 457.828125 374.128906 L 461.25 380.019531 C 463.574219 380.308594 465.726562 380.144531 466.738281 378.507812 C 467.863281 376.695312 467.640625 375.433594 466.722656 373.863281 L 464.597656 370.222656 Z M 457.828125 374.128906 " fill-opacity="1" fill-rule="evenodd"/></g><g clip-path="url(#feee66d3e1)"><path fill="#9b4dca" d="M 466.648438 379.335938 C 465.363281 381.558594 464.078125 383.785156 462.792969 386.007812 C 462.222656 386.996094 461.664062 387.570312 460.59375 387.953125 C 458.492188 388.710938 455.5625 388.515625 453.410156 388.503906 L 453.363281 390.375 L 448.832031 384.109375 L 453.667969 378.101562 L 453.601562 380.777344 L 462.292969 381.046875 C 463.792969 381.09375 465.648438 380.628906 466.648438 379.335938 Z M 466.648438 379.335938 " fill-opacity="1" fill-rule="evenodd"/></g><path fill="#00ae8c" d="M 446.324219 366.9375 L 449.714844 361.03125 C 448.800781 358.875 447.585938 357.089844 445.660156 357.03125 C 443.527344 356.964844 442.546875 357.789062 441.644531 359.367188 L 439.554688 363.027344 Z M 446.324219 366.9375 " fill-opacity="1" fill-rule="evenodd"/><g clip-path="url(#fc68ff9cda)"><path fill="#9b4dca" d="M 446.421875 356.695312 C 448.992188 356.695312 451.5625 356.695312 454.128906 356.695312 C 455.269531 356.695312 456.046875 356.894531 456.914062 357.628906 C 458.617188 359.070312 459.914062 361.707031 460.980469 363.578125 L 462.625 362.679688 L 459.464844 369.738281 L 451.84375 368.554688 L 454.195312 367.273438 L 450.082031 359.613281 C 449.371094 358.292969 448.042969 356.914062 446.421875 356.695312 Z M 446.421875 356.695312 " fill-opacity="1" fill-rule="evenodd"/></g></svg>